<?xml version="1.0" standalone="yes"?>
<svg width="540" height="540">
<path style="fill:#fefefe; stroke:none;" d="M0 0L0 519L5 519L5 539L25 539L25 519L45 519L45 539L65 539L65 519L85 519L85 539L105 539L105 519L125 519L125 539L145 539L145 519L165 519L165 539L185 539L185 519L205 519L205 539L225 539L225 519L245 519L245 539L265 539L265 519L285 519L285 539L305 539L305 519L325 519L325 539L345 539L345 519L365 519L365 539L385 539L385 519L405 519L405 539L425 539L425 519L445 519L445 539L465 539L465 519L485 519L485 539L540 540L540 519L525 519L525 499L540 499L540 479L525 479L525 459L540 459L540 439L525 439L525 419L540 419L540 399L525 399L525 379L540 379L540 359L525 359L525 339L540 339L540 319L525 319L525 299L540 299L540 279L525 279L525 259L540 259L540 239L525 239L525 219L540 219L540 199L525 199L525 179L540 179L540 159L525 159L525 139L540 139L540 119L525 119L525 99L540 99L540 79L525 79L525 59L540 59L540 39L525 39L525 19L540 19L540 0L525 0L525 19L505 19L505 0L485 0L485 19L465 19L465 0L445 0L445 19L425 19L425 0L405 0L405 19L385 19L385 0L365 0L365 19L345 19L345 0L325 0L325 19L305 19L305 0L285 0L285 19L265 19L265 0L245 0L245 19L225 19L225 0L205 0L205 19L185 19L185 0L165 0L165 19L145 19L145 0L125 0L125 19L105 19L105 0L85 0L85 19L65 19L65 0L45 0L45 19L25 19L25 0L0 0z"/>
<path style="fill:#ededed; stroke:none;" d="M25 0L25 19L45 19L45 0L25 0M65 0L65 19L85 19L85 0L65 0M105 0L105 19L125 19L125 0L105 0M145 0L145 19L165 19L165 0L145 0M185 0L185 19L205 19L205 0L185 0M225 0L225 19L245 19L245 0L225 0M265 0L265 19L285 19L285 0L265 0M305 0L305 19L325 19L325 0L305 0M345 0L345 19L365 19L365 0L345 0M385 0L385 19L405 19L405 0L385 0M425 0L425 19L445 19L445 0L425 0M465 0L465 19L485 19L485 0L465 0M505 0L505 19L525 19L525 0L505 0M5 19L5 39L25 39L25 59L5 59L5 79L25 79L25 99L5 99L5 119L25 119L25 124L67 113L67 112L65 99L85 99L85 79L105 79L105 93L146 71L145 59L165 59L163 63L163 64C175.23 61.1259 188.428 57.3648 201 61.3842C206.405 63.1124 210.812 66.847 216 69L224 59L205 59L205 39L225 39L225 58C232.357 53.4182 244.889 48.3017 245 39C260.286 39 278.309 39.0155 293 43.5733C305.008 47.2988 311.806 55.9587 325 57L325 39L345 39L345 19L325 19L325 39L305 39L305 19L285 19L285 39L265 39L265 19L245 19L245 39L225 39L225 19L205 19L205 39L185 39L185 19L165 19L165 39L145 39L145 19L125 19L125 39L105 39L105 19L85 19L85 39L65 39L65 19L45 19L45 39L25 39L25 19L5 19M365 19L365 39L385 39L385 19L365 19M405 19L405 39L425 39L425 59L445 59L442 67L442 68C464.999 73.6582 485.26 97.3274 490 120L505 119L505 139L485 139L485 119L467 119L490 159L505 159L505 179L498 178L507 222L508 222L508 219L525 219L525 199L505 199L505 179L525 179L525 159L505 159L505 139L525 139L525 119L505 119L505 99L525 99L525 79L505 79L505 59L525 59L525 39L505 39L505 19L485 19L485 39L465 39L465 19L445 19L445 39L425 39L425 19L405 19M525 19L525 39L540 39L540 19L525 19z"/>
<path style="fill:#fefefe; stroke:none;" d="M45 39L45 59L25 59L25 79L45 79L45 99L25 99L25 119L45 119L45 99L65 99L65 79L85 79L85 59L105 59L105 79L125 79L125 59L145 59L145 39L125 39L125 59L105 59L105 39L85 39L85 59L65 59L65 39L45 39M165 39L165 59L185 59L185 39L165 39M205 39L205 59L225 59L225 39L205 39z"/>
<path style="fill:#fffdfe; stroke:none;" d="M245 39L245 45L265 41L265 39L245 39z"/>
<path style="fill:#fefefe; stroke:none;" d="M325 39L325 57L345 59L345 39L325 39z"/>
<path style="fill:#efedee; stroke:none;" d="M345 39L346.028 58.3974L362 62.0934L384 67.8665L425 63L425 59L405 59L405 39L385 39L385 59L365 59L365 39L345 39z"/>
<path style="fill:#fefefe; stroke:none;" d="M365 39L365 59L385 59L385 39L365 39M405 39L405 59L425 59L425 39L405 39M445 39L445 59L465 59L465 79L485 79L485 99L505 99L505 79L485 79L485 59L505 59L505 39L485 39L485 59L465 59L465 39L445 39z"/>
<path style="fill:#b19b9e; stroke:none;" d="M255 42L255 43L272 42L255 42z"/>
<path style="fill:#8f7171; stroke:none;" d="M216 69C173.547 43.3549 132.621 80.3032 95.8302 99.1196C72.8819 110.856 49.3433 119.225 24 124C25.9486 132.292 32.902 140.322 36.8218 148C44.8997 163.822 53.2333 184.007 52.9961 202C52.8438 213.56 43.1143 224.078 39.5193 235C32.2524 257.078 28.5812 284.835 31.1744 308C33.1157 325.342 50.0699 329.918 55.8519 344.039C59.3494 352.581 58.1707 365.737 59.1659 375C60.5835 388.194 64.962 400.847 66 414L68 414C68 378.585 56.4799 343.613 58.0394 308C59.8874 265.795 73.9808 229.966 85 190L86 190L86 204L87 204C87 198.603 86.0796 192.239 87.4985 187C89.2008 180.714 94.0671 175.274 97.6559 170C106.044 157.674 115.724 142.72 128 134L129 140L130 140C130.015 120.547 160.527 106.521 175 97.0031C211.392 73.0696 261.73 61.1445 305 63.0394C328.132 64.0524 350.221 70.1872 373 72L373 73C361.718 77.7219 346.55 88.2563 342 100L338 99L347 115L349 115C348.776 110.696 344.088 104.728 345.191 101.004C347.19 94.26 360.122 89.2691 366 86.7423C395.132 74.2199 422.449 84.7488 444.83 105.59C491.737 149.27 504.169 208.483 504 270L503 270L491 206L490 206C490 237.172 486.135 267.745 474.935 297C472.161 304.246 466.963 309.99 464 317L463 317C463.687 309.425 469.452 305.516 472.189 298.83C476.794 287.585 475.896 272.548 472.956 261C470.668 252.015 462.568 251.287 457.589 244.79C453.098 238.931 451.509 226.219 450 219L484 228C476.217 216.489 455.661 220.172 447.843 210.683C443.729 205.688 441.593 197 439.341 191C434.398 177.827 424.422 157.431 413 149C414.755 155.765 420.13 161.901 423.576 168C430.483 180.227 439.177 197 441 211C428.825 210.477 417.28 208.224 405 209.09C399.765 209.458 392.031 212.968 387.004 211.517C381.748 210 377.703 202.181 374.71 198C364.421 183.627 358.855 174.489 359 157C349.581 163.673 349.017 188.394 349 199C348.971 217.053 348.337 235.276 352.428 253C357.105 273.258 365.941 290.205 374 309C356.813 308.858 343.582 297.582 332 286C305.952 259.952 288.968 226.542 296.666 189C301.447 165.682 314.916 143.448 315 119L313 119C310.8 145.938 295.786 175.913 282.573 199C276.174 210.18 273.37 220.991 259 221L265 208C260.054 210.705 256.289 216.562 255 222L235 221L208 230L220.312 185L238 158C230.39 160.587 226.778 167.373 222.859 173.91C216.715 184.158 212.704 196.489 209.388 208.039C207.382 215.027 206.789 223.621 202.84 229.882C197.869 237.762 185.775 237.604 181 246L203 239C201.293 248.026 199.479 256.949 198.222 266C197.633 270.244 198.837 275.009 196.889 279C191.043 290.977 175.918 296.617 175.028 312C174.113 327.805 191.424 330.12 195.667 342.028C199.191 351.92 196.417 367.443 197.028 378C198.087 396.301 201.959 414.01 203.917 432C205.814 449.441 209.701 466.601 211.917 484C212.517 488.718 212.628 499.855 218 501L215 486C220.607 491.561 227.71 500.419 236 501L236 500C228.646 495.4 218.162 487.892 214.178 480C210.924 473.553 211.319 464.077 210 457C229.374 457.214 249.869 465.71 268.004 471.655C280.18 475.647 293.183 478.278 304.91 483.514C319.05 489.827 338.464 500.161 354 501L354 500L338 490C350.565 490 362.817 488.913 375 485.751C380.782 484.25 389.94 479.045 395.895 480.118C401.893 481.198 407.597 495.71 407 501L412 501L409 491L422 501L404 476C419.041 473.605 435.142 461.742 448 454L448 483L449 483L450 480L451 480L452 490L453 490L451.604 453.184L473 434L470.561 474.985L462 501C468.216 498.891 470.737 488.909 472 483L473 483L471 501C476.652 499.347 475.869 489.941 476.588 485C479.136 467.482 473.65 448.902 476.278 432C477.243 425.792 484.687 419.546 487.713 414C495.003 400.636 498.94 387.335 497.94 372C497.087 358.923 493.38 341.473 486.648 330.134C483.601 325.002 474.085 316.011 474.208 310C474.375 301.848 482.826 291.749 485.509 283.995C490.625 269.211 492 252.56 492 237L493 237C493.594 244.199 497.101 250.717 497.829 258C501.024 289.949 500.636 321.956 502.039 354C503.495 387.25 505.184 422.26 497.785 454.996C493.955 471.944 482.779 485.125 477 501C486.208 496.295 492.068 481.28 495.529 472C506.389 442.885 508 411.839 508 381C508 349.23 502.55 317.683 502.414 286.039C502.394 281.236 505.104 275.835 505.919 271C507.801 259.829 508.457 248.326 507.961 237C505.318 176.666 479.277 110.212 421 83L421 82C441.454 82.5915 457.783 98.3304 476 105C471.218 96.2603 455.994 89.911 447 86.3796C416.76 74.5067 388.042 74.5125 358 87C365.392 78.9919 376.732 74.614 386.961 71.615C431.931 58.43 471.658 80.9514 490 123C491.832 116.809 486.641 107.261 483.491 102C473.067 84.5917 459.072 73.7578 440 67.0926C428.661 63.1301 413.98 62.6908 402.09 64.1288C395.68 64.9041 389.707 68.4294 383 67.6358C371.88 66.3201 361.063 61.8017 350 60.0146C339.024 58.2418 326.803 59.4326 316.09 56.686C307.697 54.5344 300.667 45.8532 291.83 43.0895C267.064 35.3437 228.577 44.7562 216 69z"/>
<path style="fill:#bcaaaa; stroke:none;" d="M294.667 44.3333L295.333 44.6667L294.667 44.3333z"/>
<path style="fill:#cbbbbc; stroke:none;" d="M297.667 45.3333L298.333 45.6667L297.667 45.3333z"/>
<path style="fill:#433937; stroke:none;" d="M233 63L297 55C292.672 51.7209 283.45 51.0109 278 51C263.545 50.9711 243.125 50.7501 233 63z"/>
<path style="fill:#685352; stroke:none;" d="M296 53L275 55L275 56L299 56L296 53z"/>
<path style="fill:#a69293; stroke:none;" d="M313 56L313 57L321 57L313 56z"/>
<path style="fill:#ad999a; stroke:none;" d="M325 57L325 58L334 58L325 57z"/>
<path style="fill:#bba8aa; stroke:none;" d="M335 58L335 59L341 59L335 58z"/>
<path style="fill:#ededed; stroke:none;" d="M45 59L45 79L65 79L65 59L45 59z"/>
<path style="fill:#fefefe; stroke:none;" d="M145 59L145 70C151.52 69.0233 163.747 66.3887 165 59L145 59M425 59L425 64L445 67L445 59L425 59z"/>
<path style="fill:#ededed; stroke:none;" d="M525 59L525 79L540 79L540 59L525 59z"/>
<path style="fill:#c4b1b3; stroke:none;" d="M175 60L175 61L182 61L175 60z"/>
<path style="fill:#d9c9ca; stroke:none;" d="M355 61L355 62L364 63L355 61z"/>
<path style="fill:#bfadad; stroke:none;" d="M166 62L166 63L170 63L166 62z"/>
<path style="fill:#d6bbb4; stroke:none;" d="M287 63L287 64L310 64L287 63z"/>
<path style="fill:#ae989a; stroke:none;" d="M406 63L406 64L425 64L406 63z"/>
<path style="fill:#d4b9b2; stroke:none;" d="M271 64L271 65L286 65L271 64z"/>
<path style="fill:#feeddd; stroke:none;" d="M139 131C152.586 118.313 164.793 106.429 184 104L157.985 125.518L142 139L155 162L157 162C162.054 149.698 171.232 129.663 184 124C125.472 198.778 143.118 296.252 146.961 384C148.006 407.863 148.542 433.173 146.91 457C145.97 470.73 142.587 484.331 142 498L143 498C155.655 453.404 160 404.277 160 358L161 358C167.578 385.627 157.528 415.362 159.093 443C159.634 452.542 163.503 461.23 167 470C170.598 479.023 176.126 499.307 187 501C184.971 484.963 184.446 466.556 180.391 451C175.73 433.118 168.002 418.086 168 399L169 399C169.217 425.238 182.781 452.275 194.781 475C199.117 483.212 205.639 495.523 214 500C213.759 470.945 203 441.129 200.17 412C198.422 394.009 197.878 375.955 196.17 358C195.684 352.894 197.024 347.051 195.682 342.09C192.946 331.976 174.436 326.977 174.318 314.961C174.164 299.288 190.453 291.833 196.682 279.91C201.912 269.9 199.853 251.394 202 240L172 252C177.974 246.153 184.792 241.508 192 237.289C195.385 235.307 200.605 234.156 202.836 230.725C217.298 208.487 209.977 172.539 238 158C220.119 178.691 213.476 203.457 208 230L235 221C237.407 223.74 240.633 222.557 244 222.155C255.847 220.742 256.543 214.985 265 208L259 221C273.396 220.998 279.241 206.809 285.244 195C295.125 175.561 302.858 155.637 309.715 135C312.505 126.601 312.145 113.725 318 107C315.944 132.839 304.164 156.309 298.529 181C289.46 220.731 301.509 256.463 330 285C342.109 297.128 356.03 308.95 374 309C368.709 294.182 359.644 280.348 354.924 265C341.839 222.457 349.628 182.764 363 142L364 142C361.773 151.714 357.204 162.882 359.39 173C361.285 181.769 368.21 189.873 373.291 197C376.525 201.536 380.605 209.693 386.015 211.843C392.13 214.275 405.891 209.001 413 209C408.026 189.668 387.485 176.018 376 161C386.83 168.629 396.214 180.199 403.792 191C407.353 196.076 410.998 204.648 416.376 207.972C421.484 211.131 433.899 209.518 440 210C437.58 182.288 418.176 156.977 400 138C418.994 147.461 430.62 172.519 438.944 190.985C441.55 196.765 443.501 206.903 447.843 211.4C450.706 214.365 458.116 215.239 462 216.503C469.246 218.861 478.534 222.649 484 228L451 220L456 245C475.617 253.958 479.054 277.926 472.532 296.961C469.945 304.514 463.395 308.509 463 317L464 317C476.604 296.756 480.548 278.039 485.285 255C488.562 239.066 492.011 221.219 489 205C492.06 208.888 492.212 214.354 493.796 219C499.229 234.946 502.989 253.101 503 270L504 270C504 208.649 492.097 146.552 443.91 103.924C420.403 83.1278 395.121 76.5504 366 87.8657C359.549 90.3722 346.462 93.0476 344.342 101.004C343.299 104.919 348.549 110.624 349 115L347 115L338 99L342 100C348.895 88.0717 361.413 79.8346 373 73C361.162 66.6953 342.198 67.1074 329 65.8302C279.722 61.0616 234.072 68.5491 189.001 88.8611C174.544 95.3763 160.557 105.218 148 114.887C142.137 119.402 135.739 123.05 139 131z"/>
<path style="fill:#d7bcb5; stroke:none;" d="M313 64L313 65L326 65L313 64z"/>
<path style="fill:#c0a39d; stroke:none;" d="M264 65L264 66L271 66L264 65z"/>
<path style="fill:#d3b8af; stroke:none;" d="M326 65L326 66L336 66L326 65z"/>
<path style="fill:#b7a3a4; stroke:none;" d="M391 66L391 67L399 66L391 66z"/>
<path style="fill:#cfbdbd; stroke:none;" d="M432 65L432 66L436 66L432 65z"/>
<path style="fill:#c6a9a3; stroke:none;" d="M258 66L258 67L264 67L258 66z"/>
<path style="fill:#ceb5ae; stroke:none;" d="M337 66L337 67L351 68L337 66z"/>
<path style="fill:#bca09c; stroke:none;" d="M252 67L252 68L257 68L252 67z"/>
<path style="fill:#bfa49d; stroke:none;" d="M402 67L402 68L420 68L402 67z"/>
<path style="fill:#bba9a9; stroke:none;" d="M440.667 67.3333L441.333 67.6667L440.667 67.3333z"/>
<path style="fill:#c0a59e; stroke:none;" d="M351 68L351 69L357 69L351 68z"/>
<path style="fill:#feeddd; stroke:none;" d="M358 87C367.081 84.385 375.58 78.762 385 77.304C422.853 71.4454 452.874 89.0921 483 109C480.667 99.1816 470.776 90.494 463 84.6651C440.432 67.7482 408.114 62.2352 381.715 73.446C373.662 76.8655 362.928 78.9359 358 87z"/>
<path style="fill:#c4aba4; stroke:none;" d="M421 68L421 69L427 69L421 68z"/>
<path style="fill:#bca8a9; stroke:none;" d="M443 68L443 69L446 69L443 68z"/>
<path style="fill:#c4a9a2; stroke:none;" d="M391 69L391 70L397 70L391 69z"/>
<path style="fill:#c6a9a3; stroke:none;" d="M427 69L427 70L432 70L427 69z"/>
<path style="fill:#6a5554; stroke:none;" d="M175 72L175 73L195 72L175 72z"/>
<path style="fill:#3e3b36; stroke:none;" d="M28 126L43.1273 151L56 196L57 196C64.2934 184.978 71.7891 174.043 82 165.439C87.4211 160.871 95.5501 158.649 100.251 153.722C131.034 121.457 159.211 90.5961 202 74C188.919 65.0634 163.676 75.9651 150.83 80.6235C110.113 95.3892 72.9186 126 28 126z"/>
<path style="fill:#cbb0a9; stroke:none;" d="M380 73L380 74L383 74L380 73z"/>
<path style="fill:#c2a5a1; stroke:none;" d="M377 74L377 75L380 75L377 74z"/>
<path style="fill:#c8ada6; stroke:none;" d="M445.667 74.3333L446.333 74.6667L445.667 74.3333z"/>
<path style="fill:#c8ada4; stroke:none;" d="M394 76L394 77L408 77L394 76z"/>
<path style="fill:#d9beb7; stroke:none;" d="M379 78L379 79L394 78L379 78z"/>
<path style="fill:#b29692; stroke:none;" d="M452 77L455 79L452 77z"/>
<path style="fill:#bfa49d; stroke:none;" d="M418 78L418 79L423 79L418 78z"/>
<path style="fill:#fefefe; stroke:none;" d="M85 79L85 99L65 99L65 112C75.1011 111.476 85.1199 104.207 94 99.7531C97.2012 98.1476 101.936 96.6091 103.972 93.4707C106.294 89.8923 105 83.1068 105 79L85 79z"/>
<path style="fill:#ba9f98; stroke:none;" d="M455 79L458 81L455 79z"/>
<path style="fill:#b1948e; stroke:none;" d="M373 80L373 81L378 81L373 80z"/>
<path style="fill:#c0a59e; stroke:none;" d="M388 81L388 82L407 83C402.187 78.8142 393.855 79.2693 388 81z"/>
<path style="fill:#d7c3c4; stroke:none;" d="M421 82L421 83L428 83L421 82z"/>
<path style="fill:#ededed; stroke:none;" d="M423 83L445.999 100.235L465 117L466 99C453.491 91.6987 437.764 83.3064 423 83z"/>
<path style="fill:#d7bcb3; stroke:none;" d="M360 89L360 90L377 85C371.472 82.8432 365 86.6339 360 89z"/>
<path style="fill:#d2c2c3; stroke:none;" d="M433 90L436 92L433 90z"/>
<path style="fill:#c9aea7; stroke:none;" d="M177 95L177 96L182 94L177 95z"/>
<path style="fill:#b89b95; stroke:none;" d="M429 93L432 95L429 93z"/>
<path style="fill:#d9c0b9; stroke:none;" d="M466 96L469 98L466 96z"/>
<path style="fill:#b09c9d; stroke:none;" d="M94 99L94 100L98 99L94 99z"/>
<path style="fill:#bcaaaa; stroke:none;" d="M481.333 98.6667L481.667 99.3333L481.333 98.6667z"/>
<path style="fill:#fffefa; stroke:none;" d="M416 99L434 111L425 108L443 125C440.465 123.815 425.125 113.034 423.907 119.322C423.078 123.597 430.458 130.793 432 135L416 125C416.573 130.15 422.888 143.511 428 145L428 139L436 142C437.987 134.487 437.242 131.529 433 125C440.846 130.576 448.814 138.674 459 137L468 157C471.156 149.478 466.94 139.254 462.56 133C452.228 118.248 434.468 101.727 416 99z"/>
<path style="fill:#ededed; stroke:none;" d="M525 99L525 119L540 119L540 99L525 99z"/>
<path style="fill:#fefefe; stroke:none;" d="M465 100L466.028 117.397L485 119L485 139L505 139L505 119L491 119L492 126C486.191 115.107 477.964 102.975 465 100M142 139C147.558 137.323 151.778 131.939 155.999 128.09C164.467 120.369 178.943 114.535 184 104C168.166 105.25 135.821 119.5 142 139z"/>
<path style="fill:#a99596; stroke:none;" d="M475 105L485 114L484 108L475 105z"/>
<path style="fill:#cbb8ba; stroke:none;" d="M82.6667 105.333L83.3333 105.667L82.6667 105.333z"/>
<path style="fill:#d8c5b7; stroke:none;" d="M316 107L315 122L316 122L318 107L316 107z"/>
<path style="fill:#c7bebf; stroke:none;" d="M491 121L491 126L492 126L491 121z"/>
<path style="fill:#a7948e; stroke:none;" d="M136 124L134 126L134 127L141.159 142L155 166L156 166L157 162C145.602 151.849 143.819 136.213 136 124z"/>
<path style="fill:#c8b2a5; stroke:none;" d="M181 124L181 125L184 126L181 124z"/>
<path style="fill:#916f70; stroke:none;" d="M133 501L134 501L135 420C142.128 425.875 141 432.444 141 441C141 453.739 140.595 466.318 140.039 479C139.768 485.205 137.764 498.606 145 501L156 452L157 452C158.486 470.188 169.99 484.619 176 501L182 501L158.26 445L160 406L159 406C157.427 436.71 149.225 467.921 143 498L142 498C145.568 452.791 148.021 407.42 144.91 362C141.08 306.059 133.964 247.067 149.691 192.039C154.159 176.403 160.251 160.106 168.424 146C172.705 138.611 178.966 132.37 183 125C172.726 128.502 165.983 142.73 161.654 152C150.702 175.447 142.892 199.213 139.715 225C136.454 251.468 136.061 277.309 135.553 304C135.419 311.078 138.127 317.712 136.517 324.996C135.24 330.773 129.555 334.295 126.289 338.985C119.365 348.931 114.314 359.611 114.015 372C113.772 382.042 116.235 391.269 121.154 400C124.146 405.311 129.697 410.935 130.772 417C132.451 426.466 131 437.389 131 447C131 465.213 131.571 482.895 133 501z"/>
<path style="fill:#fffbf9; stroke:none;" d="M134 150L136 150C141.165 141.291 138.93 136.143 136 127C126.51 131.153 130.742 142.428 134 150z"/>
<path style="fill:#d4bcb2; stroke:none;" d="M313 128L313 132L314 132L313 128z"/>
<path style="fill:#fffefa; stroke:none;" d="M169 185L171 185C172.658 164.696 188.963 146.023 200 130C178.873 133.652 169.783 166.771 169 185z"/>
<path style="fill:#d3bab3; stroke:none;" d="M468 130L470 133L468 130z"/>
<path style="fill:#feeddd; stroke:none;" d="M102 192L103 192C103.311 178.729 113.484 164.906 120.32 154.015C124.734 146.983 129.613 142.859 128 134C117.172 139.092 110.533 152.613 103.946 161.985C101.685 165.202 97.7923 167.874 97.3179 172.015C96.5537 178.685 100.502 185.677 102 192z"/>
<path style="fill:#a78f85; stroke:none;" d="M130 138C127.522 154.42 142.792 166.679 147.063 181C148.486 185.769 145.217 192.019 145 197L146 197L151 178L148 179L130 138z"/>
<path style="fill:#af978d; stroke:none;" d="M400 138L413 150L414 149L400 138z"/>
<path style="fill:#ededed; stroke:none;" d="M5 139L5 159L25 159L25 139L5 139M525 139L525 159L540 159L540 139L525 139z"/>
<path style="fill:#fffefa; stroke:none;" d="M296 140L258 197C263.744 195.841 267.614 191.588 272 187.92C283.415 178.374 301.989 156.698 296 140z"/>
<path style="fill:#feeddd; stroke:none;" d="M140 141C138.884 144.372 136.089 147.488 135.615 151C134.414 159.894 143.936 171.7 148 179L150 179C156.151 165.124 150.909 151.802 140 141z"/>
<path style="fill:#fffefa; stroke:none;" d="M103 193L106 193C109.525 173.235 134.301 162.851 130 142C125.049 144.65 121.4 151.202 118.576 156.001C111.902 167.343 103.039 179.4 103 193z"/>
<path style="fill:#a58d83; stroke:none;" d="M363 142L359 163L360 163L363 142z"/>
<path style="fill:#fffdf6; stroke:none;" d="M339 209L341 209L345.615 174L355 143C334.607 151.067 334.821 191.456 339 209z"/>
<path style="fill:#fffdfa; stroke:none;" d="M396 145L395 149C407.077 158.975 413.289 175.788 421 189L423 189C426.98 175.115 407.592 151.014 396 145z"/>
<path style="fill:#c0adaf; stroke:none;" d="M38.3333 150.667L38.6667 151.333L38.3333 150.667z"/>
<path style="fill:#c4a9a2; stroke:none;" d="M480.333 150.667L480.667 151.333L480.333 150.667z"/>
<path style="fill:#bfa69f; stroke:none;" d="M165 151L164 154L165 151z"/>
<path style="fill:#feeddd; stroke:none;" d="M132 152L111.003 181L103 193C110.949 208.107 120.659 230.38 137 238L143.424 202L147.629 182L132 152z"/>
<path style="fill:#c4a9a2; stroke:none;" d="M161 152L160 155L161 152z"/>
<path style="fill:#ededed; stroke:none;" d="M40 156C37.0411 160.564 29.9126 159 25 159L25 179L5 179L5 199L25 199L25 219L5 219L5 239L25 239L25 259L5 259L5 279L25 279L25 259C35.9931 258.961 37.2182 248.571 38 239L25 239L25 219L45 219L45 199L52 199L52 204L53 204C53 189.867 49.5932 167.059 40 156z"/>
<path style="fill:#e8d2c7; stroke:none;" d="M106 157L100 167L106 157z"/>
<path style="fill:#b1948e; stroke:none;" d="M300 159L298 167L299 167L300 159z"/>
<path style="fill:#fefefe; stroke:none;" d="M491 159C492.983 167.572 494.788 178.752 505 179L505 159L491 159z"/>
<path style="fill:#d5bfb2; stroke:none;" d="M376 161L393 179L394 178L376 161z"/>
<path style="fill:#e0c7c0; stroke:none;" d="M358 164L358 173L359 173L358 164z"/>
<path style="fill:#bea29e; stroke:none;" d="M425 165L427 168L425 165z"/>
<path style="fill:#bba097; stroke:none;" d="M428 170L430 173L428 170z"/>
<path style="fill:#cfb7ad; stroke:none;" d="M96 171L93 177L96 175L99 181L96 171z"/>
<path style="fill:#3e3b36; stroke:none;" d="M86 173C70.1112 188.891 52.7071 209.159 45.8974 231C41.2256 245.984 41.1212 261.762 37.5448 276.83C33.0509 295.764 31.3174 322.6 53 331C53 296.574 51.4899 262.523 61.7955 229C65.9766 215.399 71.7512 201.664 78.2593 189C80.6533 184.341 86.7743 178.337 86 173z"/>
<path style="fill:#d2bab0; stroke:none;" d="M222 174L221 177L222 174z"/>
<path style="fill:#feeddd; stroke:none;" d="M95 175C74.5197 202.725 98.1028 247.081 112.231 273C117.265 282.235 125.427 297.15 135 302L135.004 258L136.678 242.184L118.04 221L95 175z"/>
<path style="fill:#d3b8b1; stroke:none;" d="M92 177L90 182L91 182L92 177z"/>
<path style="fill:#bfa99c; stroke:none;" d="M393 178L404 193L405 192L393 178z"/>
<path style="fill:#fefefe; stroke:none;" d="M25 179L25 199L45 199L45 179L25 179z"/>
<path style="fill:#ededed; stroke:none;" d="M525 179L525 199L540 199L540 179L525 179z"/>
<path style="fill:#d1bcb9; stroke:none;" d="M356 180L355 234L356 234L355.17 207L356 180z"/>
<path style="fill:#fef7ef; stroke:none;" d="M357 180C356.912 190.656 354.771 201.342 355.015 212C355.768 244.907 362.633 275.993 376 306L377 306C377 292.803 377.483 279.576 388 270C388.002 272.253 387.738 274.783 388.318 276.982C392.108 291.351 410.658 271.652 397.946 267.573C396.044 266.962 393.968 267.042 392 267C406.583 247.322 430.504 268.166 436.796 284C443.353 300.501 441.498 321.976 427.91 334.815C408.109 353.523 383.032 336.417 379 313C347.482 312.997 321.881 288.711 306.204 263C302.38 256.728 298.712 250.885 296.061 244C294.893 240.966 294.109 235.22 291.412 233.179C289.028 231.374 284.827 231.961 282 231.575C278.819 231.141 274.313 229.626 271.184 230.693C267.83 231.837 265.335 236.426 263.13 239C257.254 245.859 248.812 252.826 245 261C257.1 261.1 272.575 264.707 280 275C253.61 272.917 232.334 271.548 212 290.961C208.491 294.31 203.549 297.295 201.742 302.001C199.751 307.188 201 314.52 201 320C201 325.153 199.8 332.11 201.603 337C203.764 342.859 210.395 346.965 214 352L201 346L210 452C223.78 452.114 236.053 457.206 249 460.999C263.494 465.246 279.075 468.565 293 474.195C303.057 478.261 315.44 484.947 326.039 486.776C342.032 489.537 357.863 484.286 373 480.4C415.505 469.486 461.013 447.646 484.791 409C497.493 388.357 495.5 354.544 483.912 334C481.549 329.811 476.728 315.209 470.921 315.207C466.938 315.205 461.476 322.82 458 325C461.977 310.848 463.204 290.222 459 276L458 276L458 286C446.764 276.273 437.981 260.518 424 254.14C405.367 245.639 382.832 263.542 369 273C373.016 256.063 394.137 246.836 409 242C398.859 228.74 387.692 218.2 371 225L381 216L366.204 193L357 180z"/>
<path style="fill:#b09a8f; stroke:none;" d="M98 181C99.3784 196.788 110.978 214.364 121.184 226C125.938 231.42 135.831 237.769 137 245L138 245L138 236L137 236C131.846 236.493 126.828 228.669 123.754 225C112.335 211.372 107.536 195.364 98 181z"/>
<path style="fill:#d7bcb3; stroke:none;" d="M291 182L290 185L291 182z"/>
<path style="fill:#c9b0a9; stroke:none;" d="M87 185L88 214L89 214L87 185z"/>
<path style="fill:#c6aba4; stroke:none;" d="M297 185L296 196L297 196L297 185z"/>
<path style="fill:#e4ccc2; stroke:none;" d="M219 186L215 201L216 201L219 186z"/>
<path style="fill:#c1a69f; stroke:none;" d="M150 188L149 197L150 197L150 188z"/>
<path style="fill:#ae938a; stroke:none;" d="M215 188L211 204L212 204L215 188z"/>
<path style="fill:#ccb3ac; stroke:none;" d="M495 188L495 192L496 192L495 188z"/>
<path style="fill:#9d827b; stroke:none;" d="M85 190C71.6004 225.046 91.8771 269.318 111 298C117.821 308.23 125.476 320.278 136 327L137 308L136 308L136 324C126.383 317.083 118.783 304.845 112.344 295C91.6293 263.326 84 233.495 84 196L85 196C85.0032 224.782 96.5265 250.552 110.717 275C116.86 285.583 124.98 298.793 135 306L119.884 284L101.312 252L88.2438 210.91L85 190z"/>
<path style="fill:#a58f84; stroke:none;" d="M404 192L414 209C414.598 202.81 408.404 196.025 404 192z"/>
<path style="fill:#d0b7b0; stroke:none;" d="M496 192L497 201L498 201L496 192z"/>
<path style="fill:#ecd3cc; stroke:none;" d="M348 194L348 228L349 228L348 194z"/>
<path style="fill:#feeddd; stroke:none;" d="M84 196C84 233.765 91.4528 264.056 112.344 296C118.197 304.949 126.163 319.316 136 324L135.397 308L121.627 290L100.258 255L87.804 221L84 196z"/>
<path style="fill:#c8ada6; stroke:none;" d="M441 196L442 200L443 200L441 196z"/>
<path style="fill:#caafa8; stroke:none;" d="M148 197L147 206L148 206L148 197z"/>
<path style="fill:#e4c9c0; stroke:none;" d="M81 198L79 207L80 207L80 205L81 205L81 222L82 222L83 198L81 198z"/>
<path style="fill:#c8ada6; stroke:none;" d="M295 198L295 220L296 220L295 198z"/>
<path style="fill:#fefefe; stroke:none;" d="M45 199L45 219L25 219L25 239L39 239L52 199L45 199z"/>
<path style="fill:#c5a7a7; stroke:none;" d="M289 200L288 204L291 204L291 200L289 200z"/>
<path style="fill:#dfcdc9; stroke:none;" d="M289 203L287 206C290.66 206 289 218.546 289 222L290 222L289 203z"/>
<path style="fill:#a18b8d; stroke:none;" d="M52 204L49 215L50 215L52 204z"/>
<path style="fill:#feeddd; stroke:none;" d="M80 205C71.9792 219.43 68.82 237.936 65.6003 254C54.3903 309.931 62.9096 362.896 70 419L71 419C71 387.569 73.0624 355.649 84 326L85 326C82.1349 339.889 81.2603 353.988 78.7415 367.91C76.9179 377.99 72.8973 389.543 74.1289 399.91C77.6026 429.152 90.6996 455.508 100 483L101 483L99.6566 451L88.1698 403L89 383L91 383C91 417.67 101.572 454.178 121 483L122 483L114 434L115 434L125.374 477L131 493C131 476.965 129.622 461.008 130.015 445C130.247 435.535 132.452 425.47 130.772 416C129.796 410.496 125.022 405.754 122.284 401C117.29 392.329 113.815 383.156 114.015 373C114.216 362.837 117.838 351.363 123.623 343C126.064 339.471 135.635 332.308 135.079 327.95C134.505 323.449 126.457 317.418 123.59 314C115.07 303.846 107.314 292.592 100.862 281C93.3885 267.574 86.8329 252.22 84.2855 237C82.6873 227.451 83.6098 213.603 80 205z"/>
<path style="fill:#fff4ee; stroke:none;" d="M288 205L277 224L290 229L288 205z"/>
<path style="fill:#cbb5a8; stroke:none;" d="M489 205L489 208L490 208L491 205L489 205z"/>
<path style="fill:#cbb0a9; stroke:none;" d="M146 206L146 211L147 211L146 206z"/>
<path style="fill:#b99c98; stroke:none;" d="M440 206L440 210L435 210L435 211L441 211L440 206z"/>
<path style="fill:#ddcac6; stroke:none;" d="M285 208L283 213L284 213L285 208z"/>
<path style="fill:#dfc6bf; stroke:none;" d="M427 209L427 210L436 210L427 209z"/>
<path style="fill:#ba9d99; stroke:none;" d="M275 211L274 214L275 211z"/>
<path style="fill:#ceb3aa; stroke:none;" d="M145 212L145 217L146 217L145 212z"/>
<path style="fill:#cdbabc; stroke:none;" d="M48.3333 213.667L48.6667 214.333L48.3333 213.667z"/>
<path style="fill:#af928e; stroke:none;" d="M273 214L270 220L273 214z"/>
<path style="fill:#af999b; stroke:none;" d="M506 214L506 222L507 222L506 214z"/>
<path style="fill:#ac8f8b; stroke:none;" d="M405 216L405 217L419 217L405 216z"/>
<path style="fill:#a18881; stroke:none;" d="M419 217L429 239L412 238C415.32 243.121 424.562 240.004 430 240C431.141 231.507 425.499 223.82 421 217L432 217L419 217z"/>
<path style="fill:#bda09a; stroke:none;" d="M397 217L397 218L404 218L397 217z"/>
<path style="fill:#feeddd; stroke:none;" d="M393 219C399.856 233.662 413.347 239.892 428 238C426.534 215.937 410.309 215.785 393 219z"/>
<path style="fill:#e9cec5; stroke:none;" d="M421 217L422 220L436 218L421 217z"/>
<path style="fill:#b99c98; stroke:none;" d="M436 217L436 218L442 218L436 217z"/>
<path style="fill:#b7a5a5; stroke:none;" d="M46 218L45 223L46 223L46 218z"/>
<path style="fill:#ccb1aa; stroke:none;" d="M144 218L144 226L145 226L144 218z"/>
<path style="fill:#feeddd; stroke:none;" d="M423 218C425.892 234.216 434.757 240.031 450 242C449.253 236.218 448.529 222.731 443.44 219.028C439.155 215.909 428.154 218 423 218z"/>
<path style="fill:#e0cbc8; stroke:none;" d="M278 219L276 224L277 224L278 219z"/>
<path style="fill:#d7bab6; stroke:none;" d="M450 219L450 222L451 222L452 219L450 219z"/>
<path style="fill:#ededed; stroke:none;" d="M525 219L525 239L540 239L540 219L525 219z"/>
<path style="fill:#d6bdb6; stroke:none;" d="M205 220L205 225L206 225L205 220z"/>
<path style="fill:#af9795; stroke:none;" d="M380 220L380 221L388 221L380 220z"/>
<path style="fill:#b89b97; stroke:none;" d="M249 221L249 222L255 222L249 221z"/>
<path style="fill:#e0cdc9; stroke:none;" d="M378 221L378 222L388 222L378 221z"/>
<path style="fill:#c8aca8; stroke:none;" d="M139 222L139 227L140 227L139 222z"/>
<path style="fill:#c4a9a2; stroke:none;" d="M495 222L495 227L496 227L495 222z"/>
<path style="fill:#b5a1a2; stroke:none;" d="M507 222L507 233L508 233L507 222z"/>
<path style="fill:#e5d2ce; stroke:none;" d="M290 223L289 230L290 223z"/>
<path style="fill:#d9c1b7; stroke:none;" d="M473 224L473 225L477 226L477 225L473 224z"/>
<path style="fill:#ceb3ac; stroke:none;" d="M138 227L138 235L139 235L138 227z"/>
<path style="fill:#c4b2ae; stroke:none;" d="M291 227L287 231L287 232L292 233L291 227z"/>
<path style="fill:#b09490; stroke:none;" d="M496 228L497 237L498 237L496 228z"/>
<path style="fill:#ffecdd; stroke:none;" d="M223 266C238.237 261.925 255.608 243.341 262 229C248.68 229.001 244.719 240.644 236.7 250C232.162 255.295 226.375 259.833 223 266z"/>
<path style="fill:#ceb3ac; stroke:none;" d="M453 229L453 233L454 233L453 229z"/>
<path style="fill:#feeddd; stroke:none;" d="M203 275C217.127 269.828 226.82 257.201 236.08 246C239.985 241.277 245.373 235.994 247 230C231.566 230.01 211.02 237.44 204.603 253.17C202.13 259.234 203 268.516 203 275z"/>
<path style="fill:#e6d3cf; stroke:none;" d="M274 230L274 231L287 232L274 230z"/>
<path style="fill:#d1b8b1; stroke:none;" d="M225 232L225 233L236 232L225 232z"/>
<path style="fill:#dac2b8; stroke:none;" d="M250 232L249 235L250 232z"/>
<path style="fill:#ededed; stroke:none;" d="M508 233L507 259L525 259L525 239L509 239L508 233z"/>
<path style="fill:#d7c4c0; stroke:none;" d="M356 234L356 242L357 242L356 234z"/>
<path style="fill:#ccb0ac; stroke:none;" d="M142 235L142 243L143 243L142 235z"/>
<path style="fill:#bea19d; stroke:none;" d="M211 235L211 236L216 236L211 235z"/>
<path style="fill:#feecde; stroke:none;" d="M207 237L205 249L219 235L207 237z"/>
<path style="fill:#ddc2bb; stroke:none;" d="M428 235L424 238L424 239L429 239L428 235z"/>
<path style="fill:#bea19b; stroke:none;" d="M191 237L191 238L195 237L191 237z"/>
<path style="fill:#feeddd; stroke:none;" d="M492 237C492 252.554 490.634 268.18 485.481 282.996C482.649 291.138 474.086 301.445 473.812 310C473.604 316.511 483.253 324.348 486.18 330C493.333 343.817 498.301 359.356 498.961 375C499.557 389.142 493.41 404.891 486.117 416.83C483.205 421.596 477.551 425.293 476.329 431C474.638 438.89 477.9 448.918 477.996 457C478.18 472.454 475.953 485.874 474 501C479.624 499.143 482.094 491.919 484.769 487C492.595 472.609 496.863 458.174 499.41 442C506.957 394.069 502.384 344.062 499.09 296C497.865 278.143 500.656 253.163 492 237z"/>
<path style="fill:#b39690; stroke:none;" d="M498 237L499 245L500 245L498 237z"/>
<path style="fill:#c1a69f; stroke:none;" d="M205 238L205 245L206 245L207 238L205 238z"/>
<path style="fill:#be9f9d; stroke:none;" d="M200 239L200 240L202 242L203 242L200 239z"/>
<path style="fill:#d2b7b0; stroke:none;" d="M435 239L435 240L439 240L435 239z"/>
<path style="fill:#b69a96; stroke:none;" d="M504 241L504 262L505 262L504 241z"/>
<path style="fill:#bba099; stroke:none;" d="M201 242L200 255L201 255L201 242z"/>
<path style="fill:#c8b3b0; stroke:none;" d="M357 242L357 250L358 250L357 242z"/>
<path style="fill:#ad958b; stroke:none;" d="M172 252L182 247L182 244L172 252z"/>
<path style="fill:#c0a59e; stroke:none;" d="M487 244L487 250L488 250L487 244z"/>
<path style="fill:#d5bdb3; stroke:none;" d="M141 245L141 261L142 261L141 245z"/>
<path style="fill:#c8ada4; stroke:none;" d="M457 245L460 247L457 245z"/>
<path style="fill:#c5aca5; stroke:none;" d="M495 245L496 255L497 255L495 245z"/>
<path style="fill:#b89b95; stroke:none;" d="M66 246L66 250L67 250L66 246z"/>
<path style="fill:#b99e97; stroke:none;" d="M491 246L491 256L492 256L491 246z"/>
<path style="fill:#c7aca3; stroke:none;" d="M65 250L65 255L66 255L65 250z"/>
<path style="fill:#c2adaa; stroke:none;" d="M358 250L358 255L359 255L358 250z"/>
<path style="fill:#c9b0a9; stroke:none;" d="M486 250L486 257L487 257L486 250z"/>
<path style="fill:#e1c9bf; stroke:none;" d="M135 251L135 267L136 267L135 251z"/>
<path style="fill:#c7b2af; stroke:none;" d="M299 252L301 255L299 252z"/>
<path style="fill:#c3b1b1; stroke:none;" d="M418 252L418 253L422 253L418 252z"/>
<path style="fill:#d0c2c2; stroke:none;" d="M34 253L34 257L35 257L34 253z"/>
<path style="fill:#dfc4bd; stroke:none;" d="M203 253C202.983 258.985 199.084 271.704 204 276L203 253z"/>
<path style="fill:#ffe5de; stroke:none;" d="M430 253L430 254L437 259C436.449 254.217 434.683 253.156 430 253z"/>
<path style="fill:#e5cdc3; stroke:none;" d="M485 253L482 274L483 274C484.56 267.971 487.463 258.924 485 253z"/>
<path style="fill:#a98c88; stroke:none;" d="M436 254L436 260L440 262L440 254L436 254z"/>
<path style="fill:#cfb4ad; stroke:none;" d="M64 255L63 264L64 264L64 255z"/>
<path style="fill:#bca7a4; stroke:none;" d="M359 255L359 260L360 260L359 255z"/>
<path style="fill:#ffecdd; stroke:none;" d="M439 255C441.014 265.345 448.356 271.458 454 280C459.554 266.765 451.778 256.652 439 255z"/>
<path style="fill:#dcc3bc; stroke:none;" d="M497 255L500 317L501 317L499.039 279L497 255z"/>
<path style="fill:#d1b9af; stroke:none;" d="M92 257L93 261L94 261L92 257z"/>
<path style="fill:#ae918b; stroke:none;" d="M353 257L356 270L357 270L353 257z"/>
<path style="fill:#cbb9b9; stroke:none;" d="M33 258L33 264L34 264L33 258z"/>
<path style="fill:#fefefe; stroke:none;" d="M25 259L25 279L31 279L33 259L25 259z"/>
<path style="fill:#d9cbca; stroke:none;" d="M405 259L405 260L413 260L405 259z"/>
<path style="fill:#ceb3ac; stroke:none;" d="M453 259L454 268L455 268L453 259z"/>
<path style="fill:#ededed; stroke:none;" d="M525 259L525 279L540 279L540 259L525 259z"/>
<path style="fill:#d5c0bf; stroke:none;" d="M244 260L253 262L253 261L244 260z"/>
<path style="fill:#b5a09d; stroke:none;" d="M360 260L360 264L361 264L360 260z"/>
<path style="fill:#d2bfc1; stroke:none;" d="M413 260L413 261L420 263L420 262L413 260z"/>
<path style="fill:#d3c0bc; stroke:none;" d="M253 262L253 263L261 263L253 262z"/>
<path style="fill:#cab6b7; stroke:none;" d="M382.667 262.333L383.333 262.667L382.667 262.333z"/>
<path style="fill:#dacccc; stroke:none;" d="M395 264L398 263L395 264z"/>
<path style="fill:#c3a8a1; stroke:none;" d="M140 263L140 298L141 298L140 263z"/>
<path style="fill:#c8b6b6; stroke:none;" d="M380.667 263.333L381.333 263.667L380.667 263.333z"/>
<path style="fill:#ffe5dc; stroke:none;" d="M461 263L464 279L465 279C465 273.31 466.236 266.563 461 263z"/>
<path style="fill:#c2b2b3; stroke:none;" d="M32 264L32 271L33 271L32 264z"/>
<path style="fill:#5e4c4a; stroke:none;" d="M54 264L52 304L52 332L53.9961 316L54.0147 279L54 264z"/>
<path style="fill:#b3a4a7; stroke:none;" d="M395 267L395 264C392.392 265.119 391.932 266.341 395 267z"/>
<path style="fill:#aeac97; stroke:none;" d="M407 265C408.075 273.511 407.348 283.177 397.996 286.991C391.556 289.617 383.997 282.72 381.823 292.005C380.104 299.349 381.771 306.909 383.863 314C385.341 319.009 387.809 323.684 390.749 327.996C400.601 342.442 420.115 339.812 430.471 326.961C447.136 306.279 436.29 265.084 407 265z"/>
<path style="fill:#b79a94; stroke:none;" d="M135 267L134 304L136 295L135 267z"/>
<path style="fill:#bfb0ad; stroke:none;" d="M369 269L371 273L369 269z"/>
<path style="fill:#d4babb; stroke:none;" d="M458 269L459 277L460 277L458 269z"/>
<path style="fill:#695652; stroke:none;" d="M37 270L37 279L38 279L37 270z"/>
<path style="fill:#e7cfc5; stroke:none;" d="M134 270L134 297L135 297L134 270z"/>
<path style="fill:#b8acac; stroke:none;" d="M386 270L385 274L387 278L388 278L388 270L386 270z"/>
<path style="fill:#ab9999; stroke:none;" d="M455 270L453 281L453 282L458 286L458 272L457 272L457 276L456 276L455 270z"/>
<path style="fill:#d6bdb6; stroke:none;" d="M61 271L61 279L62 279L61 271z"/>
<path style="fill:#dcc4ba; stroke:none;" d="M108 271L110 274L108 271z"/>
<path style="fill:#d9c6c8; stroke:none;" d="M402 271L401 279L402 279L402 271z"/>
<path style="fill:#bcacad; stroke:none;" d="M31 272L31 281L32 281L31 272z"/>
<path style="fill:#cfbfc0; stroke:none;" d="M253 272L253 273L275 274L253 272z"/>
<path style="fill:#c9bbb8; stroke:none;" d="M279 273L275 274L275 275L279 273z"/>
<path style="fill:#d1bdbc; stroke:none;" d="M226 277L226 278L246 275C239.931 272.454 232.093 275.423 226 277z"/>
<path style="fill:#b29e9f; stroke:none;" d="M383 274L382 278L383 278L385 274L383 274z"/>
<path style="fill:#eccdcb; stroke:none;" d="M465 274L464 296L465 296L465 274z"/>
<path style="fill:#ae9a9b; stroke:none;" d="M432 275L434 278L432 275z"/>
<path style="fill:#b59694; stroke:none;" d="M466 275L466 289L467 289L466 275z"/>
<path style="fill:#aa9496; stroke:none;" d="M243 278L243 279L251 279L243 278z"/>
<path style="fill:#cdbbbb; stroke:none;" d="M251 278L251 279L256 279L251 278z"/>
<path style="fill:#eeeced; stroke:none;" d="M25 279L25 299L30 299L31 279L25 279z"/>
<path style="fill:#8e6e6f; stroke:none;" d="M232 284L232 285C234.468 286.739 237.077 288.305 238.543 291.054C240.812 295.306 239.195 307.543 232.039 305.654C227.297 304.403 224.759 297.204 224 293C213.803 298.388 212.52 316.924 214.669 327C219.931 351.669 244.525 371.41 269 356.12C287.37 344.644 291.71 315.14 280.532 297C270.633 280.936 248.425 272.408 232 284z"/>
<path style="fill:#ededed; stroke:none;" d="M505 279L505 299L525 299L525 279L505 279z"/>
<path style="fill:#b6a4a4; stroke:none;" d="M502 282L502 288L503 288L502 282z"/>
<path style="fill:#b39da0; stroke:none;" d="M30 283L30 302L31 302L30 283z"/>
<path style="fill:#cec6c4; stroke:none;" d="M231 283L231 285L233 283L231 283z"/>
<path style="fill:#aeac97; stroke:none;" d="M240 285C241.574 289.873 244.599 294.724 243.466 300C240.788 312.469 230.269 311.983 224 303L223 303C216.639 315.922 218.824 340.354 233 348C229.063 336.516 225.428 330.267 230 318L232 318C237.291 338.484 265.897 336.625 269 316L283 316C282.816 294.118 260.712 277.988 240 285z"/>
<path style="fill:#e4c8c7; stroke:none;" d="M205 288C208.726 289.732 210.823 286.967 213 284L205 288z"/>
<path style="fill:#cdbabc; stroke:none;" d="M460 284L460 290L461 290L460 284z"/>
<path style="fill:#b2a2a2; stroke:none;" d="M438 288L439 297L440 297L438 288z"/>
<path style="fill:#fce3dc; stroke:none;" d="M200 297L207 289C202.077 289.769 200.369 292.122 200 297z"/>
<path style="fill:#ac9a9a; stroke:none;" d="M503 289L503 301L504 301L503 289z"/>
<path style="fill:#cdb9ba; stroke:none;" d="M370 292L370 295L371 295L370 292z"/>
<path style="fill:#f5f2d3; stroke:none;" d="M428 294C426.168 314.339 402.236 318.729 395 299C387.186 304.066 393.825 319.031 399.043 323.811C407.007 331.106 423.456 330.435 430.581 321.895C436.764 314.484 436.715 299.331 428 294z"/>
<path style="fill:#feeddd; stroke:none;" d="M195 331L196 331L197 295C194.368 296.114 192.2 297.438 189.999 299.305C176.084 311.107 186.566 319.268 195 331z"/>
<path style="fill:#d3c0c2; stroke:none;" d="M219 296L218 299L219 296z"/>
<path style="fill:#c1a69f; stroke:none;" d="M368 298L370 301L368 298z"/>
<path style="fill:#d0c5c3; stroke:none;" d="M440 298L440 311L441 311L440 298z"/>
<path style="fill:#ededed; stroke:none;" d="M5 299L5 319L25 319L25 339L5 339L5 359L25 359L25 379L5 379L5 399L25 399L25 419L5 419L5 439L25 439L25 459L5 459L5 479L25 479L25 499L45 499L45 519L65 519L65 499L85 499L85 519L105 519L105 499L125 499L125 519L145 519L145 501L140 501C139.77 496.584 138.984 493.269 135 491L135 501L128 501C126.934 490.378 117.726 483.777 112.579 475C109.734 470.146 107.792 463.139 103 460L105 499L85 499L85 479L95 479L79 435L78 435L78 439L65 439L65 419L45 419L45 399L63 399C61.0918 384.224 60.6093 379 45 379L45 359L57 359L54.821 341.285L34 315L33 315L33 319L25 319L25 299L5 299z"/>
<path style="fill:#fefefe; stroke:none;" d="M25 299L25 319L33 319L30 299L25 299z"/>
<path style="fill:#ededed; stroke:none;" d="M525 299L525 319L540 319L540 299L525 299z"/>
<path style="fill:#ede1e3; stroke:none;" d="M200 301L200 337L201 337L202 301L200 301z"/>
<path style="fill:#d3b7b3; stroke:none;" d="M370 302L372 305L370 302z"/>
<path style="fill:#d0b5ae; stroke:none;" d="M58 303L58 321L59 321L58 303z"/>
<path style="fill:#c7aca5; stroke:none;" d="M353 303L356 305L353 303z"/>
<path style="fill:#bba8aa; stroke:none;" d="M504 303L504 310L505 310L504 303z"/>
<path style="fill:#d3c3c4; stroke:none;" d="M215 304L215 307L216 307L215 304z"/>
<path style="fill:#b79f9d; stroke:none;" d="M346 304L349 306L346 304z"/>
<path style="fill:#b09a9c; stroke:none;" d="M231 306L231 307L235 307L231 306z"/>
<path style="fill:#c4b0b2; stroke:none;" d="M214 307L214 312L215 312L214 307z"/>
<path style="fill:#b79c95; stroke:none;" d="M141 310L141 321L142 321L141 310z"/>
<path style="fill:#c6ada6; stroke:none;" d="M174 312L174 319L175 319L174 312z"/>
<path style="fill:#bca9a3; stroke:none;" d="M286 312L286 330L287 330L286 312z"/>
<path style="fill:#f5f2d3; stroke:none;" d="M269 316C264.053 336.637 239.433 337.352 232 318L230 318C215.108 347.673 253.419 368.03 274.907 345.957C283.326 337.308 284 327.336 284 316L269 316z"/>
<path style="fill:#bda09a; stroke:none;" d="M501 316L501 337L502 337L501 316z"/>
<path style="fill:#b39fa0; stroke:none;" d="M199 318L199 336L200 336L199 318z"/>
<path style="fill:#b7a3a4; stroke:none;" d="M505 319L505 324L506 324L505 319z"/>
<path style="fill:#ededed; stroke:none;" d="M506 319L507 344L508 344L508 339L525 339L525 319L506 319z"/>
<path style="fill:#b49894; stroke:none;" d="M482 324L485 328L482 324z"/>
<path style="fill:#90716f; stroke:none;" d="M84 326C71.2119 351.906 71 388.584 71 417L72 417L73 409L74 409C74.0573 429.77 83.0278 451.389 91.4105 470.015C94.4393 476.744 97.4783 487.011 104 491L102 457L103 457L115.934 481L128 501L131 501L122.389 467L115 434L114 434L123 485L122 485C116.965 473.33 109.364 462.665 104.232 450.961C95.9455 432.06 91.048 408.462 90 388L89 388L101 483L100 483C93.2186 454.383 74.6389 428.42 74.054 398C73.7249 380.882 78.5714 361.946 81.1343 345C82.0045 339.246 85.7065 331.62 84 326z"/>
<path style="fill:#d6c1bc; stroke:none;" d="M383 326L385 329L383 326z"/>
<path style="fill:#baa2a0; stroke:none;" d="M482 331L484 334L482 331z"/>
<path style="fill:#cdc0ba; stroke:none;" d="M454 332L456 335L456 332L454 332z"/>
<path style="fill:#bba7a8; stroke:none;" d="M506 332L506 344L507 344L506 332z"/>
<path style="fill:#bfadad; stroke:none;" d="M216 333L217 338L218 338L216 333z"/>
<path style="fill:#956e73; stroke:none;" d="M453 334C445.612 349.824 433.38 366.412 431 384L432 384C439.984 369.024 452.593 351.022 455 334L453 334z"/>
<path style="fill:#ead8d4; stroke:none;" d="M128 346L136 340L137 340L137 336L128 346z"/>
<path style="fill:#fef7ef; stroke:none;" d="M135 338C117.828 356.606 110.921 400.402 140 414C139.989 397.027 138.001 379.979 138 363C138 355.986 138.997 343.85 135 338z"/>
<path style="fill:#fed2df; stroke:none;" d="M453 338L432 384L431 384L448 343L437 344C437.569 353.504 427.59 367.615 421 374L421 375C425.518 377.289 428.24 380.982 429 386C444.798 385.391 469.155 396.731 477.991 375C479.56 371.142 479.674 366.129 480 362L479 362L471 377L479 357L475 349L466 346L466 342L463 343C463.632 353.467 452.386 375.692 445 383L462 345L454 344L453 338z"/>
<path style="fill:#fefefe; stroke:none;" d="M25 339L25 359L45 359L45 339L25 339z"/>
<path style="fill:#ededed; stroke:none;" d="M525 339L525 359L540 359L540 339L525 339z"/>
<path style="fill:#e3d0cc; stroke:none;" d="M137 340L137 353L138 353L137 340z"/>
<path style="fill:#c3a8a1; stroke:none;" d="M124 341L123 344L124 341z"/>
<path style="fill:#c2aaa8; stroke:none;" d="M398.667 341.333L399.333 341.667L398.667 341.333z"/>
<path style="fill:#d2bab0; stroke:none;" d="M81 342L81 348L82 348L81 342z"/>
<path style="fill:#b5a39f; stroke:none;" d="M363 345L364 345L366 343C363.86 341.882 363.473 342.749 363 345z"/>
<path style="fill:#c6aeac; stroke:none;" d="M404 343L404 344L415 343L404 343z"/>
<path style="fill:#ddc4bd; stroke:none;" d="M491 342L493 350L494 350L491 342z"/>
<path style="fill:#917c79; stroke:none;" d="M364 343L368 349C367.737 345.59 367.321 344.099 364 343z"/>
<path style="fill:#c4a9a2; stroke:none;" d="M77 344L77 349L78 349L77 344z"/>
<path style="fill:#e0d0d1; stroke:none;" d="M221 344L223 347L221 344z"/>
<path style="fill:#a17880; stroke:none;" d="M463 344L445 383C452.506 378.083 456.558 363.047 460.139 355C461.677 351.543 464.029 347.75 463 344z"/>
<path style="fill:#cdbbbb; stroke:none;" d="M507 344L507 357L508 357L507 344z"/>
<path style="fill:#a89496; stroke:none;" d="M56 345L56 357L57 357L56 345z"/>
<path style="fill:#ead7d3; stroke:none;" d="M200 345L200 367L201 367L201 346L204 347L200 345z"/>
<path style="fill:#ccbdb8; stroke:none;" d="M368 345L367 350L368 345z"/>
<path style="fill:#957173; stroke:none;" d="M436 345L421 374C428.721 369.048 436.408 353.929 438 345L436 345z"/>
<path style="fill:#fbdddd; stroke:none;" d="M422 367L423 367L436 347C425.046 347.994 422.027 357.341 422 367z"/>
<path style="fill:#e1c9bf; stroke:none;" d="M61 349L61 358L62 358L61 349z"/>
<path style="fill:#bca39c; stroke:none;" d="M76 349L76 356L77 356L76 349z"/>
<path style="fill:#d3bab3; stroke:none;" d="M80 349L80 354L81 354L80 349z"/>
<path style="fill:#b99c96; stroke:none;" d="M494 350L495 358L496 358L494 350z"/>
<path style="fill:#a0777f; stroke:none;" d="M473 351C468.139 358.671 460.996 367.82 460 377C465.118 372.616 474.895 357.912 473 351z"/>
<path style="fill:#957576; stroke:none;" d="M473 373C478.299 369.115 483.151 357.285 485 351C478.267 354.498 474.085 365.763 473 373z"/>
<path style="fill:#b49c9a; stroke:none;" d="M123 352L122 356L123 356L123 352z"/>
<path style="fill:#caada7; stroke:none;" d="M79 354L79 361L80 361L79 354z"/>
<path style="fill:#efddd9; stroke:none;" d="M138 354L139 416C143.037 412.473 140.415 404.753 140.09 400C139.144 386.194 143.382 366.827 138 354z"/>
<path style="fill:#bea89a; stroke:none;" d="M244 356L244 357L255 357L244 356z"/>
<path style="fill:#dcc7c4; stroke:none;" d="M265 358L265 359L270 357L265 358z"/>
<path style="fill:#bc9a9b; stroke:none;" d="M428 357L427 360L428 357z"/>
<path style="fill:#bca4a2; stroke:none;" d="M491 357L492 366L493 366L491 357z"/>
<path style="fill:#e0c5be; stroke:none;" d="M62 358L62 366L63 366L62 358z"/>
<path style="fill:#d2bcaf; stroke:none;" d="M160 358L161 416L162 416L162 375L160 358z"/>
<path style="fill:#cbb6b3; stroke:none;" d="M236 358L239 360L236 358z"/>
<path style="fill:#bca19a; stroke:none;" d="M496 358L497 369L498 369L496 358z"/>
<path style="fill:#fefefe; stroke:none;" d="M45 359L45 379L59 379L57 359L45 359z"/>
<path style="fill:#b09c9b; stroke:none;" d="M57 359L57 368L58 368L57 359z"/>
<path style="fill:#bca3a6; stroke:none;" d="M240 360L240 361L265 360L240 360z"/>
<path style="fill:#ededed; stroke:none;" d="M508 359L508 395L509 395L509 379L525 379L525 359L508 359z"/>
<path style="fill:#d9c6c2; stroke:none;" d="M120 360L119 378L120 378L120 360z"/>
<path style="fill:#e3cbc1; stroke:none;" d="M145 360L146 413L147 413L146.09 375L145 360z"/>
<path style="fill:#ceb3ac; stroke:none;" d="M78 361L78 371L79 371L78 361z"/>
<path style="fill:#fed2df; stroke:none;" d="M225 361C222.535 372.579 215.571 386.689 207 395L221 367C204.792 370.125 206 383.873 206 397L212 404C219.824 405.023 225.965 410.85 234 411.816C256.04 414.463 274.344 397.446 269 375L268 375L254 406L253 406C256.336 393.519 272.165 373.925 259 365C259.093 376.396 248.504 392.9 241 401C243.738 387.904 251.634 377.481 258 366L248 364L248 363L254 363L254 362C247.021 361.999 229.711 365.424 225 361z"/>
<path style="fill:#987174; stroke:none;" d="M224 363C217.523 372.176 209.609 384.015 207 395C212.932 391.192 225.898 369.941 224 363z"/>
<path style="fill:#d6beb4; stroke:none;" d="M63 366L63 373L64 373L63 366z"/>
<path style="fill:#956e71; stroke:none;" d="M248 366C240.15 377.542 228.486 393.053 226 407C237.502 397.637 245.668 379.957 250 366L248 366z"/>
<path style="fill:#946d72; stroke:none;" d="M241 401C250.231 394.296 256.548 376.592 260 366C250.396 370.91 242.395 390.698 241 401z"/>
<path style="fill:#c4acaa; stroke:none;" d="M201 367L201 384L202 384L201 367z"/>
<path style="fill:#bfaaa7; stroke:none;" d="M493 367L493 383L494 383L493 367z"/>
<path style="fill:#b9a6a8; stroke:none;" d="M58 368L58 374L59 374L58 368z"/>
<path style="fill:#b18a8f; stroke:none;" d="M220 368L214 380L215 380L220 368z"/>
<path style="fill:#c3959f; stroke:none;" d="M231 370L231 375L232 375L233 370L231 370z"/>
<path style="fill:#b89b97; stroke:none;" d="M498 370L498 384L499 384L498 370z"/>
<path style="fill:#9f777f; stroke:none;" d="M268 372C260.783 382.077 255.098 393.654 253 406L254 406C258.107 398.936 270.155 379.857 268 372z"/>
<path style="fill:#b58e93; stroke:none;" d="M472 372L471 377C473.28 375.36 473.5 374.362 472 372z"/>
<path style="fill:#d3bab3; stroke:none;" d="M64 373L64 380L65 380L64 373z"/>
<path style="fill:#a38881; stroke:none;" d="M159 373L157 414L158 414L159 406L160 406L160 416L161 416L161 373L159 373z"/>
<path style="fill:#9c757a; stroke:none;" d="M229 374C223.395 383 214.907 392.302 213 403C221.116 396.736 228.288 383.836 231 374L229 374z"/>
<path style="fill:#cea2af; stroke:none;" d="M459 374L461 378L459 374z"/>
<path style="fill:#cba2aa; stroke:none;" d="M219 375L217 381L218 381L219 375z"/>
<path style="fill:#b9a7a7; stroke:none;" d="M59 377L59 381L60 381L59 377z"/>
<path style="fill:#fefefe; stroke:none;" d="M25 379L25 399L45 399L45 379L25 379z"/>
<path style="fill:#ededed; stroke:none;" d="M525 379L525 399L540 399L540 379L525 379z"/>
<path style="fill:#cdb4ad; stroke:none;" d="M65 380L66 394L67 394L65 380z"/>
<path style="fill:#c6aeac; stroke:none;" d="M120 380L120 385L121 385L120 380z"/>
<path style="fill:#8f6d6e; stroke:none;" d="M299 388L299 389L357 384.09L382 385.985L407 384C407.568 411.531 409.442 432.605 385.83 451.746C375.969 459.74 365.001 460.514 353 461.039C331.835 461.966 312.314 460.806 299.876 440.83C290.576 425.894 292.076 405.294 296 389C290.59 392.706 289.309 402.84 289.039 409C288.325 425.305 289.559 446.756 304.011 457.454C332.089 478.242 385.958 467.689 403.675 438C414.145 420.457 412.615 399.187 409 380L382 383.941L357.001 380.171L299 388z"/>
<path style="fill:#bba099; stroke:none;" d="M72 382L72 394L73 394L72 382z"/>
<path style="fill:#bba6a3; stroke:none;" d="M340 383L340 384L350 383L340 383z"/>
<path style="fill:#d7c4c0; stroke:none;" d="M375 382L375 383L379 383L375 382z"/>
<path style="fill:#b59d93; stroke:none;" d="M89 383L90 394L91 394L91 383L89 383z"/>
<path style="fill:#bba3a1; stroke:none;" d="M377 383L377 384L388 384L377 383z"/>
<path style="fill:#d3aab2; stroke:none;" d="M236 384L235 387L236 384z"/>
<path style="fill:#c3aeab; stroke:none;" d="M333 384L333 385L340 385L333 384z"/>
<path style="fill:#a26560; stroke:none;" d="M299 389L299 390C317.496 395.467 340.481 387.797 359 386.104C366.645 385.405 373.485 388.895 381 388.996C386.025 389.064 400.165 384.236 403.566 386.132C408.571 388.922 406 405.061 406 410C406 435.04 382.97 459.447 357 460L357 461C377.37 461 401.612 446.337 406.586 425C409.678 411.733 407.574 397.375 407 384L383 385.985L356 384.09L299 389z"/>
<path style="fill:#c6aeac; stroke:none;" d="M492 384L491 394L492 394L492 384z"/>
<path style="fill:#b79c95; stroke:none;" d="M497 384L497 390L498 390L497 384z"/>
<path style="fill:#b19796; stroke:none;" d="M121 385L121 389L122 389L121 385z"/>
<path style="fill:#d7c2bf; stroke:none;" d="M202 385L202 397L203 397L202 385z"/>
<path style="fill:#c7b2af; stroke:none;" d="M324 385L324 386L332 386L324 385z"/>
<path style="fill:#c45a44; stroke:none;" d="M344 389L344 390C366.934 397.827 385.419 405.129 406 418C406 410.92 409.346 392.199 404.821 386.607C401.715 382.769 392.938 388.67 389 388.946C380.188 389.562 372.596 386.416 364 386.039C357.008 385.733 350.835 388.117 344 389z"/>
<path style="fill:#ecd9d5; stroke:none;" d="M300 386L300 387L317 387L300 386z"/>
<path style="fill:#c4afac; stroke:none;" d="M317 386L317 387L323 387L317 386z"/>
<path style="fill:#c79fa7; stroke:none;" d="M220 387L219 390L220 387z"/>
<path style="fill:#c9a0a8; stroke:none;" d="M245 387L244 391L245 391L245 387z"/>
<path style="fill:#d9c0bb; stroke:none;" d="M293 387L293 391L294 391L294 388L299 388L293 387z"/>
<path style="fill:#b59c98; stroke:none;" d="M299 387L299 388L314 388L299 387z"/>
<path style="fill:#e67759; stroke:none;" d="M294 388C297.218 393.149 293 402.003 293 408C293 424.033 295.562 440.613 308 452C328.222 470.513 376.944 463.702 393.333 443C397.615 437.592 407.014 427.298 406 420C404.772 411.158 388.078 405.517 381 402.667C368.752 397.734 355.401 390.861 342 389C329.158 387.216 316.043 393.021 303 391C299.402 390.443 298.016 388 294 388z"/>
<path style="fill:#c1a8a4; stroke:none;" d="M411 389L411 397L412 397L411 389z"/>
<path style="fill:#cea6ae; stroke:none;" d="M248 390L246 395L247 395L248 390z"/>
<path style="fill:#bda09a; stroke:none;" d="M88 391L88 406L89 406L88 391z"/>
<path style="fill:#c5aaa1; stroke:none;" d="M158 393L158 404L159 404L158 393z"/>
<path style="fill:#d0b7b0; stroke:none;" d="M67 394L68 408L69 408L67 394z"/>
<path style="fill:#dcc3bc; stroke:none;" d="M71 394L71 406L72 406L71 394z"/>
<path style="fill:#c4a39e; stroke:none;" d="M291 394L291 398L292 398L291 394z"/>
<path style="fill:#a99395; stroke:none;" d="M507 395L507 412L508 412L507 395z"/>
<path style="fill:#baa2a0; stroke:none;" d="M140 396L140 404L141 404L140 396z"/>
<path style="fill:#cdb2ab; stroke:none;" d="M92 397L92 408L93 408L92 397z"/>
<path style="fill:#cfbab7; stroke:none;" d="M203 397L203 407L204 407L203 397z"/>
<path style="fill:#d4c1bb; stroke:none;" d="M412 397L412 411L413 411L412 397z"/>
<path style="fill:#fefefe; stroke:none;" d="M45 399L45 419L65 419L65 439L78 439L74 416L72 416L71 430L70 430L63 399L45 399z"/>
<path style="fill:#c1afaf; stroke:none;" d="M63 399L63 402L64 402L63 399z"/>
<path style="fill:#bea89d; stroke:none;" d="M168 399L168 410L169 410L168 399z"/>
<path style="fill:#ededed; stroke:none;" d="M508 399L507 419L525 419L525 399L508 399z"/>
<path style="fill:#d2bfc1; stroke:none;" d="M64 402L64 406L65 406L64 402z"/>
<path style="fill:#dcc3bc; stroke:none;" d="M75 403L75 411L76 411L75 403z"/>
<path style="fill:#bc9f99; stroke:none;" d="M502 403L502 412L503 412L502 403z"/>
<path style="fill:#c0a8a6; stroke:none;" d="M288 405L289 433L290 433L288 405z"/>
<path style="fill:#cab5b2; stroke:none;" d="M204 407L204 416L205 416L204 407z"/>
<path style="fill:#a09494; stroke:none;" d="M68 408L69 426L70 426L68 408z"/>
<path style="fill:#cbb0a7; stroke:none;" d="M93 408L93 415L94 415L93 408z"/>
<path style="fill:#a48b84; stroke:none;" d="M169 408C169.031 419.311 172.068 430.455 176 441L178 440L182 447L173.169 424L169 408z"/>
<path style="fill:#b69e9c; stroke:none;" d="M485 408L479 418C482.159 415.526 485.396 412.217 485 408z"/>
<path style="fill:#b69a99; stroke:none;" d="M73 409L72 416L73 409z"/>
<path style="fill:#d7c2bf; stroke:none;" d="M411 411L410 421L411 421L411 411z"/>
<path style="fill:#c7aaa6; stroke:none;" d="M146 413L146 433L147 433L146 413z"/>
<path style="fill:#bfa29c; stroke:none;" d="M94 415L94 421L95 421L94 415z"/>
<path style="fill:#ddc2bb; stroke:none;" d="M160 416L159 449L160 449L160 416z"/>
<path style="fill:#dac1ba; stroke:none;" d="M486 416L485 419L486 416z"/>
<path style="fill:#ddcfcf; stroke:none;" d="M71 417L70 430L71 430L71 417z"/>
<path style="fill:#dacacb; stroke:none;" d="M74 417L74 422L75 422L74 417z"/>
<path style="fill:#c2afab; stroke:none;" d="M205 417L206 431L207 431L205 417z"/>
<path style="fill:#d2b9b2; stroke:none;" d="M78 418L78 423L79 423L78 418z"/>
<path style="fill:#fefefe; stroke:none;" d="M25 419L25 439L45 439L45 459L25 459L25 479L45 479L45 499L65 499L65 479L85 479L85 459L65 459L65 439L45 439L45 419L25 419z"/>
<path style="fill:#ededed; stroke:none;" d="M525 419L525 439L540 439L540 419L525 419z"/>
<path style="fill:#ba9f98; stroke:none;" d="M91 420L91 425L92 425L91 420z"/>
<path style="fill:#ac938e; stroke:none;" d="M135 420L134 486L135 486C135 464.81 132.072 440.7 137 420L135 420z"/>
<path style="fill:#c4b0b1; stroke:none;" d="M506 420L506 429L507 429L506 420z"/>
<path style="fill:#cdbdb0; stroke:none;" d="M136 421L134 501L135 501L135 491L142 501C137.605 484.013 138.892 462.484 140.09 445C140.657 436.709 143.953 426.38 136 421z"/>
<path style="fill:#cdbdbe; stroke:none;" d="M75 422L75 426L76 426L75 422z"/>
<path style="fill:#b29790; stroke:none;" d="M202 422L203 436L204 436L202 422z"/>
<path style="fill:#c7aca5; stroke:none;" d="M79 423L80 432L81 432L79 423z"/>
<path style="fill:#b99e97; stroke:none;" d="M501 423L501 431L502 431L501 423z"/>
<path style="fill:#c4a9a2; stroke:none;" d="M92 425L92 430L93 430L92 425z"/>
<path style="fill:#dfd1d1; stroke:none;" d="M76 426L76 431L77 431L76 426z"/>
<path style="fill:#b49a99; stroke:none;" d="M471 426L463 436L471 426z"/>
<path style="fill:#e9d1c7; stroke:none;" d="M93 430L97 446L98 446L93 430z"/>
<path style="fill:#baa5a2; stroke:none;" d="M207 431L207 438L208 438L207 431z"/>
<path style="fill:#ccb7b4; stroke:none;" d="M406.333 431.667L406.667 432.333L406.333 431.667z"/>
<path style="fill:#ededed; stroke:none;" d="M505 431C504.989 448.387 497.379 462.627 493 479L505 479L505 459L525 459L525 439L506 439L505 431z"/>
<path style="fill:#dfc4bd; stroke:none;" d="M146 433L144 483L145 483C145.002 468.254 151.838 446.913 146 433z"/>
<path style="fill:#c4a9a2; stroke:none;" d="M500 433L500 440L501 440L500 433z"/>
<path style="fill:#cbbdb0; stroke:none;" d="M471 434L451.603 452.325L451.961 466L455 501L462 501L470.785 474.985L473 434L471 434z"/>
<path style="fill:#bda09c; stroke:none;" d="M204 437L204 443L205 443L204 437z"/>
<path style="fill:#c0acae; stroke:none;" d="M504 438L504 441L505 441L504 438z"/>
<path style="fill:#c0a59e; stroke:none;" d="M130 439L130 466L131 466L130 439z"/>
<path style="fill:#91726f; stroke:none;" d="M177 440L181.61 455L187 501L195 501L200 490L213 501L195.309 475L177 440z"/>
<path style="fill:#d0b8ae; stroke:none;" d="M114 441L114 446L115 446L114 441z"/>
<path style="fill:#ad948f; stroke:none;" d="M140 441L140 475L141 475L140 441z"/>
<path style="fill:#c5aaa3; stroke:none;" d="M499 441L499 446L500 446L499 441z"/>
<path style="fill:#c2a7a0; stroke:none;" d="M205 444L205 450L206 450L205 444z"/>
<path style="fill:#c9ada9; stroke:none;" d="M498 447L498 452L499 452L498 447z"/>
<path style="fill:#b4a2a2; stroke:none;" d="M502 448L502 452L503 452L502 448z"/>
<path style="fill:#c9aea5; stroke:none;" d="M119 449L119 454L120 454L119 449z"/>
<path style="fill:#baa2a0; stroke:none;" d="M427 459L427 460L446 450L427 459z"/>
<path style="fill:#c6aba4; stroke:none;" d="M206 450L206 455L207 455L206 450z"/>
<path style="fill:#cbbdb0; stroke:none;" d="M156 452L145 501C157.658 501 161.815 500.227 172 493L156 452z"/>
<path style="fill:#d2c0bc; stroke:none;" d="M213 452L213 453L218 453L213 452z"/>
<path style="fill:#c6aaa6; stroke:none;" d="M497 452L496 461L497 461L497 452z"/>
<path style="fill:#bda29b; stroke:none;" d="M181 453L181 459L182 459L181 453z"/>
<path style="fill:#c1afaf; stroke:none;" d="M501 453L501 456L502 456L501 453z"/>
<path style="fill:#cab1aa; stroke:none;" d="M120 454L120 459L121 459L120 454z"/>
<path style="fill:#b39b99; stroke:none;" d="M226 454L226 455L242 459L242 458L226 454z"/>
<path style="fill:#d4c1bd; stroke:none;" d="M381 458L381 459L390 455L381 458z"/>
<path style="fill:#cbbdb0; stroke:none;" d="M404 476C405.572 482.614 408.678 488.043 415 491L417 481C421.683 486.313 421.755 497.404 429.104 500.397C437.248 503.713 441.215 497.329 444.164 491C449.599 479.332 450.995 466.581 448 454L404 476z"/>
<path style="fill:#caafa8; stroke:none;" d="M207 456L207 461L208 461L207 456z"/>
<path style="fill:#b29293; stroke:none;" d="M102 457L102 465L103 465L105 460L105 459L102 457z"/>
<path style="fill:#ceb3ac; stroke:none;" d="M162 457L162 460L163 460L162 457z"/>
<path style="fill:#685453; stroke:none;" d="M210 460L211 460L218 458C215.026 456.286 210.82 456.172 210 460z"/>
<path style="fill:#dcc1ba; stroke:none;" d="M186 458L188 461L186 458z"/>
<path style="fill:#3e3b36; stroke:none;" d="M211 458C211.011 475.149 217.943 495.584 237 500.57C246.576 503.076 259.111 501 269 501L269 500L243 480L274 500.351L299 501L349 501C340.397 493.319 324.66 491.732 314.004 487.572C282.369 475.222 245.649 458.096 211 458z"/>
<path style="fill:#ededed; stroke:none;" d="M45 459L45 479L65 479L65 459L45 459z"/>
<path style="fill:#c3a7a3; stroke:none;" d="M121 459L121 464L122 464L121 459z"/>
<path style="fill:#b09b98; stroke:none;" d="M307 459L310 461L307 459z"/>
<path style="fill:#ededed; stroke:none;" d="M525 459L525 479L540 479L540 459L525 459z"/>
<path style="fill:#c8aba5; stroke:none;" d="M163 460L163 463L164 463L163 460z"/>
<path style="fill:#d0bbb8; stroke:none;" d="M423 461L423 462L427 461L423 461z"/>
<path style="fill:#cfbab7; stroke:none;" d="M421.667 462.333L422.333 462.667L421.667 462.333z"/>
<path style="fill:#cebcb0; stroke:none;" d="M185 463L190 500L191 500C199.665 487.429 194.1 473.982 185 463z"/>
<path style="fill:#d6bdb6; stroke:none;" d="M208 463L208 468L209 468L208 463z"/>
<path style="fill:#c2aaa8; stroke:none;" d="M314.667 463.333L315.333 463.667L314.667 463.333z"/>
<path style="fill:#b99c96; stroke:none;" d="M122 464L122 468L123 468L122 464z"/>
<path style="fill:#d6beb4; stroke:none;" d="M149 465L149 470L150 470L149 465z"/>
<path style="fill:#e0cdc9; stroke:none;" d="M324 466L324 467C337.165 469.444 351.897 468.434 365 466L349 466.91L324 466z"/>
<path style="fill:#c1a69f; stroke:none;" d="M119 467L119 472L120 472L119 467z"/>
<path style="fill:#b79a94; stroke:none;" d="M123 468L123 472L124 472L123 468z"/>
<path style="fill:#d5beb6; stroke:none;" d="M209 468L209 475L210 475L209 468z"/>
<path style="fill:#bda8a5; stroke:none;" d="M275 469L275 470L278 470L275 469z"/>
<path style="fill:#d8bdb4; stroke:none;" d="M148 470L148 475L149 475L148 470z"/>
<path style="fill:#c8b3b0; stroke:none;" d="M278 470L278 471L281 471L278 470z"/>
<path style="fill:#ccb1aa; stroke:none;" d="M120 472L120 477L121 477L120 472z"/>
<path style="fill:#e6d4d0; stroke:none;" d="M284 472L284 473L296 476L284 472z"/>
<path style="fill:#e0c8be; stroke:none;" d="M477 473L476 489L477 489L477 473z"/>
<path style="fill:#c7b7b7; stroke:none;" d="M112.333 474.667L112.667 475.333L112.333 474.667z"/>
<path style="fill:#cfb6af; stroke:none;" d="M147 476L147 481L148 481L147 476z"/>
<path style="fill:#fefefe; stroke:none;" d="M85 479L85 499L105 499C104.855 486.725 96.4565 479 85 479z"/>
<path style="fill:#c4afac; stroke:none;" d="M306.667 479.333L307.333 479.667L306.667 479.333z"/>
<path style="fill:#3e3b36; stroke:none;" d="M338 490C347.221 505.496 374.049 501 389 501C392.798 501 404.51 502.934 406.918 499.397C409.609 495.443 400.231 480.061 395.895 479.643C389.685 479.044 380.951 483.766 375 485.486C362.975 488.961 350.469 490 338 490z"/>
<path style="fill:#ededed; stroke:none;" d="M505 479L505 499L525 499L525 479L505 479z"/>
<path style="fill:#d0c0c1; stroke:none;" d="M104 480L103 492C106.045 489.339 105.478 483.521 104 480z"/>
<path style="fill:#796a67; stroke:none;" d="M243 480C249.088 488.637 263.074 500.274 274 501L274 500L243 480z"/>
<path style="fill:#e3d0cc; stroke:none;" d="M369 481L369 482L377 481L369 481z"/>
<path style="fill:#ccb7b6; stroke:none;" d="M450 480L449 483L450 480z"/>
<path style="fill:#ceb1b5; stroke:none;" d="M122 481L122 485L123 485L122 481z"/>
<path style="fill:#b09695; stroke:none;" d="M343 487L343 488L376 482L343 487z"/>
<path style="fill:#a59391; stroke:none;" d="M453 481L453 501L455 501L453 481z"/>
<path style="fill:#a4958e; stroke:none;" d="M447 483L439 501C445.134 497.633 447.65 489.514 449 483L447 483z"/>
<path style="fill:#c9b0ab; stroke:none;" d="M486.333 483.667L486.667 484.333L486.333 483.667z"/>
<path style="fill:#c7b2af; stroke:none;" d="M319 484L319 485L322 485L319 484z"/>
<path style="fill:#c6b6b7; stroke:none;" d="M489.333 484.667L489.667 485.333L489.333 484.667z"/>
<path style="fill:#453a36; stroke:none;" d="M215 486C216.036 498.688 218.701 501 231 501L215 486z"/>
<path style="fill:#b39a95; stroke:none;" d="M202 487L204 490L202 487z"/>
<path style="fill:#e5d6d1; stroke:none;" d="M327 487L327 488L343 488L327 487z"/>
<path style="fill:#e6ceca; stroke:none;" d="M131 488L131 501L133 501L131 488z"/>
<path style="fill:#423a37; stroke:none;" d="M200 490L195 501L210 501L200 490z"/>
<path style="fill:#4f3d3d; stroke:none;" d="M409 491L412 501L420 501L409 491z"/>
<path style="fill:#ededed; stroke:none;" d="M165 519L185 519L185 502L205 502L205 519L225 519L225 502L245 502L245 519L265 519L265 502L285 502L285 519L305 519L305 502L325 502L325 519L345 519L345 502L365 502L365 519L385 519L385 502L405 502L405 519L425 519L425 499C402.154 504.369 375.535 501 352 501L215 501L215 497L214 497C209.402 505.338 184.699 500.699 176 501L173 493C161.629 496.201 165 509.726 165 519z"/>
<path style="fill:#c1b3b2; stroke:none;" d="M452 493L452 501L453 501L452 493z"/>
<path style="fill:#d3bab3; stroke:none;" d="M186 494L186 498L187 498L186 494z"/>
<path style="fill:#ededed; stroke:none;" d="M5 499L5 519L25 519L25 499L5 499M445 499L445 519L465 519L465 501L445 499z"/>
<path style="fill:#c5b9b9; stroke:none;" d="M465.333 499.667L465.667 500.333L465.333 499.667z"/>
<path style="fill:#ededed; stroke:none;" d="M485 499L485 519L505 519L505 499L485 499M525 499L525 519L540 519L540 499L525 499z"/>
<path style="fill:#eeeeee; stroke:none;" d="M0 519L0 540L505 540L505 539L485 539L485 519L465 519L465 539L445 539L445 519L425 519L425 539L405 539L405 519L385 519L385 539L365 539L365 519L345 519L345 539L325 539L325 519L305 519L305 539L285 539L285 519L265 519L265 539L245 539L245 519L225 519L225 539L205 539L205 519L185 519L185 539L165 539L165 519L145 519L145 539L125 539L125 519L105 519L105 539L85 539L85 519L65 519L65 539L45 539L45 519L25 519L25 539L5 539L5 519L0 519z"/>
<path style="fill:#ededed; stroke:none;" d="M505 519L505 539L525 539L525 519L505 519z"/>
</svg>
