<?xml version="1.0" standalone="yes"?>
<svg width="2000" height="2000">
<path style="fill:#fefefe; stroke:none;" d="M0 0L0 2000L2000 2000L2000 0L0 0z"/>
<path style="fill:#9eb6c0; stroke:none;" d="M917 98L917 99L920 99L917 98z"/>
<path style="fill:#568694; stroke:none;" d="M920 98L920 99L930 99L920 98z"/>
<path style="fill:#a9c2c9; stroke:none;" d="M930 98L930 99L933 99L930 98z"/>
<path style="fill:#7399a6; stroke:none;" d="M913.667 99.3334L914.333 99.6666L913.667 99.3334z"/>
<path style="fill:#1e5c71; stroke:none;" d="M915 99.4398C899.564 101.925 876.919 121.923 892.214 137.815C902.397 148.395 919.668 148.049 933 145.805C950.589 142.844 964.029 121.928 949.699 107.185C941.04 98.2765 926.603 97.5717 915 99.4398z"/>
<path style="fill:#b8cbd1; stroke:none;" d="M935.667 99.3334L936.333 99.6666L935.667 99.3334z"/>
<path style="fill:#8caeb8; stroke:none;" d="M900 105L901 106L900 105z"/>
<path style="fill:#8fabb9; stroke:none;" d="M896 108L897 109L896 108z"/>
<path style="fill:#1d4851; stroke:none;" d="M916.001 108.613C912.188 109.643 905.382 115.745 912.148 118.357C915.815 119.773 920.051 117.979 924 119.469C926.711 120.492 930.663 123.829 933.682 123.122C937.873 122.141 935.408 115.175 933.682 113.189C929.687 108.593 921.727 107.067 916.001 108.613z"/>
<path style="fill:#8facbc; stroke:none;" d="M951 109L952 110L951 109z"/>
<path style="fill:#8dadb8; stroke:none;" d="M890 115L891 116L890 115z"/>
<path style="fill:#7fa3af; stroke:none;" d="M955 116L955 119L956 119L955 116z"/>
<path style="fill:#568494; stroke:none;" d="M887 123L887 128L888 128L887 123z"/>
<path style="fill:#648e9a; stroke:none;" d="M955 124L955 127L956 127L955 124z"/>
<path style="fill:#9eb6c0; stroke:none;" d="M887.333 128.667L887.667 129.333L887.333 128.667z"/>
<path style="fill:#1d4851; stroke:none;" d="M922.149 129.046C915.811 132.531 922.034 139.911 927.851 136.539C933.852 133.061 927.074 126.339 922.149 129.046z"/>
<path style="fill:#8daeb7; stroke:none;" d="M953 131L954 132L953 131z"/>
<path style="fill:#90aeb9; stroke:none;" d="M889 134L890 135L889 134z"/>
<path style="fill:#429ab0; stroke:none;" d="M805 254C818.522 249.08 831.304 242.099 845 237.344C895.104 219.95 948.127 210.375 1001 218.576C1022.87 221.967 1042.37 226.729 1061 239C1056.24 201.352 1030.63 179.194 998 162.605C983.577 155.273 961.728 149.515 952 136C939.823 141.576 932.212 147.143 918 146.996C911.996 146.934 901.232 140.76 896.209 142.418C893.237 143.399 891.053 147.822 888.957 149.985C884.242 154.851 878.584 158.854 873 162.656C839.363 185.557 805.03 209.143 805 254z"/>
<path style="fill:#a1cbd9; stroke:none;" d="M895.333 140.667L895.667 141.333L895.333 140.667z"/>
<path style="fill:#358491; stroke:none;" d="M956.619 158.176C951.551 161.084 962.15 171.141 964.004 172.996C975.338 184.334 990.101 191.511 1000.39 204C1002.26 206.279 1007.48 215.609 1011.41 212.914C1016.05 209.729 1009.62 200.728 1007.48 198C997.819 185.661 982.954 178.227 971 168.385C968.397 166.242 960.411 156 956.619 158.176M946 208C958.231 203.808 946.612 181.699 944.63 174C943.806 170.799 943.653 165.05 941.158 162.662C934.913 156.684 937.385 175.992 938.079 178C939.266 181.433 940.885 184.692 942.37 188C945.396 194.739 946 200.701 946 208M917 165L911.367 191L898 216C908.242 212.805 920.371 189.44 920.957 179C921.233 174.069 922.524 166.833 917 165M893 166C884.427 167.327 883.15 176.31 877.815 181.907C869.05 191.101 856.79 193.048 850.183 205C848.053 208.853 842.415 221.284 847.584 224.914C851.327 227.542 855.824 209.819 857.8 207C869.15 190.813 892.931 190.176 893 166z"/>
<path style="fill:#cafcf3; stroke:none;" d="M1028 181L1051.69 208L1061.42 239L1075.19 270L1075.13 305L1079 325C1093.41 317.463 1104.28 331.512 1104.96 346C1105.94 366.817 1093.62 392.863 1072 398L1072 423C1075.29 423.002 1078.87 422.696 1082 423.894C1106.28 433.183 1077.7 464.032 1096.39 475.972C1100.79 478.786 1110.74 477.468 1116 478.159C1129.78 479.972 1145.37 485.003 1154.54 496.004C1173.94 519.287 1184.11 550.878 1194.22 579C1215.89 639.295 1234 703.548 1234 768C1234 796.208 1230.53 829.52 1209.83 850.911C1194.39 866.867 1172.82 873.612 1152 879C1158.37 913.284 1166.88 955.181 1162.71 990C1161.36 1001.34 1155.57 1008.65 1152.51 1019C1149.59 1028.92 1151.44 1041.61 1150 1052C1149.28 1057.2 1146.19 1063.84 1146.83 1069C1147.53 1074.6 1153.16 1080.97 1155.74 1086C1161.73 1097.67 1166.89 1109.64 1171.31 1122C1188.19 1169.28 1197 1220.69 1225.52 1263C1251.99 1302.28 1293.61 1329.35 1342 1324.17C1360.49 1322.18 1380.24 1314.71 1390.24 1298C1403.59 1275.68 1392.31 1248.21 1380.58 1228C1374.79 1218.04 1367.66 1209.1 1360.65 1200C1331.99 1162.8 1289.39 1098.73 1332.04 1055.01C1347.55 1039.12 1374.09 1031.43 1394 1044.13C1403.85 1050.42 1411.01 1061.03 1418.2 1070C1426.77 1080.69 1445.97 1098.25 1458.15 1080.96C1464.81 1071.5 1461.68 1058.86 1457.94 1049C1449.36 1026.38 1438.71 1007.23 1434.46 983C1423.64 921.212 1465.87 874.319 1509 837.573C1517.16 830.621 1525.4 823.56 1533 815.999C1536.79 812.226 1540.77 806.566 1546 805C1557.08 779.295 1572.98 755.515 1584.69 730C1610.65 673.462 1626.57 611.171 1603.19 551C1597.22 535.645 1588.69 520.973 1578.58 508C1566.59 492.622 1551.57 479.189 1535 468.914C1483.62 437.062 1414.64 446.6 1371.04 401C1331.15 359.281 1326.88 296.079 1295.48 249C1255.58 189.163 1172.44 162.307 1103 167.089C1077.15 168.87 1053.31 177.276 1028 181M1427 198.529C1392.74 206.391 1384.62 246.585 1389 276C1396.25 324.652 1440.76 364.7 1491 352.403C1496.16 351.14 1501.56 349.169 1506 346.239C1509.41 343.992 1512.42 341.332 1514.78 337.985C1535.77 308.202 1492.96 288.377 1481.27 265C1470.14 242.734 1464.14 190.008 1427 198.529z"/>
<path style="fill:#1e5c71; stroke:none;" d="M933 216.424C900.523 220.701 868.756 228.076 838 239.576C826.378 243.921 811.494 247.899 802.213 256.518C791.205 266.739 792.234 293.428 794.615 307C795.339 311.125 795.835 320.709 800.278 322.671C804.894 324.71 814.764 318.599 819 316.694C834.786 309.599 850.742 302.993 867 297.053C909.58 281.496 961.461 277.586 1006 285.321C1021.95 288.091 1037.93 292.423 1053 298.401C1057.51 300.19 1067.79 307.02 1072.58 305.292C1077.4 303.553 1077.06 290.07 1076.57 286C1074.43 268.054 1073.1 248.847 1058 236.329C1047.77 227.849 1032.72 224.392 1020 221.715C992.409 215.911 961.152 212.717 933 216.424z"/>
<path style="fill:#1d4851; stroke:none;" d="M941 234L940 267L944 267L943 234L941 234M970 268L974 268C974.353 259.773 977.121 251.18 975.33 243C974.872 240.906 973.592 235.115 970.263 236.346C967.51 237.364 968.04 241.785 968.286 244C969.163 251.891 969.978 260.056 970 268M911 237L913 271L916 271C916 259.679 917.043 247.793 913 237L911 237M1007 274C1007 262.45 1008.99 248.958 1005 238C996.485 240.585 999.961 271.664 1007 274z"/>
<path style="fill:#8ac0cc; stroke:none;" d="M805 240L805 245L806 245L805 240z"/>
<path style="fill:#1d4851; stroke:none;" d="M1030 241C1030 250.568 1032.88 259.597 1033 269C1033.06 274.2 1031.69 279.947 1038 281C1038 266.698 1038.5 254.414 1033 241L1030 241M852 246L852 286L856 286C856 276.283 857.004 266.717 857 257C856.998 252.081 857.799 247.007 852 246M886 279C886.957 274.981 887 271.118 887 267L886.999 259C886.99 257.137 885.568 243.539 881.023 248.662C876.43 253.84 879.652 277.073 886 279M1053 252L1062 289L1064 289C1067.03 278.74 1065.24 255.602 1053 252z"/>
<path style="fill:#8caeb8; stroke:none;" d="M803 255L804 256L803 255z"/>
<path style="fill:#1d4851; stroke:none;" d="M821 260C817.727 274.148 817.315 285.794 821 300C828.55 297.495 824.629 278.72 825.089 272C825.283 269.169 826.402 265.963 825.669 263.148C825.013 260.632 823.227 260.372 821 260z"/>
<path style="fill:#8abfc3; stroke:none;" d="M1074.33 266.667L1074.67 267.333L1074.33 266.667z"/>
<path style="fill:#88c0c1; stroke:none;" d="M1075 271L1075 274L1076 274L1075 271z"/>
<path style="fill:#a9c2c7; stroke:none;" d="M794 275L794 278L795 278L794 275z"/>
<path style="fill:#4a8490; stroke:none;" d="M1076 279L1076 286L1077 286L1076 279z"/>
<path style="fill:#55787c; stroke:none;" d="M945 282L945 283L949 283L945 282z"/>
<path style="fill:#8c9584; stroke:none;" d="M949 282L949 283L957 283L949 282z"/>
<path style="fill:#c2b290; stroke:none;" d="M957 282L957 283L970 283L957 282z"/>
<path style="fill:#8b9685; stroke:none;" d="M970 282L970 283L978 283L970 282z"/>
<path style="fill:#c5d7db; stroke:none;" d="M793 283L793 288L794 288L793 283z"/>
<path style="fill:#beb598; stroke:none;" d="M935 283L935 284L941 284L935 283z"/>
<path style="fill:#f8cf9b; stroke:none;" d="M802 332C761.85 341.675 781.067 409.67 818 410L819 434C844.758 437.804 864.39 460.994 887 472.191C895.977 476.636 907.213 477.866 917 479.438C945.456 484.011 976.534 484.243 1004 474.459C1018.47 469.303 1030.18 460.771 1041 449.999C1049.95 441.09 1060.72 428.073 1073 424L1073 423C1069.91 418.927 1069.19 404.809 1072.03 400.278C1074.72 395.979 1083.03 394.304 1087 390.815C1097.65 381.445 1103.06 367.86 1104.71 354C1107.4 331.57 1089.27 309.675 1070.46 332.015C1064.95 338.563 1060.92 346.715 1058.76 355C1056.63 363.171 1058.57 371.736 1049 375L1036 292C1019.2 289.529 1003.04 284.793 986 283.17C954.101 280.131 918.995 283.39 888 291.127C875.778 294.177 853.953 296.885 844.564 305.818C841.338 308.888 840.891 315.838 840 320C837.23 332.931 835.021 346.75 835 360C834.992 364.679 837.204 377.664 830.911 379.249C825.689 380.563 825.14 372.191 824.255 369C819.946 353.477 812.53 343.533 802 332z"/>
<path style="fill:#57787d; stroke:none;" d="M988 283L988 284L993 284L988 283z"/>
<path style="fill:#7a8e83; stroke:none;" d="M996 284L996 285L1000 285L996 284z"/>
<path style="fill:#a5a38c; stroke:none;" d="M916 285L916 286L921 286L916 285z"/>
<path style="fill:#71867f; stroke:none;" d="M1005 285L1005 286L1008 286L1005 285z"/>
<path style="fill:#a6a48b; stroke:none;" d="M911 286L911 287L914 287L911 286z"/>
<path style="fill:#8a9585; stroke:none;" d="M904 287L904 288L907 288L904 287z"/>
<path style="fill:#999e8a; stroke:none;" d="M1015 287L1015 288L1018 288L1015 287z"/>
<path style="fill:#8fadb7; stroke:none;" d="M793 288L793 296L794 296L793 288z"/>
<path style="fill:#718882; stroke:none;" d="M898 288L898 289L901 289L898 288z"/>
<path style="fill:#89978a; stroke:none;" d="M1020.67 288.333L1021.33 288.667L1020.67 288.333z"/>
<path style="fill:#7e8e81; stroke:none;" d="M893.667 289.333L894.333 289.667L893.667 289.333z"/>
<path style="fill:#999d8c; stroke:none;" d="M1024.67 289.333L1025.33 289.667L1024.67 289.333z"/>
<path style="fill:#9a9c87; stroke:none;" d="M889.667 290.333L890.333 290.667L889.667 290.333z"/>
<path style="fill:#a5a38a; stroke:none;" d="M885.667 291.333L886.333 291.667L885.667 291.333z"/>
<path style="fill:#7d8e7e; stroke:none;" d="M1032.67 291.333L1033.33 291.667L1032.67 291.333z"/>
<path style="fill:#a6a48b; stroke:none;" d="M881.667 292.333L882.333 292.667L881.667 292.333z"/>
<path style="fill:#478592; stroke:none;" d="M1076 292L1076 299L1077 299L1076 292z"/>
<path style="fill:#914e33; stroke:none;" d="M1036 293C1042.58 318.424 1048.78 348.7 1049 375C1059.73 372.81 1059.12 352.821 1063.32 344C1066.6 337.106 1076.24 330.745 1077.97 323.911C1083.15 303.433 1050.98 295.212 1036 293z"/>
<path style="fill:#a5a58d; stroke:none;" d="M874.667 294.333L875.333 294.667L874.667 294.333z"/>
<path style="fill:#c58e67; stroke:none;" d="M1036 294L1036 297L1037 297L1036 294z"/>
<path style="fill:#c5d7db; stroke:none;" d="M793 296L793 301L794 301L793 296z"/>
<path style="fill:#914e33; stroke:none;" d="M962.149 305.046C954.02 309.516 964.883 321.261 969.001 324.211C979.044 331.406 992.144 332.258 1004 333.714C1008.13 334.221 1015.01 335.07 1018.68 332.682C1021.42 330.904 1021.68 326.215 1018.68 324.564C1013.93 321.946 1007.17 323.393 1002 322.334C991.65 320.216 983.465 316.099 975 309.884C971.742 307.492 966.516 302.645 962.149 305.046z"/>
<path style="fill:#a6907b; stroke:none;" d="M1074.33 304.667L1074.67 305.333L1074.33 304.667z"/>
<path style="fill:#9eb7be; stroke:none;" d="M794.333 306.667L794.667 307.333L794.333 306.667z"/>
<path style="fill:#914e33; stroke:none;" d="M842 306C830.032 312.38 814.365 320.625 801 323C801.454 333.585 807.18 335.882 812.779 344C817.7 351.134 821.074 359.767 823.653 368C824.754 371.514 825.459 382.15 831.687 379.377C835.925 377.49 833.836 366.806 834.286 363C835.747 350.617 836.192 338.263 838.885 326C840.145 320.262 844.009 311.616 842 306z"/>
<path style="fill:#fefefe; stroke:none;" d="M849.43 309.086C844.385 312.01 845.469 338.006 853.683 332.953C858.68 329.879 856.862 304.779 849.43 309.086z"/>
<path style="fill:#914e33; stroke:none;" d="M923.17 308.746C918.633 310.584 915.085 315.655 911 318.402C903.261 323.606 894.141 326.262 885 327.572C880.684 328.19 870.708 326.086 868.043 330.317C863.456 337.6 875.118 337.999 879 338C892.73 338.005 905.407 338.117 918 331.727C923.688 328.84 930.223 324.379 932.293 318C934.202 312.117 929.413 306.217 923.17 308.746z"/>
<path style="fill:#e9ba86; stroke:none;" d="M940.404 310.086C934.157 313.669 936.914 338.742 943.687 334.914C947.911 332.526 947.478 319.086 946.467 315.005C945.827 312.422 943.756 308.164 940.404 310.086z"/>
<path style="fill:#7fa3af; stroke:none;" d="M795 311L795 314L796 314L795 311z"/>
<path style="fill:#e9ba86; stroke:none;" d="M951 311L953 335C960.568 332.486 955.081 316.584 953 311L951 311z"/>
<path style="fill:#fbe7ce; stroke:none;" d="M846 314L846 323L847 323L846 314z"/>
<path style="fill:#b8cdd0; stroke:none;" d="M796.333 316.667L796.667 317.333L796.333 316.667z"/>
<path style="fill:#a6907b; stroke:none;" d="M1078 321L1078 324L1079 324L1078 321z"/>
<path style="fill:#cafcf3; stroke:none;" d="M795 1195C794.986 1173.59 788.855 1152.2 786.286 1131C784.217 1113.93 784.04 1093.51 778.721 1077.17C776.954 1071.74 771.136 1068.68 769.221 1063C765.106 1050.8 765.251 1035.44 759.684 1024C755.026 1014.43 748.421 1008.01 746.12 997C738.445 960.299 748.976 921.883 749 885C692.875 892.094 682.052 825.79 678.17 785C676.016 762.372 679.428 738.474 681.834 716C683.704 698.531 686.469 681.246 689.69 664C696.652 626.715 702.425 588.442 716.6 553C723.149 536.627 730.471 520.076 744 508.184C753.74 499.622 766.842 494.371 779 490.333C787.406 487.542 796.094 485.074 805 485C804.623 466.845 789.214 433.085 820 433L818 410C794.996 409.461 780.1 382.767 780.001 362C779.938 348.804 785.599 333.371 801 333C800.997 329.771 801.858 324.016 797.852 322.777C791.541 320.825 779.213 327.505 773 329.291C751.46 335.482 729.839 341.611 708 346.651C658.603 358.051 608.912 371.632 562 390.989C544.73 398.115 520.266 405.631 506.518 418.61C494.297 430.147 485.006 450.975 477.784 466C459.533 503.966 448.043 544.671 440.576 586C434.655 618.767 432.07 652.514 441.29 685C448.948 711.981 463.303 744.294 490 757.215C540.851 781.826 605.566 731.058 646.535 781C651.731 787.333 655.29 794.377 658.186 802C665.313 820.76 660.794 840.617 654.667 859C642.668 894.996 619.642 926.241 609.424 963C586.468 1045.59 627.438 1137.34 704 1175.63C733.172 1190.22 762.794 1195 795 1195z"/>
<path style="fill:#c48f67; stroke:none;" d="M1014 323L1014 324L1018 324L1014 323z"/>
<path style="fill:#c59066; stroke:none;" d="M1021 327L1021 330L1022 330L1021 327z"/>
<path style="fill:#b1afa2; stroke:none;" d="M801 328L801 332L802 332L801 328z"/>
<path style="fill:#b97f5a; stroke:none;" d="M992 332L992 333L997 333L992 332z"/>
<path style="fill:#aa6d4e; stroke:none;" d="M872 338L872 339L890 339L872 338z"/>
<path style="fill:#e9ba86; stroke:none;" d="M1086 344L1084 377C1096.22 375.068 1098.42 344.767 1087.89 339.032C1079.59 334.508 1072.81 348.717 1077.07 348.797C1079.8 348.848 1083.26 344.948 1086 344z"/>
<path style="fill:#cb986d; stroke:none;" d="M836 339L836 343L837 343L836 339z"/>
<path style="fill:#e5a367; stroke:none;" d="M946.586 345.086C943.049 347.569 946.685 356.715 947.425 360C950.718 374.608 961.831 389.614 963.505 404C965.031 417.115 946.75 412.901 943.662 421.255C942.127 425.409 947.197 426.059 950.001 425.905C956.12 425.569 963.911 423.247 968.96 419.751C983.782 409.487 968.46 392.413 963.312 381C960.398 374.541 958.605 367.653 956.217 361C955.221 358.227 951.614 341.557 946.586 345.086z"/>
<path style="fill:#fefefe; stroke:none;" d="M848.419 347.047C843.611 350.184 846.19 365.376 852.686 360.353C856.892 357.099 854.86 342.844 848.419 347.047z"/>
<path style="fill:#c48f65; stroke:none;" d="M835 347L835 352L836 352L835 347z"/>
<path style="fill:#cc8b55; stroke:none;" d="M1006 379L1006 377L988 367C997.645 368.791 1005.24 366.623 1013 360.482C1015.11 358.809 1021.5 353.851 1018.34 350.661C1016.16 348.465 1012.82 351.125 1011 352.444C1005.31 356.574 1000.42 360.42 993 359.903C988.997 359.624 981.209 354.659 977.604 357.118C973.382 359.999 978.98 366.757 981.094 368.96C987.054 375.169 997.195 381.529 1006 379z"/>
<path style="fill:#e9ba86; stroke:none;" d="M807 392C806.358 385.737 802.77 380.736 800.453 375C798.785 370.869 795.145 362.557 798.029 358.333C799.797 355.742 806.364 357.736 806.364 354.073C806.364 347.969 795.197 350.381 792.893 353.344C784.926 363.593 794.517 390.073 807 392z"/>
<path style="fill:#fae6cb; stroke:none;" d="M845 350L845 358L846 358L845 350z"/>
<path style="fill:#cb8a54; stroke:none;" d="M873 360C874.235 376.244 900.131 374.054 911 371C908.451 373.111 905.835 374.886 903 376.599C901.518 377.495 889.895 384.227 896.323 386.188C904.121 388.567 914.912 377.9 917.941 372C919.227 369.496 921.044 365.208 918.971 362.607C916.634 359.674 910.816 362.168 908 363.025C894.355 367.177 885.967 360.673 873 360z"/>
<path style="fill:#deaf81; stroke:none;" d="M834 361L834 377L835 377L834 361z"/>
<path style="fill:#c59064; stroke:none;" d="M1048 367L1048 373L1049 373L1048 367z"/>
<path style="fill:#e9ba86; stroke:none;" d="M1066.66 369.056C1064.02 371.061 1068.69 374.376 1069.39 376.209C1070.25 378.504 1067.03 392.565 1073.68 388.914C1081.9 384.395 1074.28 363.278 1066.66 369.056z"/>
<path style="fill:#c49166; stroke:none;" d="M1056.33 369.667L1056.67 370.333L1056.33 369.667z"/>
<path style="fill:#e1ac78; stroke:none;" d="M891 373L891 374L901 374L891 373z"/>
<path style="fill:#cafcf3; stroke:none;" d="M1574 374.468C1542.62 380.337 1551.55 428.324 1583 422.381C1614.02 416.519 1604.4 368.781 1574 374.468z"/>
<path style="fill:#e9ba86; stroke:none;" d="M816.089 379.086C808.209 382.938 812.558 403.513 821.667 399.377C823.811 398.404 821.625 376.381 816.089 379.086z"/>
<path style="fill:#efa693; stroke:none;" d="M1029 390.514C1021.72 391.956 1007.81 390.423 1002.13 395.318C995.839 400.746 997.445 410.666 1004.04 415.005C1010.95 419.55 1022.09 419.96 1030 418.536C1035.93 417.469 1042.68 415.489 1045.91 409.985C1052.64 398.498 1039.98 388.338 1029 390.514M860 398.424C856.112 398.935 851.436 398.506 848.044 400.742C841.493 405.061 841.367 415.655 848.105 419.911C855.655 424.679 872.439 424.104 881 422.674C890.675 421.058 900.59 408.905 889.811 401.144C882.534 395.905 868.438 397.316 860 398.424z"/>
<path style="fill:#e1e6c6; stroke:none;" d="M1071 399L1071 423L1072 423L1071 399z"/>
<path style="fill:#b8ede5; stroke:none;" d="M820 1350L803.714 1245L796 1193L795 1193C790.739 1196.23 784.162 1195 779 1195C763.106 1195 747.115 1191.5 732 1186.66C670.083 1166.8 618.707 1112.93 607.321 1048C599.117 1001.21 607.666 961.779 627.309 919C644.777 880.956 674.615 838.058 655.716 795C652.984 788.774 649.396 783.063 644.826 778.004C602.318 730.948 537.994 784.085 488 755.662C455.971 737.453 440.145 693.689 436.83 659C430.716 595.014 449.652 523.235 478.27 466C486.447 449.646 497.145 434.906 506 419C477.948 429.27 449.747 456.253 429 477C406.359 499.641 384.387 525.261 369.806 554C323.441 645.377 334.573 759.107 376.309 850C397.919 897.064 433.706 935.675 454.28 983C461.001 998.459 468.717 1015.97 469.91 1033C473.89 1089.77 444.514 1138.35 428.72 1191C407.05 1263.24 419.137 1352.28 479 1403.57C492.01 1414.72 506.135 1425.04 522 1431.77C591.31 1461.14 659.712 1408.68 719 1379.03C742.335 1367.36 767.068 1356.14 793 1351.85C801.886 1350.39 811.02 1347.86 820 1350z"/>
<path style="fill:#f2c72b; stroke:none;" d="M1073 423.533C1054.88 427.901 1040.24 451.456 1026 462.486C1006.53 477.567 978.038 482.511 954 482.985C934.286 483.373 908.272 480.903 890 473.12C875.285 466.853 862.288 455.747 849 447.003C839.168 440.533 817.797 426.923 806.044 436.318C794.171 445.808 803.611 468.73 804.657 481C805.367 489.332 797.171 495.793 796.186 504C793.912 522.942 816.029 538.971 830 547.772C885.91 582.992 967.013 583.012 1028 562.484C1049.4 555.281 1070.02 542.932 1086 526.999C1092.99 520.034 1100.63 512.074 1102.53 502C1105.63 485.588 1091.86 476.244 1090.19 461C1089.15 451.476 1095.42 440.177 1090.68 431.001C1087.25 424.359 1080.05 421.833 1073 423.533z"/>
<path style="fill:#fefefe; stroke:none;" d="M1221.34 432.039C1215.13 436.079 1228.69 440.211 1231 440.997C1245.81 446.042 1268.01 453.843 1270.79 472C1272.78 485.06 1263.18 498.123 1272.39 509.999C1282.74 523.344 1301.22 526.007 1310.53 541C1318.92 554.5 1315.86 565.42 1317.24 579.941C1317.49 582.56 1319.78 584.681 1322.36 582.953C1325.2 581.041 1325.86 576.059 1326.62 573C1329.66 560.786 1326.51 548.928 1320.74 538C1312 521.443 1292.79 518.444 1282.65 503.999C1275.16 493.341 1282.04 485.199 1280.81 474C1278.72 454.929 1259.63 441.781 1243 436.079C1238.39 434.498 1225.74 429.173 1221.34 432.039z"/>
<path style="fill:#e7d45c; stroke:none;" d="M811 433L811 434L819 434L811 433z"/>
<path style="fill:#dee391; stroke:none;" d="M1092 435L1092 445L1093 445L1092 435z"/>
<path style="fill:#fefefe; stroke:none;" d="M942 436.468C932.127 438.333 910.97 460.637 926.059 468.82C935.916 474.166 948.558 460.929 959 462.192C966.258 463.07 973.346 471.622 980.891 469.551C990.172 467.003 982.644 450.213 978.812 446.043C970.362 436.85 953.863 434.226 942 436.468z"/>
<path style="fill:#e9d55c; stroke:none;" d="M800 445L800 454L801 454L800 445z"/>
<path style="fill:#fefefe; stroke:none;" d="M699.996 448.657C694.683 449.953 689.294 453.648 685 456.9C672.059 466.698 664.253 480.987 662.286 497C660.581 510.884 663.184 522.997 656.204 536C643.049 560.508 618.604 575.945 608.425 603C603.293 616.642 602.361 630.93 609.88 644C612.093 647.847 616.681 655.098 621.941 654.418C626.585 653.818 626.157 648.254 625.034 645C619.849 629.982 615.151 618.707 621.873 603C632.089 579.126 654.068 564.106 666.662 542C676.765 524.266 669.097 504.229 676.453 486C679.839 477.609 684.95 470.197 692 464.468C695.78 461.396 703.611 459.06 705.928 454.738C708.209 450.483 703.725 447.747 699.996 448.657z"/>
<path style="fill:#d6ab21; stroke:none;" d="M829.089 458.877C813.707 465.062 825.195 489.03 824.87 500C824.692 506.037 821.624 511.308 820.048 516.996C819.382 519.4 818.991 524.182 823.055 522.744C839.299 516.994 829.32 486.873 830.044 475C830.339 470.167 834.342 466.652 834.574 462.059C834.738 458.813 831.751 457.807 829.089 458.877z"/>
<path style="fill:#fefefe; stroke:none;" d="M636.999 459.549C617.882 463.134 609.014 483.815 607.174 501C606.266 509.476 607.703 519.106 603.861 527C598.691 537.623 587.02 542.87 579.039 551.015C566.01 564.312 556.457 581.922 552.13 600C548.681 614.411 548.618 630.925 553.356 645C554.474 648.323 557.603 658.758 562.698 657.249C567.077 655.951 564.293 646.059 563.95 643C562.225 627.637 559.374 613.282 563.71 598C568.743 580.263 578.832 567.63 592 555.039C598.566 548.761 606.68 543.873 611.532 536C620.037 522.198 616.808 504.244 620.885 489C622.746 482.041 626.176 476.142 632.004 471.761C635.05 469.47 640.154 467.906 642.338 464.731C645.077 460.747 640.219 458.945 636.999 459.549z"/>
<path style="fill:#d6ab21; stroke:none;" d="M1053.61 460.135C1050.17 462.312 1054.46 466.544 1056.04 468.17C1069.33 481.793 1057.53 494.17 1062.67 510C1063.63 512.959 1068.14 526.692 1073.36 522.914C1076.97 520.3 1070.36 508.318 1069.43 505C1065.29 490.321 1077.92 479.119 1064.96 466.04C1062.84 463.907 1057.12 457.91 1053.61 460.135z"/>
<path style="fill:#fefefe; stroke:none;" d="M1198 468.468C1193.97 469.25 1187.5 472.82 1191.61 477.667C1194.85 481.489 1201.77 477.872 1206 478.108C1212.88 478.492 1219.28 482.051 1223.9 487.015C1237.42 501.573 1222.81 514.821 1229.37 530C1232.41 537.044 1239.72 541.704 1245 547C1252.92 554.946 1259.89 564.316 1263.66 575C1268.9 589.889 1269.19 603.543 1269 619C1268.96 622.504 1267.95 630.816 1273.88 629.624C1278.09 628.775 1279.35 620.505 1279.82 617C1281.5 604.353 1280.23 591.269 1276.56 579C1273.19 567.743 1267.3 555.904 1259.38 547.17C1253.8 541.009 1246.06 536.462 1242.05 529C1236.33 518.373 1241.03 507.213 1239.83 496C1237.64 475.682 1216.98 464.78 1198 468.468z"/>
<path style="fill:#e9ba86; stroke:none;" d="M970 480C968.045 470.34 955.928 468.373 948.059 472.92C946.05 474.08 942.475 477.829 946.323 479.346C950.094 480.834 955.656 477.655 960 478.514C963.422 479.191 966.488 479.925 970 480z"/>
<path style="fill:#4b767f; stroke:none;" d="M1096 477L1096 478L1107 478L1096 477z"/>
<path style="fill:#75a2a5; stroke:none;" d="M1107 477L1107 478L1111 478L1107 477z"/>
<path style="fill:#204a5a; stroke:none;" d="M1097 478C1099.41 483.766 1103.86 489.494 1103.74 496C1103.33 516.723 1075.82 538.634 1059 547L1094 692C1102.93 689.428 1110.82 683.479 1120 681.532C1124.07 680.67 1129.88 681.918 1130.18 687.015C1130.72 696.527 1112.88 707.899 1108 716C1130.36 715.8 1151.05 698.667 1172 692.345C1176.75 690.912 1193.06 687.995 1191.03 698.004C1190.04 702.87 1183.86 706.529 1180 708.934C1170.06 715.123 1155.65 719.01 1148 728C1163.15 728 1178.02 724.218 1193 722.13C1198.64 721.344 1206.82 719.19 1211.85 722.894C1218.54 727.818 1210.72 734.236 1206 736.623C1192.5 743.452 1175.69 747.601 1161 751L1161 752C1172.03 751.526 1203.02 743.783 1209.03 757.019C1211.51 762.476 1203.93 765.682 1200 766.971C1188.81 770.64 1176.76 771.999 1165 772L1165 773C1174.21 775.383 1183.6 774.931 1193 776.051C1196.28 776.442 1201.6 777.188 1202.65 781.057C1205.2 790.381 1181.54 793.281 1176 792.911C1143.05 790.707 1108.96 785.091 1076 785C1072.15 797.041 1058.82 800.755 1048 804.659C1029.29 811.409 1010.64 818.454 992 825.424C982.127 829.117 971.501 834.713 961 836L971 845C976.942 843.086 985.494 848.805 991 851.15C1005.99 857.535 1021.53 862.893 1037 867.999C1089.08 885.193 1166.63 895.033 1209.83 851.829C1234.15 827.502 1235.28 783.927 1233.09 752C1228.53 685.425 1211.18 618.948 1186.4 557C1177.83 535.565 1168.5 503.928 1149 489.789C1133.91 478.85 1114.85 478 1097 478z"/>
<path style="fill:#6c999e; stroke:none;" d="M1116 478L1116 479L1119 479L1116 478z"/>
<path style="fill:#94c5c2; stroke:none;" d="M1127.67 480.333L1128.33 480.667L1127.67 480.333z"/>
<path style="fill:#81aeb1; stroke:none;" d="M1130.67 481.333L1131.33 481.667L1130.67 481.333z"/>
<path style="fill:#f5cc63; stroke:none;" d="M946 482L946 483L960 483L946 482z"/>
<path style="fill:#d6ab21; stroke:none;" d="M855 540L857 540C865.425 525.179 859.719 513.438 861.059 498C861.345 494.704 868.833 486.242 862.851 484.751C857.979 483.536 854.713 490.214 854.189 494C852.941 503.017 857.107 511.133 856.982 520C856.884 526.858 853.128 533.19 855 540z"/>
<path style="fill:#4f818a; stroke:none;" d="M797 485L797 486L802 486L797 485z"/>
<path style="fill:#235667; stroke:none;" d="M749 885L749 889L750 889C752.377 881.475 761.857 884.797 768 883.406C786.3 879.262 805.515 878.147 824 874.211C869.551 864.51 915.568 852.671 959.714 837.637C990.185 827.261 1020.71 811.259 1052 804L1052 803C1016.58 802.707 1011.94 750.362 1026 727L977 734.787L889 710C892.966 720.281 896.672 743.997 885.581 752.012C878.144 757.386 861.022 757.254 852 759C818.535 765.478 784.747 765.733 751 769.714C739.669 771.052 726.911 772.219 716 768.3C712.601 767.08 706.207 764.433 706.207 760.012C706.207 756.219 710.958 754.481 714 754.105C724.079 752.858 733.998 752.94 744 751L744 750C732.073 750 719.236 749.348 708 744.931C704.365 743.502 697.321 739.957 699.752 735.015C706.411 721.474 735.377 729.992 747 730L747 729C732.509 725.678 716.259 721.537 703 714.726C698.121 712.22 689.882 705.756 697.073 700.742C702.289 697.106 711.213 699.742 717 700.579C731.758 702.716 746.044 706 761 706C752.975 696.632 738.133 693.324 728 686.48C724.522 684.131 718.679 680.479 717.832 676.004C715.947 666.052 732.28 669.002 737 670.519C757.547 677.124 778.018 693.544 800 694C795.599 683.485 780.289 677.101 778.786 666.004C778.065 660.676 783.808 658.89 788 659.765C798.667 661.99 808.072 667.867 818 672C818.136 655.535 823.708 639.284 825.714 623C828.609 599.501 829.803 573.657 837 551C822.896 544.406 797.111 526.195 796.059 509C795.503 499.923 801.679 492.936 805 485C781.43 487.979 754.809 494.906 738.093 513.001C717.458 535.34 709.517 570.217 702.989 599C690.284 655.023 679 712.376 679 770C679 808.795 681.013 867.101 725 882.304C732.924 885.043 740.732 885 749 885z"/>
<path style="fill:#76a9ac; stroke:none;" d="M792.667 486.333L793.333 486.667L792.667 486.333z"/>
<path style="fill:#62949b; stroke:none;" d="M788.667 487.333L789.333 487.667L788.667 487.333z"/>
<path style="fill:#63959c; stroke:none;" d="M784.667 488.333L785.333 488.667L784.667 488.333z"/>
<path style="fill:#d6ab21; stroke:none;" d="M1034 539C1033.32 532.25 1028.86 526.676 1028.2 520C1027.59 513.775 1031.6 508.884 1032.61 503C1033.2 499.493 1026.45 483.867 1022.09 489.661C1020.08 492.323 1025.03 498.582 1024.81 502C1024.11 512.828 1015.92 535.97 1034 539M902 550C916.752 542.33 906.804 520.106 907.019 508C907.076 504.816 911.819 495.162 908.407 493.176C903.69 490.429 899.156 503.057 898.519 506C896.464 515.486 902.9 523.042 904.532 532C905.671 538.255 902.284 543.805 902 550z"/>
<path style="fill:#898a46; stroke:none;" d="M1103 492L1103 499L1104 499L1103 492z"/>
<path style="fill:#d6ab21; stroke:none;" d="M950 557C965.329 552.388 947.968 527.454 948.084 518C948.159 511.864 953.903 508.03 953 502C931.372 512.171 949.989 540.28 950 557M987.451 503.176C984.315 504.905 984.081 510.933 984.015 514C983.77 525.526 990.129 534.211 992.483 545C993 547.37 992.919 559.191 997.78 556.824C1001.75 554.891 1001.25 547.576 1000.82 544C999.396 532.297 991.086 523.286 991.001 511C990.989 509.237 991.42 500.987 987.451 503.176z"/>
<path style="fill:#707944; stroke:none;" d="M1102.33 502.667L1102.67 503.333L1102.33 502.667z"/>
<path style="fill:#969543; stroke:none;" d="M796 511L796 514L797 514L796 511z"/>
<path style="fill:#193d49; stroke:none;" d="M980 574C990.788 601.807 1005.08 628.28 1016.2 656C1019.13 663.301 1028.59 678.187 1027.07 686C1026.11 690.913 1019.73 694.636 1016 697.36C1003.87 706.216 986.278 715.302 971 716L974.318 734.258L993 733.049L1047 722.468L1065.79 724.929L1077.39 704.093L1092.93 692.39L1091.63 682L1085.23 657L1068.65 595L1059 548C1033.09 558.785 1008.64 571.72 980 574M836 552C830.925 578.168 829.234 604.884 824.197 631C822.141 641.656 815.287 660.235 818.319 670.79C819.885 676.244 828.767 678.651 832.211 683.093C835.884 687.832 836.879 699.146 842.34 701.867C845.911 703.646 851.86 699.789 856 700.177C866.659 701.178 876.305 707.127 887 708L888.961 635L883 568L836 552z"/>
<path style="fill:#63969a; stroke:none;" d="M713.333 560.667L713.667 561.333L713.333 560.667z"/>
<path style="fill:#a29535; stroke:none;" d="M855.667 560.333L856.333 560.667L855.667 560.333z"/>
<path style="fill:#958a38; stroke:none;" d="M870.667 565.333L871.333 565.667L870.667 565.333z"/>
<path style="fill:#a19436; stroke:none;" d="M874.667 566.333L875.333 566.667L874.667 566.333z"/>
<path style="fill:#a29336; stroke:none;" d="M878.667 567.333L879.333 567.667L878.667 567.333z"/>
<path style="fill:#6a7243; stroke:none;" d="M1011.67 567.333L1012.33 567.667L1011.67 567.333z"/>
<path style="fill:#78793f; stroke:none;" d="M1007.67 568.333L1008.33 568.667L1007.67 568.333z"/>
<path style="fill:#6d9ea3; stroke:none;" d="M710.333 569.667L710.667 570.333L710.333 569.667z"/>
<path style="fill:#dfaf27; stroke:none;" d="M883 569L887.83 611L889.996 672L887.83 698L888.028 708.297L909 715.67L971 733C971 693.189 968.27 652.677 958.116 614C955.729 604.909 952.974 595.913 950 587C948.972 583.918 948.165 579.042 945.351 577.028C940.927 573.861 930.282 575.194 925 574.961C910.914 574.338 897.075 569.29 883 569z"/>
<path style="fill:#78793d; stroke:none;" d="M1003.67 569.333L1004.33 569.667L1003.67 569.333z"/>
<path style="fill:#938b3a; stroke:none;" d="M998 570L998 571L1001 571L998 570z"/>
<path style="fill:#918c38; stroke:none;" d="M993.667 571.333L994.333 571.667L993.667 571.333z"/>
<path style="fill:#9f9438; stroke:none;" d="M987 572L987 573L990 573L987 572z"/>
<path style="fill:#767a3d; stroke:none;" d="M980 573L980 574L985 574L980 573z"/>
<path style="fill:#56828b; stroke:none;" d="M1192.33 573.667L1192.67 574.333L1192.33 573.667z"/>
<path style="fill:#cc9b22; stroke:none;" d="M946 576C949.945 590.452 955.736 604.337 959.113 619C966.485 651.017 969.596 683.285 971 716C986.66 714.754 1003.33 707.129 1016 698.09C1019.98 695.252 1026.82 691.348 1027.5 686C1028.19 680.526 1023.39 672.975 1021.4 668C1015.35 652.871 1008.92 637.939 1002.42 623C997.467 611.604 992.197 600.35 987.139 589C985.404 585.107 983.235 577.442 979.582 575.028C972.891 570.607 954.053 576 946 576z"/>
<path style="fill:#62949d; stroke:none;" d="M706.333 583.667L706.667 584.333L706.333 583.667M705.333 587.667L705.667 588.333L705.333 587.667z"/>
<path style="fill:#608d92; stroke:none;" d="M1198.33 590.667L1198.67 591.333L1198.33 590.667z"/>
<path style="fill:#5f93a0; stroke:none;" d="M704.333 591.667L704.667 592.333L704.333 591.667z"/>
<path style="fill:#629599; stroke:none;" d="M703.333 595.667L703.667 596.333L703.333 595.667z"/>
<path style="fill:#618e93; stroke:none;" d="M1200.33 596.667L1200.67 597.333L1200.33 596.667z"/>
<path style="fill:#6c9fa3; stroke:none;" d="M702 599L702 602L703 602L702 599z"/>
<path style="fill:#608d93; stroke:none;" d="M1201.33 599.667L1201.67 600.333L1201.33 599.667z"/>
<path style="fill:#80b3b4; stroke:none;" d="M701.333 603.667L701.667 604.333L701.333 603.667z"/>
<path style="fill:#6c9fa2; stroke:none;" d="M700 608L700 611L701 611L700 608z"/>
<path style="fill:#7c7733; stroke:none;" d="M887 608L887 612L888 612L887 608z"/>
<path style="fill:#c99728; stroke:none;" d="M909 611C916.246 636.786 914.017 662.724 914 689C918.809 685.603 917.998 676.394 918 671C918.006 655.535 917.724 641.173 914.51 626C913.415 620.829 913.733 614.242 909 611z"/>
<path style="fill:#82b3b7; stroke:none;" d="M699.333 612.667L699.667 613.333L699.333 612.667z"/>
<path style="fill:#56828d; stroke:none;" d="M1206.33 615.667L1206.67 616.333L1206.33 615.667z"/>
<path style="fill:#77aaad; stroke:none;" d="M698 617L698 620L699 620L698 617z"/>
<path style="fill:#c99728; stroke:none;" d="M930 620L936.714 655L937 698C943.372 695.906 943.926 683.899 943.996 678C944.236 657.977 940.173 638.352 932 620L930 620z"/>
<path style="fill:#6d9ea3; stroke:none;" d="M697.333 622.667L697.667 623.333L697.333 622.667z"/>
<path style="fill:#4b5940; stroke:none;" d="M888 622L888 631L889 631L888 622z"/>
<path style="fill:#81b2b6; stroke:none;" d="M696 626L696 629L697 629L696 626z"/>
<path style="fill:#608d92; stroke:none;" d="M1210.33 628.667L1210.67 629.333L1210.33 628.667z"/>
<path style="fill:#76a9ac; stroke:none;" d="M695.333 631.667L695.667 632.333L695.333 631.667z"/>
<path style="fill:#5f8c92; stroke:none;" d="M1212.33 635.667L1212.67 636.333L1212.33 635.667z"/>
<path style="fill:#ae9531; stroke:none;" d="M889 637L889 645L890 645L889 637z"/>
<path style="fill:#56828b; stroke:none;" d="M1213.33 639.667L1213.67 640.333L1213.33 639.667z"/>
<path style="fill:#62949d; stroke:none;" d="M693.333 642.667L693.667 643.333L693.333 642.667z"/>
<path style="fill:#6b989d; stroke:none;" d="M1214.33 642.667L1214.67 643.333L1214.33 642.667z"/>
<path style="fill:#7c7737; stroke:none;" d="M889 645L889 671L890 671L889 645z"/>
<path style="fill:#80b2b1; stroke:none;" d="M692 646L692 649L693 649L692 646z"/>
<path style="fill:#618e93; stroke:none;" d="M1215.33 646.667L1215.67 647.333L1215.33 646.667z"/>
<path style="fill:#56828b; stroke:none;" d="M1216.33 650.667L1216.67 651.333L1216.33 650.667z"/>
<path style="fill:#568388; stroke:none;" d="M1217.33 654.667L1217.67 655.333L1217.33 654.667z"/>
<path style="fill:#62949b; stroke:none;" d="M690 658L690 661L691 661L690 658z"/>
<path style="fill:#f8cf9b; stroke:none;" d="M800 694C776.267 692.965 756.206 674.246 733 669.805C727.267 668.708 712.271 668.981 718.607 678.985C722.868 685.712 732.136 689.806 739 693.247C746.557 697.035 754.44 700.605 761 706C747.335 708.667 729.699 702.681 716 700.729C710.753 699.981 702.171 698.41 697.148 700.603C689.081 704.126 697.911 712.622 702 714.726C715.019 721.425 732.542 726.834 747 729L747 730C736.278 730 725.71 728.999 715 729C710.264 729 704.846 728.367 701.318 732.228C696.324 737.694 701.629 742.959 707 744.895C718.222 748.939 732.161 749.967 744 750C736 753.72 727.689 753.997 719 754C714.875 754.002 709.383 753.391 706.623 757.228C703.827 761.114 707.755 764.766 711.005 766.583C718.158 770.583 726.116 770 734 770C758.369 770 783.852 767.902 808 764.576C816.47 763.41 827.659 764.099 834.911 758.982C845.784 751.309 858.974 724.605 853.258 711.105C850.838 705.39 842.798 703.827 839.673 697.996C836.914 692.849 835.967 686.816 832.211 682.184C824.279 672.405 797.095 657.442 784.019 659.269C778.14 660.09 778.336 666.758 780.457 671C784.905 679.897 794.765 685.125 800 694z"/>
<path style="fill:#76a3a8; stroke:none;" d="M1219 661L1219 664L1220 664L1219 661z"/>
<path style="fill:#8d9385; stroke:none;" d="M778 662L778 667L779 667L778 662z"/>
<path style="fill:#55818a; stroke:none;" d="M1220.33 666.667L1220.67 667.333L1220.33 666.667z"/>
<path style="fill:#8cbebd; stroke:none;" d="M688 668L688 671L689 671L688 668z"/>
<path style="fill:#587573; stroke:none;" d="M724 668L724 669L728 669L724 668z"/>
<path style="fill:#9b9a85; stroke:none;" d="M731 669L731 670L734 670L731 669z"/>
<path style="fill:#7e8a7c; stroke:none;" d="M736.667 670.333L737.333 670.667L736.667 670.333z"/>
<path style="fill:#5f8f93; stroke:none;" d="M1221.33 670.667L1221.67 671.333L1221.33 670.667z"/>
<path style="fill:#b09230; stroke:none;" d="M889 671L889 679L890 679L889 671z"/>
<path style="fill:#8bbdbe; stroke:none;" d="M687 674L687 677L688 677L687 674z"/>
<path style="fill:#75a2a7; stroke:none;" d="M1222 674L1222 677L1223 677L1222 674z"/>
<path style="fill:#618b97; stroke:none;" d="M1223 679L1223 682L1224 682L1223 679z"/>
<path style="fill:#a89d81; stroke:none;" d="M1119.67 681.333L1120.33 681.667L1119.67 681.333z"/>
<path style="fill:#f8cf9b; stroke:none;" d="M1165 773L1165 772C1176.3 769.902 1187.8 770.752 1199 767.572C1203.27 766.359 1209.7 764.508 1209.7 758.997C1209.7 753.381 1203.61 751.274 1199 751.04C1186.32 750.398 1173.69 752 1161 752L1161 751C1175.4 748.873 1192.77 743.224 1206 737.099C1210.06 735.219 1219.54 727.767 1212.68 723.179C1208.01 720.053 1198.22 722.074 1193 722.715C1178.04 724.553 1163.07 728.353 1148 729C1157.97 716.261 1182.41 715.774 1189.97 700.985C1196.36 688.504 1177.21 691.056 1171 692.525C1149.51 697.608 1130.51 715.533 1108 716C1113.96 708.75 1124.46 701.165 1128.54 693C1130.67 688.74 1130.85 682.115 1124.98 681.268C1112.04 679.4 1084.34 694.196 1076.64 704.093C1072.5 709.412 1071.78 716.463 1068.03 721.957C1064.68 726.861 1056.88 727.967 1055.32 734.015C1051.78 747.715 1057.56 774.185 1070.01 782.106C1078.1 787.249 1093.62 786.332 1103 787.086C1126.57 788.98 1150.34 791.991 1174 792C1180.02 792.002 1206.99 792.254 1202.38 780.144C1201.02 776.569 1196.26 776.189 1193 776.039C1183.1 775.585 1174.7 775.223 1165 773z"/>
<path style="fill:#61939a; stroke:none;" d="M686 682L686 685L687 685L686 682z"/>
<path style="fill:#568389; stroke:none;" d="M1224.33 684.667L1224.67 685.333L1224.33 684.667z"/>
<path style="fill:#586b69; stroke:none;" d="M1130 685L1130 689L1131 689L1130 685z"/>
<path style="fill:#8bbdbe; stroke:none;" d="M685 687L685 690L686 690L685 687z"/>
<path style="fill:#558288; stroke:none;" d="M1225.33 689.667L1225.67 690.333L1225.33 689.667z"/>
<path style="fill:#556b69; stroke:none;" d="M1180 690L1180 691L1185 691L1180 690z"/>
<path style="fill:#c5ad87; stroke:none;" d="M1174 691L1174 692L1178 692L1174 691z"/>
<path style="fill:#8bbebf; stroke:none;" d="M684 694L684 697L685 697L684 694z"/>
<path style="fill:#a79b81; stroke:none;" d="M1164.67 694.333L1165.33 694.667L1164.67 694.333z"/>
<path style="fill:#608d92; stroke:none;" d="M1226 694L1226 697L1227 697L1226 694z"/>
<path style="fill:#9b957f; stroke:none;" d="M1191 695L1191 699L1192 699L1191 695z"/>
<path style="fill:#8bb9b9; stroke:none;" d="M1227 698L1227 701L1228 701L1227 698z"/>
<path style="fill:#c3b18d; stroke:none;" d="M698 699L698 700L709 700L698 699z"/>
<path style="fill:#989b86; stroke:none;" d="M714 700L714 701L717 701L714 700z"/>
<path style="fill:#429ab0; stroke:none;" d="M843 703L843 704C868.235 717.296 843.69 758.911 822 763C828.739 765.802 839.951 761.333 847 760.084C856.69 758.368 866.328 756.42 876 754.611C879.301 753.994 884.52 754.117 886.914 751.411C893.975 743.435 896.799 717.5 888.351 709.728C885.543 707.144 880.527 706.78 877 705.656C865.02 701.836 855.132 698.058 843 703z"/>
<path style="fill:#6c9fa3; stroke:none;" d="M683 701L683 705L684 705L683 701z"/>
<path style="fill:#a9a285; stroke:none;" d="M721 701L721 702L724 702L721 701z"/>
<path style="fill:#73827b; stroke:none;" d="M729 702L729 703L732 703L729 702z"/>
<path style="fill:#8e937f; stroke:none;" d="M693 703L693 706L694 706L693 703M734 703L734 704L737 704L734 703z"/>
<path style="fill:#81afaf; stroke:none;" d="M1228 704L1228 707L1229 707L1228 704z"/>
<path style="fill:#8f927f; stroke:none;" d="M755 706L755 707L760 707L755 706z"/>
<path style="fill:#76a9ad; stroke:none;" d="M682 709L682 715L683 715L682 709z"/>
<path style="fill:#89b9b9; stroke:none;" d="M1229 710L1229 713L1230 713L1229 710z"/>
<path style="fill:#a49d83; stroke:none;" d="M1123.67 712.333L1124.33 712.667L1123.67 712.333z"/>
<path style="fill:#358491; stroke:none;" d="M880 723C877.84 710.438 853.015 715.537 867.005 721.366C868.609 722.034 870.279 722.541 872 722.79C874.624 723.169 877.356 723 880 723z"/>
<path style="fill:#a89c82; stroke:none;" d="M1117.67 714.333L1118.33 714.667L1117.67 714.333z"/>
<path style="fill:#7d7433; stroke:none;" d="M975.667 715.333L976.333 715.667L975.667 715.333z"/>
<path style="fill:#81aeb1; stroke:none;" d="M1230 717L1230 720L1231 720L1230 717z"/>
<path style="fill:#76a9ad; stroke:none;" d="M681 718L681 722L682 722L681 718z"/>
<path style="fill:#4c5a41; stroke:none;" d="M971 720L971 733L972 733L971 720z"/>
<path style="fill:#8b8e7d; stroke:none;" d="M1197 721L1197 722L1202 722L1197 721z"/>
<path style="fill:#c5af8a; stroke:none;" d="M1202 721L1202 722L1211 722L1202 721z"/>
<path style="fill:#2d6c7d; stroke:none;" d="M1046 722L1046 723L1054 723L1046 722z"/>
<path style="fill:#a99d83; stroke:none;" d="M1190 722L1190 723L1195 723L1190 722z"/>
<path style="fill:#429ab0; stroke:none;" d="M1079 785L1079 784C1058.4 783.388 1042.95 736.264 1064 727C1058.63 722.666 1051.64 722.624 1045 723.089C1039.43 723.48 1028.96 724.108 1024.93 728.314C1018.69 734.826 1019 743.683 1019 752C1019 771.705 1024.98 808.213 1053 802.621C1058.69 801.486 1066.47 798.501 1070.81 794.61C1074.1 791.67 1075.22 787.277 1079 785z"/>
<path style="fill:#737b70; stroke:none;" d="M1183 723L1183 724L1186 724L1183 723z"/>
<path style="fill:#8a833d; stroke:none;" d="M938.667 724.333L939.333 724.667L938.667 724.333z"/>
<path style="fill:#7e8478; stroke:none;" d="M1177 724L1177 725L1180 725L1177 724z"/>
<path style="fill:#6b989d; stroke:none;" d="M1231 724L1231 730L1232 730L1231 724z"/>
<path style="fill:#7d8377; stroke:none;" d="M1171 725L1171 726L1174 726L1171 725z"/>
<path style="fill:#a9a383; stroke:none;" d="M737.667 726.333L738.333 726.667L737.667 726.333z"/>
<path style="fill:#7d857a; stroke:none;" d="M1165 726L1165 727L1168 727L1165 726z"/>
<path style="fill:#77aaad; stroke:none;" d="M680 727L680 736L681 736L680 727z"/>
<path style="fill:#a69f85; stroke:none;" d="M1160 727L1160 728L1163 728L1160 727z"/>
<path style="fill:#8f9281; stroke:none;" d="M708 728L708 729L724 729L708 728z"/>
<path style="fill:#8b8e7b; stroke:none;" d="M1148 728L1148 729L1154 729L1148 728z"/>
<path style="fill:#8f9281; stroke:none;" d="M729 729L729 730L738 730L729 729z"/>
<path style="fill:#358491; stroke:none;" d="M878 743C874.344 730.252 849.863 732.13 865.001 739.752C866.629 740.571 868.275 741.433 870 742.034C872.627 742.949 875.254 742.975 878 743z"/>
<path style="fill:#8b823d; stroke:none;" d="M966.667 732.333L967.333 732.667L966.667 732.333z"/>
<path style="fill:#358491; stroke:none;" d="M1033 733.613C1030.77 734.227 1024.31 738.326 1029.32 740.307C1032.16 741.431 1039.02 739.581 1041.85 738.581C1050.09 735.665 1036.78 732.577 1033 733.613z"/>
<path style="fill:#9b9984; stroke:none;" d="M698 735L698 739L699 739L698 735z"/>
<path style="fill:#4b7780; stroke:none;" d="M1232 735L1232 740L1233 740L1232 735z"/>
<path style="fill:#9eb5a5; stroke:none;" d="M1054 737L1054 749L1055 749L1054 737z"/>
<path style="fill:#a0d2cf; stroke:none;" d="M679 739L679 743L680 743L679 739z"/>
<path style="fill:#77a8ac; stroke:none;" d="M679 743L679 747L680 747L679 743z"/>
<path style="fill:#77a5a5; stroke:none;" d="M1233 743L1233 751L1234 751L1233 743z"/>
<path style="fill:#31788a; stroke:none;" d="M1018 744L1018 760L1019 760L1018 744z"/>
<path style="fill:#7e8478; stroke:none;" d="M1183.67 744.333L1184.33 744.667L1183.67 744.333z"/>
<path style="fill:#979a87; stroke:none;" d="M712.667 746.333L713.333 746.667L712.667 746.333z"/>
<path style="fill:#358491; stroke:none;" d="M855.319 747.042C849.629 750.657 857.186 755.997 861.677 752.973C866.862 749.483 859.254 744.542 855.319 747.042z"/>
<path style="fill:#4e808b; stroke:none;" d="M679 747L679 751L680 751L679 747z"/>
<path style="fill:#808b7d; stroke:none;" d="M716 747L716 748L719 748L716 747z"/>
<path style="fill:#727c73; stroke:none;" d="M1173.67 747.333L1174.33 747.667L1173.67 747.333z"/>
<path style="fill:#73847a; stroke:none;" d="M722 748L722 749L725 749L722 748z"/>
<path style="fill:#8b9384; stroke:none;" d="M730 749L730 750L736 750L730 749z"/>
<path style="fill:#556a6b; stroke:none;" d="M1184 750L1184 751L1189 751L1184 750z"/>
<path style="fill:#8c8d7b; stroke:none;" d="M1189 750L1189 751L1199 751L1189 750z"/>
<path style="fill:#348390; stroke:none;" d="M1036 751.464C1023.48 753.676 1026.05 761.239 1038 758.904C1048.25 756.902 1045.64 749.76 1036 751.464z"/>
<path style="fill:#9eb3a2; stroke:none;" d="M1055 751L1055 754L1056 754L1055 751z"/>
<path style="fill:#576b6a; stroke:none;" d="M1166 751L1166 752L1171 752L1166 751z"/>
<path style="fill:#8c8d7b; stroke:none;" d="M1171 751L1171 752L1176 752L1171 751z"/>
<path style="fill:#c4ae89; stroke:none;" d="M1176 751L1176 752L1180 752L1176 751z"/>
<path style="fill:#4b7780; stroke:none;" d="M1233 751L1233 756L1234 756L1233 751z"/>
<path style="fill:#738378; stroke:none;" d="M736 752L736 753L739 753L736 752z"/>
<path style="fill:#587573; stroke:none;" d="M720 753L720 754L732 754L720 753z"/>
<path style="fill:#9eb5a5; stroke:none;" d="M1056.33 756.667L1056.67 757.333L1056.33 756.667z"/>
<path style="fill:#a0d2cf; stroke:none;" d="M678 757L678 765L679 765L678 757z"/>
<path style="fill:#7d8375; stroke:none;" d="M1210.33 758.667L1210.67 759.333L1210.33 758.667z"/>
<path style="fill:#9fb6a4; stroke:none;" d="M829.667 761.333L830.333 761.667L829.667 761.333z"/>
<path style="fill:#9bb6a7; stroke:none;" d="M816 763L816 764L822 764L816 763z"/>
<path style="fill:#898770; stroke:none;" d="M808 764L808 765L812 765L808 764z"/>
<path style="fill:#77a8ad; stroke:none;" d="M678 765L678 780L679 780L678 765z"/>
<path style="fill:#50635f; stroke:none;" d="M800 765L800 766L805 766L800 765z"/>
<path style="fill:#8f927f; stroke:none;" d="M787 766L787 767L793 767L787 766z"/>
<path style="fill:#8e9281; stroke:none;" d="M775 767L775 768L781 768L775 767z"/>
<path style="fill:#c3b08f; stroke:none;" d="M761 768L761 769L765 769L761 768z"/>
<path style="fill:#5b7471; stroke:none;" d="M765 768L765 769L771 769L765 768z"/>
<path style="fill:#8f9382; stroke:none;" d="M748 769L748 770L753 770L748 769z"/>
<path style="fill:#707c72; stroke:none;" d="M1190 769L1190 770L1193 770L1190 769z"/>
<path style="fill:#587573; stroke:none;" d="M724 770L724 771L737 771L724 770z"/>
<path style="fill:#8c8d7b; stroke:none;" d="M1181 770L1181 771L1185 771L1181 770z"/>
<path style="fill:#c2ae8b; stroke:none;" d="M1167 771L1167 772L1172 772L1167 771z"/>
<path style="fill:#8c8d7d; stroke:none;" d="M1172 771L1172 772L1176 772L1172 771z"/>
<path style="fill:#358491; stroke:none;" d="M1033 783C1035.36 782.98 1037.68 782.981 1040 782.482C1041.69 782.119 1043.41 781.593 1045 780.891C1058.83 774.753 1033.51 767.661 1033 783z"/>
<path style="fill:#717d73; stroke:none;" d="M1170.67 774.333L1171.33 774.667L1170.67 774.333z"/>
<path style="fill:#8c8d7b; stroke:none;" d="M1174 775L1174 776L1181 776L1174 775z"/>
<path style="fill:#576b6a; stroke:none;" d="M1181 775L1181 776L1189 776L1181 775z"/>
<path style="fill:#4a7681; stroke:none;" d="M1233 778L1233 783L1234 783L1233 778z"/>
<path style="fill:#a0d2cf; stroke:none;" d="M678 780L678 788L679 788L678 780z"/>
<path style="fill:#8c8d7b; stroke:none;" d="M1203 780L1203 784L1204 784L1203 780z"/>
<path style="fill:#9fd0cd; stroke:none;" d="M1233 783L1233 789L1234 789L1233 783z"/>
<path style="fill:#c2af8f; stroke:none;" d="M1084 785L1084 786L1088 786L1084 785z"/>
<path style="fill:#c3af8c; stroke:none;" d="M1092 786L1092 787L1097 787L1092 786z"/>
<path style="fill:#8e8d7b; stroke:none;" d="M1100 787L1100 788L1107 788L1100 787z"/>
<path style="fill:#358491; stroke:none;" d="M1051 788.711C1045.87 789.92 1042.72 798.615 1050.02 797.408C1056.3 796.368 1058.63 786.915 1051 788.711z"/>
<path style="fill:#c2ae8d; stroke:none;" d="M1113 788L1113 789L1119 789L1113 788z"/>
<path style="fill:#8a8d7a; stroke:none;" d="M1125 789L1125 790L1129 790L1125 789z"/>
<path style="fill:#576b6c; stroke:none;" d="M1135 790L1135 791L1139 791L1135 790z"/>
<path style="fill:#8e8d79; stroke:none;" d="M1139 790L1139 791L1143 791L1139 790z"/>
<path style="fill:#c1af8b; stroke:none;" d="M1143 790L1143 791L1147 791L1143 790z"/>
<path style="fill:#576a68; stroke:none;" d="M1151 791L1151 792L1155 792L1151 791z"/>
<path style="fill:#8b8e7d; stroke:none;" d="M1155 791L1155 792L1160 792L1155 791z"/>
<path style="fill:#c4ae89; stroke:none;" d="M1160 791L1160 792L1165 792L1160 791z"/>
<path style="fill:#707c72; stroke:none;" d="M1188.67 791.333L1189.33 791.667L1188.67 791.333z"/>
<path style="fill:#566c6a; stroke:none;" d="M1172 792L1172 793L1185 793L1172 792z"/>
<path style="fill:#4e808b; stroke:none;" d="M679 793L679 797L680 797L679 793z"/>
<path style="fill:#7eaeb0; stroke:none;" d="M1232.33 794.667L1232.67 795.333L1232.33 794.667z"/>
<path style="fill:#a1d2ce; stroke:none;" d="M679 797L679 803L680 803L679 797z"/>
<path style="fill:#56828b; stroke:none;" d="M1231.33 799.667L1231.67 800.333L1231.33 799.667z"/>
<path style="fill:#95c3c1; stroke:none;" d="M1231 801L1231 804L1232 804L1231 801z"/>
<path style="fill:#b8ede5; stroke:none;" d="M1544 804C1500.14 847.859 1442.52 881.972 1434.29 949C1430.85 976.962 1436.75 1006 1449.25 1031C1456.13 1044.76 1468.91 1066.31 1457.44 1080.96C1442.89 1099.54 1424.12 1076.4 1415 1065C1408.7 1057.13 1402.12 1047.78 1393 1042.99C1369.5 1030.62 1338.73 1041.03 1325.07 1063C1318.13 1074.15 1315 1086.98 1315 1100C1315 1133.76 1331.71 1162.65 1351.48 1189C1369.3 1212.77 1390.8 1236.51 1395.56 1267C1399.46 1291.95 1382.85 1312.26 1360 1320C1333.71 1328.9 1305.63 1325.51 1281 1313.19C1220.84 1283.09 1199.89 1214.72 1182.42 1155C1176.17 1133.63 1169.2 1111.97 1159.25 1092C1155.36 1084.21 1151.82 1074.64 1145 1069C1139.57 1078.88 1141.05 1091.12 1139.71 1102C1136.24 1130.27 1134.11 1158.71 1130.71 1187C1119.32 1281.98 1112.54 1378.85 1095 1473C1135.75 1495.71 1171.62 1522.67 1216 1538.95C1311.72 1574.04 1420.84 1561.07 1498 1492.17C1522.29 1470.47 1542.27 1446.07 1552.92 1415C1565.27 1378.99 1571.3 1340.87 1572.96 1303C1575.23 1251.15 1567.04 1198.51 1548.58 1150C1527.86 1095.6 1495.8 1045.13 1490.17 986C1486.03 942.553 1500.38 899.252 1517.86 860C1523.76 846.761 1530.11 833.677 1537.14 821C1539.61 816.547 1545.19 809.095 1544 804z"/>
<path style="fill:#78a9ae; stroke:none;" d="M680 805L680 809L681 809L680 805z"/>
<path style="fill:#608d93; stroke:none;" d="M1230 805L1230 808L1231 808L1230 805z"/>
<path style="fill:#77a4a7; stroke:none;" d="M1229 810L1229 813L1230 813L1229 810z"/>
<path style="fill:#61939a; stroke:none;" d="M681 813L681 816L682 816L681 813z"/>
<path style="fill:#8bb9b9; stroke:none;" d="M1227.33 818.667L1227.67 819.333L1227.33 818.667z"/>
<path style="fill:#61939a; stroke:none;" d="M682 819L682 822L683 822L682 819z"/>
<path style="fill:#8bb9b9; stroke:none;" d="M1225.33 824.667L1225.67 825.333L1225.33 824.667z"/>
<path style="fill:#8cbebf; stroke:none;" d="M683.333 825.667L683.667 826.333L683.333 825.667z"/>
<path style="fill:#82b4b5; stroke:none;" d="M684.333 829.667L684.667 830.333L684.333 829.667z"/>
<path style="fill:#dfaf27; stroke:none;" d="M956 838.522C927.869 844.105 899.77 855.175 872 862.64C864.138 864.754 845.272 866.2 839.588 871.728C832.891 878.241 832.447 896.243 830.255 905C827.17 917.321 825 930.271 825 943C825 947.252 824.026 953.048 826.742 956.671C832.199 963.95 847.553 967.321 856 969.207C882.59 975.143 910.067 974.423 937 978.271C946.878 979.682 962.406 988.095 971.957 985.678C982.503 983.01 979 959.925 979 952C979 922.549 974.097 893.313 972.089 864C971.321 852.779 973.214 835.105 956 838.522z"/>
<path style="fill:#8abdbe; stroke:none;" d="M688.333 842.667L688.667 843.333L688.333 842.667z"/>
<path style="fill:#193d49; stroke:none;" d="M972 843C972 877.134 978.177 910.912 979.015 945C979.297 956.5 983.638 973.027 975.362 982.852C969.194 990.174 947.395 979.844 939 978.435C910.281 973.617 879.918 977.214 852 967.999C843.987 965.354 830.83 962.562 826.089 954.907C821.453 947.419 824.425 934.022 826.255 926C830.257 908.453 835.601 889.816 838 872C817.975 872.413 798.108 880.492 778 881.911C771.973 882.336 756.277 881.688 751.564 885.179C745.73 889.5 748.518 910.186 747.714 917C744.883 940.995 742.3 967.947 745.729 992C747.366 1003.48 750.145 1014.63 759.04 1022.81C767.934 1031 780.628 1033.42 792 1036.23C808.299 1040.26 824.479 1044.23 841 1047.31C915.83 1061.25 995.153 1067.09 1070 1049.88C1091.88 1044.85 1113.84 1038.29 1134 1028.25C1141.27 1024.63 1150 1021.77 1154.95 1014.96C1163.69 1002.92 1163.05 985.051 1162.09 971C1159.99 940.328 1153.31 909.611 1152 879C1128.41 880.013 1106.83 883.314 1083 879.561C1043.65 873.365 1009.62 853.832 972 843z"/>
<path style="fill:#b0932f; stroke:none;" d="M971 845L971 853L972 853L971 845z"/>
<path style="fill:#908648; stroke:none;" d="M898.667 855.333L899.333 855.667L898.667 855.333z"/>
<path style="fill:#8d8942; stroke:none;" d="M880.667 860.333L881.333 860.667L880.667 860.333z"/>
<path style="fill:#807732; stroke:none;" d="M972 861L972 868L973 868L972 861z"/>
<path style="fill:#918740; stroke:none;" d="M865.667 864.333L866.333 864.667L865.667 864.333z"/>
<path style="fill:#c99728; stroke:none;" d="M916 864C912.9 888.001 901.859 916.841 909 941L911 941L915.093 899L919 864L916 864z"/>
<path style="fill:#908742; stroke:none;" d="M861.667 865.333L862.333 865.667L861.667 865.333z"/>
<path style="fill:#8e8645; stroke:none;" d="M857.667 866.333L858.333 866.667L857.667 866.333z"/>
<path style="fill:#8f8844; stroke:none;" d="M853.667 867.333L854.333 867.667L853.667 867.333z"/>
<path style="fill:#8f8746; stroke:none;" d="M849.667 868.333L850.333 868.667L849.667 868.333z"/>
<path style="fill:#c99728; stroke:none;" d="M881 871C875.879 872.658 875.227 878.32 873.667 883C869.886 894.342 865.624 906.984 865.04 919C864.888 922.121 863.471 931.895 866.546 933.824C870.772 936.476 871.776 922.059 872.211 920C875.607 903.908 878.802 887.322 881 871z"/>
<path style="fill:#7f7739; stroke:none;" d="M973 874L973 881L974 881L973 874z"/>
<path style="fill:#877d35; stroke:none;" d="M837.333 875.667L837.667 876.333L837.333 875.667z"/>
<path style="fill:#8bb9b9; stroke:none;" d="M1165.67 875.333L1166.33 875.667L1165.67 875.333z"/>
<path style="fill:#76a3a6; stroke:none;" d="M1161.67 876.333L1162.33 876.667L1161.67 876.333M1157.67 877.333L1158.33 877.667L1157.67 877.333z"/>
<path style="fill:#6a979d; stroke:none;" d="M1152.67 878.333L1153.33 878.667L1152.67 878.333z"/>
<path style="fill:#476e75; stroke:none;" d="M1152 881L1152 885L1153 885L1152 881z"/>
<path style="fill:#61939a; stroke:none;" d="M732.667 884.333L733.333 884.667L732.667 884.333z"/>
<path style="fill:#4e8089; stroke:none;" d="M736 885L736 886L746 886L736 885z"/>
<path style="fill:#466f75; stroke:none;" d="M1153 889L1153 893L1154 893L1153 889z"/>
<path style="fill:#9fcec8; stroke:none;" d="M748 894L748 901L749 901L748 894z"/>
<path style="fill:#7c7638; stroke:none;" d="M975 896L975 901L976 901L975 896z"/>
<path style="fill:#466f75; stroke:none;" d="M1154 897L1154 901L1155 901L1154 897z"/>
<path style="fill:#446f75; stroke:none;" d="M748 901L748 905L749 905L748 901z"/>
<path style="fill:#7b7738; stroke:none;" d="M830.333 903.667L830.667 904.333L830.333 903.667z"/>
<path style="fill:#7c7638; stroke:none;" d="M976 907L976 913L977 913L976 907z"/>
<path style="fill:#739c9e; stroke:none;" d="M747 909L747 915L748 915L747 909z"/>
<path style="fill:#88b4b3; stroke:none;" d="M1156 911L1156 914L1157 914L1156 911z"/>
<path style="fill:#466f75; stroke:none;" d="M747 915L747 919L748 919L747 915z"/>
<path style="fill:#7b7835; stroke:none;" d="M827 917L827 920L828 920L827 917z"/>
<path style="fill:#787639; stroke:none;" d="M977 919L977 925L978 925L977 919z"/>
<path style="fill:#739ca0; stroke:none;" d="M1157.33 920.667L1157.67 921.333L1157.33 920.667z"/>
<path style="fill:#729e9d; stroke:none;" d="M746 925L746 932L747 932L746 925z"/>
<path style="fill:#87b5b2; stroke:none;" d="M1158 926L1158 929L1159 929L1158 926z"/>
<path style="fill:#897c36; stroke:none;" d="M825 928L825 932L826 932L825 928z"/>
<path style="fill:#a0cccb; stroke:none;" d="M745 935L745 939L746 939L745 935z"/>
<path style="fill:#476e75; stroke:none;" d="M1159 935L1159 939L1160 939L1159 935z"/>
<path style="fill:#af9330; stroke:none;" d="M824 938L824 952L825 952L824 938z"/>
<path style="fill:#436e74; stroke:none;" d="M745 939L745 946L746 946L745 939z"/>
<path style="fill:#739c9e; stroke:none;" d="M1160 942L1160 948L1161 948L1160 942z"/>
<path style="fill:#c99728; stroke:none;" d="M840.259 943.891C834.616 945.594 836.421 961.043 842.79 960.079C848.522 959.211 846.485 942.011 840.259 943.891M853.559 949.047C848.802 952.359 852.68 966.723 858.397 962.914C861.852 960.611 859.348 945.017 853.559 949.047z"/>
<path style="fill:#9eccca; stroke:none;" d="M744 950L744 955L745 955L744 950z"/>
<path style="fill:#ac932e; stroke:none;" d="M979 950L979 965L980 965L979 950z"/>
<path style="fill:#c99728; stroke:none;" d="M870.147 952.086C864.04 955.098 868.468 968.363 874.683 964.914C879.603 962.183 876.773 948.82 870.147 952.086z"/>
<path style="fill:#c99726; stroke:none;" d="M890.313 954.086C885.518 956.798 889.628 969.198 894.412 965.914C898.004 963.448 896.091 950.818 890.313 954.086z"/>
<path style="fill:#456d75; stroke:none;" d="M1161 953L1161 959L1162 959L1161 953z"/>
<path style="fill:#c99728; stroke:none;" d="M929.145 955.086C922.691 958.314 929.628 971.695 935.682 967.953C940.86 964.752 934.9 952.208 929.145 955.086z"/>
<path style="fill:#719d9e; stroke:none;" d="M744 955L744 961L745 961L744 955z"/>
<path style="fill:#c99728; stroke:none;" d="M910.603 956.047C906.695 958.907 910.601 968.464 915.397 964.953C919.305 962.093 915.399 952.536 910.603 956.047M953.317 960.072C947.883 963.273 953.665 975.772 959.346 971.953C964.563 968.447 959.344 956.52 953.317 960.072z"/>
<path style="fill:#456e74; stroke:none;" d="M744 961L744 981L745 981L744 961z"/>
<path style="fill:#797838; stroke:none;" d="M979 965L979 973L980 973L979 965z"/>
<path style="fill:#709c9d; stroke:none;" d="M1162 965L1162 969L1163 969L1162 965z"/>
<path style="fill:#7b7537; stroke:none;" d="M856.667 969.333L857.333 969.667L856.667 969.333z"/>
<path style="fill:#456e74; stroke:none;" d="M1162 969L1162 975L1163 975L1162 969z"/>
<path style="fill:#706e3d; stroke:none;" d="M860.667 970.333L861.333 970.667L860.667 970.333z"/>
<path style="fill:#706e3b; stroke:none;" d="M865 971L865 972L868 972L865 971z"/>
<path style="fill:#7e7638; stroke:none;" d="M879 973L879 974L886 974L879 973z"/>
<path style="fill:#b0932f; stroke:none;" d="M893 974L893 975L901 975L893 974z"/>
<path style="fill:#7d7838; stroke:none;" d="M909 975L909 976L913 976L909 975z"/>
<path style="fill:#7f7537; stroke:none;" d="M978 975L978 978L979 978L978 975z"/>
<path style="fill:#877f36; stroke:none;" d="M944 979L944 980L947 980L944 979z"/>
<path style="fill:#b8ede5; stroke:none;" d="M323 980.428C307.65 982.652 305.663 994.759 308.9 1008C312.72 1023.63 325.229 1035.8 330.455 1051C337.033 1070.12 324.681 1093.39 346 1106.53C349.128 1108.46 352.455 1109.71 356 1110.62C360.649 1111.82 365.216 1112.29 370 1111.71C398.871 1108.26 400.009 1083.29 400 1059C399.985 1019.67 366.058 974.19 323 980.428z"/>
<path style="fill:#739c9e; stroke:none;" d="M744 981L744 985L745 985L744 981z"/>
<path style="fill:#b8ede5; stroke:none;" d="M1612 983.529C1596.2 987.157 1584.5 1003.88 1578.8 1018C1563.7 1055.43 1578.39 1099.39 1606 1127C1618.15 1139.15 1635.46 1153.15 1654 1148.29C1669.12 1144.32 1669.76 1123.56 1667.54 1111C1664.74 1095.18 1654.44 1082.31 1650.48 1067C1645.15 1046.42 1652.08 1024.22 1645.48 1004C1640.78 989.588 1627.34 980.008 1612 983.529z"/>
<path style="fill:#466f73; stroke:none;" d="M1162 984L1162 992L1163 992L1162 984z"/>
<path style="fill:#729e9f; stroke:none;" d="M745 990L745 994L746 994L745 990z"/>
<path style="fill:#4d797c; stroke:none;" d="M1161 996L1161 999L1162 999L1161 996z"/>
<path style="fill:#719d9e; stroke:none;" d="M746 997L746 1000L747 1000L746 997z"/>
<path style="fill:#93c1bf; stroke:none;" d="M1160.33 1002.67L1160.67 1003.33L1160.33 1002.67z"/>
<path style="fill:#719d9c; stroke:none;" d="M1156 1012L1157 1013L1156 1012z"/>
<path style="fill:#729e9d; stroke:none;" d="M752 1014L753 1015L752 1014z"/>
<path style="fill:#739c9e; stroke:none;" d="M754 1017L755 1018L754 1017z"/>
<path style="fill:#429ab0; stroke:none;" d="M1150 1019C1124.39 1037.55 1089.33 1045.35 1059 1052.01C992.22 1066.68 920.742 1061.48 854 1049.46C821.906 1043.68 789.606 1037.84 760 1024C762.618 1037.9 763.846 1061.44 774.105 1071.91C792.34 1090.5 825.836 1093.76 850 1098.26C890.268 1105.76 931.096 1107 972 1107C1003.5 1107 1036 1106.84 1067 1100.49C1090.35 1095.7 1130.28 1091.35 1145.15 1069.96C1150.76 1061.88 1151 1048.49 1151 1039C1151 1032.85 1152.39 1024.71 1150 1019z"/>
<path style="fill:#a8e4e2; stroke:none;" d="M1151 1019L1151 1036L1152 1036L1151 1019z"/>
<path style="fill:#358491; stroke:none;" d="M794 1073C793.997 1068.87 793.749 1065.05 792.884 1061C792.247 1058.01 792.025 1055.01 791.573 1052C791.213 1049.61 787.09 1037.29 783.604 1044.32C780.482 1050.62 787.071 1071.85 794 1073M1131 1072L1133 1072C1136.41 1065.92 1137.86 1057.97 1137.98 1051C1138.02 1049.03 1138.46 1044.58 1135.73 1044.06C1132.65 1043.47 1131.09 1047.76 1130.53 1050C1128.85 1056.82 1127.91 1065.58 1131 1072M819 1052C819.005 1058.78 818.605 1079.77 826 1081C826.362 1072.56 831.109 1053.93 819 1052M1102.21 1053.09C1096.1 1056.29 1097.92 1067.6 1098.73 1073C1099.03 1075 1099.4 1080.38 1102.79 1079.25C1106.42 1078.03 1109.01 1049.52 1102.21 1053.09z"/>
<path style="fill:#306b7b; stroke:none;" d="M890 1055L890 1056L896 1056L890 1055z"/>
<path style="fill:#30697a; stroke:none;" d="M899 1056L899 1057L903 1057L899 1056z"/>
<path style="fill:#2e6b7d; stroke:none;" d="M908 1057L908 1058L916 1058L908 1057z"/>
<path style="fill:#2d6c7b; stroke:none;" d="M919 1058L919 1059L928 1059L919 1058z"/>
<path style="fill:#2e6b7d; stroke:none;" d="M1011 1058L1011 1059L1017 1059L1011 1058z"/>
<path style="fill:#306b7b; stroke:none;" d="M932 1059L932 1060L941 1060L932 1059z"/>
<path style="fill:#2e6d7e; stroke:none;" d="M1000 1059L1000 1060L1007 1060L1000 1059z"/>
<path style="fill:#358491; stroke:none;" d="M1070.38 1061.18C1065.39 1063.67 1066.05 1079.17 1066.02 1084C1066.01 1086.12 1066.16 1091.39 1069.74 1090.25C1074.12 1088.85 1075.24 1070.05 1074.88 1066C1074.69 1063.86 1073.39 1059.67 1070.38 1061.18M856 1061C854.909 1065.64 855.575 1069.37 856.385 1074C856.911 1077 856.994 1079.96 857 1083C857.004 1084.76 857.553 1096.78 861.977 1091.38C867.004 1085.23 863.721 1063.29 856 1061M1037.38 1066.09C1032.21 1069.02 1032.06 1086.54 1032.06 1092C1032.06 1094.62 1033.09 1098.76 1036.71 1097.34C1041.55 1095.44 1042.08 1076.62 1042 1072C1041.95 1069.48 1041.42 1063.79 1037.38 1066.09M999 1099C1006.54 1098.41 1009.73 1075.27 1005.97 1069.17C1001.18 1061.38 999.005 1075.16 999 1078L999 1086L999 1099M893.588 1069.09C889.637 1071.8 890.616 1098.46 897.698 1093.95C902.024 1091.2 900.578 1077.24 899.196 1073.02C898.504 1070.91 896.325 1067.2 893.588 1069.09M930.418 1072.09C925.454 1075.04 926.762 1101.83 933.687 1097.91C937.991 1095.48 936.581 1080.27 935.772 1076.02C935.307 1073.58 933.331 1070.36 930.418 1072.09M963.129 1072.35C956.753 1074.33 960.364 1099.66 964.741 1098.25C969.264 1096.79 970.206 1070.14 963.129 1072.35z"/>
<path style="fill:#4d577a; stroke:none;" d="M1140 1074C1125.48 1086.35 1106.11 1091.35 1088 1095.87C1045.45 1106.51 1001.59 1107 958 1107C958 1112.91 956.179 1131.36 961.434 1134.97C965.63 1137.86 974.819 1136.36 980 1138L980 1140C970.422 1143.12 953.898 1146.79 953.043 1132C952.747 1126.87 955.926 1109.2 949.772 1107.32C945.34 1105.96 939.602 1107.16 935 1106.96C923.087 1106.44 910.873 1105.96 899 1104.83C856.567 1100.79 818.082 1092.84 779 1076C798.279 1228.54 826.062 1379.92 848.573 1532C855.391 1578.06 863.752 1623.92 870.573 1670C873.305 1688.46 872.997 1715.1 883 1731C887.786 1730.54 894.016 1734.49 899 1735.67C910.568 1738.4 924.472 1737.74 936 1735.33C939.349 1734.64 947.485 1731.01 948 1735L949 1735C957.175 1717.04 953.5 1698.81 953.015 1679C952.083 1640.98 950.945 1602.98 950.015 1565C947.876 1477.7 947.781 1390.24 943.961 1303C941.778 1253.14 939 1202.92 939 1153L989 1153C989 1257.39 991.609 1361.64 987.039 1466C985.247 1506.94 988.515 1549.31 983.714 1590C979.543 1625.35 980.172 1663.39 980.001 1699C979.949 1709.71 975.784 1728.93 987.004 1734.62C1000.8 1741.62 1023.78 1736.7 1038 1733.13C1042.98 1731.87 1051.05 1730.51 1053.99 1725.79C1059.1 1717.57 1059.17 1702.46 1061 1693C1066.27 1665.79 1069.69 1638.2 1075 1611C1084.56 1562.01 1089.84 1511.48 1096.29 1462C1106.62 1382.7 1116.88 1303.42 1126.29 1224C1130.62 1187.41 1135.13 1150.73 1138.09 1114C1138.96 1103.07 1144.25 1084.14 1140 1074z"/>
<path style="fill:#85a2b0; stroke:none;" d="M1141 1074L1141 1082L1142 1082L1141 1074z"/>
<path style="fill:#7c95a9; stroke:none;" d="M779 1079L779 1082L780 1082L779 1079z"/>
<path style="fill:#82a2af; stroke:none;" d="M1140 1084L1140 1090L1141 1090L1140 1084z"/>
<path style="fill:#9abfc7; stroke:none;" d="M780 1088L780 1091L781 1091L780 1088z"/>
<path style="fill:#99bec4; stroke:none;" d="M781 1093L781 1098L782 1098L781 1093z"/>
<path style="fill:#80a2ac; stroke:none;" d="M1139 1096L1139 1104L1140 1104L1139 1096z"/>
<path style="fill:#404966; stroke:none;" d="M952 1107C954.981 1123.06 946.556 1145.78 971 1142.82C974.183 1142.43 977.095 1141.29 980 1140L980 1138C974.563 1135.71 966.997 1137.89 962.228 1134.97C956.247 1131.31 958 1113.3 958 1107L952 1107M866 1112C867.001 1118.33 872.951 1120.68 878 1123.81C889.97 1131.23 904.49 1144.26 919 1145C917.327 1139.31 911.88 1136.94 907 1134.15C894.981 1127.28 879.5 1114.6 866 1112z"/>
<path style="fill:#81a3ad; stroke:none;" d="M1136 1128L1136 1136L1137 1136L1136 1128z"/>
<path style="fill:#9dbec7; stroke:none;" d="M786 1130L786 1133L787 1133L786 1130z"/>
<path style="fill:#404966; stroke:none;" d="M862 1130L861 1131L861 1133C872.979 1139.39 886.246 1144.78 899 1149.41C903.492 1151.05 910.947 1155.13 913 1149L862 1130z"/>
<path style="fill:#99bec4; stroke:none;" d="M787 1135L787 1140L788 1140L787 1135z"/>
<path style="fill:#81a3ad; stroke:none;" d="M1135 1138L1135 1146L1136 1146L1135 1138z"/>
<path style="fill:#404966; stroke:none;" d="M1014 1155C1029.62 1154.87 1050.21 1153.84 1064 1146C1055.79 1139.78 1034.5 1148.03 1025 1149.68C1020.36 1150.49 1015.68 1149.88 1014 1155z"/>
<path style="fill:#81a3ad; stroke:none;" d="M1134 1148L1134 1156L1135 1156L1134 1148z"/>
<path style="fill:#7c96a7; stroke:none;" d="M789 1149L789 1152L790 1152L789 1149z"/>
<path style="fill:#b8ede5; stroke:none;" d="M939 1153L944.961 1313L946 1358L946.603 1378.61L957 1385.25L988 1401C989.688 1319.2 994.448 1235.7 988 1154L939 1153z"/>
<path style="fill:#9ec7c9; stroke:none;" d="M966 1153L966 1154L988 1154L988 1159L989 1159L989 1153L966 1153z"/>
<path style="fill:#b8ede5; stroke:none;" d="M347 1154.64C318.13 1162.98 331.723 1207.63 361 1199.21C389.784 1190.94 375.644 1146.36 347 1154.64z"/>
<path style="fill:#404966; stroke:none;" d="M876 1161C883.369 1161 907.208 1167.41 910 1159C902.992 1156.76 877.716 1150.72 876 1161z"/>
<path style="fill:#82a2ad; stroke:none;" d="M1133 1158L1133 1163L1134 1163L1133 1158z"/>
<path style="fill:#82a2af; stroke:none;" d="M939 1159L939 1177L940 1177L939 1159z"/>
<path style="fill:#404966; stroke:none;" d="M1021 1163L1021 1165C1028.87 1166.99 1046.18 1167.31 1054 1165L1054 1163C1043.57 1158.57 1031.57 1159.42 1021 1163z"/>
<path style="fill:#82a4ae; stroke:none;" d="M989 1165L989 1178L990 1178L989 1165z"/>
<path style="fill:#81a3ad; stroke:none;" d="M1132 1167L1132 1174L1133 1174L1132 1167z"/>
<path style="fill:#9cbec7; stroke:none;" d="M792 1171L792 1174L793 1174L792 1171z"/>
<path style="fill:#404966; stroke:none;" d="M1027 1173C1028.4 1181.4 1051.75 1179 1059 1179C1055.97 1169.4 1035.03 1173 1027 1173z"/>
<path style="fill:#7d93a8; stroke:none;" d="M793 1176L793 1179L794 1179L793 1176z"/>
<path style="fill:#9cc8c9; stroke:none;" d="M989 1178L989 1186L990 1186L989 1178z"/>
<path style="fill:#8babb6; stroke:none;" d="M794 1182L794 1186L795 1186L794 1182z"/>
<path style="fill:#687e95; stroke:none;" d="M940 1189L940 1203L941 1203L940 1189z"/>
<path style="fill:#90b5bd; stroke:none;" d="M795.333 1191.67L795.667 1192.33L795.333 1191.67z"/>
<path style="fill:#687c94; stroke:none;" d="M990 1196L990 1209L991 1209L990 1196z"/>
<path style="fill:#81a3ac; stroke:none;" d="M1128 1204L1128 1209L1129 1209L1128 1204z"/>
<path style="fill:#82a2af; stroke:none;" d="M990 1209L990 1229L991 1229L990 1209z"/>
<path style="fill:#87acb4; stroke:none;" d="M798 1211L798 1214L799 1214L798 1211z"/>
<path style="fill:#81a1ae; stroke:none;" d="M1127 1213L1127 1220L1128 1220L1127 1213z"/>
<path style="fill:#82a4b0; stroke:none;" d="M941 1217L941 1225L942 1225L941 1217z"/>
<path style="fill:#82a2af; stroke:none;" d="M1126 1222L1126 1227L1127 1227L1126 1222z"/>
<path style="fill:#7b98a8; stroke:none;" d="M800 1223L800 1226L801 1226L800 1223z"/>
<path style="fill:#677d94; stroke:none;" d="M941 1225L941 1233L942 1233L941 1225z"/>
<path style="fill:#8eb7bb; stroke:none;" d="M801 1229L801 1234L802 1234L801 1229z"/>
<path style="fill:#9ec7c9; stroke:none;" d="M990 1229L990 1285L991 1285L991 1247L990 1229z"/>
<path style="fill:#9dc9ca; stroke:none;" d="M942 1240L942 1248L943 1248L942 1240z"/>
<path style="fill:#81a3ad; stroke:none;" d="M1124 1240L1124 1246L1125 1246L1124 1240M942 1248L942 1256L943 1256L942 1248z"/>
<path style="fill:#81a1ae; stroke:none;" d="M1123 1248L1123 1252L1124 1252L1123 1248z"/>
<path style="fill:#7c99a9; stroke:none;" d="M805 1256L805 1259L806 1259L805 1256z"/>
<path style="fill:#677d94; stroke:none;" d="M942 1256L942 1265L943 1265L942 1256z"/>
<path style="fill:#7fa4ac; stroke:none;" d="M1122 1257L1122 1263L1123 1263L1122 1257z"/>
<path style="fill:#82a2af; stroke:none;" d="M1121 1265L1121 1269L1122 1269L1121 1265z"/>
<path style="fill:#7b98a8; stroke:none;" d="M807 1269L807 1272L808 1272L807 1269z"/>
<path style="fill:#9cc8c9; stroke:none;" d="M943 1273L943 1282L944 1282L943 1273z"/>
<path style="fill:#87acb4; stroke:none;" d="M1120 1274L1120 1280L1121 1280L1120 1274z"/>
<path style="fill:#7d98ab; stroke:none;" d="M809 1282L809 1285L810 1285L809 1282z"/>
<path style="fill:#82a2af; stroke:none;" d="M943 1282L943 1290L944 1290L943 1282M990 1285L990 1311L991 1311L990 1285z"/>
<path style="fill:#8db6bc; stroke:none;" d="M810 1288L810 1293L811 1293L810 1288z"/>
<path style="fill:#677d95; stroke:none;" d="M943 1290L943 1299L944 1299L943 1290z"/>
<path style="fill:#80a2ac; stroke:none;" d="M1118 1290L1118 1294L1119 1294L1118 1290z"/>
<path style="fill:#7a9aa9; stroke:none;" d="M811 1295L811 1298L812 1298L811 1295z"/>
<path style="fill:#8fb4bc; stroke:none;" d="M1117 1299L1117 1303L1118 1303L1117 1299z"/>
<path style="fill:#88adb5; stroke:none;" d="M1116 1307L1116 1311L1117 1311L1116 1307z"/>
<path style="fill:#7c99a9; stroke:none;" d="M813 1308L813 1311L814 1311L813 1308z"/>
<path style="fill:#9cc8c9; stroke:none;" d="M944 1308L944 1317L945 1317L944 1308z"/>
<path style="fill:#687c94; stroke:none;" d="M990 1311L990 1329L991 1329L990 1311z"/>
<path style="fill:#86adb4; stroke:none;" d="M1115 1315L1115 1319L1116 1319L1115 1315z"/>
<path style="fill:#82a2af; stroke:none;" d="M944 1317L944 1326L945 1326L944 1317z"/>
<path style="fill:#7d98a9; stroke:none;" d="M815 1321L815 1324L816 1324L815 1321z"/>
<path style="fill:#86abb3; stroke:none;" d="M1114 1323L1114 1327L1115 1327L1114 1323z"/>
<path style="fill:#697d96; stroke:none;" d="M944 1326L944 1335L945 1335L944 1326z"/>
<path style="fill:#87acb5; stroke:none;" d="M1113 1331L1113 1335L1114 1335L1113 1331z"/>
<path style="fill:#88adb6; stroke:none;" d="M1112 1339L1112 1343L1113 1343L1112 1339z"/>
<path style="fill:#9bc9c9; stroke:none;" d="M945 1345L945 1354L946 1354L945 1345z"/>
<path style="fill:#9ec7c9; stroke:none;" d="M989 1345L989 1359L990 1359L989 1345z"/>
<path style="fill:#8f95ad; stroke:none;" d="M820 1353L820 1356L821 1356L820 1353z"/>
<path style="fill:#81a1ae; stroke:none;" d="M945 1354L945 1363L946 1363L945 1354z"/>
<path style="fill:#8fb4ba; stroke:none;" d="M1110 1355L1110 1359L1111 1359L1110 1355z"/>
<path style="fill:#82a2ad; stroke:none;" d="M989 1359L989 1371L990 1371L989 1359z"/>
<path style="fill:#bbbfcb; stroke:none;" d="M821 1361L821 1364L822 1364L821 1361z"/>
<path style="fill:#687c95; stroke:none;" d="M945 1363L945 1373L946 1373L945 1363z"/>
<path style="fill:#999fb5; stroke:none;" d="M822 1366L822 1369L823 1369L822 1366z"/>
<path style="fill:#7fa4ad; stroke:none;" d="M1108 1370L1108 1374L1109 1374L1108 1370z"/>
<path style="fill:#687c95; stroke:none;" d="M989 1371L989 1383L990 1383L989 1371z"/>
<path style="fill:#88adb5; stroke:none;" d="M1107 1378L1107 1382L1108 1382L1107 1378z"/>
<path style="fill:#9a9fb3; stroke:none;" d="M824 1379L824 1382L825 1382L824 1379z"/>
<path style="fill:#fefefe; stroke:none;" d="M946 1380L949.015 1496L954.999 1719L949.407 1734L951 1755C957.542 1755 975.116 1758.13 980.258 1753.97C987.32 1748.26 980.834 1731.46 979.394 1725C977.396 1716.04 979.566 1706.01 979.961 1697C980.396 1687.06 979.119 1676.89 980.286 1667C982.695 1646.58 981.14 1625.55 982.039 1605C983.907 1562.35 984.969 1519.7 986.015 1477C986.454 1459.05 988 1440.96 988 1423C988 1417.16 989.804 1407.71 987.397 1402.33C985.748 1398.64 980.287 1396.87 977 1395C967.41 1389.55 956.612 1383.06 946 1380z"/>
<path style="fill:#d1d4dd; stroke:none;" d="M946 1383L946 1392L947 1392L946 1383z"/>
<path style="fill:#8e96ad; stroke:none;" d="M825 1385L825 1388L826 1388L825 1385z"/>
<path style="fill:#a6acbc; stroke:none;" d="M946 1392L946 1402L947 1402L946 1392z"/>
<path style="fill:#bbbecd; stroke:none;" d="M826 1393L826 1396L827 1396L826 1393z"/>
<path style="fill:#81a3ad; stroke:none;" d="M1105 1393L1105 1397L1106 1397L1105 1393z"/>
<path style="fill:#a5aabd; stroke:none;" d="M988 1394L988 1415L989 1415L988 1394z"/>
<path style="fill:#9aa0ba; stroke:none;" d="M827 1398L827 1401L828 1401L827 1398z"/>
<path style="fill:#87acb4; stroke:none;" d="M1104 1401L1104 1405L1105 1405L1104 1401z"/>
<path style="fill:#79809c; stroke:none;" d="M946 1402L946 1412L947 1412L946 1402z"/>
<path style="fill:#82a2af; stroke:none;" d="M1103 1408L1103 1412L1104 1412L1103 1408z"/>
<path style="fill:#b2b4c1; stroke:none;" d="M829.333 1412.67L829.667 1413.33L829.333 1412.67z"/>
<path style="fill:#7a819b; stroke:none;" d="M988 1415L988 1425L989 1425L988 1415z"/>
<path style="fill:#87acb5; stroke:none;" d="M1102 1416L1102 1420L1103 1420L1102 1416z"/>
<path style="fill:#8e96ad; stroke:none;" d="M830 1417L830 1420L831 1420L830 1417z"/>
<path style="fill:#d1d4dd; stroke:none;" d="M947 1421L947 1431L948 1431L947 1421z"/>
<path style="fill:#404966; stroke:none;" d="M1035.3 1425.18C1029.75 1428.06 1039.85 1436.89 1042 1438.67C1050.21 1445.48 1067.24 1451.95 1076.66 1443.3C1078.08 1442 1078.92 1439.64 1076.66 1438.69C1067.54 1434.88 1057.75 1441.22 1048 1434.75C1045.26 1432.93 1038.72 1423.4 1035.3 1425.18z"/>
<path style="fill:#bcc0cc; stroke:none;" d="M831 1425L831 1428L832 1428L831 1425z"/>
<path style="fill:#98a0b5; stroke:none;" d="M832 1430L832 1433L833 1433L832 1430z"/>
<path style="fill:#404966; stroke:none;" d="M892 1443C881.621 1444.61 875.425 1445.67 866 1438.47C863.758 1436.76 858.027 1429.74 854.662 1432.14C851.294 1434.54 858.453 1440.37 860.001 1441.7C866.866 1447.59 891.461 1459.55 892 1443z"/>
<path style="fill:#a5abbb; stroke:none;" d="M947 1431L947 1441L948 1441L947 1431z"/>
<path style="fill:#87acb5; stroke:none;" d="M1100 1431L1100 1435L1101 1435L1100 1431z"/>
<path style="fill:#d1d4dd; stroke:none;" d="M987 1434L987 1444L988 1444L987 1434z"/>
<path style="fill:#9097aa; stroke:none;" d="M833 1436L833 1439L834 1439L833 1436z"/>
<path style="fill:#81a1ac; stroke:none;" d="M1099 1438L1099 1442L1100 1442L1099 1438z"/>
<path style="fill:#79809a; stroke:none;" d="M947 1441L947 1451L948 1451L947 1441z"/>
<path style="fill:#bcc0cb; stroke:none;" d="M834 1444L834 1447L835 1447L834 1444z"/>
<path style="fill:#a8abbe; stroke:none;" d="M987 1444L987 1453L988 1453L987 1444z"/>
<path style="fill:#8fb4bc; stroke:none;" d="M1098 1446L1098 1451L1099 1451L1098 1446z"/>
<path style="fill:#99a0b3; stroke:none;" d="M835 1449L835 1452L836 1452L835 1449z"/>
<path style="fill:#7a819b; stroke:none;" d="M987 1453L987 1462L988 1462L987 1453z"/>
<path style="fill:#80a2ac; stroke:none;" d="M1096 1460L1096 1464L1097 1464L1096 1460z"/>
<path style="fill:#d2d5de; stroke:none;" d="M948 1461L948 1471L949 1471L948 1461z"/>
<path style="fill:#bdbfcc; stroke:none;" d="M837 1463L837 1466L838 1466L837 1463z"/>
<path style="fill:#99a0b3; stroke:none;" d="M838 1468L838 1471L839 1471L838 1468z"/>
<path style="fill:#a5abbb; stroke:none;" d="M948 1471L948 1481L949 1481L948 1471z"/>
<path style="fill:#d3d3dd; stroke:none;" d="M986 1471L986 1479L987 1479L986 1471z"/>
<path style="fill:#bcc0cc; stroke:none;" d="M1094 1477L1094 1480L1095 1480L1094 1477z"/>
<path style="fill:#a5abbb; stroke:none;" d="M986 1479L986 1488L987 1488L986 1479z"/>
<path style="fill:#79809a; stroke:none;" d="M948 1481L948 1491L949 1491L948 1481z"/>
<path style="fill:#bcc0cc; stroke:none;" d="M840 1482L840 1485L841 1485L840 1482z"/>
<path style="fill:#b1b5c1; stroke:none;" d="M1093.33 1484.67L1093.67 1485.33L1093.33 1484.67z"/>
<path style="fill:#9ba0b3; stroke:none;" d="M841 1487L841 1490L842 1490L841 1487z"/>
<path style="fill:#7a819b; stroke:none;" d="M986 1488L986 1497L987 1497L986 1488z"/>
<path style="fill:#9aa0b6; stroke:none;" d="M1091 1497L1091 1500L1092 1500L1091 1497z"/>
<path style="fill:#bcc0cc; stroke:none;" d="M843 1501L843 1504L844 1504L843 1501z"/>
<path style="fill:#d1d4dd; stroke:none;" d="M949 1501L949 1511L950 1511L949 1501M985 1505L985 1513L986 1513L985 1505z"/>
<path style="fill:#9aa0b6; stroke:none;" d="M844 1506L844 1509L845 1509L844 1506z"/>
<path style="fill:#a5abbb; stroke:none;" d="M949 1511L949 1521L950 1521L949 1511z"/>
<path style="fill:#9ba0b4; stroke:none;" d="M1089 1511L1089 1514L1090 1514L1089 1511z"/>
<path style="fill:#a5abbb; stroke:none;" d="M985 1513L985 1521L986 1521L985 1513z"/>
<path style="fill:#bcbecd; stroke:none;" d="M846 1520L846 1523L847 1523L846 1520z"/>
<path style="fill:#7a819b; stroke:none;" d="M949 1521L949 1531L950 1531L949 1521z"/>
<path style="fill:#79809a; stroke:none;" d="M985 1521L985 1529L986 1529L985 1521z"/>
<path style="fill:#999eb2; stroke:none;" d="M847 1525L847 1528L848 1528L847 1525z"/>
<path style="fill:#99a0b3; stroke:none;" d="M1087 1525L1087 1528L1088 1528L1087 1525z"/>
<path style="fill:#9096ac; stroke:none;" d="M848 1531L848 1534L849 1534L848 1531z"/>
<path style="fill:#a6aab6; stroke:none;" d="M1086 1531L1086 1535L1087 1535L1086 1531z"/>
<path style="fill:#d3d3dd; stroke:none;" d="M984 1537L984 1545L985 1545L984 1537z"/>
<path style="fill:#bdc1cd; stroke:none;" d="M849 1539L849 1542L850 1542L849 1539z"/>
<path style="fill:#d2d5de; stroke:none;" d="M950 1541L950 1551L951 1551L950 1541z"/>
<path style="fill:#9a9fb3; stroke:none;" d="M850 1544L850 1547L851 1547L850 1544z"/>
<path style="fill:#a6acbc; stroke:none;" d="M984 1545L984 1553L985 1553L984 1545z"/>
<path style="fill:#b1b4c3; stroke:none;" d="M1084.33 1547.67L1084.67 1548.33L1084.33 1547.67z"/>
<path style="fill:#8e95af; stroke:none;" d="M851 1550L851 1553L852 1553L851 1550z"/>
<path style="fill:#a5abbb; stroke:none;" d="M950 1551L950 1561L951 1561L950 1551z"/>
<path style="fill:#7a819b; stroke:none;" d="M984 1553L984 1561L985 1561L984 1553z"/>
<path style="fill:#b9bfcb; stroke:none;" d="M1083 1554L1083 1557L1084 1557L1083 1554z"/>
<path style="fill:#9096ac; stroke:none;" d="M1082 1559L1082 1562L1083 1562L1082 1559z"/>
<path style="fill:#79809a; stroke:none;" d="M950 1561L950 1571L951 1571L950 1561z"/>
<path style="fill:#b2b4c1; stroke:none;" d="M853.333 1564.67L853.667 1565.33L853.333 1564.67z"/>
<path style="fill:#999fb5; stroke:none;" d="M1081 1566L1081 1569L1082 1569L1081 1566z"/>
<path style="fill:#9aa0b6; stroke:none;" d="M854 1569L854 1572L855 1572L854 1569z"/>
<path style="fill:#d3d3dd; stroke:none;" d="M983 1569L983 1577L984 1577L983 1569z"/>
<path style="fill:#afb5c3; stroke:none;" d="M1080 1574L1080 1577L1081 1577L1080 1574z"/>
<path style="fill:#a5abbb; stroke:none;" d="M983 1577L983 1585L984 1585L983 1577z"/>
<path style="fill:#9096ac; stroke:none;" d="M1079 1579L1079 1582L1080 1582L1079 1579z"/>
<path style="fill:#d4d4de; stroke:none;" d="M951 1581L951 1591L952 1591L951 1581z"/>
<path style="fill:#bfbecc; stroke:none;" d="M856 1583L856 1586L857 1586L856 1583z"/>
<path style="fill:#79809a; stroke:none;" d="M983 1585L983 1592L984 1592L983 1585z"/>
<path style="fill:#b1b4c3; stroke:none;" d="M1078.33 1587.67L1078.67 1588.33L1078.33 1587.67z"/>
<path style="fill:#9a9fb3; stroke:none;" d="M857 1588L857 1591L858 1591L857 1588z"/>
<path style="fill:#a5abbb; stroke:none;" d="M951 1591L951 1601L952 1601L951 1591z"/>
<path style="fill:#8f95ab; stroke:none;" d="M858 1594L858 1597L859 1597L858 1594z"/>
<path style="fill:#bdc1cc; stroke:none;" d="M1077 1594L1077 1597L1078 1597L1077 1594z"/>
<path style="fill:#99a0b2; stroke:none;" d="M1076 1599L1076 1602L1077 1602L1076 1599z"/>
<path style="fill:#d1d4dd; stroke:none;" d="M982 1600L982 1608L983 1608L982 1600z"/>
<path style="fill:#7a819d; stroke:none;" d="M951 1601L951 1611L952 1611L951 1601z"/>
<path style="fill:#bcc0cc; stroke:none;" d="M860 1608L860 1611L861 1611L860 1608z"/>
<path style="fill:#a5aabd; stroke:none;" d="M982 1608L982 1616L983 1616L982 1608z"/>
<path style="fill:#989eb4; stroke:none;" d="M861 1613L861 1616L862 1616L861 1613z"/>
<path style="fill:#b1b4c3; stroke:none;" d="M1074.33 1613.67L1074.67 1614.33L1074.33 1613.67z"/>
<path style="fill:#79809c; stroke:none;" d="M982 1616L982 1624L983 1624L982 1616z"/>
<path style="fill:#8f95ad; stroke:none;" d="M1073 1618L1073 1621L1074 1621L1073 1618M862 1619L862 1622L863 1622L862 1619z"/>
<path style="fill:#d1d4dd; stroke:none;" d="M952 1620L952 1630L953 1630L952 1620z"/>
<path style="fill:#a6abbe; stroke:none;" d="M952 1630L952 1639L953 1639L952 1630z"/>
<path style="fill:#a5aabe; stroke:none;" d="M864 1632L864 1635L865 1635L864 1632z"/>
<path style="fill:#d1d4dd; stroke:none;" d="M981 1632L981 1640L982 1640L981 1632z"/>
<path style="fill:#bcc0cc; stroke:none;" d="M1071 1632L1071 1635L1072 1635L1071 1632z"/>
<path style="fill:#979fb2; stroke:none;" d="M1070 1637L1070 1640L1071 1640L1070 1637z"/>
<path style="fill:#98a0b5; stroke:none;" d="M865 1638L865 1641L866 1641L865 1638z"/>
<path style="fill:#7a819b; stroke:none;" d="M952 1639L952 1649L953 1649L952 1639z"/>
<path style="fill:#a5abbb; stroke:none;" d="M981 1640L981 1648L982 1648L981 1640z"/>
<path style="fill:#9096ac; stroke:none;" d="M1069 1643L1069 1646L1070 1646L1069 1643M866 1644L866 1647L867 1647L866 1644z"/>
<path style="fill:#7a819b; stroke:none;" d="M981 1648L981 1656L982 1656L981 1648z"/>
<path style="fill:#8e96ab; stroke:none;" d="M1068 1649L1068 1652L1069 1652L1068 1649z"/>
<path style="fill:#bcc0c9; stroke:none;" d="M867 1652L867 1655L868 1655L867 1652z"/>
<path style="fill:#9096ac; stroke:none;" d="M1067 1655L1067 1658L1068 1658L1067 1655z"/>
<path style="fill:#afb5c1; stroke:none;" d="M868 1658L868 1661L869 1661L868 1658z"/>
<path style="fill:#d1d4dd; stroke:none;" d="M953 1658L953 1667L954 1667L953 1658z"/>
<path style="fill:#9ba2b4; stroke:none;" d="M1066 1661L1066 1664L1067 1664L1066 1661z"/>
<path style="fill:#9a9fb3; stroke:none;" d="M869 1663L869 1666L870 1666L869 1663z"/>
<path style="fill:#d1d4dd; stroke:none;" d="M980 1665L980 1673L981 1673L980 1665z"/>
<path style="fill:#a4abbb; stroke:none;" d="M953 1667L953 1677L954 1677L953 1667z"/>
<path style="fill:#9ba0b4; stroke:none;" d="M1065 1667L1065 1670L1066 1670L1065 1667z"/>
<path style="fill:#8f95ab; stroke:none;" d="M870 1669L870 1672L871 1672L870 1669z"/>
<path style="fill:#a5abbb; stroke:none;" d="M980 1673L980 1682L981 1682L980 1673z"/>
<path style="fill:#bcc0cc; stroke:none;" d="M1064 1674L1064 1677L1065 1677L1064 1674z"/>
<path style="fill:#7a8299; stroke:none;" d="M953 1677L953 1685L954 1685L953 1677z"/>
<path style="fill:#76809b; stroke:none;" d="M980 1682L980 1692L981 1692L980 1682z"/>
<path style="fill:#bcc0cc; stroke:none;" d="M872 1683L872 1686L873 1686L872 1683z"/>
<path style="fill:#9aa1b4; stroke:none;" d="M1062 1684L1062 1687L1063 1687L1062 1684z"/>
<path style="fill:#999fb5; stroke:none;" d="M873 1688L873 1691L874 1691L873 1688z"/>
<path style="fill:#a6acbc; stroke:none;" d="M1061 1690L1061 1693L1062 1693L1061 1690z"/>
<path style="fill:#8e96ad; stroke:none;" d="M874 1694L874 1697L875 1697L874 1694z"/>
<path style="fill:#d1d4dd; stroke:none;" d="M954 1694L954 1702L955 1702L954 1694z"/>
<path style="fill:#9ba0b3; stroke:none;" d="M1060 1695L1060 1698L1061 1698L1060 1695z"/>
<path style="fill:#d1d3df; stroke:none;" d="M979 1701L979 1712L980 1712L979 1701z"/>
<path style="fill:#afb5c1; stroke:none;" d="M1059 1701L1059 1704L1060 1704L1059 1701z"/>
<path style="fill:#a6acba; stroke:none;" d="M954 1702L954 1710L955 1710L954 1702z"/>
<path style="fill:#404966; stroke:none;" d="M996 1705C995.128 1710.76 1001.24 1711.56 1006 1711.91C1017.12 1712.73 1027.6 1710.88 1038 1707C1036.43 1702.28 1032.34 1702.86 1028 1703.61C1017.22 1705.5 1006.9 1707.02 996 1705M885 1706C886.697 1711.39 893.023 1712.64 898 1714.25C910.999 1718.46 924.342 1719.89 937 1714L937 1712L911 1712.83L885 1706z"/>
<path style="fill:#afb5c3; stroke:none;" d="M1058 1706L1058 1709L1059 1709L1058 1706z"/>
<path style="fill:#d4d4dc; stroke:none;" d="M876 1707L876 1711L877 1711L876 1707z"/>
<path style="fill:#7a8299; stroke:none;" d="M954 1710L954 1717L955 1717L954 1710z"/>
<path style="fill:#b2b4c3; stroke:none;" d="M1057 1711L1057 1714L1058 1714L1057 1711z"/>
<path style="fill:#a5abbb; stroke:none;" d="M979 1712L979 1727L980 1727L979 1712z"/>
<path style="fill:#9aa0b6; stroke:none;" d="M877 1713L877 1716L878 1716L877 1713z"/>
<path style="fill:#8f95ab; stroke:none;" d="M1056.33 1715.67L1056.67 1716.33L1056.33 1715.67z"/>
<path style="fill:#8f97ae; stroke:none;" d="M878 1719L878 1722L879 1722L878 1719z"/>
<path style="fill:#a5abbb; stroke:none;" d="M1055 1720L1055 1723L1056 1723L1055 1720z"/>
<path style="fill:#bdbfcc; stroke:none;" d="M954.333 1725.67L954.667 1726.33L954.333 1725.67z"/>
<path style="fill:#8a9da3; stroke:none;" d="M1049 1729L1049 1737L1050 1737L1049 1729z"/>
<path style="fill:#193d49; stroke:none;" d="M884 1730C881.674 1737.65 881.517 1745.56 878.099 1753C864.82 1781.9 841.562 1807.02 824.808 1834C816.989 1846.59 803.383 1866.1 810.009 1881.98C813.567 1890.51 823.343 1890 831 1890C850.284 1890 870.073 1884.48 885 1871.7C902.69 1856.56 917.332 1836.31 931.576 1818C937.942 1809.82 947.159 1800.08 950.2 1790C955.278 1773.16 951.159 1749.02 948 1732C926.364 1738.92 905.019 1738.62 884 1730M984 1733C982.609 1750.63 977.132 1771.5 981.928 1789C984.815 1799.53 994.17 1809.56 1000.79 1818C1015.48 1836.73 1030.43 1855.75 1048 1871.91C1062.24 1885 1082.13 1890 1101 1890C1108.77 1890 1118.62 1890.52 1122.3 1882C1129.1 1866.25 1115.18 1845.42 1107 1833C1094.4 1813.88 1081.37 1795.06 1068.67 1776C1059.09 1761.63 1049.37 1747.93 1049 1730C1026.81 1733.77 1006.18 1742.1 984 1733z"/>
<path style="fill:#7f9298; stroke:none;" d="M983 1732L983 1738L984 1738L983 1732z"/>
<path style="fill:#8d9ea6; stroke:none;" d="M882 1734L882 1738L883 1738L882 1734z"/>
<path style="fill:#8b9fa6; stroke:none;" d="M949 1737L949 1744L950 1744L949 1737z"/>
<path style="fill:#abb6bc; stroke:none;" d="M1050 1739L1050 1742L1051 1742L1050 1739z"/>
<path style="fill:#b8c3c9; stroke:none;" d="M881 1741L881 1744L882 1744L881 1741z"/>
<path style="fill:#8c9fa5; stroke:none;" d="M982 1742L982 1745L983 1745L982 1742z"/>
<path style="fill:#6f868c; stroke:none;" d="M1051.33 1745.67L1051.67 1746.33L1051.33 1745.67z"/>
<path style="fill:#8d9ea5; stroke:none;" d="M950 1746L950 1754L951 1754L950 1746z"/>
<path style="fill:#8c9ea2; stroke:none;" d="M981 1753L981 1756L982 1756L981 1753z"/>
<path style="fill:#8c9da4; stroke:none;" d="M877 1754L878 1755L877 1754z"/>
<path style="fill:#e5e5e5; stroke:none;" d="M951 1755C952.72 1764.26 953.889 1777.9 951.096 1787C944.945 1807.04 924.64 1826.24 911.411 1842C900.716 1854.74 889.598 1869.67 875 1878.12C860.453 1886.55 816.036 1904.13 808.793 1878C805.336 1865.53 815.533 1850.06 821.601 1840C838.248 1812.41 859.856 1787.45 875 1759C860.361 1759.63 845.327 1763.33 831 1766.19C792.903 1773.81 753.167 1784.17 721 1807C692.038 1827.56 678.98 1859.15 705.428 1887.91C725.697 1909.95 758.003 1922.28 786 1930.88C846.536 1949.48 910.919 1954.53 974 1952.99C1025.93 1951.71 1078.55 1943.96 1128 1927.74C1153.66 1919.33 1182.43 1907.57 1200.83 1887C1222.63 1862.61 1216.91 1832.48 1192 1812.67C1165.3 1791.43 1131.76 1779.78 1099 1771.63C1086.94 1768.62 1073.43 1764.26 1061 1764C1065.15 1774.94 1074.08 1785.48 1080.86 1795C1091.29 1809.65 1101.46 1824.62 1110.8 1840C1117.16 1850.49 1126.62 1865.01 1123.47 1878C1121.15 1887.53 1111.8 1890.77 1103 1890.99C1086.72 1891.38 1069.64 1886.13 1056 1877.3C1034.32 1863.26 1017.26 1838.13 1001.58 1818C994.701 1809.18 984.901 1798.92 981.634 1788C978.385 1777.14 980.97 1765.99 981 1755L951 1755z"/>
<path style="fill:#8b9ea5; stroke:none;" d="M876 1756L877 1757L876 1756z"/>
<path style="fill:#b2bcbe; stroke:none;" d="M951 1757L951 1761L952 1761L951 1757z"/>
<path style="fill:#8b9ea2; stroke:none;" d="M1056 1757L1057 1758L1056 1757z"/>
<path style="fill:#819397; stroke:none;" d="M951 1761L951 1765L952 1765L951 1761z"/>
<path style="fill:#8d9ca3; stroke:none;" d="M1059 1762L1060 1763L1059 1762z"/>
<path style="fill:#b1bcbe; stroke:none;" d="M980 1763L980 1768L981 1768L980 1763z"/>
<path style="fill:#4c6971; stroke:none;" d="M951 1765L951 1770L952 1770L951 1765z"/>
<path style="fill:#7f9298; stroke:none;" d="M980 1768L980 1782L981 1782L980 1768z"/>
<path style="fill:#7e9396; stroke:none;" d="M868 1769L869 1770L868 1769z"/>
<path style="fill:#7f9298; stroke:none;" d="M866 1772L867 1773L866 1772z"/>
<path style="fill:#809296; stroke:none;" d="M864 1775L865 1776L864 1775z"/>
<path style="fill:#7e9398; stroke:none;" d="M862 1778L863 1779L862 1778z"/>
<path style="fill:#4c6770; stroke:none;" d="M951 1780L951 1787L952 1787L951 1780z"/>
<path style="fill:#7f9195; stroke:none;" d="M860 1781L861 1782L860 1781z"/>
<path style="fill:#204a5a; stroke:none;" d="M938 1785L937 1784C924.404 1790.38 915.672 1810.1 906.996 1821C892.167 1839.63 873.56 1854.36 852 1864.57C845.888 1867.47 836.854 1870.77 830 1869.78C826.632 1869.3 823.456 1866.38 820.059 1866.59C817.316 1866.77 815.9 1869.46 816.662 1871.96C821.495 1887.83 851.51 1875.26 860 1870.69C884.871 1857.3 902.873 1835.32 919.371 1813C925.684 1804.46 934.184 1794.92 938 1785M995 1784C996.408 1793.65 1006.64 1804.24 1012.37 1812C1029.48 1835.15 1047.43 1856.9 1073 1871.14C1082.46 1876.4 1107.74 1887.66 1114.95 1872.96C1116.25 1870.31 1115.24 1866.81 1111.94 1866.59C1108.26 1866.35 1104.75 1869.47 1101 1869.78C1094.16 1870.34 1087.1 1867.56 1081 1864.86C1059.44 1855.33 1039.87 1839.64 1025.5 1821C1017.03 1810.01 1007.75 1790.07 995 1784z"/>
<path style="fill:#7e9396; stroke:none;" d="M981.333 1787.67L981.667 1788.33L981.333 1787.67z"/>
<path style="fill:#7d9295; stroke:none;" d="M947 1795L948 1796L947 1795z"/>
<path style="fill:#7f9299; stroke:none;" d="M1081 1795L1082 1796L1081 1795z"/>
<path style="fill:#7e9197; stroke:none;" d="M849 1797L850 1798L849 1797z"/>
<path style="fill:#819299; stroke:none;" d="M945 1798L946 1799L945 1798z"/>
<path style="fill:#809198; stroke:none;" d="M943 1801L944 1802L943 1801z"/>
<path style="fill:#7f9296; stroke:none;" d="M992 1806L993 1807L992 1806z"/>
<path style="fill:#7e9197; stroke:none;" d="M1092 1811L1093 1812L1092 1811z"/>
<path style="fill:#809198; stroke:none;" d="M1094 1814L1095 1815L1094 1814M836 1816L837 1817L836 1816z"/>
<path style="fill:#7f9298; stroke:none;" d="M834 1819L835 1820L834 1819z"/>
<path style="fill:#7f9296; stroke:none;" d="M928 1821L929 1822L928 1821z"/>
<path style="fill:#7f9298; stroke:none;" d="M832 1822L833 1823L832 1822z"/>
<path style="fill:#7e9398; stroke:none;" d="M830 1825L831 1826L830 1825z"/>
<path style="fill:#7d9297; stroke:none;" d="M1102 1826L1103 1827L1102 1826z"/>
<path style="fill:#7e9197; stroke:none;" d="M1104 1829L1105 1830L1104 1829z"/>
<path style="fill:#7c9498; stroke:none;" d="M920 1831L921 1832L920 1831z"/>
<path style="fill:#809198; stroke:none;" d="M1013 1833L1014 1834L1013 1833M823 1836L824 1837L823 1836z"/>
<path style="fill:#8b9ea4; stroke:none;" d="M838 1836L838 1837L841 1837L838 1836z"/>
<path style="fill:#8c9da5; stroke:none;" d="M1091 1836L1091 1837L1095 1837L1091 1836z"/>
<path style="fill:#fefefc; stroke:none;" d="M837 1837L837 1841L842 1841L842 1837L837 1837z"/>
<path style="fill:#fefefe; stroke:none;" d="M1090 1837L1090 1841L1095 1841L1095 1837L1090 1837z"/>
<path style="fill:#d2dadd; stroke:none;" d="M1095 1837L1095 1841L1096 1841L1095 1837z"/>
<path style="fill:#8b9ea4; stroke:none;" d="M836.333 1838.67L836.667 1839.33L836.333 1838.67z"/>
<path style="fill:#a5b7bb; stroke:none;" d="M842.333 1838.67L842.667 1839.33L842.333 1838.67z"/>
<path style="fill:#8b9ea4; stroke:none;" d="M838 1841L838 1842L841 1842L838 1841z"/>
<path style="fill:#8c9da5; stroke:none;" d="M1091 1841L1091 1842L1095 1842L1091 1841z"/>
<path style="fill:#7b9397; stroke:none;" d="M831.667 1845.33L832.333 1845.67L831.667 1845.33z"/>
<path style="fill:#8b9ca4; stroke:none;" d="M1099 1845L1099 1846L1102 1846L1099 1845z"/>
<path style="fill:#98a9b0; stroke:none;" d="M829 1846L830 1847L829 1846z"/>
<path style="fill:#fefefe; stroke:none;" d="M826 1858C831.065 1856.36 832.496 1850.93 833 1846C826.651 1847.35 826.052 1852.21 826 1858z"/>
<path style="fill:#b8bfc5; stroke:none;" d="M833 1846L833 1849L834 1849L833 1846z"/>
<path style="fill:#fefefe; stroke:none;" d="M1099 1846C1099.6 1850.62 1101.3 1856.37 1106 1858C1105.98 1852.09 1105.75 1847.07 1099 1846z"/>
<path style="fill:#8c9fa6; stroke:none;" d="M832 1850L833 1851L832 1850z"/>
<path style="fill:#8c9da4; stroke:none;" d="M1100 1851L1101 1852L1100 1851z"/>
<path style="fill:#7f9298; stroke:none;" d="M1030 1853L1031 1854L1030 1853z"/>
<path style="fill:#c4cdd4; stroke:none;" d="M1106 1853L1106 1857L1107 1857L1106 1853z"/>
<path style="fill:#8f9ea1; stroke:none;" d="M829 1857L830 1858L829 1857z"/>
<path style="fill:#667d83; stroke:none;" d="M1120.33 1857.67L1120.67 1858.33L1120.33 1857.67z"/>
<path style="fill:#7e9398; stroke:none;" d="M896 1859L897 1860L896 1859z"/>
<path style="fill:#5a737a; stroke:none;" d="M1122.33 1864.67L1122.67 1865.33L1122.33 1864.67z"/>
<path style="fill:#7e9398; stroke:none;" d="M809 1865L809 1868L810 1868L809 1865z"/>
<path style="fill:#4f6771; stroke:none;" d="M1123 1868L1123 1872L1124 1872L1123 1868z"/>
<path style="fill:#7e9398; stroke:none;" d="M808 1871L808 1878L809 1878L808 1871z"/>
<path style="fill:#697c83; stroke:none;" d="M1123.33 1877.67L1123.67 1878.33L1123.33 1877.67z"/>
<path style="fill:#9aa5a9; stroke:none;" d="M859.667 1885.33L860.333 1885.67L859.667 1885.33z"/>
<path style="fill:#a6b1b3; stroke:none;" d="M853.667 1887.33L854.333 1887.67L853.667 1887.33z"/>
<path style="fill:#70878d; stroke:none;" d="M848.667 1888.33L849.333 1888.67L848.667 1888.33z"/>
<path style="fill:#809296; stroke:none;" d="M1081 1888L1081 1889L1084 1889L1081 1888z"/>
<path style="fill:#9ba6aa; stroke:none;" d="M844 1889L844 1890L847 1890L844 1889z"/>
<path style="fill:#657e85; stroke:none;" d="M1087 1889L1087 1890L1090 1890L1087 1889z"/>
<path style="fill:#99a6ac; stroke:none;" d="M1112.67 1889.33L1113.33 1889.67L1112.67 1889.33z"/>
<path style="fill:#4c6971; stroke:none;" d="M822 1890L822 1891L834 1891L822 1890z"/>
<path style="fill:#7e9299; stroke:none;" d="M834 1890L834 1891L840 1891L834 1890z"/>
<path style="fill:#7f9298; stroke:none;" d="M1092 1890L1092 1891L1098 1891L1092 1890z"/>
<path style="fill:#4a696e; stroke:none;" d="M1098 1890L1098 1891L1109 1891L1098 1890z"/>
</svg>
