<?xml version="1.0" standalone="yes"?>
<svg width="2000" height="2000">
<path style="fill:#fff7f4; stroke:none;" d="M0 0L0 2000L2000 2000L2000 0L0 0z"/>
<path style="fill:#d8ece1; stroke:none;" d="M979 326L979 327L1012 327L979 326z"/>
<path style="fill:#b1e0ce; stroke:none;" d="M589 1598C584.263 1581.55 574.309 1566.7 569.424 1550C558.768 1513.57 555.69 1475.69 554.039 1438C552.83 1410.38 555.514 1382.44 558.17 1355C559.141 1344.96 563.718 1333.03 562.285 1323C560.96 1313.73 549.487 1302.34 544.861 1294C535.814 1277.69 530.385 1260.17 526.51 1242C522.399 1222.72 524.759 1202.38 526.834 1183C531.64 1138.11 544.749 1095.05 563.306 1054C584.983 1006.05 616.289 961.432 652.089 923C662.874 911.423 674.268 899.785 686 889.17C691.827 883.898 699.752 878.93 704.397 872.575C708.454 867.023 706.601 854.677 707.09 848C708.081 834.486 711.997 820.544 717 808C738.017 755.298 784.044 721.905 835 701C828.202 685.225 816.93 669.124 818.09 651C818.539 643.99 820.475 637.316 823.486 631C825.051 627.718 828.556 623.848 828.023 620C827.127 613.523 820.497 606.133 817.873 600C810.616 583.041 809.601 563.776 820.105 548C833.372 528.074 856.483 523.218 875 510.279C900.506 492.456 921.812 468.651 942.911 446C968.993 417.998 993.63 388.327 1023 363.59C1035.85 352.77 1052.02 339.563 1069 336.311C1105.39 329.343 1111 364.65 1135 381.43C1155.81 395.974 1184.33 387.747 1206 379.575C1213.87 376.606 1230.21 373.016 1235 366C1174.44 349.478 1116.02 332.406 1053 328.089C852.546 314.36 656.291 386.111 511 525.039C472.269 562.074 438.254 604.974 409.308 650C252.594 893.769 265.387 1219.35 439.127 1451C479.861 1505.31 530.706 1562.02 589 1598z"/>
<path style="fill:#6d3655; stroke:none;" d="M859 731C853.904 718.882 847.316 709.859 847.054 696C846.557 669.733 869.199 656.648 892 660C892.001 672.896 893.508 686.471 896.627 699C897.564 702.768 899.13 711.886 905.003 709.824C912.536 707.18 918.52 694.43 922.399 688C934.948 667.198 946.536 645.724 957.398 624C960.559 617.677 965.38 600.393 972.213 597.618C979.124 594.811 992.547 599.549 1000 599.964C1027.03 601.47 1053.99 605.061 1081 606.911C1160 612.321 1240.3 611.503 1317 591L1322 679C1354.79 671.23 1383.6 641.847 1400.4 614C1438.61 550.662 1433.82 472.036 1393.33 411C1378.65 388.874 1360.92 368.547 1336 357.873C1299.85 342.39 1258.86 357.215 1225 371.424C1209.1 378.096 1191.32 386.883 1174 388.827C1156.91 390.745 1141.99 388.292 1129.09 375.829C1113.59 360.859 1108.1 339.231 1084 335.439C1062.02 331.98 1039.79 348.792 1024 361.921C985.275 394.12 954.483 434.517 919 470C903.626 485.374 888.466 501.191 870 512.946C852.942 523.805 833.204 528.664 820.789 546C809.444 561.841 810.421 582.589 817.453 600C819.978 606.252 826.474 613.46 827.415 620C828.47 627.329 819.496 636.875 819.043 645C817.375 674.923 834.493 712.962 859 731z"/>
<path style="fill:#8b7f89; stroke:none;" d="M1067 336L1067 337L1070 337L1067 336z"/>
<path style="fill:#b797a6; stroke:none;" d="M1289 351L1289 352L1295 352L1289 351z"/>
<path style="fill:#92667d; stroke:none;" d="M1295 351L1295 352L1308 352L1295 351z"/>
<path style="fill:#d8caca; stroke:none;" d="M1308 351L1308 352L1313 352L1308 351z"/>
<path style="fill:#d1bac2; stroke:none;" d="M1282 352L1282 353L1285 353L1282 352z"/>
<path style="fill:#9b7185; stroke:none;" d="M1315.67 352.333L1316.33 352.667L1315.67 352.333z"/>
<path style="fill:#d0bbc0; stroke:none;" d="M1317.67 352.333L1318.33 352.667L1317.67 352.333z"/>
<path style="fill:#c1a2b1; stroke:none;" d="M1277.67 353.333L1278.33 353.667L1277.67 353.333z"/>
<path style="fill:#bea4af; stroke:none;" d="M1321.67 353.333L1322.33 353.667L1321.67 353.333z"/>
<path style="fill:#ad8b9b; stroke:none;" d="M1273.67 354.333L1274.33 354.667L1273.67 354.333z"/>
<path style="fill:#ac8a9b; stroke:none;" d="M1269.67 355.333L1270.33 355.667L1269.67 355.333z"/>
<path style="fill:#a57e90; stroke:none;" d="M1262.67 357.333L1263.33 357.667L1262.67 357.333z"/>
<path style="fill:#9d7286; stroke:none;" d="M1259.67 358.333L1260.33 358.667L1259.67 358.333z"/>
<path style="fill:#9c7286; stroke:none;" d="M1250.67 361.333L1251.33 361.667L1250.67 361.333z"/>
<path style="fill:#95969b; stroke:none;" d="M1179.67 387.333L1180.33 387.667L1179.67 387.333z"/>
<path style="fill:#95969a; stroke:none;" d="M1150 388L1150 389L1153 389L1150 388z"/>
<path style="fill:#939798; stroke:none;" d="M1174 388L1174 389L1177 389L1174 388z"/>
<path style="fill:#a1b6b1; stroke:none;" d="M1156 389L1156 390L1167 390L1156 389z"/>
<path style="fill:#9e7188; stroke:none;" d="M1413.33 449.667L1413.67 450.333L1413.33 449.667z"/>
<path style="fill:#9b7185; stroke:none;" d="M1416.33 457.667L1416.67 458.333L1416.33 457.667z"/>
<path style="fill:#9c7286; stroke:none;" d="M1417.33 460.667L1417.67 461.333L1417.33 460.667z"/>
<path style="fill:#b1e0ce; stroke:none;" d="M1419 465C1435.94 524.707 1425.01 592.911 1380.96 639C1369.89 650.577 1357.97 661.156 1344 669.127C1339.01 671.976 1325.11 675.28 1322.6 680.418C1320.61 684.497 1322.42 690.737 1322.83 695C1323.55 702.565 1323 710.404 1323 718C1323 748.413 1320.08 778.7 1320 809C1333.25 805.211 1346.31 798.554 1359 793.15C1363.6 791.19 1370.84 789.655 1374.4 786.031C1376.87 783.505 1375.72 779.163 1376.64 776C1378.79 768.566 1386.38 761.047 1394 759.39C1418 754.172 1430.67 788.673 1409 800.583C1402.96 803.904 1396.31 804.918 1390 801.861C1386.44 800.137 1383.18 796.378 1379 796.476C1365.49 796.792 1347.64 808.385 1335 813.192C1330.34 814.966 1322.99 816.324 1319.74 820.394C1317.35 823.395 1317.9 828.376 1317.42 832C1316.11 842.002 1315.41 852.041 1313.68 862C1308.42 892.282 1297.37 918.509 1287 947C1293.17 950.226 1294.01 958.673 1295.33 965C1299.04 982.708 1297.98 1000.52 1294.01 1018C1292.59 1024.28 1287.07 1035.07 1290.59 1041C1301.07 1058.62 1317.25 1073.99 1328.97 1091C1360.95 1137.39 1386.88 1190.04 1396.08 1246C1399.11 1264.44 1402.11 1285.47 1398.62 1304C1394.67 1325.02 1384.97 1345.63 1369.99 1361C1363.59 1367.55 1357.19 1374.11 1350 1379.79C1346.87 1382.27 1342.6 1384.58 1342.43 1389.01C1341.68 1408.55 1343.82 1428.38 1342.96 1448C1339.21 1533.55 1326.19 1628.44 1253 1684L1253 1685C1278.75 1677.96 1304.63 1663.95 1328 1651.31C1371.61 1627.72 1412.85 1601.04 1451 1569.25C1528.11 1504.99 1591.02 1424.36 1634.74 1334C1730.96 1135.14 1726.48 892.429 1621.31 698C1585.99 632.702 1541.42 575.414 1489 523C1474.54 508.538 1458.86 495.285 1443 482.389C1435.6 476.374 1427.84 468.737 1419 465z"/>
<path style="fill:#8e8d93; stroke:none;" d="M1421 473L1421 476L1422 476L1421 473z"/>
<path style="fill:#8b818a; stroke:none;" d="M1423 482L1423 485L1424 485L1423 482z"/>
<path style="fill:#ffffff; stroke:none;" d="M781 549C786.572 547.151 786.501 536.203 788.604 531C793.74 518.293 802.558 508.211 811.424 498C815.271 493.571 821.266 489.692 823 484C815.875 485.099 810.81 492.009 806.039 497C792.624 511.035 781.165 529.063 781 549M790 572C796.191 569.824 797.082 553.969 799.45 548C805.351 533.125 813.775 519.085 824.289 507C830.041 500.39 839.274 494.924 843 487L842 486C833.554 488.87 826.346 497.315 820.754 504C805.42 522.328 790.016 547.316 790 572z"/>
<path style="fill:#8e8c91; stroke:none;" d="M1426 502L1426 509L1427 509L1426 502z"/>
<path style="fill:#8f8890; stroke:none;" d="M1426 530L1426 536L1427 536L1426 530z"/>
<path style="fill:#908b92; stroke:none;" d="M1423 554L1423 557L1424 557L1423 554z"/>
<path style="fill:#949597; stroke:none;" d="M1422.33 559.667L1422.67 560.333L1422.33 559.667z"/>
<path style="fill:#8d808a; stroke:none;" d="M813.333 561.667L813.667 562.333L813.333 561.667z"/>
<path style="fill:#929699; stroke:none;" d="M1421.33 563.667L1421.67 564.333L1421.33 563.667z"/>
<path style="fill:#ffffff; stroke:none;" d="M1451.49 565.086C1448.76 566.793 1448.25 572.179 1447.33 575C1444.85 582.594 1442.02 590.001 1438.14 597C1427.37 616.418 1412.84 628.904 1396.06 642.76C1393.91 644.532 1390.54 650.4 1396.06 650.172C1402.11 649.923 1409.7 641.703 1414 638C1430.11 624.121 1442.41 606.718 1450.4 587C1452.55 581.686 1455.09 575.757 1455.68 570.005C1455.92 567.654 1454.93 562.94 1451.49 565.086M1469.61 587.086C1467.2 588.764 1465.32 599.557 1462.54 603C1452.14 615.878 1439.65 626.394 1428.02 638.039C1426.46 639.598 1420.41 647.909 1427.06 647.079C1431.92 646.473 1437.7 639.253 1441 635.996C1452.26 624.866 1466.89 612.417 1474 598C1475.34 595.291 1475.82 582.773 1469.61 587.086z"/>
<path style="fill:#f5ae8e; stroke:none;" d="M978 598L978 599C1004.85 603.564 1031.25 613.071 1058 618.55C1142.61 635.879 1235.1 647.957 1318 617L1318 621L1319 621L1317 591C1304.18 593.178 1291.84 598.628 1279 601.066C1246.92 607.156 1213.55 609.188 1181 609.985C1130.62 611.219 1080.16 606.35 1030 602.911C1012.72 601.726 995.312 598.048 978 598z"/>
<path style="fill:#f7bb9f; stroke:none;" d="M892 660C885.472 658.788 877.481 657.927 871 659.789C854.538 664.521 847.999 681.577 848 697C848.002 722.597 863.368 743.323 890 742.996C898.18 742.896 903.183 738.879 910 735C910.898 778.524 931.551 830.286 961.089 862C979.425 881.686 1004.56 895.63 1028 908.309C1081.15 937.056 1142.94 957.635 1204 954.961C1224.77 954.051 1247.06 949.34 1266 940.691C1275.49 936.357 1287.96 925.062 1298 924L1311.54 874L1319 820L1236 852C1239.81 858.862 1235.89 866.081 1234 873L1233 873L1235 853C1225.54 856.201 1225.51 860.389 1222 869L1221 869C1221 860.833 1222.17 853.129 1213 850L1213 849L1222 852L1223 852L1233 847L1233 846L1215 839L1215 838L1235 844.791L1247 840.424L1274 829L1274 828C1268.52 828 1263.15 828.332 1258 826.12C1254.26 824.513 1250.96 822.167 1248.39 818.985C1222.2 786.499 1300.92 773.603 1293.46 810C1292.41 815.088 1288.83 818.85 1286 823C1293.46 821.674 1314.76 815.077 1318.97 808.606C1321.65 804.494 1320.98 796.712 1321 792C1321.06 781.52 1321.37 770.481 1322.09 760C1325.29 713.207 1323.88 663.497 1318 617C1299.2 622.027 1281.39 628.71 1262 631.704C1203.72 640.702 1144.72 633.482 1087 623.92C1059.06 619.291 1031.48 612.394 1004 605.525C996.131 603.557 979.854 595.182 972.209 597.323C965.479 599.207 960.336 617.125 957.398 623C946.196 645.403 934.298 667.645 921.189 689C917.87 694.407 910.995 708.421 904.015 709.369C899.309 710.008 897.457 702.298 896.583 699C893.335 686.74 892.008 672.646 892 660z"/>
<path style="fill:#b07275; stroke:none;" d="M1317 598L1317 604L1318 604L1317 598M1002 600L1002 601L1007 601L1002 600z"/>
<path style="fill:#af7375; stroke:none;" d="M1280 600L1280 601L1283 601L1280 600z"/>
<path style="fill:#b17074; stroke:none;" d="M1063 605L1063 606L1067 606L1063 605z"/>
<path style="fill:#b07372; stroke:none;" d="M1245 605L1245 606L1249 606L1245 605z"/>
<path style="fill:#b17172; stroke:none;" d="M1233 606L1233 607L1239 607L1233 606z"/>
<path style="fill:#b27273; stroke:none;" d="M1223 607L1223 608L1227 608L1223 607z"/>
<path style="fill:#8e5463; stroke:none;" d="M1118 608L1118 609L1134 609L1118 608z"/>
<path style="fill:#b17172; stroke:none;" d="M1197 608L1197 609L1210 609L1197 608z"/>
<path style="fill:#d39080; stroke:none;" d="M1145 609L1145 610L1187 610C1176.01 605.389 1156.96 609 1145 609z"/>
<path style="fill:#8a8089; stroke:none;" d="M820.333 637.667L820.667 638.333L820.333 637.667z"/>
<path style="fill:#d69b8d; stroke:none;" d="M1320 645L1320 654L1321 654L1320 645z"/>
<path style="fill:#8f8d92; stroke:none;" d="M818 647L818 659L819 659L818 647z"/>
<path style="fill:#d5998e; stroke:none;" d="M875 658L875 659L886 659L875 658z"/>
<path style="fill:#c48782; stroke:none;" d="M1237 659L1237 660L1241 660L1237 659z"/>
<path style="fill:#b27779; stroke:none;" d="M1321 659L1321 670L1322 670L1321 659z"/>
<path style="fill:#6d3655; stroke:none;" d="M1126.18 661.028C1121.23 663.805 1118.13 670.974 1113.99 674.91C1106.08 682.417 1095.37 687.113 1085 690.127C1080.45 691.45 1068.65 691.226 1066.61 696.148C1063.28 704.188 1072.84 705.104 1078 704.245C1090.5 702.169 1103.46 697.74 1114 690.64C1121.69 685.457 1129.26 678.428 1133.44 670C1136.1 664.645 1132.98 657.22 1126.18 661.028M1235.32 661.028C1228.64 665.435 1238.95 676.614 1242.09 680C1253.31 692.098 1267.36 698.54 1283 702.846C1287.21 704.007 1296.87 705.935 1300.4 702.397C1302.93 699.851 1302.03 695.068 1298.85 693.589C1293.38 691.041 1285.87 691.338 1280 689.561C1267.23 685.693 1255.31 677.706 1247.42 667.001C1244.81 663.458 1240.44 657.651 1235.32 661.028z"/>
<path style="fill:#b0797c; stroke:none;" d="M1135 663L1135 667L1136 667L1135 663z"/>
<path style="fill:#d49a8e; stroke:none;" d="M847 690L847 701L848 701L847 690z"/>
<path style="fill:#b3787c; stroke:none;" d="M1083.67 690.333L1084.33 690.667L1083.67 690.333z"/>
<path style="fill:#bc807f; stroke:none;" d="M1287 691L1287 692L1290 692L1287 691z"/>
<path style="fill:#b3787a; stroke:none;" d="M1071 692L1071 693L1075 693L1071 692z"/>
<path style="fill:#995f6b; stroke:none;" d="M1302 696L1302 701L1303 701L1302 696z"/>
<path style="fill:#b27a7d; stroke:none;" d="M1065 697L1065 700L1066 700L1065 697z"/>
<path style="fill:#bc807f; stroke:none;" d="M896.333 698.667L896.667 699.333L896.333 698.667z"/>
<path style="fill:#fe5558; stroke:none;" d="M806 1002L812.83 928L818 846L819 846C819 891.267 822.98 936.772 824.961 982C829.035 1075.04 829.271 1170.11 822.911 1263C819.185 1317.4 815.225 1372.06 806.562 1426C803.059 1447.81 799.068 1469.48 794.113 1491C791.671 1501.6 787.079 1512.16 786 1523C806.782 1522.94 827.664 1517.42 848 1513.61C892.16 1505.33 936.806 1494.07 978 1475.86C1000.68 1465.83 1025.92 1452.75 1040.56 1432C1061.58 1402.21 1056.45 1353.52 1054.09 1319C1048.34 1235.12 1034.51 1153.32 1023.28 1070C1019.67 1043.17 1014.08 1016.52 1008.81 990C1006.75 979.653 1007.31 964.504 1001.53 955.418C998.272 950.305 986.432 947.896 981 945.579C964.609 938.584 948.585 930.788 933 922.139C883.552 894.697 837.026 861.027 797 821L909 901.2L951 924C946.615 914.542 937.542 906.711 931.67 898C919.186 879.482 908.727 860.001 901.053 839C895.083 822.663 889.846 805.242 887.299 788C885.894 778.484 887.332 764.631 882.973 756C879.737 749.592 872.047 745.169 867.17 740.039C855.831 728.111 844.063 715.468 836 701C821.841 703.516 807.332 712.771 795 719.85C748.691 746.436 711.904 792.536 707.911 847C707.261 855.87 705.411 866.186 707.394 875C710.262 887.756 723.368 901.527 730.86 912C746.891 934.411 763.645 956.379 781.95 977C789.504 985.51 796.64 995.407 806 1002z"/>
<path style="fill:#997165; stroke:none;" d="M1116 701L1116 702L1120 702L1116 701z"/>
<path style="fill:#977269; stroke:none;" d="M1249 701L1249 702L1252 702L1249 701z"/>
<path style="fill:#342730; stroke:none;" d="M1115.1 703.032C1105.42 708.219 1107.52 732.267 1109.76 741C1110.89 745.416 1113.67 753.634 1119.82 751.238C1130.36 747.124 1128.07 720.512 1125.96 712C1124.78 707.267 1121.23 699.75 1115.1 703.032M1247.33 703.032C1237.37 708.87 1240.18 732.871 1242.51 742C1243.62 746.313 1247.2 753.87 1252.89 750.953C1263.48 745.527 1260.48 721.138 1258.32 712C1257.24 707.443 1253.28 699.545 1247.33 703.032z"/>
<path style="fill:#a86f76; stroke:none;" d="M1281.67 702.333L1282.33 702.667L1281.67 702.333z"/>
<path style="fill:#905865; stroke:none;" d="M1291 704L1291 705L1299 705L1291 704z"/>
<path style="fill:#bb8180; stroke:none;" d="M848.333 707.667L848.667 708.333L848.333 707.667z"/>
<path style="fill:#8a685f; stroke:none;" d="M1258.33 711.667L1258.67 712.333L1258.33 711.667z"/>
<path style="fill:#8c675e; stroke:none;" d="M1109 712L1109 715L1110 715L1109 712z"/>
<path style="fill:#947269; stroke:none;" d="M1126.33 713.667L1126.67 714.333L1126.33 713.667z"/>
<path style="fill:#654b4a; stroke:none;" d="M1259 715L1259 720L1260 720L1259 715z"/>
<path style="fill:#89685f; stroke:none;" d="M1108 716L1108 723L1109 723L1108 716z"/>
<path style="fill:#947269; stroke:none;" d="M1127 718L1127 723L1128 723L1127 718z"/>
<path style="fill:#664c4b; stroke:none;" d="M1127 723L1127 734L1128 734L1127 723z"/>
<path style="fill:#967168; stroke:none;" d="M1240 723L1240 734L1241 734L1240 723z"/>
<path style="fill:#c69785; stroke:none;" d="M1260 723L1260 731L1261 731L1260 723z"/>
<path style="fill:#c84855; stroke:none;" d="M859 731L863 736L859 731z"/>
<path style="fill:#957067; stroke:none;" d="M1108 731L1108 736L1109 736L1108 731z"/>
<path style="fill:#6d3655; stroke:none;" d="M863 735C868.957 745.305 883.172 758.98 894 764L892 744C880.195 743.992 873.407 739.377 863 735z"/>
<path style="fill:#f5ae8e; stroke:none;" d="M882 743L882 744L892 744C892.792 782.35 904.417 826.581 925.054 859C967.22 925.239 1047.49 971.698 1122 991.849C1176.24 1006.52 1246.83 1006.51 1281.97 955C1288.12 945.991 1295.87 934.049 1297 923C1285.66 928.364 1275.59 936.019 1264 941.138C1245.42 949.346 1225.1 952.916 1205 954.83C1167.58 958.395 1128.17 948.034 1093 936.355C1047.5 921.243 995.605 897.06 962.039 862C931.661 830.268 911.881 778.822 910 735C899.364 739.09 893.921 743 882 743z"/>
<path style="fill:#7d5e59; stroke:none;" d="M1241 736L1241 739L1242 739L1241 736z"/>
<path style="fill:#af8474; stroke:none;" d="M1259.33 736.667L1259.67 737.333L1259.33 736.667z"/>
<path style="fill:#d79479; stroke:none;" d="M1273 737C1269.72 752.887 1255.51 783.906 1239.11 759C1236.88 755.613 1235.46 751.761 1234 748L1233 748C1233.71 752.826 1235.29 757.706 1237.65 762C1251.8 787.752 1280.97 756.03 1273 737z"/>
<path style="fill:#967065; stroke:none;" d="M1126.33 738.667L1126.67 739.333L1126.33 738.667z"/>
<path style="fill:#d79479; stroke:none;" d="M1095 741C1095.19 749.983 1097.76 760.288 1104.19 766.895C1114.5 777.507 1127.65 769.614 1132.48 758C1134.1 754.095 1135.42 750.189 1136 746L1135 746C1133.52 749.731 1132.16 753.474 1130.2 757C1128.77 759.572 1127.06 761.88 1124.96 763.945C1108.09 780.497 1101.22 750.883 1095 741z"/>
<path style="fill:#d44346; stroke:none;" d="M884 757C884.381 803.045 901.34 852.696 926.344 891C933.72 902.3 941.981 916.344 952.455 925.034C959.73 931.07 970.527 934.227 979 938.255C1002.26 949.317 1030.38 963.23 1056 967L1056 966C1004.07 944.379 947.289 899.768 920.309 850C910.019 831.02 903.082 810.077 898.511 789C895.82 776.592 896.64 763.55 884 757z"/>
<path style="fill:#a86a6b; stroke:none;" d="M893 757L893 761L894 761L893 757z"/>
<path style="fill:#fffdfe; stroke:none;" d="M1223 853C1234.66 849.643 1245.83 843.186 1257 838.421C1279.33 828.894 1301.77 819.611 1324 809.861C1340.11 802.793 1360.17 798.257 1374.85 788.586C1379.25 785.692 1377.38 780.35 1378.85 776C1380.84 770.122 1386.37 764.796 1392 762.367C1413.14 753.245 1427 784.063 1409.99 797.606C1404.17 802.239 1396.58 803.145 1390 799.583C1386.04 797.438 1382.96 792.801 1378 794.013C1365.88 796.974 1353.66 803.671 1342 808.189C1315.93 818.287 1289.84 828.491 1264 839.139C1254.04 843.242 1230.48 847.514 1225 857C1262.25 844.398 1298.2 827.456 1335 813.576C1348.24 808.581 1363.98 798.682 1378 796.933C1385.39 796.01 1391.39 804.814 1400 803.815C1413.41 802.258 1423.71 789.637 1420.47 776C1417.43 763.249 1402.2 755.103 1390 760.367C1375.69 766.544 1380.65 783.489 1369 788.572C1333.91 803.878 1298.35 818.311 1263 833.012C1252.82 837.245 1228.55 843.393 1223 853z"/>
<path style="fill:#f27190; stroke:none;" d="M1393 761L1393 762L1396 762L1393 761z"/>
<path style="fill:#e91f4f; stroke:none;" d="M1379 787L1310 815.576L1224 853C1228.35 854.543 1232.92 851.838 1237 850.2C1246.98 846.197 1257.09 842.441 1267 838.283C1292.77 827.471 1319.02 817.706 1345 807.399C1353.9 803.866 1370.53 793.403 1380 794.237C1383.8 794.571 1386.54 798.593 1390 799.991C1400.15 804.094 1413.52 799.726 1417.15 789C1428.56 755.25 1370.82 752.639 1379 787z"/>
<path style="fill:#f1809c; stroke:none;" d="M1401 761L1401 762L1404 762L1401 761z"/>
<path style="fill:#e57a6a; stroke:none;" d="M894 764L894 768L895 768L894 764z"/>
<path style="fill:#f0557d; stroke:none;" d="M1418 776L1418 785L1419 785L1418 776z"/>
<path style="fill:#f8b9c4; stroke:none;" d="M1378.33 785.667L1378.67 786.333L1378.33 785.667z"/>
<path style="fill:#f8aa93; stroke:none;" d="M1263 787.464C1247.45 790.288 1236.99 807.885 1249.21 820.895C1255.63 827.724 1266.11 829.218 1275 827.671C1288.86 825.258 1299.5 809.764 1290.35 797.015C1284.49 788.838 1272.57 785.726 1263 787.464M1094 793.529C1079.27 796.929 1070.47 813.726 1081.22 825.96C1087.92 833.582 1099.34 835.7 1109 833.471C1122.6 830.332 1131.92 814.174 1122.44 802.043C1116.26 794.128 1103.5 791.337 1094 793.529z"/>
<path style="fill:#ee587b; stroke:none;" d="M1394 801L1394 802L1403 802L1394 801z"/>
<path style="fill:#bf3449; stroke:none;" d="M797 821C811.712 841.885 837.728 859.146 858 874.373C903.548 908.587 954.275 937.505 1008 956.692C1028.05 963.854 1048.76 971.302 1070 974L1070 973C1051.86 963.33 1030.19 959.014 1011 951.399C977.323 938.036 945.318 921.752 914 903.576C886.195 887.438 859.662 868.955 834 849.626C822.249 840.775 810.281 827.083 797 821z"/>
<path style="fill:#d69579; stroke:none;" d="M1215 838L1215 839L1234 846C1229.36 839.764 1222.5 838.156 1215 838z"/>
<path style="fill:#d79b93; stroke:none;" d="M707 844L707 851L708 851L707 844z"/>
<path style="fill:#f7b7c7; stroke:none;" d="M1250.67 844.333L1251.33 844.667L1250.67 844.333z"/>
<path style="fill:#bb393b; stroke:none;" d="M818 846C815.394 879.017 814.364 912.029 810.834 945C809.051 961.654 802.879 984.569 806.279 1001C807.937 1009.01 818.626 1017.51 825 1022L821.015 905L819.089 863L818 846z"/>
<path style="fill:#d79479; stroke:none;" d="M1213 849L1213 850C1221.39 854.369 1221 860.53 1221 869L1222 869L1226 854L1213 849M1235 853L1233 873L1234 873L1238 853L1235 853z"/>
<path style="fill:#d79b93; stroke:none;" d="M706 859L706 871L707 871L706 859z"/>
<path style="fill:#3956ba; stroke:none;" d="M706 871C621.364 939.869 554.283 1038.19 532.551 1146C523.307 1191.86 519.263 1240.34 539.309 1284C567.873 1346.22 628.293 1390.39 688 1420.25C721.729 1437.11 762.271 1456.92 800 1462C820.448 1362.94 820.641 1262.45 825.039 1162C826.423 1130.4 826 1098.68 826 1067C826 1054.42 828.737 1034.77 824.397 1023C822.359 1017.47 816.006 1013.15 812.039 1009C802.992 999.539 793.995 989.903 785.424 980C756.44 946.511 725.653 910.831 706 871z"/>
<path style="fill:#d44346; stroke:none;" d="M1002 955L1002 959L1003 959L1004 957C1011.61 963.302 1016.11 965.101 1017 976C1024.83 976.986 1032.74 982.585 1040 985.719C1054.04 991.775 1068.29 997.109 1083 1001.29C1135.74 1016.27 1189.45 1022.72 1244 1015.95C1256.95 1014.34 1269.69 1010.19 1282 1006C1286.08 1004.61 1293.36 1003.08 1295.97 999.362C1300.05 993.555 1297.3 975.604 1295.88 969C1294.75 963.705 1294.87 951.204 1289.62 948.086C1285.33 945.535 1274.55 963.874 1271.71 966.961C1254.84 985.351 1231.06 994.547 1207 998.411C1158.77 1006.16 1117.8 987.9 1073 974.319C1060.72 970.596 1047.45 969.219 1035 965.576C1024.1 962.388 1013.21 956.656 1002 955z"/>
<path style="fill:#9e2d2f; stroke:none;" d="M1003 957C1004.25 966.902 1007.78 970.141 1017 974C1015.68 964.241 1011.91 960.709 1003 957z"/>
<path style="fill:#c4938c; stroke:none;" d="M1295 965L1295 968L1296 968L1295 965z"/>
<path style="fill:#bb393b; stroke:none;" d="M1005 968L1035 1144L1062 1147C1060.73 1131.41 1055.17 1115.17 1051.37 1100C1044.02 1070.58 1036.01 1041.34 1028.37 1012C1024.24 996.127 1022.73 973.613 1005 968z"/>
<path style="fill:#fe5558; stroke:none;" d="M1018 975C1026.83 1017.64 1041.05 1059.7 1051.63 1102C1054.28 1112.63 1056.9 1123.29 1059.21 1134C1059.98 1137.54 1060.44 1144.66 1063.56 1146.97C1067.49 1149.87 1076.32 1147.73 1081 1148.17C1100.34 1149.98 1122.1 1146.99 1141 1142.65C1174.07 1135.06 1204.86 1122.65 1234 1105.2C1244.32 1099.02 1257.73 1092.32 1265.48 1082.96C1285.07 1059.31 1291.6 1029.1 1297 1000C1269.05 1007.99 1244.46 1016.89 1215 1018.91C1165.51 1022.3 1111.51 1011.85 1065 995.308C1048.88 989.574 1033.95 980.803 1018 975z"/>
<path style="fill:#c3928b; stroke:none;" d="M1297 984L1297 995L1298 995L1297 984z"/>
<path style="fill:#d99a95; stroke:none;" d="M1296 1002L1296 1008L1297 1008L1296 1002z"/>
<path style="fill:#6b56a3; stroke:none;" d="M825 1022L825 1045L826 1045L825 1022z"/>
<path style="fill:#3956ba; stroke:none;" d="M1288 1039C1282.92 1054.03 1274.89 1072.32 1263.82 1083.91C1253.5 1094.7 1237.87 1102.51 1225 1109.85C1186.3 1131.93 1141.73 1147 1097 1148.96C1075.86 1149.89 1055.81 1144.89 1035 1144C1043.23 1205.09 1049.34 1265.74 1055.17 1327C1058.1 1357.83 1059.78 1400.91 1042.56 1428C1024.15 1456.98 987.74 1472.14 957 1484L957 1485L1028 1483L1028 1484L972 1496.75L883 1506.43L785 1524L791 1501C776.77 1500.99 762.942 1496.77 749 1494.44C679.166 1482.72 618.568 1451.89 555 1423C555 1467.48 556.933 1513.38 571.001 1556C575.525 1569.71 580.658 1586.38 589.637 1597.91C597.905 1608.52 614.673 1616.37 626 1623.42C656.255 1642.27 687.521 1658.66 720 1673.31C845.912 1730.07 995.679 1746.47 1131 1719.45C1161.03 1713.45 1190.87 1706.61 1220 1697C1231.59 1693.18 1246.29 1690.13 1256 1682.52C1334.49 1621.05 1343 1511.14 1343 1419C1327.47 1423.25 1312.89 1430.04 1297 1433.49C1262.64 1440.94 1227.04 1442 1192 1442L1192 1441C1258.35 1432.62 1344.69 1405.48 1382.56 1346C1398.86 1320.41 1401.33 1290.54 1398.17 1261C1391.88 1202.28 1366.86 1146.8 1334.33 1098C1321.66 1078.98 1306.8 1052.36 1288 1039z"/>
<path style="fill:#ffffff; stroke:none;" d="M1412 1168C1422.48 1164.82 1413.7 1143.27 1411.33 1136C1402.47 1108.81 1388.88 1084.01 1370.56 1062C1367.14 1057.89 1356.57 1041.93 1350.32 1043.75C1346.63 1044.83 1349.84 1049.44 1351.15 1051C1356.27 1057.14 1361.96 1062.84 1367.08 1069C1391.77 1098.69 1402.95 1131.27 1412 1168M1318.62 1051.09C1315.65 1053.17 1319.61 1057.39 1321.04 1059C1327.19 1065.93 1333.39 1072.78 1339.2 1080C1360.47 1106.46 1376.05 1135.6 1388.6 1167C1391.49 1174.22 1393.39 1181.7 1396.04 1188.98C1396.77 1190.96 1398.67 1194.86 1401.41 1192.91C1403.76 1191.25 1402.42 1187.18 1401.79 1185C1399.6 1177.3 1397.19 1169.41 1394.14 1162C1381.47 1131.25 1366.11 1102.02 1345.2 1076C1339.45 1068.85 1333.54 1061.45 1326.99 1055.02C1325.24 1053.31 1321.44 1049.1 1318.62 1051.09z"/>
<path style="fill:#cc5571; stroke:none;" d="M826 1065L826 1137L827 1137L827 1088L826 1065z"/>
<path style="fill:#ffffff; stroke:none;" d="M519.371 1083.09C512.662 1086.83 508.622 1104.12 506.05 1111C494.755 1141.22 490.888 1173.86 493.09 1206C493.831 1216.83 495.518 1227.41 497.884 1238C498.419 1240.4 499.389 1248.61 503.711 1245.91C507.209 1243.73 504.511 1237.95 503.735 1235C501.095 1224.96 499.803 1213.36 499.09 1203C496.835 1170.26 502.614 1137.37 514.8 1107C517.307 1100.75 521.747 1094.52 523.343 1088C523.978 1085.41 522.926 1081.1 519.371 1083.09M487.205 1093.18C481.854 1095.52 478.779 1110.79 477.003 1116C468.775 1140.15 463.918 1163.4 465.039 1189C465.37 1196.54 466.694 1204.82 469.029 1212C469.727 1214.15 471.377 1219.56 474.711 1217.82C477.558 1216.34 476.031 1212.28 475.423 1210C473.18 1201.58 471.993 1193.65 471.17 1185C468.82 1160.31 477.267 1134.77 485.772 1112C486.597 1109.79 495.323 1089.61 487.205 1093.18z"/>
<path style="fill:#759bc2; stroke:none;" d="M537 1124L537 1127L538 1127L537 1124z"/>
<path style="fill:#92578f; stroke:none;" d="M1157.67 1138.33L1158.33 1138.67L1157.67 1138.33z"/>
<path style="fill:#9b5589; stroke:none;" d="M1141 1142L1141 1143L1144 1143L1141 1142z"/>
<path style="fill:#835794; stroke:none;" d="M1117 1146L1117 1147L1122 1147L1117 1146z"/>
<path style="fill:#79497d; stroke:none;" d="M1058 1147L1058 1148L1063 1148L1058 1147z"/>
<path style="fill:#9a5687; stroke:none;" d="M1106 1147L1106 1148L1112 1148L1106 1147z"/>
<path style="fill:#9b5788; stroke:none;" d="M1075 1148L1075 1149L1084 1149L1075 1148z"/>
<path style="fill:#9c568a; stroke:none;" d="M1089 1148L1089 1149L1102 1149L1089 1148z"/>
<path style="fill:#6b56a3; stroke:none;" d="M825 1157L825 1171L826 1171L825 1157z"/>
<path style="fill:#7776af; stroke:none;" d="M1318 1167L1318 1168L1323 1168L1318 1167z"/>
<path style="fill:#ffbca1; stroke:none;" d="M1294 1324C1348.31 1316.99 1356.8 1258.09 1347.36 1214C1344.5 1200.62 1339.51 1176.11 1325.99 1169.18C1317.5 1164.83 1308.76 1171.38 1303 1177.01C1289.48 1190.24 1279.55 1207.38 1270.78 1224C1268.26 1228.77 1260.5 1239.34 1261.82 1244.83C1263.57 1252.16 1275.51 1260.95 1279.57 1268C1289.54 1285.31 1293.15 1304.28 1294 1324z"/>
<path style="fill:#d9f0e6; stroke:none;" d="M464 1170L464 1186L465 1186L464 1170z"/>
<path style="fill:#9a5689; stroke:none;" d="M825 1171L825 1183L826 1183L825 1171z"/>
<path style="fill:#d9f0e8; stroke:none;" d="M492 1176L492 1196L493 1196L492 1176z"/>
<path style="fill:#cd5571; stroke:none;" d="M825 1183L825 1192L826 1192L825 1183z"/>
<path style="fill:#a75583; stroke:none;" d="M1042 1193L1042 1197L1043 1197L1042 1193z"/>
<path style="fill:#6957a3; stroke:none;" d="M824 1201L824 1209L825 1209L824 1201z"/>
<path style="fill:#9c568a; stroke:none;" d="M1044 1208L1044 1212L1045 1212L1044 1208z"/>
<path style="fill:#9a5689; stroke:none;" d="M824 1209L824 1217L825 1217L824 1209z"/>
<path style="fill:#759ac4; stroke:none;" d="M524 1213L524 1224L525 1224L524 1213z"/>
<path style="fill:#a68ea8; stroke:none;" d="M1347 1213L1347 1216L1348 1216L1347 1213z"/>
<path style="fill:#9f5789; stroke:none;" d="M1045 1216L1045 1221L1046 1221L1045 1216z"/>
<path style="fill:#a8557f; stroke:none;" d="M1046 1225L1046 1231L1047 1231L1046 1225z"/>
<path style="fill:#759ac4; stroke:none;" d="M525 1232L525 1236L526 1236L525 1232z"/>
<path style="fill:#9b568c; stroke:none;" d="M1047 1233L1047 1237L1048 1237L1047 1233z"/>
<path style="fill:#cf5471; stroke:none;" d="M823 1236L823 1247L824 1247L823 1236z"/>
<path style="fill:#9a88ae; stroke:none;" d="M1350 1256L1350 1263L1351 1263L1350 1256z"/>
<path style="fill:#cc5571; stroke:none;" d="M822 1258L822 1267L823 1267L822 1258z"/>
<path style="fill:#9e5688; stroke:none;" d="M1051 1271L1051 1279L1052 1279L1051 1271z"/>
<path style="fill:#9283ae; stroke:none;" d="M1348.33 1271.67L1348.67 1272.33L1348.33 1271.67z"/>
<path style="fill:#9a5689; stroke:none;" d="M821 1272L821 1280L822 1280L821 1272z"/>
<path style="fill:#749bc4; stroke:none;" d="M1399 1280L1399 1294L1400 1294L1399 1280z"/>
<path style="fill:#8f84af; stroke:none;" d="M1288.33 1287.67L1288.67 1288.33L1288.33 1287.67z"/>
<path style="fill:#9c568c; stroke:none;" d="M820 1292L820 1296L821 1296L820 1292z"/>
<path style="fill:#cb576e; stroke:none;" d="M1053 1295L1053 1305L1054 1305L1053 1295z"/>
<path style="fill:#a88fac; stroke:none;" d="M1291 1299L1291 1302L1292 1302L1291 1299z"/>
<path style="fill:#7da4c3; stroke:none;" d="M1398 1301L1398 1306L1399 1306L1398 1301z"/>
<path style="fill:#9083ae; stroke:none;" d="M1292 1305L1292 1311L1293 1311L1292 1305z"/>
<path style="fill:#9b578a; stroke:none;" d="M819 1306L819 1313L820 1313L819 1306z"/>
<path style="fill:#cb5671; stroke:none;" d="M1054 1313L1054 1323L1055 1323L1054 1313z"/>
<path style="fill:#98588a; stroke:none;" d="M818 1316L818 1323L819 1323L818 1316z"/>
<path style="fill:#9d89ae; stroke:none;" d="M1293 1318L1295 1325L1293 1318z"/>
<path style="fill:#2138a0; stroke:none;" d="M563 1323C556.293 1345.48 558.029 1370.9 555.83 1394C555.141 1401.24 552.041 1416.19 556.028 1422.66C558.744 1427.07 566.556 1429.5 571 1431.76C583.571 1438.15 596.155 1444.37 609 1450.23C652.869 1470.24 700.388 1486.45 748 1494.44C762.694 1496.9 776.999 1501 792 1501L800 1462C736.852 1448.97 669.517 1416.49 619 1376.79C598.296 1360.52 582.567 1339.98 563 1323z"/>
<path style="fill:#9a89ab; stroke:none;" d="M1297 1323L1297 1324L1300 1324L1297 1323z"/>
<path style="fill:#995588; stroke:none;" d="M817 1329L817 1334L818 1334L817 1329z"/>
<path style="fill:#9a5689; stroke:none;" d="M1055 1329L1055 1346L1056 1346L1055 1329z"/>
<path style="fill:#6a8cba; stroke:none;" d="M559 1343L559 1349L560 1349L559 1343z"/>
<path style="fill:#cc5571; stroke:none;" d="M1055 1346L1055 1362L1056 1362L1055 1346z"/>
<path style="fill:#9a558b; stroke:none;" d="M815 1351L815 1358L816 1358L815 1351z"/>
<path style="fill:#6282b5; stroke:none;" d="M558 1352L558 1358L559 1358L558 1352z"/>
<path style="fill:#9b5589; stroke:none;" d="M1055 1362L1055 1371L1056 1371L1055 1362z"/>
<path style="fill:#9b5788; stroke:none;" d="M1054 1381L1054 1387L1055 1387L1054 1381z"/>
<path style="fill:#2138a0; stroke:none;" d="M1192 1441L1192 1442C1230.07 1442 1268.97 1441.01 1306 1431.37C1314.99 1429.03 1336.28 1426.34 1341.97 1418.35C1344 1415.51 1342.47 1411.13 1342.17 1408C1341.51 1401.09 1342 1393.94 1342 1387C1323.54 1394 1306.5 1407.25 1288 1415.13C1257.34 1428.19 1224.53 1434.96 1192 1441z"/>
<path style="fill:#4763ad; stroke:none;" d="M555 1388L555 1397L556 1397L555 1388z"/>
<path style="fill:#6b8cb7; stroke:none;" d="M1342 1390L1342 1402L1343 1402L1342 1390z"/>
<path style="fill:#8d568f; stroke:none;" d="M1053 1392L1053 1396L1054 1396L1053 1392z"/>
<path style="fill:#4662ab; stroke:none;" d="M1342 1402L1342 1411L1343 1411L1342 1402z"/>
<path style="fill:#759ac4; stroke:none;" d="M554 1403L554 1443L555 1443C555 1431.57 558.411 1413.51 554 1403z"/>
<path style="fill:#a75482; stroke:none;" d="M809 1403L809 1407L810 1407L809 1403z"/>
<path style="fill:#9a5486; stroke:none;" d="M1051 1405L1051 1408L1052 1408L1051 1405z"/>
<path style="fill:#8f558f; stroke:none;" d="M800 1459L800 1462L801 1462L800 1459z"/>
<path style="fill:#779cc6; stroke:none;" d="M555 1461L555 1468L556 1468L555 1461z"/>
<path style="fill:#9c4879; stroke:none;" d="M799 1465L799 1468L800 1468L799 1465z"/>
<path style="fill:#814382; stroke:none;" d="M797.333 1474.67L797.667 1475.33L797.333 1474.67z"/>
<path style="fill:#8e487e; stroke:none;" d="M796.333 1479.67L796.667 1480.33L796.333 1479.67z"/>
<path style="fill:#759ac7; stroke:none;" d="M557 1483L557 1488L558 1488L557 1483z"/>
<path style="fill:#2138a0; stroke:none;" d="M886 1505L886 1506C915.883 1505.98 947.746 1502.32 977 1495.99C993.896 1492.33 1010.93 1486.51 1028 1484L995 1484.99L954 1485.38L886 1505z"/>
<path style="fill:#759ac7; stroke:none;" d="M1340 1483L1340 1489L1341 1489L1340 1483z"/>
<path style="fill:#9c487c; stroke:none;" d="M794.333 1488.67L794.667 1489.33L794.333 1488.67z"/>
<path style="fill:#769bc5; stroke:none;" d="M558 1492L558 1496L559 1496L558 1492z"/>
<path style="fill:#90477e; stroke:none;" d="M793.333 1492.67L793.667 1493.33L793.333 1492.67z"/>
<path style="fill:#759ac6; stroke:none;" d="M1339 1494L1339 1498L1340 1498L1339 1494z"/>
<path style="fill:#8e487e; stroke:none;" d="M792.333 1496.67L792.667 1497.33L792.333 1496.67z"/>
<path style="fill:#814581; stroke:none;" d="M919.667 1496.33L920.333 1496.67L919.667 1496.33z"/>
<path style="fill:#804683; stroke:none;" d="M912.667 1498.33L913.333 1498.67L912.667 1498.33z"/>
<path style="fill:#759ac4; stroke:none;" d="M559 1500L559 1504L560 1504L559 1500z"/>
<path style="fill:#834681; stroke:none;" d="M901.667 1501.33L902.333 1501.67L901.667 1501.33z"/>
<path style="fill:#90477c; stroke:none;" d="M897 1502L897 1503L900 1503L897 1502z"/>
<path style="fill:#915591; stroke:none;" d="M881.667 1506.33L882.333 1506.67L881.667 1506.33z"/>
<path style="fill:#9c5688; stroke:none;" d="M872.667 1508.33L873.333 1508.67L872.667 1508.33z"/>
<path style="fill:#9b5685; stroke:none;" d="M863.667 1510.33L864.333 1510.67L863.667 1510.33z"/>
<path style="fill:#84acc5; stroke:none;" d="M1337 1511L1337 1515L1338 1515L1337 1511z"/>
<path style="fill:#a75482; stroke:none;" d="M787.333 1515.67L787.667 1516.33L787.333 1515.67z"/>
<path style="fill:#9c5688; stroke:none;" d="M838.667 1515.33L839.333 1515.67L838.667 1515.33z"/>
<path style="fill:#9a578a; stroke:none;" d="M832 1516L832 1517L835 1517L832 1516z"/>
<path style="fill:#83aac7; stroke:none;" d="M1336 1518L1336 1523L1337 1523L1336 1518z"/>
<path style="fill:#8d568f; stroke:none;" d="M809 1520L809 1521L812 1521L809 1520z"/>
<path style="fill:#c05476; stroke:none;" d="M785 1522L790 1524L790 1523L785 1522z"/>
<path style="fill:#759ac4; stroke:none;" d="M1330.33 1552.67L1330.67 1553.33L1330.33 1552.67z"/>
<path style="fill:#8191cf; stroke:none;" d="M796.667 1701.33L797.333 1701.67L796.667 1701.33z"/>
<path style="fill:#b1bad9; stroke:none;" d="M1201.67 1702.33L1202.33 1702.67L1201.67 1702.33z"/>
<path style="fill:#8d99d3; stroke:none;" d="M806.667 1704.33L807.333 1704.67L806.667 1704.33z"/>
<path style="fill:#a8b2d6; stroke:none;" d="M1194.67 1704.33L1195.33 1704.67L1194.67 1704.33z"/>
<path style="fill:#b0b9da; stroke:none;" d="M1187.67 1706.33L1188.33 1706.67L1187.67 1706.33z"/>
<path style="fill:#8393ce; stroke:none;" d="M817.667 1707.33L818.333 1707.67L817.667 1707.33z"/>
<path style="fill:#9ea6d5; stroke:none;" d="M828.667 1710.33L829.333 1710.67L828.667 1710.33z"/>
<path style="fill:#b7bbde; stroke:none;" d="M1172.67 1710.33L1173.33 1710.67L1172.67 1710.33z"/>
<path style="fill:#9ea6d7; stroke:none;" d="M832 1711L832 1712L835 1712L832 1711z"/>
<path style="fill:#b3bbdf; stroke:none;" d="M1168.67 1711.33L1169.33 1711.67L1168.67 1711.33z"/>
<path style="fill:#8393cf; stroke:none;" d="M841.667 1713.33L842.333 1713.67L841.667 1713.33z"/>
<path style="fill:#97a5d6; stroke:none;" d="M845 1714L845 1715L848 1715L845 1714z"/>
<path style="fill:#a7b0d9; stroke:none;" d="M1155.67 1714.33L1156.33 1714.67L1155.67 1714.33z"/>
<path style="fill:#7d91cc; stroke:none;" d="M850.667 1715.33L851.333 1715.67L850.667 1715.33z"/>
<path style="fill:#95a5d6; stroke:none;" d="M1150 1715L1150 1716L1153 1716L1150 1715z"/>
<path style="fill:#9ca7d5; stroke:none;" d="M854.667 1716.33L855.333 1716.67L854.667 1716.33z"/>
<path style="fill:#b2b8da; stroke:none;" d="M1146.67 1716.33L1147.33 1716.67L1146.67 1716.33z"/>
<path style="fill:#9ba7d7; stroke:none;" d="M859.667 1717.33L860.333 1717.67L859.667 1717.33z"/>
<path style="fill:#a5aed5; stroke:none;" d="M1141 1717L1141 1718L1144 1718L1141 1717z"/>
<path style="fill:#9ca8d8; stroke:none;" d="M864.667 1718.33L865.333 1718.67L864.667 1718.33z"/>
<path style="fill:#a4b0da; stroke:none;" d="M1136 1718L1136 1719L1139 1719L1136 1718z"/>
<path style="fill:#9ba7d7; stroke:none;" d="M869 1719L869 1720L872 1720L869 1719z"/>
<path style="fill:#8b9bce; stroke:none;" d="M1130.67 1719.33L1131.33 1719.67L1130.67 1719.33z"/>
<path style="fill:#abafde; stroke:none;" d="M874 1720L874 1721L877 1721L874 1720z"/>
<path style="fill:#7e91cc; stroke:none;" d="M881 1721L881 1722L884 1722L881 1721z"/>
<path style="fill:#97a5d4; stroke:none;" d="M1119 1721L1119 1722L1122 1722L1119 1721z"/>
<path style="fill:#8392cd; stroke:none;" d="M887 1722L887 1723L890 1723L887 1722z"/>
<path style="fill:#97a5d2; stroke:none;" d="M1113 1722L1113 1723L1116 1723L1113 1722z"/>
<path style="fill:#b2b8dc; stroke:none;" d="M1101 1724L1101 1725L1104 1725L1101 1724z"/>
<path style="fill:#b5bbdf; stroke:none;" d="M1092 1725L1092 1726L1097 1726L1092 1725z"/>
<path style="fill:#98a4d4; stroke:none;" d="M913 1726L913 1727L919 1727L913 1726z"/>
<path style="fill:#b0b9da; stroke:none;" d="M1084 1726L1084 1727L1088 1727L1084 1726z"/>
<path style="fill:#6b7eca; stroke:none;" d="M924 1727L924 1728L928 1728L924 1727z"/>
<path style="fill:#cecfe4; stroke:none;" d="M1077 1727L1077 1728L1081 1728L1077 1727z"/>
<path style="fill:#9ca8da; stroke:none;" d="M930 1728L930 1729L936 1729L930 1728z"/>
<path style="fill:#9ea6d5; stroke:none;" d="M1064 1728L1064 1729L1072 1729L1064 1728z"/>
<path style="fill:#9ca8da; stroke:none;" d="M944 1729L944 1730L948 1730L944 1729z"/>
<path style="fill:#cccee7; stroke:none;" d="M1055 1729L1055 1730L1061 1730L1055 1729z"/>
<path style="fill:#cbd1e1; stroke:none;" d="M955 1730L955 1731L959 1731L955 1730z"/>
<path style="fill:#9da7da; stroke:none;" d="M959 1730L959 1731L963 1731L959 1730z"/>
<path style="fill:#697fc8; stroke:none;" d="M963 1730L963 1731L968 1731L963 1730z"/>
<path style="fill:#6980c6; stroke:none;" d="M1034 1730L1034 1731L1039 1731L1034 1730z"/>
<path style="fill:#9da7d8; stroke:none;" d="M1039 1730L1039 1731L1044 1731L1039 1730z"/>
<path style="fill:#cdcfe8; stroke:none;" d="M1044 1730L1044 1731L1048 1731L1044 1730z"/>
<path style="fill:#d1cfe5; stroke:none;" d="M974 1731L974 1732L982 1732L974 1731z"/>
<path style="fill:#9ca6d7; stroke:none;" d="M982 1731L982 1732L1020 1732C1009.96 1727.79 992.911 1731 982 1731z"/>
<path style="fill:#cdcde5; stroke:none;" d="M1020 1731L1020 1732L1028 1732L1020 1731z"/>
</svg>
