<?xml version="1.0" standalone="yes"?>
<svg width="2000" height="2000">
<path style="fill:#ffffff; stroke:none;" d="M0 0L0 2000L2000 2000L2000 0L0 0z"/>
<path style="fill:#9998b7; stroke:none;" d="M963 187L963 188L976 188L963 187z"/>
<path style="fill:#60629f; stroke:none;" d="M716 1762C715.424 1749.39 710.487 1736.47 708.321 1724C704.16 1700.04 699.995 1676.11 696.427 1652C686.991 1588.25 683.482 1524.14 679.089 1460C677.364 1434.81 678 1409.28 678 1384C678 1377.68 681.01 1360.74 676.972 1355.74C673.729 1351.73 658.25 1350.26 653 1348.32C641.697 1344.15 631.949 1337.45 621 1332.8C612.581 1329.23 603.453 1327.38 595.089 1323.5C582.492 1317.65 570.457 1309.36 560.424 1299.74C554.37 1293.93 548.667 1284.55 541.621 1280.15C529.443 1272.55 513.68 1270.06 501 1262.19C469.885 1242.86 447.768 1209.62 439.815 1174C423.298 1100.02 467.786 1018.32 541 995.029C555.837 990.308 572.388 987.02 588 988.089C597.074 988.711 610.393 993.791 619 991.042C649.907 981.171 679.777 968.307 711 959.036C749.191 947.696 788.164 940.393 827 931.985C855.323 925.853 885.983 918.25 915 917C908.971 903.256 891.372 901.427 879 895.241C858.596 885.039 838.358 870.421 823.575 852.907C761.815 779.738 744 675.26 744 582C723.872 578.094 708.838 568.055 691.996 557.234C680.715 549.985 669.19 545 659 535.829C633.67 513.034 620.445 479.655 619 446L624 446C624 482.745 642.536 531.796 680 546C651.605 504.467 635.138 459.983 645.4 409C649.437 388.941 657.571 366.236 677.015 356.27C688.942 350.157 701.395 354.605 712 361.545C717.307 365.018 723.537 373.809 730.17 369.607C749.815 357.163 769.767 345.854 790 334.424C807.093 324.768 825.024 317.009 843 309.258C893.451 287.504 946.547 270 1002 270C1037.13 270 1074.03 279.078 1100.04 304.093C1110.14 313.811 1117.91 323.976 1125 336L1126 336C1126 306.385 1112.66 280.852 1088 264.029C1079.36 258.135 1058.76 253.868 1054 245C1097.19 251.379 1130 294.043 1130 336C1135.47 332.751 1139.22 327.26 1145 324.123C1159.93 316.023 1175.5 316 1192 316L1192 320C1174.03 320 1141.37 318.38 1134 340C1148.07 338.888 1160.25 336.867 1174 342.066C1188.01 347.364 1192.26 357.426 1201.5 367.624C1209.81 376.799 1220.72 383.371 1229 393.015C1234.98 399.977 1239.6 413.154 1247 418C1247 375.256 1219.68 338.888 1178 327L1179 323C1220.55 337.977 1250.87 371.501 1251 417C1257.38 413.926 1262.33 408.541 1269 405.746C1282.97 399.89 1298.2 401 1313 401L1313 405C1293.59 405 1263.75 402.331 1253 423C1261.38 421.941 1270.6 420.98 1279 422.464C1342.45 433.675 1327.8 518.051 1318.51 563C1316.45 572.986 1314.5 583.126 1311.86 593C1308.48 605.635 1304.92 618.243 1302 631C1338.21 631.771 1345.25 674.324 1339.63 702C1335.8 720.829 1324.38 736.883 1308 746.931C1302.06 750.574 1287.85 753.182 1283.99 758.43C1278.88 765.369 1279.81 781.597 1278.72 790C1277.3 800.945 1277.01 812.064 1275.58 823C1275 827.417 1272.9 835.81 1274.35 839.961C1277.4 848.714 1292.53 858.379 1298.99 865C1314.44 880.842 1329.22 899.63 1340 919L1350.71 916.068L1364 927.015L1391.88 955.961L1400 969C1444.09 981.058 1476.36 1014.75 1501.03 1051C1508.67 1062.23 1517.6 1073.46 1523 1086C1531.09 1087.27 1538.36 1095.6 1544.42 1100.71C1564.7 1117.79 1578.64 1140.98 1591.25 1163.96C1624.77 1225.01 1643.39 1289.38 1658.51 1357C1665.31 1387.38 1673.66 1419.78 1675 1451C1680.71 1447.88 1684.1 1440.46 1687.4 1435C1694.62 1423.03 1702.05 1411.21 1708.86 1399C1737.09 1348.39 1761.13 1294.69 1777.42 1239C1832.68 1050.09 1823.73 845.003 1741.31 665C1723.04 625.093 1702.03 586.552 1677.67 550C1668.47 536.204 1658.91 517.51 1646 507C1634.7 522.651 1625.07 510.01 1618 499C1610.53 502.324 1604.77 508.31 1597 511.316C1594.04 512.46 1590.57 513.433 1590.24 517.105C1589.39 526.449 1600.03 532.698 1595.08 541.996C1591.09 549.495 1577.09 553.494 1572.59 543.787C1569.05 536.154 1574 524.299 1574 516L1542 508C1539.97 513.52 1539.35 520.215 1534.71 524.312C1527.01 531.109 1515.81 527.159 1514.26 517C1512.62 506.181 1525.84 505.61 1527.35 496.985C1528.61 489.841 1517.77 478.63 1516 471C1506.17 471.083 1497.05 481.172 1488 479.427C1471.72 476.287 1473.49 457.363 1485.58 450.684C1492.56 446.827 1505.03 451.995 1513 452C1513.3 445.208 1515.3 438.341 1517.71 432C1518.66 429.484 1521.38 425.981 1520.55 423.185C1518.56 416.395 1508.78 417.446 1504.02 414.972C1497 411.328 1496 403.959 1496 397C1500.8 395.381 1503.12 390.085 1508.91 390.434C1520.28 391.12 1521.34 408.689 1531 409.264C1535.73 409.545 1542.91 402.275 1547 400C1540.43 385.955 1519.71 374.609 1508 364.725C1467.55 330.587 1421.02 301.844 1374 277.742C1175.84 176.164 939.254 158.354 729 232.858C624.187 269.999 529.33 328.676 447 403.17C399.156 446.46 357.398 497.402 321.667 551C145.152 815.771 143.593 1172.67 315.692 1440C353.766 1499.14 399.706 1554.1 452 1601.17C509.59 1653 573.443 1696.77 643 1730.97C666.229 1742.39 690.943 1755.16 716 1762z"/>
<path style="fill:#a5a6c2; stroke:none;" d="M1024 187L1024 188L1035 188L1024 187z"/>
<path style="fill:#adaecd; stroke:none;" d="M944 188L944 189L952 189L944 188z"/>
<path style="fill:#cdceea; stroke:none;" d="M1051 188L1051 189L1056 189L1051 188z"/>
<path style="fill:#a9aac8; stroke:none;" d="M931 189L931 190L936 190L931 189z"/>
<path style="fill:#c7c8e7; stroke:none;" d="M1075 190L1075 191L1080 191L1075 190z"/>
<path style="fill:#a5a8cb; stroke:none;" d="M910 191L910 192L914 192L910 191z"/>
<path style="fill:#9da2c2; stroke:none;" d="M893 193L893 194L898 194L893 193M1102 193L1102 194L1105 194L1102 193z"/>
<path style="fill:#999cbd; stroke:none;" d="M886 194L886 195L890 195L886 194z"/>
<path style="fill:#a6aac3; stroke:none;" d="M1130.67 197.333L1131.33 197.667L1130.67 197.333z"/>
<path style="fill:#9291b0; stroke:none;" d="M860 198L860 199L864 199L860 198z"/>
<path style="fill:#a6a6c2; stroke:none;" d="M1136.67 198.333L1137.33 198.667L1136.67 198.333z"/>
<path style="fill:#a3a4c3; stroke:none;" d="M1147.67 200.333L1148.33 200.667L1147.67 200.333z"/>
<path style="fill:#9999bd; stroke:none;" d="M1152.67 201.333L1153.33 201.667L1152.67 201.333z"/>
<path style="fill:#abafcc; stroke:none;" d="M1158.67 202.333L1159.33 202.667L1158.67 202.333z"/>
<path style="fill:#b2b8d0; stroke:none;" d="M834.667 203.333L835.333 203.667L834.667 203.333z"/>
<path style="fill:#b3b7d0; stroke:none;" d="M1163.67 203.333L1164.33 203.667L1163.67 203.333z"/>
<path style="fill:#b8bdd1; stroke:none;" d="M1168.67 204.333L1169.33 204.667L1168.67 204.333z"/>
<path style="fill:#aaaad0; stroke:none;" d="M816.667 207.333L817.333 207.667L816.667 207.333z"/>
<path style="fill:#9a9cc2; stroke:none;" d="M808.667 209.333L809.333 209.667L808.667 209.333z"/>
<path style="fill:#b6b6d8; stroke:none;" d="M1190.67 209.333L1191.33 209.667L1190.67 209.333z"/>
<path style="fill:#bbbbd5; stroke:none;" d="M1194.67 210.333L1195.33 210.667L1194.67 210.333z"/>
<path style="fill:#b7b7d3; stroke:none;" d="M1198.67 211.333L1199.33 211.667L1198.67 211.333z"/>
<path style="fill:#acb0cb; stroke:none;" d="M784.667 215.333L785.333 215.667L784.667 215.333z"/>
<path style="fill:#bbbdd4; stroke:none;" d="M1224.67 218.333L1225.33 218.667L1224.67 218.333z"/>
<path style="fill:#bcc3d5; stroke:none;" d="M750.667 225.333L751.333 225.667L750.667 225.333z"/>
<path style="fill:#a9a9cd; stroke:none;" d="M1262.67 230.333L1263.33 230.667L1262.67 230.333z"/>
<path style="fill:#28315a; stroke:none;" d="M1054 245C1055.6 249.951 1060.58 250.609 1065 252.484C1073.4 256.046 1081.56 260.1 1089 265.428C1112.45 282.234 1126 307.182 1126 336L1125 336C1101.94 280.907 1038.38 269.748 986 270.001C957.904 270.136 928.466 278.203 902 286.911C858.15 301.338 816.701 319.424 776 341.308C760.019 349.901 744.848 362.745 728.424 370.052C723.152 372.399 712.717 361.194 708 358.594C693.364 350.528 679.599 351.86 667.076 362.804C653.614 374.567 648.334 393.067 645.001 410C636.091 455.269 647.503 512.022 680 546C644.289 526.099 624 486.152 624 446L619 446C619.683 479.104 633.157 513.47 658 535.829C668.172 544.985 679.709 550.031 690.999 557.234C707.824 567.967 723.509 579.354 744 582L745 530C772.001 535.087 795.85 549.768 822 558.485C877.728 577.06 951.707 585.988 1005 555L1005 554L972 557.907L913 555.83L824 542L824 541C886.928 543.703 948.444 546.055 1011 535.565C1043.96 530.038 1074.06 518.736 1106 510C1107.89 531.638 1126.38 561.851 1144 574C1151.29 563.331 1160.96 553.958 1173 548.876C1177.56 546.95 1190.96 546.792 1193.3 542.682C1201.38 528.468 1200.57 504.91 1203.46 489C1212.38 439.901 1227.47 351.97 1161 338.665C1151.9 336.844 1143.01 338.856 1134 340C1144.32 320.145 1172.52 319 1192 319L1192 316C1166.44 316 1149.5 318.712 1130 336C1130 294.958 1098.14 248.854 1054 245z"/>
<path style="fill:#36396e; stroke:none;" d="M976 276.439C945.759 281.199 915.506 287.399 887 299.152C880.59 301.795 851.82 317.855 871.001 322.319C879.989 324.411 889.952 322.709 899 322.089C927.183 320.159 954.925 313.813 981 302.951C990.394 299.037 1009.28 296.269 1013.03 284.911C1014.55 280.327 1009.72 277.452 1005.99 276.634C997.168 274.7 984.899 275.038 976 276.439z"/>
<path style="fill:#424977; stroke:none;" d="M1176 319L1176 320L1192 320L1176 319z"/>
<path style="fill:#36396e; stroke:none;" d="M1179 323L1178 327C1218.05 343.32 1247 372.815 1247 418C1231.12 402.291 1224.78 379.845 1203 369C1202.35 375.37 1206.8 379.806 1207.71 386.001C1210.04 401.74 1211.19 417.025 1211 433C1210.55 470.302 1200.06 508.573 1193 545C1230.64 545.781 1239.62 589.373 1233.55 619C1230.13 635.695 1219.86 650.783 1206 660.561C1200.42 664.5 1183.54 669.102 1181.23 675.214C1175.86 689.414 1177.62 710.89 1176.96 726C1175.09 768.665 1177 811.345 1177 854L1233 834.667L1256 827.89L1274 839C1277.4 820.685 1277.31 801.511 1279.72 783C1280.62 776.064 1280.4 766.436 1283.51 760.109C1285.77 755.52 1291.82 755.49 1296 753.652C1305.19 749.613 1314.3 744.442 1321.39 737.246C1339.45 718.889 1345.03 690.761 1340.26 666C1336.7 647.533 1321.66 631.165 1302 631C1317.04 583.646 1330.68 528.87 1325.83 479C1321.96 439.159 1292.95 415.584 1253 423C1267.78 403.775 1291.14 405 1313 405L1313 401C1288.18 401 1271.67 402.398 1251 417C1250.97 374.234 1221.94 333.122 1179 323z"/>
<path style="fill:#84c233; stroke:none;" d="M1559 395L1574 394C1574.92 387.87 1579.26 382.388 1577.43 376.001C1574.37 365.336 1559.01 364.317 1554.03 374.015C1550.13 381.596 1556.15 388.474 1559 395z"/>
<path style="fill:#b2db4f; stroke:none;" d="M1607 402L1576 394L1576 387L1575 387L1574 394C1555.9 394 1544.39 400.796 1530 411L1517 432L1513 453C1505.4 453 1491.84 447.712 1485.29 451.14C1474.51 456.78 1474.3 474.214 1487 477.316C1497.81 479.956 1505.43 471.225 1516 471C1519.95 497.774 1548.54 515.983 1574 516C1574 524.254 1569.64 535.243 1573.09 542.985C1577.8 553.556 1592.33 550.662 1596.01 540.999C1599.43 532.005 1586.52 523.14 1591.07 515.394C1593.06 511.99 1598.69 511.246 1602 509.674C1607.81 506.91 1612.66 502.516 1618 499C1621.06 505.687 1624.68 514.13 1633 514.775C1643.5 515.589 1651.41 501.207 1643.66 493.34C1639.49 489.115 1632.55 488.269 1627 487C1633.4 472.069 1639.52 456.307 1634 440L1639 440C1630.76 435.592 1629.95 426.089 1624.5 418.884C1622.63 416.42 1618.12 413.233 1619.95 409.76C1624.54 401.057 1639.32 401.072 1638.85 389C1638.46 379.035 1625.83 373.762 1618.1 379.653C1612.69 383.782 1609.73 395.749 1607 402z"/>
<path style="fill:#cbeaa6; stroke:none;" d="M1552 378L1552 382L1553 382L1552 378z"/>
<path style="fill:#8b9b91; stroke:none;" d="M1392 383L1392 384L1398 384L1392 383z"/>
<path style="fill:#b2db4f; stroke:none;" d="M1412 415C1412.32 409.24 1415.77 405.123 1414.67 399C1409.67 371.247 1362.35 386.845 1379.35 413.91C1381.19 416.835 1383.89 419.459 1387.09 420.856C1390.63 422.403 1395.22 422.287 1399 421.815C1404.45 421.134 1407.6 417.77 1412 415z"/>
<path style="fill:#b1cf89; stroke:none;" d="M1402 385L1407 388L1407 387L1402 385z"/>
<path style="fill:#6d8d4e; stroke:none;" d="M1506 390L1506 391L1512 391L1506 390z"/>
<path style="fill:#728d60; stroke:none;" d="M1500 395L1506 392C1502.86 390.999 1501.51 392.244 1500 395z"/>
<path style="fill:#82c331; stroke:none;" d="M1523 423L1532 410C1524.27 405.63 1521.53 393.922 1513 391.71C1504.09 389.4 1493.12 398.06 1497.94 407.7C1501.29 414.406 1516.21 420.43 1523 423z"/>
<path style="fill:#647b6b; stroke:none;" d="M1496 397L1496 408L1497 408L1499 397L1496 397z"/>
<path style="fill:#b7d08e; stroke:none;" d="M1413 408L1411 414L1412 414L1413 408z"/>
<path style="fill:#82ab5c; stroke:none;" d="M1499 409C1500.91 415.719 1505.82 415.995 1512 416L1512 415C1506.04 414.93 1503.43 412.714 1499 409z"/>
<path style="fill:#83c331; stroke:none;" d="M1590.44 409.859C1581.28 414.298 1587.92 429.737 1597.81 424.583C1607.68 419.445 1600 405.229 1590.44 409.859z"/>
<path style="fill:#e9fdca; stroke:none;" d="M1618 410L1623 417L1618 410z"/>
<path style="fill:#83c331; stroke:none;" d="M1547.11 412.028C1535.67 418.412 1544.42 438.818 1557.54 431.231C1569.29 424.431 1558.68 405.57 1547.11 412.028z"/>
<path style="fill:#90a57c; stroke:none;" d="M1392 422L1392 423L1400 423L1392 422z"/>
<path style="fill:#b4d17d; stroke:none;" d="M1522 423L1518 433L1519 433L1522 423z"/>
<path style="fill:#404879; stroke:none;" d="M642 432L642 448L643 448L642 432z"/>
<path style="fill:#84c231; stroke:none;" d="M1634 440L1636 455C1644.54 455 1655.23 460.463 1662.98 455.911C1673.23 449.895 1669.68 433.906 1658 432.37C1649.68 431.275 1642.38 439.264 1634 440z"/>
<path style="fill:#83c331; stroke:none;" d="M1580 436.468C1555.57 441.221 1563.57 481.93 1588 477.536C1616.3 472.444 1608.58 430.911 1580 436.468z"/>
<path style="fill:#b5d486; stroke:none;" d="M1669 442L1669 448L1670 448L1669 442z"/>
<path style="fill:#84c22f; stroke:none;" d="M1621.15 445.786C1614.92 448.147 1618.87 458.508 1625.66 455.396C1631.76 452.6 1627.21 443.486 1621.15 445.786z"/>
<path style="fill:#637174; stroke:none;" d="M1486 449L1486 450L1513 453L1486 449z"/>
<path style="fill:#afce71; stroke:none;" d="M1496 479L1496 478C1480.98 477.876 1470.3 464.625 1484 453C1475.17 451.789 1474.19 465.417 1477 470.999C1481.18 479.308 1487.83 479 1496 479z"/>
<path style="fill:#83c432; stroke:none;" d="M1525.52 454.858C1515 460.258 1522.79 476.514 1533.52 471.143C1544.33 465.731 1535.62 449.674 1525.52 454.858z"/>
<path style="fill:#83c331; stroke:none;" d="M1557.01 475.533C1540.04 479.587 1547.46 505.492 1563.99 500.487C1579.65 495.742 1573.09 471.693 1557.01 475.533z"/>
<path style="fill:#85987a; stroke:none;" d="M1487 479L1487 480L1493 480L1487 479z"/>
<path style="fill:#6c786e; stroke:none;" d="M1628 484L1627 487L1631 488L1628 484z"/>
<path style="fill:#84c22f; stroke:none;" d="M1592.53 486.862C1585.14 490.684 1590.89 503.199 1598.94 498.82C1607.11 494.384 1600.31 482.842 1592.53 486.862z"/>
<path style="fill:#5c7852; stroke:none;" d="M1528 496L1526 500L1530 496L1528 496z"/>
<path style="fill:#84c136; stroke:none;" d="M1530 497C1525.22 501.07 1516.81 504.367 1515.3 511.004C1512.79 522.062 1524.74 531.787 1534.67 524.911C1540.14 521.126 1540.34 512.333 1544 507L1530 497z"/>
<path style="fill:#b4ce87; stroke:none;" d="M1646 505L1643 511L1646 505z"/>
<path style="fill:#f28080; stroke:none;" d="M847 545L847 546C859.262 550.152 873.256 550.629 886 552.289C924.797 557.343 968.242 560.196 1007 553L1006 556L1053 547.485L1091 537C1096.27 557.246 1121.45 565.262 1138 573L1139 569C1123.82 555.863 1108.96 530.034 1106 510C1089.07 512.915 1073.57 522.813 1057 527.076C1027.18 534.75 993.64 539.914 963 542.83C936.407 545.361 909.74 546.002 883 546C871.112 545.999 858.893 541.484 847 545z"/>
<path style="fill:#749d65; stroke:none;" d="M1514 510C1514 515.781 1513.45 523.854 1520 526L1520 525L1514 510z"/>
<path style="fill:#d98698; stroke:none;" d="M1050 527L1050 528L1072 523L1050 527z"/>
<path style="fill:#78a263; stroke:none;" d="M1520 526L1520 527L1531 528L1520 526z"/>
<path style="fill:#ffaea2; stroke:none;" d="M745 530C745 636.049 745.776 756.715 815.6 844C847.177 883.474 901.559 920.602 954 907L947.143 880.603L930 876L930 875C944.026 875 944.257 873.819 945 861C926.61 856.354 908.294 867.616 891.105 853.153C881.912 845.418 885.893 824.114 884.83 813C884.333 807.802 882.455 802.231 883.218 797C883.837 792.755 886.608 789.01 890.015 786.51C899.427 779.606 921.489 781.916 933 781L930 742C918.446 744.674 906.762 750.011 895 744.647C876.823 736.359 874.075 708.486 887.495 694.595C894.861 686.97 905.222 685.816 915 684L902 575L823 558.485L745 530z"/>
<path style="fill:#ec8391; stroke:none;" d="M749 531L749 532L771 538C765.166 532.543 756.743 531.333 749 531z"/>
<path style="fill:#97ab88; stroke:none;" d="M1571 534L1571 539L1572 539L1571 534z"/>
<path style="fill:#f79b90; stroke:none;" d="M902 575L915 684C905.335 685.222 894.793 686.642 887.495 693.866C875.296 705.94 884.121 727.038 897 734.721C908.197 741.4 922.883 739.5 935 737C925.048 746.698 933 766.707 933 780C946.918 779.393 962.142 769.768 975.7 776.591C982.468 779.997 985.309 785.669 988.828 791.911C991.491 796.634 994.512 802.791 995.701 808.089C1002.67 839.141 967.666 854.153 944 860L945 874C960.32 871.029 973.18 865.506 986.535 857.46C991.08 854.722 994.167 850.149 999 848C986.788 867.826 971.923 880 948 880C948.767 885.937 949.107 902.409 954.434 905.968C960.833 910.244 980.186 900.592 987 898.735C1023.43 888.804 1057.2 869.865 1086.87 846.914C1131.17 812.646 1154.65 756.365 1159.83 702C1161.64 683.002 1160 663.088 1160 644C1172.9 642.946 1183.1 634.925 1187.93 623C1194.51 606.792 1187.39 594.012 1170 594C1188.54 576.437 1208.68 575.507 1232 579C1229.55 531.202 1159.91 540.567 1144 574C1141.8 571.955 1138.95 568.663 1138 573C1121.16 562.629 1099.12 557.843 1091 537C1078.33 538.898 1065.56 544.255 1053 547.251C1037.04 551.058 1019.62 551.246 1003.83 555.718C991.284 559.271 979.778 565.883 967 569.244C945.572 574.879 923.985 575 902 575z"/>
<path style="fill:#b9868d; stroke:none;" d="M744 539L744 600L745 600L745 559L744 539z"/>
<path style="fill:#cc8d98; stroke:none;" d="M952 542L952 543L984 541L952 542z"/>
<path style="fill:#80799a; stroke:none;" d="M824 541L824 542L830 543L824 541z"/>
<path style="fill:#d68896; stroke:none;" d="M830 542L830 543L851 544L830 542z"/>
<path style="fill:#925968; stroke:none;" d="M840 542L840 543L843 543L840 542z"/>
<path style="fill:#647562; stroke:none;" d="M1572 542L1575 547L1572 542z"/>
<path style="fill:#936c81; stroke:none;" d="M851 543L851 544L859 544L851 543z"/>
<path style="fill:#d68a94; stroke:none;" d="M872 545L872 546L952 544L930 544L872 545z"/>
<path style="fill:#8a5776; stroke:none;" d="M837 544L837 545L840 545L837 544z"/>
<path style="fill:#9c5d72; stroke:none;" d="M872 544L872 545L888 545L872 544z"/>
<path style="fill:#5c4059; stroke:none;" d="M888 544L888 545L907 545L888 544z"/>
<path style="fill:#92606b; stroke:none;" d="M907 544L907 545L915 545L907 544z"/>
<path style="fill:#d5a3af; stroke:none;" d="M1184 545L1184 546L1200 546L1184 545z"/>
<path style="fill:#7d677c; stroke:none;" d="M800.667 550.333L801.333 550.667L800.667 550.333z"/>
<path style="fill:#ac6b7f; stroke:none;" d="M870 550L870 551L874 551L870 550z"/>
<path style="fill:#99687e; stroke:none;" d="M883 552L883 553L888 553L883 552z"/>
<path style="fill:#78606e; stroke:none;" d="M808.667 553.333L809.333 553.667L808.667 553.333z"/>
<path style="fill:#a44a54; stroke:none;" d="M1004 553L1005 555L1006 555L1007 553L1004 553z"/>
<path style="fill:#864e7b; stroke:none;" d="M995 554L995 555L1000 555L995 554z"/>
<path style="fill:#8d4e61; stroke:none;" d="M910 555L910 556L915 556L910 555z"/>
<path style="fill:#a8737b; stroke:none;" d="M928 556L928 557L936 557L928 556z"/>
<path style="fill:#d08d96; stroke:none;" d="M936 556L936 557L971 557L936 556z"/>
<path style="fill:#8e606d; stroke:none;" d="M971 556L971 557L979 557L971 556z"/>
<path style="fill:#422a40; stroke:none;" d="M944 557L944 558L976 558L944 557z"/>
<path style="fill:#916b78; stroke:none;" d="M838.667 563.333L839.333 563.667L838.667 563.333z"/>
<path style="fill:#906171; stroke:none;" d="M982.667 564.333L983.333 564.667L982.667 564.333z"/>
<path style="fill:#9e7281; stroke:none;" d="M845 565L845 566L848 566L845 565z"/>
<path style="fill:#956c72; stroke:none;" d="M976.667 566.333L977.333 566.667L976.667 566.333z"/>
<path style="fill:#876878; stroke:none;" d="M965.667 569.333L966.333 569.667L965.667 569.333z"/>
<path style="fill:#956976; stroke:none;" d="M868.667 570.333L869.333 570.667L868.667 570.333z"/>
<path style="fill:#6f515b; stroke:none;" d="M873 571L873 572L877 572L873 571z"/>
<path style="fill:#9e7887; stroke:none;" d="M886 573L886 574L891 574L886 573z"/>
<path style="fill:#876a7c; stroke:none;" d="M940 573L940 574L946 574L940 573z"/>
<path style="fill:#492938; stroke:none;" d="M899 574L899 575L931 575L899 574z"/>
<path style="fill:#a5707a; stroke:none;" d="M931 574L931 575L936 575L931 574z"/>
<path style="fill:#29305a; stroke:none;" d="M964 576C956.168 595.225 972.463 604.993 990 605C1015.85 605.01 1054.89 600.29 1073 579C1048.84 584.539 1025.07 590.336 1000 587.829C989.486 586.778 980.192 581.755 970 580L971 597L970 597L966 576L964 576z"/>
<path style="fill:#f28080; stroke:none;" d="M1170 594C1186.53 594.047 1194.2 606.531 1187.93 622C1183.02 634.113 1172.98 642.25 1160 644C1160 685.61 1160.55 725.515 1145.38 765C1120.87 828.789 1063.96 870.254 1002 893.424C982.235 900.816 959.229 909.03 938 910L939 914C972.665 909.742 1006.25 906.382 1040 903.17C1054.88 901.754 1072.67 903.727 1087 899.495C1101.23 895.291 1115.67 883.087 1128.96 876.17C1140.07 870.386 1151.35 864.801 1163 860.205C1166.73 858.735 1174.66 856.684 1176.4 852.775C1178.55 847.928 1176.43 841.028 1176.09 836C1175.34 825.082 1175.52 813.925 1175.04 803C1173.93 777.605 1175.85 752.279 1176.96 727C1177.66 710.949 1175.77 691.482 1181.23 676.105C1182.92 671.326 1188.89 670.553 1193 668.688C1200.95 665.074 1208.74 660.078 1214.99 653.961C1236.46 632.937 1236.57 604.671 1233 577C1227.81 579.287 1219.84 576 1214 576C1199.96 575.999 1178.61 581.685 1170 594z"/>
<path style="fill:#2c324c; stroke:none;" d="M867 577L870 600C879.645 594.507 873.928 581.998 867 577z"/>
<path style="fill:#ae5d5c; stroke:none;" d="M1073 580L1076 579L1073 580z"/>
<path style="fill:#926872; stroke:none;" d="M1066.67 580.333L1067.33 580.667L1066.67 580.333z"/>
<path style="fill:#29305a; stroke:none;" d="M772 613L772 614C793.961 619.411 822.378 620.446 844 613.329C850.086 611.326 861.517 608.696 864.972 602.79C868.538 596.695 864.957 587.016 863 581C853.693 583.587 844.95 592.419 836 596.741C817.824 605.52 792.218 612.944 772 613z"/>
<path style="fill:#9b6e6b; stroke:none;" d="M1054.67 583.333L1055.33 583.667L1054.67 583.333z"/>
<path style="fill:#c496a0; stroke:none;" d="M969 586L969 594L970 594L969 586z"/>
<path style="fill:#916876; stroke:none;" d="M1037 586L1037 587L1040 587L1037 586z"/>
<path style="fill:#a6777d; stroke:none;" d="M869 587L869 598L870 598L869 587z"/>
<path style="fill:#bb8c9c; stroke:none;" d="M875 587L875 593L876 593L875 587z"/>
<path style="fill:#996f79; stroke:none;" d="M997 587L997 588L1003 588L997 587z"/>
<path style="fill:#836074; stroke:none;" d="M1027 587L1027 588L1032 588L1027 587z"/>
<path style="fill:#ad7f89; stroke:none;" d="M866 592L866 602L867 602L866 592z"/>
<path style="fill:#6f5f86; stroke:none;" d="M970 593L970 597L971 597L970 593z"/>
<path style="fill:#a66c84; stroke:none;" d="M1235 595L1235 605L1236 605L1235 595z"/>
<path style="fill:#5c2a35; stroke:none;" d="M869 598L868 603L869 598z"/>
<path style="fill:#7e5a74; stroke:none;" d="M824.667 601.333L825.333 601.667L824.667 601.333z"/>
<path style="fill:#8d6977; stroke:none;" d="M1021 602L1021 603L1024 603L1021 602z"/>
<path style="fill:#865a6b; stroke:none;" d="M1016.67 603.333L1017.33 603.667L1016.67 603.333z"/>
<path style="fill:#725363; stroke:none;" d="M986 605L986 606L1003 606L986 605z"/>
<path style="fill:#966e79; stroke:none;" d="M802.667 607.333L803.333 607.667L802.667 607.333z"/>
<path style="fill:#9b6f7e; stroke:none;" d="M797 608L797 609L800 609L797 608z"/>
<path style="fill:#614b62; stroke:none;" d="M784 610L784 611L788 611L784 610z"/>
<path style="fill:#ab87a1; stroke:none;" d="M745 611L745 619L746 619L745 611z"/>
<path style="fill:#976f77; stroke:none;" d="M772 611L772 612L779 612L772 611z"/>
<path style="fill:#412941; stroke:none;" d="M768 612C771.297 616.812 779.569 617.038 785 617.714C801.123 619.72 815.999 617.687 832 617L832 616L772 614L772 613L784 612L768 612z"/>
<path style="fill:#5e272d; stroke:none;" d="M762 612L762 613L768 614L762 612z"/>
<path style="fill:#9c81a0; stroke:none;" d="M768.667 614.333L769.333 614.667L768.667 614.333z"/>
<path style="fill:#aa8094; stroke:none;" d="M836.667 615.333L837.333 615.667L836.667 615.333z"/>
<path style="fill:#956a74; stroke:none;" d="M789 618L789 619L794 619L789 618z"/>
<path style="fill:#a8859d; stroke:none;" d="M746 627L746 635L747 635L746 627z"/>
<path style="fill:#8d616e; stroke:none;" d="M1013 634L1013 635L1020 635L1013 634z"/>
<path style="fill:#7d5f79; stroke:none;" d="M1008.67 635.333L1009.33 635.667L1008.67 635.333z"/>
<path style="fill:#2a2d58; stroke:none;" d="M984 656C991.861 655.309 999.238 651.385 1007 649.807C1022.08 646.741 1035.45 648.42 1050 653C1040.42 628.487 989.613 628.178 984 656z"/>
<path style="fill:#966e76; stroke:none;" d="M1014 648L1014 649L1019 649L1014 648z"/>
<path style="fill:#9d687c; stroke:none;" d="M1028 648L1028 649L1034 649L1028 648z"/>
<path style="fill:#88636b; stroke:none;" d="M1003.67 650.333L1004.33 650.667L1003.67 650.333z"/>
<path style="fill:#253356; stroke:none;" d="M794 675C801.588 672.814 808.184 668.416 816 666.665C831.831 663.12 847.369 665.969 863 669C849.172 639.961 804.738 649.378 794 675z"/>
<path style="fill:#876c7f; stroke:none;" d="M838.667 652.333L839.333 652.667L838.667 652.333z"/>
<path style="fill:#a76d85; stroke:none;" d="M996.667 652.333L997.333 652.667L996.667 652.333z"/>
<path style="fill:#561e29; stroke:none;" d="M983 654L980 659L986 657L983 654z"/>
<path style="fill:#aa8692; stroke:none;" d="M822 665L822 666L827 666L822 665z"/>
<path style="fill:#e2b8c2; stroke:none;" d="M827 665L827 666L843 666L827 665z"/>
<path style="fill:#956573; stroke:none;" d="M816.667 666.333L817.333 666.667L816.667 666.333z"/>
<path style="fill:#a57b85; stroke:none;" d="M812.667 667.333L813.333 667.667L812.667 667.333z"/>
<path style="fill:#97767f; stroke:none;" d="M859.667 668.333L860.333 668.667L859.667 668.333z"/>
<path style="fill:#895a7a; stroke:none;" d="M1179 685L1179 690L1180 690L1179 685z"/>
<path style="fill:#7e546a; stroke:none;" d="M1178 696L1178 704L1179 704L1178 696z"/>
<path style="fill:#ac7379; stroke:none;" d="M881 706L880 709L881 706z"/>
<path style="fill:#a76980; stroke:none;" d="M1177 707L1177 715L1178 715L1177 707z"/>
<path style="fill:#2c3159; stroke:none;" d="M880 709C880 718.291 878.643 729.025 884.499 736.996C893.904 749.799 923.691 749.994 934 738C927.942 738.125 922.056 740.259 916 739.907C898.48 738.888 883.571 726.987 882 709L880 709z"/>
<path style="fill:#ffffff; stroke:none;" d="M643.093 711.743C637.058 714.222 633.268 724.607 630.306 730C626.306 737.282 617.43 747.168 621.009 755.999C626.645 769.904 657.224 769.645 670 772.2C675.066 773.213 681.855 775.423 686.891 773.258C694.589 769.948 689.856 759.738 686.771 755C678.536 742.354 669.217 728.372 659.192 717.105C655.506 712.963 648.726 709.429 643.093 711.743z"/>
<path style="fill:#a26e70; stroke:none;" d="M879 714L879 723L880 723L879 714z"/>
<path style="fill:#f38181; stroke:none;" d="M932 731C938.042 723.762 944.107 725.198 952 728C954.907 715.614 937.654 712.11 929.499 718.974C925.075 722.698 927.076 729.445 932 731z"/>
<path style="fill:#9c808c; stroke:none;" d="M880.333 727.667L880.667 728.333L880.333 727.667z"/>
<path style="fill:#b4615d; stroke:none;" d="M932 737L932 738L935 738L932 737z"/>
<path style="fill:#794f5b; stroke:none;" d="M912 739L912 740L923 740L912 739z"/>
<path style="fill:#98788d; stroke:none;" d="M896.667 745.333L897.333 745.667L896.667 745.333z"/>
<path style="fill:#826b7f; stroke:none;" d="M917 745L917 746L920 746L917 745z"/>
<path style="fill:#62455b; stroke:none;" d="M900 746L900 747L912 747L900 746z"/>
<path style="fill:#b3d576; stroke:none;" d="M293 764C304.356 756.103 314.607 747.482 329 753.515C334.352 755.758 338.847 759.437 344 762C334.488 744.604 301.231 746.508 293 764z"/>
<path style="fill:#b2db4f; stroke:none;" d="M313 751.568C285.792 758.875 274.732 795.976 302 811.634C310.225 816.357 323.094 816.142 332 813.349C368.849 801.791 349.41 741.79 313 751.568z"/>
<path style="fill:#a45c74; stroke:none;" d="M1175 752L1175 808L1176 808L1176 770L1175 752z"/>
<path style="fill:#fffeff; stroke:none;" d="M1456 754.518C1411.38 764.037 1427.6 830.517 1472 821.621C1514.36 813.135 1498.44 745.464 1456 754.518z"/>
<path style="fill:#b7b8d7; stroke:none;" d="M1467.67 754.333L1468.33 754.667L1467.67 754.333z"/>
<path style="fill:#a0a3c6; stroke:none;" d="M1472.67 755.333L1473.33 755.667L1472.67 755.333z"/>
<path style="fill:#a7a7cb; stroke:none;" d="M689.333 758.667L689.667 759.333L689.333 758.667z"/>
<path style="fill:#c4c3e3; stroke:none;" d="M691 763L691 768L692 768L691 763z"/>
<path style="fill:#bdbfd6; stroke:none;" d="M1460 764L1460 765L1466 765L1460 764z"/>
<path style="fill:#aaabca; stroke:none;" d="M634.667 765.333L635.333 765.667L634.667 765.333z"/>
<path style="fill:#9a9cc2; stroke:none;" d="M1456.67 765.333L1457.33 765.667L1456.67 765.333z"/>
<path style="fill:#60629f; stroke:none;" d="M1458 765.468C1428.37 771.069 1438.17 817.018 1468 811.381C1498.55 805.608 1488.37 759.725 1458 765.468z"/>
<path style="fill:#bdbdd9; stroke:none;" d="M660.667 770.333L661.333 770.667L660.667 770.333z"/>
<path style="fill:#babad6; stroke:none;" d="M665.667 771.333L666.333 771.667L665.667 771.333z"/>
<path style="fill:#aeafce; stroke:none;" d="M670.667 772.333L671.333 772.667L670.667 772.333z"/>
<path style="fill:#bcbdd2; stroke:none;" d="M675.667 773.333L676.333 773.667L675.667 773.333z"/>
<path style="fill:#9a9bb9; stroke:none;" d="M218.333 774.667L218.667 775.333L218.333 774.667z"/>
<path style="fill:#bfbee6; stroke:none;" d="M681 774L681 775L684 775L681 774z"/>
<path style="fill:#ffffff; stroke:none;" d="M960 774.439C943.534 777.03 927.559 781.401 911 783.576C905.917 784.243 896.489 782.054 892.434 785.603C887.237 790.153 892.78 796.622 897.015 799.12C906.223 804.549 919.612 805.06 930 803.711C942.584 802.076 956.238 798.792 966.424 790.896C978.291 781.695 974.894 772.095 960 774.439z"/>
<path style="fill:#9a9bb9; stroke:none;" d="M1781.33 774.667L1781.67 775.333L1781.33 774.667z"/>
<path style="fill:#f28080; stroke:none;" d="M975 776C971.406 799.873 931.403 806.44 912 803.41C901.422 801.758 892.192 798.053 889 787C880.005 794.065 883.897 804.243 884.83 814C885.814 824.291 885.077 834.752 886.105 844.999C886.588 849.815 890.053 854.786 895.001 855.977C900.619 857.329 909.704 849.173 915 847.015C927.103 842.083 939.172 842 952 842L952 841L939 841C951.715 819.643 973.399 818.626 995 820L995 824L996 824C996 807.492 992.514 783.541 975 776z"/>
<path style="fill:#bfc1da; stroke:none;" d="M1486.33 782.667L1486.67 783.333L1486.33 782.667z"/>
<path style="fill:#ffd7d4; stroke:none;" d="M896 783L896 784L912 784L896 783z"/>
<path style="fill:#aeb2cd; stroke:none;" d="M215.333 784.667L215.667 785.333L215.333 784.667z"/>
<path style="fill:#a8a7c6; stroke:none;" d="M1439 784L1439 792L1440 792L1439 784z"/>
<path style="fill:#b1b4d7; stroke:none;" d="M1497 784L1497 792L1498 792L1497 784z"/>
<path style="fill:#b2b3cf; stroke:none;" d="M1784.33 784.667L1784.67 785.333L1784.33 784.667z"/>
<path style="fill:#ffd5ce; stroke:none;" d="M890 785L889 790L890 790L892 785L890 785z"/>
<path style="fill:#999cbf; stroke:none;" d="M213.333 792.667L213.667 793.333L213.333 792.667z"/>
<path style="fill:#9b9bbf; stroke:none;" d="M1786.33 792.667L1786.67 793.333L1786.33 792.667z"/>
<path style="fill:#58676e; stroke:none;" d="M290 798L294 805L290 798z"/>
<path style="fill:#9a9cc3; stroke:none;" d="M209.333 808.667L209.667 809.333L209.333 808.667z"/>
<path style="fill:#9c9bc3; stroke:none;" d="M1790.33 808.667L1790.67 809.333L1790.33 808.667z"/>
<path style="fill:#bbbfdc; stroke:none;" d="M1456.67 811.333L1457.33 811.667L1456.67 811.333z"/>
<path style="fill:#a8a8ca; stroke:none;" d="M1467.67 811.333L1468.33 811.667L1467.67 811.333z"/>
<path style="fill:#b3d177; stroke:none;" d="M312 815L312 816L328 815L312 815z"/>
<path style="fill:#a5a7cd; stroke:none;" d="M207.333 816.667L207.667 817.333L207.333 816.667z"/>
<path style="fill:#a4a6cc; stroke:none;" d="M1792.33 816.667L1792.67 817.333L1792.33 816.667z"/>
<path style="fill:#ee4971; stroke:none;" d="M939 841C947.34 841 954.966 841.772 963 844.144C966.637 845.219 971.191 848.602 975 848.212C985.902 847.096 994.797 829.459 995 820C975.647 817.641 947.84 819.006 939 841z"/>
<path style="fill:#cdcdf3; stroke:none;" d="M1457 822L1457 823L1469 823L1457 822z"/>
<path style="fill:#bf9cb4; stroke:none;" d="M1254 827L1254 828L1258 828L1254 827z"/>
<path style="fill:#ffaea2; stroke:none;" d="M1211 841C1210.47 845.089 1204.43 845.337 1201 846.583C1190.21 850.503 1178.88 852.709 1168 857.417C1148.34 865.928 1128.73 875.074 1110 885.611C1102.45 889.858 1094.37 897.37 1086 899.694C1071.53 903.714 1053.95 901.596 1039 903.083C907.456 916.176 776.592 934.143 651 978.333C621.851 988.59 594.161 1001.16 567 1015.75C548.727 1025.56 533.259 1033.75 525.889 1054.08C507.52 1104.76 521.572 1162.43 564 1196.61C576.137 1206.39 589.797 1212.08 604 1217.64C618.952 1223.49 637.578 1228.52 654 1227.31C668.084 1226.26 685.036 1216.01 698 1210.58C728.959 1197.61 759.284 1182.67 789 1167.06C862.013 1128.69 936.247 1092.45 1014 1064.56C1048.35 1052.23 1087.32 1037.15 1124 1035.03C1159.3 1032.98 1190.5 1035.24 1225 1043.86C1235.68 1046.53 1246.68 1049.42 1257 1053.19C1265.06 1056.14 1273.15 1060.38 1282 1058.78C1292.79 1056.82 1313.38 1036.86 1318.97 1028C1325.55 1017.58 1319.69 1008.6 1315.25 999C1308.29 983.975 1301.92 968.561 1296.44 953C1293.41 944.38 1291.67 935.846 1282 932.444C1272.39 929.063 1264.95 933.864 1258.81 941.083C1246.63 955.397 1248.15 976.544 1255 993C1242.36 983.305 1231.26 975.19 1215 973L1215 972L1218 972L1218 971L1191 975.942L1144 969C1167.97 947.058 1189.28 926.432 1192 892L1193 892C1196.32 912.278 1219.32 922.14 1231.49 935.518C1237.88 942.539 1239.93 950.131 1249 955C1251.83 949.838 1254.09 944.403 1258.1 940.004C1268 929.172 1282.72 925.522 1292.36 939.001C1296.77 945.169 1298.23 953.938 1300.88 961C1305.31 972.764 1310.77 984.171 1315 996C1332.08 992.965 1356.74 979.14 1365.65 964C1376.3 945.896 1362.03 923.916 1342 923C1339.74 913.397 1330.96 903.336 1325 895.576C1311.84 878.432 1298.19 862.217 1282.17 847.615C1275.44 841.475 1266.32 830.093 1257 828.282C1243.46 825.654 1224.38 838.238 1211 841z"/>
<path style="fill:#a6a7c3; stroke:none;" d="M204.333 830.667L204.667 831.333L204.333 830.667M1795.33 830.667L1795.67 831.333L1795.33 830.667z"/>
<path style="fill:#9293c1; stroke:none;" d="M619 831L619 832L623 832L619 831z"/>
<path style="fill:#ffffff; stroke:none;" d="M616.004 832.703C610.945 834.435 608.021 838.739 608.058 844C608.126 853.786 612.25 864.411 614.199 874C615.098 878.422 615.449 884.215 618.513 887.772C621.818 891.607 628.458 891.721 633 890.351C646.868 886.169 662.523 870.892 673.999 862.101C678.443 858.697 683.165 854.197 681.678 848.004C680.193 841.818 673.341 840.568 668 839.615C657.02 837.656 645.963 836.158 635 834.001C629.165 832.853 621.85 830.701 616.004 832.703z"/>
<path style="fill:#8a537a; stroke:none;" d="M1176 832L1176 840L1177 840L1176 832z"/>
<path style="fill:#a3a3bf; stroke:none;" d="M637 834L637 835L640 835L637 834z"/>
<path style="fill:#babed9; stroke:none;" d="M642 835L642 836L645 836L642 835z"/>
<path style="fill:#b0b1d0; stroke:none;" d="M648.667 836.333L649.333 836.667L648.667 836.333z"/>
<path style="fill:#b4b7d8; stroke:none;" d="M659.667 838.333L660.333 838.667L659.667 838.333z"/>
<path style="fill:#a17e96; stroke:none;" d="M1220.67 838.333L1221.33 838.667L1220.67 838.333z"/>
<path style="fill:#fefffd; stroke:none;" d="M898 856L898 858C922.096 868.367 951.321 859.442 974 850C968.163 843.209 957.487 842.003 949 842C930.011 841.993 913.842 844.751 898 856z"/>
<path style="fill:#e8b3bd; stroke:none;" d="M1194 847L1194 848L1212 843L1194 847z"/>
<path style="fill:#b6b6d8; stroke:none;" d="M201.333 844.667L201.667 845.333L201.333 844.667z"/>
<path style="fill:#906779; stroke:none;" d="M1198.67 845.333L1199.33 845.667L1198.67 845.333z"/>
<path style="fill:#f27f82; stroke:none;" d="M930 875L930 876C958.526 882.599 985.964 878.13 999 848C991.771 849.993 983.807 858.606 977 862.537C962.74 870.772 946.405 875 930 875z"/>
<path style="fill:#a2a3c2; stroke:none;" d="M200.333 850.667L200.667 851.333L200.333 850.667z"/>
<path style="fill:#a1a1c7; stroke:none;" d="M609.333 852.667L609.667 853.333L609.333 852.667z"/>
<path style="fill:#b0b1cf; stroke:none;" d="M199 855L199 858L200 858L199 855z"/>
<path style="fill:#b2b2ce; stroke:none;" d="M610.333 856.667L610.667 857.333L610.333 856.667z"/>
<path style="fill:#a7a7c3; stroke:none;" d="M198 861L198 864L199 864L198 861z"/>
<path style="fill:#a1a2b6; stroke:none;" d="M611 861L611 864L612 864L611 861z"/>
<path style="fill:#a7a7c3; stroke:none;" d="M1801 861L1801 864L1802 864L1801 861z"/>
<path style="fill:#b1b5d0; stroke:none;" d="M613.333 870.667L613.667 871.333L613.333 870.667z"/>
<path style="fill:#9497b8; stroke:none;" d="M194 886L194 890L195 890L194 886M1805 886L1805 890L1806 890L1805 886z"/>
<path style="fill:#c6cae3; stroke:none;" d="M624 891L624 892L630 892L624 891z"/>
<path style="fill:#f28080; stroke:none;" d="M1192 892C1189.3 913.395 1180.77 932.22 1166.22 948.4C1159.51 955.854 1150.02 961.198 1144 969L1190 975.956L1219.01 972.093L1251 987L1248 969L1247.97 955.329L1239.38 946.815L1231.49 934.76L1215.46 922.575L1192 892z"/>
<path style="fill:#393864; stroke:none;" d="M908 907L908 908L915 917L939 914L939 911L908 907z"/>
<path style="fill:#a06770; stroke:none;" d="M934 910L934 911L938 911L934 910z"/>
<path style="fill:#a38096; stroke:none;" d="M926 911L926 912L930 912L926 911z"/>
<path style="fill:#9f7c90; stroke:none;" d="M931 914L931 915L936 915L931 914z"/>
<path style="fill:#987c8b; stroke:none;" d="M925 915L925 916L928 916L925 915z"/>
<path style="fill:#36396e; stroke:none;" d="M1343 917L1356 928C1362.34 931.57 1367.4 938.768 1368.67 946C1369.26 949.337 1367.9 954.454 1370.03 957.298C1374.03 962.628 1394.44 967.031 1401 968C1393.51 952.021 1377.43 939.135 1365 927.015C1357.87 920.063 1353.07 914.343 1343 917z"/>
<path style="fill:#ae809a; stroke:none;" d="M909 917L909 918L914 918L909 917z"/>
<path style="fill:#3e3051; stroke:none;" d="M1341 918C1343.29 924.009 1351.26 925.433 1357 927L1341 918z"/>
<path style="fill:#9898be; stroke:none;" d="M190 920L190 925L191 925L190 920z"/>
<path style="fill:#a77d91; stroke:none;" d="M1342.67 922.333L1343.33 922.667L1342.67 922.333z"/>
<path style="fill:#ffe8e9; stroke:none;" d="M1251 987C1239.71 979.973 1228.87 972.295 1215 972L1215 973C1231.55 976.416 1240.71 985.573 1255 993C1250.1 975.731 1246.13 958.516 1258.03 943.039C1264.99 933.977 1275.17 927.542 1285.91 934.97C1292.75 939.701 1294.21 947.741 1296.91 955C1302.22 969.279 1309.82 983.39 1314 998L1318 997C1307.77 986.833 1302.6 965.501 1297.86 952C1295.56 945.436 1294.47 939.079 1288.96 934.225C1278.08 924.655 1262.97 931.877 1255.63 942C1245.77 955.622 1247 971.561 1251 987z"/>
<path style="fill:#a8a9c7; stroke:none;" d="M1810 931L1810 936L1811 936L1810 931z"/>
<path style="fill:#9fa2c1; stroke:none;" d="M189 932L189 938L190 938L189 932z"/>
<path style="fill:#cbcce8; stroke:none;" d="M188 942L188 947L189 947L188 942z"/>
<path style="fill:#c9cde8; stroke:none;" d="M1811 942L1811 947L1812 947L1811 942z"/>
<path style="fill:#9d9dbf; stroke:none;" d="M188 947L188 952L189 952L188 947z"/>
<path style="fill:#9b9ebf; stroke:none;" d="M1811 947L1811 952L1812 952L1811 947z"/>
<path style="fill:#babbd7; stroke:none;" d="M187 963L187 971L188 971L187 963z"/>
<path style="fill:#7c7f9e; stroke:none;" d="M1386.67 963.333L1387.33 963.667L1386.67 963.333z"/>
<path style="fill:#bbbad9; stroke:none;" d="M1812 963L1812 971L1813 971L1812 963z"/>
<path style="fill:#8c8da9; stroke:none;" d="M187 971L187 979L188 979L187 971z"/>
<path style="fill:#8d8cab; stroke:none;" d="M1812 971L1812 979L1813 979L1812 971z"/>
<path style="fill:#ffc3b9; stroke:none;" d="M544 1059C587.67 1059 634.349 1039.44 671.015 1016.95C681.771 1010.35 692.656 1003.73 701.142 994.195C704.638 990.265 706.972 982.962 700.941 980.287C689.739 975.317 671.032 980.792 659.911 983.911C628.331 992.767 600.112 1006.91 571 1021.61C557.395 1028.48 535.244 1042.96 544 1059z"/>
<path style="fill:#a6a5cd; stroke:none;" d="M571 988L571 989L576 989L571 988z"/>
<path style="fill:#dadbf7; stroke:none;" d="M576 988L576 989L592 989L576 988z"/>
<path style="fill:#ffffff; stroke:none;" d="M701 1211L701 1210C687.014 1211.74 672.344 1220.96 659 1225.66C621.541 1238.84 575.772 1249.65 538 1231.88C522.627 1224.65 509.516 1214.24 498.805 1201C482.342 1180.64 467.22 1154.15 469.09 1127C472.741 1073.98 527.277 1038.28 569 1015.14C583.556 1007.07 599.688 996.865 616 993C606.517 987.282 592.619 989 582 989C543.118 989 507.222 1005.21 480.015 1033C406.508 1108.08 429.704 1250.85 538 1278.73C553.35 1282.68 572.229 1285.15 588 1282.39C614.662 1277.72 641.348 1269.11 662.241 1250.99C670.674 1243.67 680.15 1235.5 687.246 1226.92C691.921 1221.27 693.943 1214.3 701 1211z"/>
<path style="fill:#a9add0; stroke:none;" d="M558.667 990.333L559.333 990.667L558.667 990.333z"/>
<path style="fill:#aaabc7; stroke:none;" d="M187 1027L187 1035L188 1035L187 1027z"/>
<path style="fill:#abaac9; stroke:none;" d="M1812 1027L1812 1035L1813 1035L1812 1027z"/>
<path style="fill:#f28080; stroke:none;" d="M654 1228L654 1227C586.456 1227 522.847 1177.48 518.089 1108C516.226 1080.78 526.442 1060.54 535 1036C524.79 1040.32 516.133 1049.51 508 1056.83C490.742 1072.37 474.607 1093.55 470.464 1117C463.268 1157.72 490.086 1202.2 523 1224.38C564.076 1252.07 610.148 1238.05 654 1228z"/>
<path style="fill:#60629f; stroke:none;" d="M1008 1066C1010.51 1075.19 1016.02 1087.72 1025 1092C1002.1 1192.18 1016.88 1294.01 1072.05 1381C1093.79 1415.27 1119.37 1447.17 1143.15 1480C1157.76 1500.16 1175.01 1523.18 1183 1547C1211.99 1547 1238.21 1545.34 1264 1530.57C1272.23 1525.86 1278.58 1519.71 1286 1514L1276 1488L1275 1488L1270 1503C1266.69 1503.26 1263.33 1504.1 1260 1503.89C1238.91 1502.57 1253.34 1482.38 1248.4 1472.32C1247.07 1469.62 1243.51 1470.08 1241 1469.7C1233.96 1468.63 1228.8 1463.23 1222.04 1461.95C1216.57 1460.92 1216.55 1467.5 1215.3 1471C1212.64 1478.47 1204.06 1483.3 1197.02 1478.35C1191.7 1474.61 1186.97 1466.17 1192.43 1460.47C1195.59 1457.18 1200.7 1456.25 1203.63 1452.67C1206.65 1448.98 1203.52 1446.09 1200 1445L1192 1423C1182.96 1423.08 1175.39 1431 1167 1429.78C1156.99 1428.33 1151 1411.54 1160.33 1405.43C1167.55 1400.71 1180.7 1406.05 1189 1405L1198 1376C1188.45 1371.4 1167.15 1362.56 1184 1350C1181.84 1340.89 1173.29 1332.61 1168.02 1325C1156.94 1309 1146.46 1292.69 1136.45 1276C1110.15 1232.14 1090.85 1183.13 1080.6 1133C1078.56 1123 1072.82 1105.92 1075.32 1096.01C1078.03 1085.26 1098.25 1078.06 1094.06 1064C1093 1060.42 1090.07 1057.04 1087.97 1054C1086.17 1051.38 1084.32 1048.36 1081.83 1046.33C1077.12 1042.52 1066.28 1047.15 1061 1048.84C1043.36 1054.47 1025.76 1060.85 1008 1066z"/>
<path style="fill:#b9bad8; stroke:none;" d="M188 1048L188 1056L189 1056L188 1048z"/>
<path style="fill:#b7bbd8; stroke:none;" d="M1811 1048L1811 1056L1812 1056L1811 1048z"/>
<path style="fill:#a4a6cd; stroke:none;" d="M462.333 1054.67L462.667 1055.33L462.333 1054.67z"/>
<path style="fill:#9295b4; stroke:none;" d="M189 1060L189 1067L190 1067L189 1060z"/>
<path style="fill:#9495b4; stroke:none;" d="M1810 1060L1810 1067L1811 1067L1810 1060z"/>
<path style="fill:#f3f3ff; stroke:none;" d="M549 1281L549 1282C576.542 1293.47 601.705 1302.24 632 1302.99C643.751 1303.27 655.311 1302.33 667 1301.99C671.616 1301.85 676.089 1300.05 680 1303L681 1303L682 1268L706.999 1257.79L719.687 1251.49L724 1228L758 1228.04L775 1227.87L835 1196.74L859 1186C861.736 1180.41 866.033 1180.63 870.676 1177.5C879.878 1171.28 889.406 1165.44 898.711 1159.3C930.841 1138.1 961.539 1116.74 997.83 1103.18C1004.53 1100.67 1009.81 1096.5 1017 1095C1012.48 1124.11 1003.05 1152.4 1000.17 1182C993.76 1247.97 1006.54 1310.37 1035.19 1369.72C1059.15 1419.33 1095.96 1462.94 1122.71 1510.95C1131.83 1527.31 1146.46 1551.62 1146 1571L1149 1578L1192 1570C1189.43 1552.59 1178.31 1535.03 1169.72 1520C1147.64 1481.38 1119.22 1446.91 1093.15 1411C1045.39 1345.21 1014 1271.23 1014 1189C1014 1167.49 1016.42 1146.28 1019.28 1125C1020.54 1115.67 1024.56 1104.35 1023.76 1095C1023.16 1087.98 1014.44 1080.46 1011.32 1074C1010.09 1071.45 1009.17 1068.01 1005.89 1067.62C996.681 1066.52 980.521 1076.2 972 1079.78C943.161 1091.87 914.825 1104.45 886.911 1118.6C840.621 1142.07 793.564 1164.43 747 1187.73C732.398 1195.04 716.373 1200.49 702.286 1208.71C694.88 1213.04 692.409 1219.83 687.246 1226.08C679.991 1234.87 670.276 1243.68 661.486 1250.99C640.161 1268.72 610.735 1280.97 583 1282.91C571.519 1283.72 560.385 1281.51 549 1281z"/>
<path style="fill:#c6c7e6; stroke:none;" d="M190 1075L190 1080L191 1080L190 1075M1809 1075L1809 1080L1810 1080L1809 1075z"/>
<path style="fill:#b8b9d7; stroke:none;" d="M191 1084L191 1090L192 1090L191 1084z"/>
<path style="fill:#b8b9d8; stroke:none;" d="M1808 1084L1808 1090L1809 1090L1808 1084z"/>
<path style="fill:#36396e; stroke:none;" d="M1524 1085C1527.9 1098.53 1536.95 1111.06 1542.58 1124C1555.51 1153.74 1566.83 1184.04 1576.49 1215C1606.26 1310.36 1621.52 1409.28 1634 1508C1646.76 1498.6 1656.32 1480.86 1665.42 1468C1668.66 1463.42 1674.27 1457.68 1675.2 1452C1676.38 1444.87 1673.19 1436.04 1672.17 1429C1669.6 1411.17 1665.75 1393.71 1662.61 1376C1649.08 1299.43 1627.37 1219.09 1585.09 1153C1568.38 1126.87 1552.52 1100.18 1524 1085z"/>
<path style="fill:#f9d3d0; stroke:none;" d="M944 1091L944 1092L951 1090L944 1091z"/>
<path style="fill:#afb1e4; stroke:none;" d="M1024 1092L1024 1095L1025 1095L1024 1092z"/>
<path style="fill:#c6c9e8; stroke:none;" d="M192 1093L192 1098L193 1098L192 1093z"/>
<path style="fill:#c5cae8; stroke:none;" d="M1807 1093L1807 1098L1808 1098L1807 1093z"/>
<path style="fill:#b9b9db; stroke:none;" d="M443.333 1094.67L443.667 1095.33L443.333 1094.67z"/>
<path style="fill:#9a9bba; stroke:none;" d="M1075 1099L1075 1104L1076 1104L1075 1099z"/>
<path style="fill:#c6c8dd; stroke:none;" d="M193 1102L193 1106L194 1106L193 1102z"/>
<path style="fill:#9296af; stroke:none;" d="M1532 1102L1533 1103L1532 1102z"/>
<path style="fill:#c6c8dd; stroke:none;" d="M1806 1102L1806 1106L1807 1106L1806 1102z"/>
<path style="fill:#ffffff; stroke:none;" d="M1696 1103.66C1678.97 1108.79 1686.86 1134.24 1704 1129.06C1719.91 1124.25 1711.52 1098.97 1696 1103.66z"/>
<path style="fill:#f3f3ff; stroke:none;" d="M1312 1104C1310.49 1120.71 1300.7 1137.55 1297.24 1154.17C1287.88 1199.18 1278.12 1244.98 1274.98 1291C1274 1305.33 1272.53 1319.7 1271.17 1334C1270.61 1339.9 1272.46 1346.78 1265 1348L1265 1349L1283 1355C1286.98 1347.85 1288.93 1336.5 1296.04 1331.89C1303.4 1327.13 1315.75 1334.04 1314.77 1343C1313.56 1354.06 1296.71 1355.14 1296.63 1365C1296.6 1368.79 1300.89 1372.11 1302.79 1375.09C1305.99 1380.09 1308.34 1386.32 1310 1392C1315.58 1390.92 1320.16 1386 1326 1386.23C1337.57 1386.67 1345.85 1401.17 1334.9 1408.87C1327.18 1414.29 1320.24 1409.09 1312 1409C1311.94 1415.69 1310.8 1422.69 1308.25 1428.91C1306.95 1432.08 1303.62 1435.94 1304.96 1439.56C1308.97 1450.39 1328.14 1444.06 1328.76 1459C1329.13 1468.04 1317.89 1474.6 1310.13 1470.43C1305.29 1467.82 1298.61 1456.87 1296 1452L1266 1467L1294 1545L1360 1530L1360 1527C1368.11 1526.34 1382.94 1524.55 1389.45 1519.52C1397.83 1513.04 1403.26 1502.23 1413 1497C1411.61 1487.61 1406.69 1478.04 1403.67 1469C1397.03 1449.09 1389.99 1429.15 1383.97 1409C1364.07 1342.42 1346.08 1275.99 1331.52 1208.04C1324.19 1173.81 1314 1139.45 1314 1104L1312 1104z"/>
<path style="fill:#a2a4ca; stroke:none;" d="M1021 1109L1021 1112L1022 1112L1021 1109z"/>
<path style="fill:#9fa1ba; stroke:none;" d="M1686.33 1112.67L1686.67 1113.33L1686.33 1112.67z"/>
<path style="fill:#b3b7dc; stroke:none;" d="M1712.33 1112.67L1712.67 1113.33L1712.33 1112.67z"/>
<path style="fill:#aeb0d7; stroke:none;" d="M1077.33 1114.67L1077.67 1115.33L1077.33 1114.67z"/>
<path style="fill:#f6d1cb; stroke:none;" d="M884 1120L890 1118L884 1120z"/>
<path style="fill:#a8abce; stroke:none;" d="M1078.33 1120.67L1078.67 1121.33L1078.33 1120.67z"/>
<path style="fill:#da9d9c; stroke:none;" d="M469 1123L469 1139L470 1139L469 1123z"/>
<path style="fill:#b7bbd8; stroke:none;" d="M1079 1125L1079 1128L1080 1128L1079 1125z"/>
<path style="fill:#b2b6d1; stroke:none;" d="M1702.67 1129.33L1703.33 1129.67L1702.67 1129.33z"/>
<path style="fill:#a7abc4; stroke:none;" d="M197.333 1130.67L197.667 1131.33L197.333 1130.67z"/>
<path style="fill:#c2c2de; stroke:none;" d="M436 1131L436 1152L437 1152L436 1131z"/>
<path style="fill:#a7a6c5; stroke:none;" d="M1080.33 1131.67L1080.67 1132.33L1080.33 1131.67z"/>
<path style="fill:#a7a7c3; stroke:none;" d="M198.333 1136.67L198.667 1137.33L198.333 1136.67z"/>
<path style="fill:#9698be; stroke:none;" d="M1017 1136L1017 1140L1018 1140L1017 1136z"/>
<path style="fill:#a2a8c2; stroke:none;" d="M1081.33 1136.67L1081.67 1137.33L1081.33 1136.67z"/>
<path style="fill:#a7a7c3; stroke:none;" d="M1801.33 1136.67L1801.67 1137.33L1801.33 1136.67z"/>
<path style="fill:#b0b1cf; stroke:none;" d="M199.333 1142.67L199.667 1143.33L199.333 1142.67z"/>
<path style="fill:#b1b0cf; stroke:none;" d="M1800.33 1142.67L1800.67 1143.33L1800.33 1142.67z"/>
<path style="fill:#a2a3c2; stroke:none;" d="M200.333 1147.67L200.667 1148.33L200.333 1147.67z"/>
<path style="fill:#fefeff; stroke:none;" d="M359 1147.46C316.067 1155.2 327.017 1223.12 370 1215.38C414.35 1207.4 403.21 1139.5 359 1147.46z"/>
<path style="fill:#a0a3c2; stroke:none;" d="M1799.33 1147.67L1799.67 1148.33L1799.33 1147.67z"/>
<path style="fill:#b3b3d5; stroke:none;" d="M1015 1155L1015 1163L1016 1163L1015 1155z"/>
<path style="fill:#9999bb; stroke:none;" d="M202 1157L202 1160L203 1160L202 1157z"/>
<path style="fill:#60629f; stroke:none;" d="M358 1158.64C329.002 1166.97 342.427 1212.18 372 1204.07C401.173 1196.07 387.487 1150.16 358 1158.64z"/>
<path style="fill:#9a9dc0; stroke:none;" d="M437 1158L437 1162L438 1162L437 1158z"/>
<path style="fill:#b3b9d1; stroke:none;" d="M203.333 1163.67L203.667 1164.33L203.333 1163.67z"/>
<path style="fill:#b4b8d1; stroke:none;" d="M1796.33 1163.67L1796.67 1164.33L1796.33 1163.67z"/>
<path style="fill:#bfc0d5; stroke:none;" d="M438 1165L438 1168L439 1168L438 1165z"/>
<path style="fill:#bebfd4; stroke:none;" d="M204.333 1168.67L204.667 1169.33L204.333 1168.67M1795.33 1168.67L1795.67 1169.33L1795.33 1168.67z"/>
<path style="fill:#b0b3d4; stroke:none;" d="M439.333 1171.67L439.667 1172.33L439.333 1171.67z"/>
<path style="fill:#a0a2cb; stroke:none;" d="M1014 1171L1014 1203L1015 1203L1014 1171z"/>
<path style="fill:#b8bae0; stroke:none;" d="M331 1173L331 1176L332 1176L331 1173z"/>
<path style="fill:#bdc1de; stroke:none;" d="M1091.33 1174.67L1091.67 1175.33L1091.33 1174.67z"/>
<path style="fill:#9898bc; stroke:none;" d="M341 1176L341 1185L342 1185L341 1176z"/>
<path style="fill:#8b8bad; stroke:none;" d="M388 1176L388 1186L389 1186L388 1176z"/>
<path style="fill:#a09fbf; stroke:none;" d="M440.333 1176.67L440.667 1177.33L440.333 1176.67z"/>
<path style="fill:#9d9ebd; stroke:none;" d="M399 1177L399 1184L400 1184L399 1177z"/>
<path style="fill:#9c9bbd; stroke:none;" d="M331.333 1188.67L331.667 1189.33L331.333 1188.67z"/>
<path style="fill:#b4b4d6; stroke:none;" d="M209.333 1190.67L209.667 1191.33L209.333 1190.67M1790.33 1190.67L1790.67 1191.33L1790.33 1190.67z"/>
<path style="fill:#b4b4d0; stroke:none;" d="M211.333 1198.67L211.667 1199.33L211.333 1198.67z"/>
<path style="fill:#b3b3cf; stroke:none;" d="M1788.33 1198.67L1788.67 1199.33L1788.33 1198.67z"/>
<path style="fill:#b6b6da; stroke:none;" d="M1787.33 1202.67L1787.67 1203.33L1787.33 1202.67z"/>
<path style="fill:#a4a2ca; stroke:none;" d="M1102.33 1206.67L1102.67 1207.33L1102.33 1206.67z"/>
<path style="fill:#b7bacd; stroke:none;" d="M1574.33 1208.67L1574.67 1209.33L1574.33 1208.67z"/>
<path style="fill:#9296b3; stroke:none;" d="M1576.33 1214.67L1576.67 1215.33L1576.33 1214.67z"/>
<path style="fill:#a1a3c9; stroke:none;" d="M1016 1225L1016 1230L1017 1230L1016 1225z"/>
<path style="fill:#2c314e; stroke:none;" d="M724 1228L718 1269L899 1272L901 1232C842.585 1231.96 782.226 1232.6 724 1228z"/>
<path style="fill:#61637a; stroke:none;" d="M728 1228L728 1229L736 1229L728 1228z"/>
<path style="fill:#9ba0b6; stroke:none;" d="M736 1228L736 1229L752 1229L736 1228z"/>
<path style="fill:#bcc1d7; stroke:none;" d="M752 1228L752 1229L763 1229L752 1228z"/>
<path style="fill:#b8b8d0; stroke:none;" d="M1580.33 1228.67L1580.67 1229.33L1580.33 1228.67z"/>
<path style="fill:#5e6075; stroke:none;" d="M784 1229L784 1230L792 1230L784 1229z"/>
<path style="fill:#7f8198; stroke:none;" d="M792 1229L792 1230L800 1230L792 1229z"/>
<path style="fill:#b8bbce; stroke:none;" d="M800 1229L800 1230L816 1230L800 1229z"/>
<path style="fill:#d4dae8; stroke:none;" d="M816 1229L816 1230L824 1230L816 1229z"/>
<path style="fill:#9ea3b9; stroke:none;" d="M726 1230L726 1231L744 1231L726 1230z"/>
<path style="fill:#545976; stroke:none;" d="M744 1230L744 1231L760 1231L744 1230z"/>
<path style="fill:#7f8295; stroke:none;" d="M840 1230L840 1231L864 1231L840 1230z"/>
<path style="fill:#c1c4d5; stroke:none;" d="M864 1230L864 1231L872 1231L864 1230z"/>
<path style="fill:#ffffff; stroke:none;" d="M726 1231L721 1267L897 1270L899 1234L726 1231z"/>
<path style="fill:#c5c7dc; stroke:none;" d="M779 1231L779 1232L787 1232L779 1231z"/>
<path style="fill:#a6a8c1; stroke:none;" d="M787 1231L787 1232L795 1232L787 1231z"/>
<path style="fill:#73788c; stroke:none;" d="M795 1231L795 1232L811 1232L795 1231z"/>
<path style="fill:#61616d; stroke:none;" d="M891 1231L891 1232C894.987 1232 898.668 1231.4 901 1235L902 1235L902 1231L891 1231z"/>
<path style="fill:#9597ac; stroke:none;" d="M723 1232L723 1235L724 1235L723 1232z"/>
<path style="fill:#707289; stroke:none;" d="M725 1232L725 1235L726 1235L725 1232z"/>
<path style="fill:#b2b2be; stroke:none;" d="M835 1232L835 1233L848 1233L835 1232z"/>
<path style="fill:#94949e; stroke:none;" d="M848 1232L848 1233L856 1233L848 1232z"/>
<path style="fill:#56596a; stroke:none;" d="M856 1232L856 1233L872 1233L856 1232z"/>
<path style="fill:#ced1e4; stroke:none;" d="M888 1233L888 1234L899 1234L888 1233z"/>
<path style="fill:#9f9fc1; stroke:none;" d="M899 1233L899 1237L900 1237L899 1233z"/>
<path style="fill:#b4b6c5; stroke:none;" d="M901 1235L901 1240L902 1240L901 1235z"/>
<path style="fill:#66687f; stroke:none;" d="M722 1238L722 1242L723 1242L722 1238z"/>
<path style="fill:#a7a8c4; stroke:none;" d="M724.333 1240.67L724.667 1241.33L724.333 1240.67z"/>
<path style="fill:#acaec5; stroke:none;" d="M898 1244L898 1253L899 1253L898 1244z"/>
<path style="fill:#7e7f9b; stroke:none;" d="M723 1245L723 1248L724 1248L723 1245z"/>
<path style="fill:#aeadbd; stroke:none;" d="M900 1248L900 1256L901 1256L900 1248z"/>
<path style="fill:#b0b4cf; stroke:none;" d="M720 1250L720 1253L721 1253L720 1250z"/>
<path style="fill:#75778e; stroke:none;" d="M722 1251L722 1254L723 1254L722 1251z"/>
<path style="fill:#888a97; stroke:none;" d="M719.333 1258.67L719.667 1259.33L719.333 1258.67z"/>
<path style="fill:#81889b; stroke:none;" d="M721.333 1258.67L721.667 1259.33L721.333 1258.67z"/>
<path style="fill:#abaeb7; stroke:none;" d="M897 1258L897 1265L898 1265L897 1258z"/>
<path style="fill:#afb1ca; stroke:none;" d="M1589.33 1261.67L1589.67 1262.33L1589.33 1261.67z"/>
<path style="fill:#a7a7cb; stroke:none;" d="M230.333 1262.67L230.667 1263.33L230.333 1262.67z"/>
<path style="fill:#989fb1; stroke:none;" d="M899 1262L899 1269L900 1269L899 1262z"/>
<path style="fill:#a7a7cb; stroke:none;" d="M1769.33 1262.67L1769.67 1263.33L1769.33 1262.67z"/>
<path style="fill:#a29fb0; stroke:none;" d="M718.333 1264.67L718.667 1265.33L718.333 1264.67z"/>
<path style="fill:#797c83; stroke:none;" d="M720 1264L720 1267L721 1267L720 1264z"/>
<path style="fill:#9f9fbb; stroke:none;" d="M1022.33 1264.67L1022.67 1265.33L1022.33 1264.67z"/>
<path style="fill:#7d7f94; stroke:none;" d="M721 1267L721 1268L736 1268L721 1267z"/>
<path style="fill:#a9abc0; stroke:none;" d="M736 1267L736 1268L746 1268L736 1267z"/>
<path style="fill:#d6d9e8; stroke:none;" d="M746 1267L746 1268L760 1268L746 1267z"/>
<path style="fill:#52566f; stroke:none;" d="M771 1268L771 1269L779 1269L771 1268z"/>
<path style="fill:#737790; stroke:none;" d="M779 1268L779 1269L787 1269L779 1268z"/>
<path style="fill:#9195ae; stroke:none;" d="M787 1268L787 1269L795 1269L787 1268z"/>
<path style="fill:#b0b4cd; stroke:none;" d="M795 1268L795 1269L803 1269L795 1268z"/>
<path style="fill:#bdbed2; stroke:none;" d="M718 1269L718 1270L726 1270L718 1269z"/>
<path style="fill:#8c8da1; stroke:none;" d="M726 1269L726 1270L739 1270L726 1269z"/>
<path style="fill:#696c8b; stroke:none;" d="M739 1269L739 1270L747 1270L739 1269z"/>
<path style="fill:#545a70; stroke:none;" d="M824 1269L824 1270L832 1270L824 1269z"/>
<path style="fill:#77788d; stroke:none;" d="M832 1269L832 1270L840 1270L832 1269z"/>
<path style="fill:#9495aa; stroke:none;" d="M840 1269L840 1270L848 1270L840 1269z"/>
<path style="fill:#b8b7c9; stroke:none;" d="M848 1269L848 1270L856 1270L848 1269z"/>
<path style="fill:#aaacc5; stroke:none;" d="M1591.33 1269.67L1591.67 1270.33L1591.33 1269.67z"/>
<path style="fill:#989db0; stroke:none;" d="M768 1270L768 1271L795 1271L768 1270z"/>
<path style="fill:#5c6175; stroke:none;" d="M795 1270L795 1271L803 1271L795 1270z"/>
<path style="fill:#606176; stroke:none;" d="M875 1270L875 1271L888 1271L875 1270z"/>
<path style="fill:#85859d; stroke:none;" d="M888 1270L888 1271L897 1271L888 1270z"/>
<path style="fill:#ced0e5; stroke:none;" d="M819 1271L819 1272L827 1272L819 1271z"/>
<path style="fill:#b1b3c8; stroke:none;" d="M827 1271L827 1272L835 1272L827 1271z"/>
<path style="fill:#9394a9; stroke:none;" d="M835 1271L835 1272L843 1272L835 1271z"/>
<path style="fill:#565574; stroke:none;" d="M843 1271L843 1272L859 1272L843 1271z"/>
<path style="fill:#b5b6cb; stroke:none;" d="M875 1272L875 1273L888 1273L875 1272z"/>
<path style="fill:#9596ab; stroke:none;" d="M888 1272L888 1273L899 1273L888 1272z"/>
<path style="fill:#a0a4c1; stroke:none;" d="M1593 1277L1593 1280L1594 1280L1593 1277z"/>
<path style="fill:#b2b3cf; stroke:none;" d="M536.667 1278.33L537.333 1278.67L536.667 1278.33z"/>
<path style="fill:#36396e; stroke:none;" d="M543 1280C546.78 1290.83 560.332 1300.97 569.089 1307.88C584.979 1320.44 601.831 1325.1 620 1332.8C639.945 1341.26 656.264 1350.96 678 1355L680 1301C650.64 1304.71 619.905 1305.46 591 1297.85C574.865 1293.6 559.091 1282.41 543 1280z"/>
<path style="fill:#b2b4cb; stroke:none;" d="M1595.33 1286.67L1595.67 1287.33L1595.33 1286.67z"/>
<path style="fill:#a7a9c0; stroke:none;" d="M1596.33 1290.67L1596.67 1291.33L1596.33 1290.67z"/>
<path style="fill:#9899b7; stroke:none;" d="M1597.33 1294.67L1597.67 1295.33L1597.33 1294.67z"/>
<path style="fill:#9c9cb8; stroke:none;" d="M593.667 1298.33L594.333 1298.67L593.667 1298.33z"/>
<path style="fill:#8f90af; stroke:none;" d="M598.667 1299.33L599.333 1299.67L598.667 1299.33z"/>
<path style="fill:#bfbbd6; stroke:none;" d="M1598.33 1299.67L1598.67 1300.33L1598.33 1299.67z"/>
<path style="fill:#797ba1; stroke:none;" d="M603.667 1300.33L604.333 1300.67L603.667 1300.33z"/>
<path style="fill:#7d80a1; stroke:none;" d="M610 1301L610 1302L613 1302L610 1301z"/>
<path style="fill:#9a9abe; stroke:none;" d="M672 1301L672 1302L677 1302L672 1301z"/>
<path style="fill:#bfc0de; stroke:none;" d="M621 1302L621 1303L627 1303L621 1302z"/>
<path style="fill:#abaecd; stroke:none;" d="M659 1302L659 1303L667 1303L659 1302z"/>
<path style="fill:#6c6d8c; stroke:none;" d="M632 1303L632 1304L651 1304L632 1303z"/>
<path style="fill:#a9a9c3; stroke:none;" d="M1599 1303L1599 1306L1600 1306L1599 1303z"/>
<path style="fill:#757897; stroke:none;" d="M679 1307L679 1315L680 1315L679 1307z"/>
<path style="fill:#9598b9; stroke:none;" d="M1600.33 1307.67L1600.67 1308.33L1600.33 1307.67z"/>
<path style="fill:#c1d888; stroke:none;" d="M1235 1309L1235 1310L1245 1310L1235 1309z"/>
<path style="fill:#b2db4f; stroke:none;" d="M1235 1349C1216.28 1351.53 1211.27 1366.98 1197 1375L1190 1408C1181.56 1407.99 1169.8 1402.32 1162.04 1406.46C1151.52 1412.06 1158.02 1427.11 1168 1428.66C1176.1 1429.91 1183.66 1423.18 1192 1423C1192.9 1429.65 1195.89 1435.36 1199.44 1441C1200.99 1443.46 1204.47 1446.82 1204.12 1449.96C1203.65 1454.07 1197.77 1455.89 1195.15 1458.38C1190.94 1462.37 1190.39 1472.37 1194.32 1476.79C1200.35 1483.57 1211.4 1480.9 1214.91 1473C1216.34 1469.77 1215.91 1463.7 1220.19 1462.52C1223.5 1461.61 1227.95 1465.16 1231 1466.18C1237.81 1468.45 1245.85 1469.4 1253 1468.91C1270.67 1467.7 1280.42 1457.19 1296 1452C1297.51 1456.61 1304.99 1467.97 1309.26 1470.43C1317.06 1474.91 1327.22 1469.95 1327.94 1461C1329.25 1444.79 1314.2 1450.21 1306.62 1441.18C1305 1439.25 1304.89 1437.39 1305.72 1435.07C1308.32 1427.87 1309.67 1414.71 1314 1409L1314 1408C1310.76 1403.73 1312.08 1397.15 1310.49 1392C1306.06 1377.67 1297.77 1363.1 1284 1356L1285 1352L1284 1352L1283 1355L1263 1348.08L1253.03 1344.68L1254.7 1327L1252 1312C1248.61 1310.94 1245.58 1310.06 1242 1310C1239.74 1309.97 1237.21 1309.76 1235 1310.32C1216.1 1315.12 1234.17 1338.8 1235 1349z"/>
<path style="fill:#a6a4bc; stroke:none;" d="M1601.33 1312.67L1601.67 1313.33L1601.33 1312.67z"/>
<path style="fill:#c9dd98; stroke:none;" d="M1252 1314L1254 1317L1252 1314z"/>
<path style="fill:#b3b7d2; stroke:none;" d="M679 1315L679 1323L680 1323L679 1315z"/>
<path style="fill:#c9de93; stroke:none;" d="M1255 1320L1255 1328L1256 1328L1255 1320z"/>
<path style="fill:#b2b4c9; stroke:none;" d="M1603.33 1321.67L1603.67 1322.33L1603.33 1321.67z"/>
<path style="fill:#bebfdd; stroke:none;" d="M1604.33 1326.67L1604.67 1327.33L1604.33 1326.67z"/>
<path style="fill:#82c236; stroke:none;" d="M1284 1356C1286.88 1358.17 1291.11 1363.15 1295 1362.88C1298.02 1362.68 1300.08 1359.47 1302.28 1357.76C1308.69 1352.81 1318.21 1348.25 1314.4 1338C1308.97 1323.44 1292.7 1330.96 1289.74 1342C1288.44 1346.87 1285.49 1351.17 1284 1356z"/>
<path style="fill:#63637d; stroke:none;" d="M678 1331L678 1339L679 1339L678 1331z"/>
<path style="fill:#7f809c; stroke:none;" d="M1606.33 1334.67L1606.67 1335.33L1606.33 1334.67z"/>
<path style="fill:#d8efa9; stroke:none;" d="M1252 1336L1252 1346L1253 1346L1252 1336z"/>
<path style="fill:#c9e1a7; stroke:none;" d="M1289 1338L1289 1345L1290 1345L1289 1338z"/>
<path style="fill:#8c8ca6; stroke:none;" d="M678 1339L678 1347L679 1347L678 1339z"/>
<path style="fill:#a29fbe; stroke:none;" d="M1608.33 1344.67L1608.67 1345.33L1608.33 1344.67z"/>
<path style="fill:#f4ffdf; stroke:none;" d="M1188 1346L1188 1347C1199.03 1347.97 1199.11 1355.74 1206.51 1361.34C1208.69 1362.98 1209.81 1361.78 1211 1360C1201.01 1357.11 1200.73 1346.27 1188 1346z"/>
<path style="fill:#afafc7; stroke:none;" d="M678 1347L678 1355L679 1355L678 1347z"/>
<path style="fill:#b5d48e; stroke:none;" d="M1187 1347L1187 1348L1193 1348L1187 1347z"/>
<path style="fill:#83c32e; stroke:none;" d="M1184.43 1348.86C1168.54 1356.38 1184.77 1379.86 1198.62 1374.36C1216.11 1367.41 1199.55 1341.7 1184.43 1348.86z"/>
<path style="fill:#b3da9b; stroke:none;" d="M1286 1349L1285 1352L1286 1349z"/>
<path style="fill:#b1b2d1; stroke:none;" d="M1609.33 1349.67L1609.67 1350.33L1609.33 1349.67z"/>
<path style="fill:#85c330; stroke:none;" d="M1238.1 1354.74C1227.84 1359.1 1235.41 1375.66 1245.98 1370.77C1256.26 1366.02 1248.95 1350.14 1238.1 1354.74z"/>
<path style="fill:#b3b5cc; stroke:none;" d="M1610.33 1354.67L1610.67 1355.33L1610.33 1354.67z"/>
<path style="fill:#8a8fa5; stroke:none;" d="M1611.33 1358.67L1611.67 1359.33L1611.33 1358.67z"/>
<path style="fill:#b7b9d2; stroke:none;" d="M1612.33 1364.67L1612.67 1365.33L1612.33 1364.67z"/>
<path style="fill:#8589a4; stroke:none;" d="M1613.33 1368.67L1613.67 1369.33L1613.33 1368.67z"/>
<path style="fill:#55754c; stroke:none;" d="M1188 1373L1188 1374L1192 1374L1188 1373z"/>
<path style="fill:#9094b1; stroke:none;" d="M1614 1373L1614 1376L1615 1376L1614 1373z"/>
<path style="fill:#86c02e; stroke:none;" d="M1280 1375.57C1266.96 1379.32 1273.94 1399.06 1286.91 1395.58C1301.12 1391.77 1293.89 1371.58 1280 1375.57z"/>
<path style="fill:#8686a0; stroke:none;" d="M1615.33 1378.67L1615.67 1379.33L1615.33 1378.67z"/>
<path style="fill:#82c331; stroke:none;" d="M1212.04 1381.02C1195.88 1389.24 1207.98 1412.94 1224 1404.08C1238.74 1395.92 1225.51 1374.17 1212.04 1381.02z"/>
<path style="fill:#9699ba; stroke:none;" d="M1616.33 1384.67L1616.67 1385.33L1616.33 1384.67z"/>
<path style="fill:#83c233; stroke:none;" d="M1322 1386.56C1304 1391.21 1310.71 1414.93 1329 1410.47C1344.75 1406.63 1337.88 1382.45 1322 1386.56z"/>
<path style="fill:#e8f9d5; stroke:none;" d="M1335 1389C1339.21 1399.13 1338.73 1405.65 1328 1411L1328 1412C1337.78 1409.65 1346.66 1395.64 1335 1389z"/>
<path style="fill:#8f95b9; stroke:none;" d="M1617 1389L1617 1392L1618 1392L1617 1389z"/>
<path style="fill:#80809c; stroke:none;" d="M1618 1394L1618 1397L1619 1397L1618 1394z"/>
<path style="fill:#606d73; stroke:none;" d="M1190 1395L1189 1405C1178.41 1405.83 1156.88 1397.83 1156 1414L1157 1414C1161.65 1400.44 1179.05 1407 1190 1407L1190 1395z"/>
<path style="fill:#b8d489; stroke:none;" d="M1338 1396L1338 1401L1339 1401L1338 1396z"/>
<path style="fill:#83c331; stroke:none;" d="M1242 1398.65C1216.65 1406.48 1229.75 1446.94 1255 1438.78C1281.56 1430.19 1268.26 1390.54 1242 1398.65z"/>
<path style="fill:#8b8ca8; stroke:none;" d="M1619.33 1400.67L1619.67 1401.33L1619.33 1400.67z"/>
<path style="fill:#9495b3; stroke:none;" d="M1620.33 1406.67L1620.67 1407.33L1620.33 1406.67z"/>
<path style="fill:#99ab91; stroke:none;" d="M1180 1407L1180 1408L1190 1408L1180 1407z"/>
<path style="fill:#bdbdd5; stroke:none;" d="M678 1408L678 1435L679 1435L678 1408z"/>
<path style="fill:#bade84; stroke:none;" d="M1323 1411L1323 1412L1328 1412L1323 1411z"/>
<path style="fill:#757790; stroke:none;" d="M1621 1411L1621 1414L1622 1414L1621 1411z"/>
<path style="fill:#b2db4f; stroke:none;" d="M1454 1414.48C1428.15 1417.47 1432.49 1456.57 1458 1453.83C1483.37 1451.1 1479.59 1411.52 1454 1414.48z"/>
<path style="fill:#b3d17b; stroke:none;" d="M1156 1415C1156.27 1427.38 1164.59 1431.72 1176 1429L1176 1428C1164.26 1429.45 1160.76 1424.81 1156 1415z"/>
<path style="fill:#9fa1ba; stroke:none;" d="M1622.33 1418.67L1622.67 1419.33L1622.33 1418.67z"/>
<path style="fill:#84c432; stroke:none;" d="M1282.57 1421.03C1274.84 1426.45 1285.02 1439.1 1292.77 1433.26C1301.48 1426.69 1290.31 1415.61 1282.57 1421.03z"/>
<path style="fill:#82c331; stroke:none;" d="M1210.04 1422.7C1200.93 1425.2 1206.54 1438.76 1214.82 1436.67C1223.92 1434.37 1219.65 1420.06 1210.04 1422.7z"/>
<path style="fill:#9799ae; stroke:none;" d="M1623 1424L1623 1427L1624 1427L1623 1424z"/>
<path style="fill:#8c8dab; stroke:none;" d="M1624.33 1430.67L1624.67 1431.33L1624.33 1430.67z"/>
<path style="fill:#d9f2a1; stroke:none;" d="M1475 1436L1475 1440L1476 1440L1475 1436z"/>
<path style="fill:#9c9fc2; stroke:none;" d="M1625 1437L1625 1440L1626 1440L1625 1437z"/>
<path style="fill:#5e724f; stroke:none;" d="M1200 1442L1202 1445L1200 1442z"/>
<path style="fill:#7e7f9b; stroke:none;" d="M1626.33 1443.67L1626.67 1444.33L1626.33 1443.67z"/>
<path style="fill:#8287a4; stroke:none;" d="M1627 1450L1627 1453L1628 1453L1627 1450z"/>
<path style="fill:#a0a2c9; stroke:none;" d="M679 1451L679 1464L680 1464L679 1451z"/>
<path style="fill:#84c02d; stroke:none;" d="M1251.32 1452.03C1246.02 1455.54 1252.19 1464.39 1257.57 1460.82C1263.32 1456.99 1257.17 1448.15 1251.32 1452.03z"/>
<path style="fill:#bed096; stroke:none;" d="M1328 1456L1328 1464L1329 1464L1328 1456z"/>
<path style="fill:#e7f4bf; stroke:none;" d="M1280 1461L1280 1462L1286 1458L1280 1461z"/>
<path style="fill:#6c7e68; stroke:none;" d="M1192 1459L1190 1472L1191 1472L1194 1459L1192 1459z"/>
<path style="fill:#adaeca; stroke:none;" d="M1628.33 1459.67L1628.67 1460.33L1628.33 1459.67z"/>
<path style="fill:#b5cf86; stroke:none;" d="M1191 1464L1191 1472L1192 1472L1191 1464z"/>
<path style="fill:#daeac3; stroke:none;" d="M1268 1466L1268 1467L1275 1465L1268 1466z"/>
<path style="fill:#5b6a7d; stroke:none;" d="M1232 1467L1232 1468C1235.98 1468.82 1245.64 1468.81 1247.97 1472.32C1254.13 1481.57 1238.88 1496.87 1255 1503.11C1256.9 1503.84 1258.99 1503.97 1261 1503.97C1264.03 1503.98 1267 1503.38 1270 1503L1275 1485L1274 1485C1273.73 1497.61 1259.1 1510.98 1250.23 1496C1245.83 1488.57 1251 1477.35 1251 1469L1232 1467z"/>
<path style="fill:#82c42f; stroke:none;" d="M1249 1492L1253 1491L1251 1494C1255.01 1504.23 1270.38 1502.5 1273.43 1491.99C1275.55 1484.65 1266.92 1474.99 1266 1467L1254.51 1469.32L1249 1492z"/>
<path style="fill:#aaadcc; stroke:none;" d="M1629.33 1467.67L1629.67 1468.33L1629.33 1467.67z"/>
<path style="fill:#999db6; stroke:none;" d="M1665 1467L1666 1468L1665 1467z"/>
<path style="fill:#8cc253; stroke:none;" d="M1251 1469C1251 1476.69 1246.67 1485.68 1248.56 1493C1251.48 1504.35 1264.39 1505.53 1271 1497C1262.44 1500.22 1256.63 1503.62 1251 1494L1253 1491L1249 1492L1253 1469L1251 1469z"/>
<path style="fill:#9fa2cf; stroke:none;" d="M1137.33 1470.67L1137.67 1471.33L1137.33 1470.67z"/>
<path style="fill:#606b7f; stroke:none;" d="M1266 1470C1266.18 1475.94 1268.75 1481.9 1274 1485L1266 1470z"/>
<path style="fill:#c1c1dd; stroke:none;" d="M680 1475L680 1483L681 1483L680 1475z"/>
<path style="fill:#72748b; stroke:none;" d="M1631 1482L1631 1485L1632 1485L1631 1482z"/>
<path style="fill:#b2b4c9; stroke:none;" d="M1631 1485L1631 1488L1632 1488L1631 1485z"/>
<path style="fill:#d2d5f6; stroke:none;" d="M681 1491L681 1499L682 1499L681 1491z"/>
<path style="fill:#b4b5d1; stroke:none;" d="M1632 1493L1632 1498L1633 1498L1632 1493z"/>
<path style="fill:#9496af; stroke:none;" d="M1642 1498L1643 1499L1642 1498z"/>
<path style="fill:#9093b6; stroke:none;" d="M681 1499L681 1504L682 1504L681 1499z"/>
<path style="fill:#9396b5; stroke:none;" d="M1639 1502L1640 1503L1639 1502z"/>
<path style="fill:#9495a9; stroke:none;" d="M1633 1504L1633 1510L1634 1510L1633 1504z"/>
<path style="fill:#e9adaf; stroke:none;" d="M1488 1507L1488 1508L1515 1508L1488 1507z"/>
<path style="fill:#9e9fb3; stroke:none;" d="M1635 1507L1636 1508L1635 1507z"/>
<path style="fill:#f28080; stroke:none;" d="M1462 1510L1462 1512C1498.35 1514.87 1538.33 1536.72 1555.14 1570.04C1576.66 1612.71 1557.06 1659.68 1521.88 1687.81C1513.91 1694.19 1503.9 1702.09 1494 1705C1498.43 1706.54 1503.76 1703.6 1508 1702.05C1519.27 1697.93 1530.18 1693.53 1541 1688.36C1562.96 1677.89 1584.86 1662.76 1598.2 1642C1616.5 1613.51 1612.85 1573.09 1595.54 1545C1568.33 1500.84 1506.22 1506.51 1462 1510z"/>
<path style="fill:#ffaea2; stroke:none;" d="M1147 1576L1141 1585C1155.65 1593.64 1170.76 1598.63 1181.22 1613C1209.16 1651.4 1188.57 1700.68 1146 1716C1148.57 1724.05 1158.02 1735.49 1166.29 1738.44C1173.21 1740.91 1183.68 1739 1191 1739L1244 1739C1309.24 1739 1375.9 1732.61 1440 1720C1475.57 1713 1510.52 1704.18 1535.58 1675.96C1544.45 1665.97 1554.09 1654.48 1558.57 1641.7C1581.59 1575.94 1526.05 1513.98 1459.83 1510.54C1436.59 1509.34 1410.61 1518.9 1388 1523.49C1337.01 1533.84 1286.49 1547.03 1236 1559.75C1215.14 1565 1194.13 1569.32 1173 1573.26C1164.35 1574.87 1155.57 1579.26 1147 1576z"/>
<path style="fill:#a2a1c0; stroke:none;" d="M682 1512L682 1520L683 1520L682 1512z"/>
<path style="fill:#28315a; stroke:none;" d="M1285 1514C1258.18 1535.12 1219.97 1555.56 1184 1547C1185.14 1551.81 1188.7 1566.23 1193.42 1568.38C1199.74 1571.27 1214.46 1564.85 1221 1563.35C1245.06 1557.83 1269.54 1549.16 1294 1546C1293.18 1536.55 1290.74 1521.67 1285 1514z"/>
<path style="fill:#ffc3b9; stroke:none;" d="M1425 1522.42C1401.9 1525.46 1378.01 1527.11 1356 1535.8C1349.21 1538.48 1336.51 1542.03 1336.16 1550.96C1335.84 1559.4 1349.75 1561.63 1356 1562.67C1378.32 1566.39 1401.77 1563.48 1424 1560.72C1442.45 1558.42 1462.04 1554.71 1479 1546.97C1483.87 1544.75 1494.04 1540.28 1494.55 1533.95C1495.07 1527.49 1483.48 1525.71 1479 1524.8C1461.89 1521.32 1442.42 1520.14 1425 1522.42z"/>
<path style="fill:#aeb1d2; stroke:none;" d="M683 1525L683 1531L684 1531L683 1525z"/>
<path style="fill:#656a87; stroke:none;" d="M1289.33 1525.67L1289.67 1526.33L1289.33 1525.67z"/>
<path style="fill:#716f87; stroke:none;" d="M1292.33 1537.67L1292.67 1538.33L1292.33 1537.67z"/>
<path style="fill:#474d7f; stroke:none;" d="M1185 1547L1185 1548L1203 1548L1185 1547z"/>
<path style="fill:#82697e; stroke:none;" d="M1285 1547L1285 1548L1288 1548L1285 1547z"/>
<path style="fill:#8f6d7b; stroke:none;" d="M1277 1549L1277 1550L1280 1550L1277 1549z"/>
<path style="fill:#bdc1de; stroke:none;" d="M685 1550L685 1555L686 1555L685 1550z"/>
<path style="fill:#8c748c; stroke:none;" d="M1261 1553L1261 1554L1264 1554L1261 1553z"/>
<path style="fill:#997c90; stroke:none;" d="M1253 1555L1253 1556L1256 1556L1253 1555z"/>
<path style="fill:#775669; stroke:none;" d="M1248.67 1556.33L1249.33 1556.67L1248.67 1556.33z"/>
<path style="fill:#b57e91; stroke:none;" d="M1241.67 1558.33L1242.33 1558.67L1241.67 1558.33z"/>
<path style="fill:#9b6975; stroke:none;" d="M1232.67 1560.33L1233.33 1560.67L1232.67 1560.33z"/>
<path style="fill:#997788; stroke:none;" d="M1228.67 1561.33L1229.33 1561.67L1228.67 1561.33z"/>
<path style="fill:#a87884; stroke:none;" d="M1224.67 1562.33L1225.33 1562.67L1224.67 1562.33z"/>
<path style="fill:#9d9eba; stroke:none;" d="M686 1563L686 1568L687 1568L686 1563z"/>
<path style="fill:#a36f7b; stroke:none;" d="M1215 1564L1215 1565L1218 1565L1215 1564z"/>
<path style="fill:#9e7883; stroke:none;" d="M1192 1569L1192 1570L1195 1570L1192 1569z"/>
<path style="fill:#b4bcc7; stroke:none;" d="M1128 1573L1128 1574L1136 1574L1128 1573z"/>
<path style="fill:#999dc2; stroke:none;" d="M687 1574L687 1579L688 1579L687 1574z"/>
<path style="fill:#969cb2; stroke:none;" d="M1122 1574L1122 1575L1125 1575L1122 1574z"/>
<path style="fill:#28315a; stroke:none;" d="M1115 1577L1115 1578C1164.87 1589.43 1185.94 1651.65 1145 1686.7C1138.35 1692.39 1130.32 1696.77 1122 1699.48C1106.76 1704.43 1089.99 1702.14 1076 1694.68C1070.29 1691.63 1065.8 1686.69 1060 1684C1064.74 1694.62 1077.25 1703.02 1088 1706.76C1091.4 1707.94 1095.77 1707.24 1098.86 1709.03C1103.35 1711.64 1105.51 1719.58 1108.98 1723.56C1124.67 1741.64 1137.1 1747.46 1161 1742L1150 1731.68L1134 1708C1190.12 1691.96 1194.45 1607.37 1141 1585L1148 1577C1137.38 1572.51 1125.73 1573.59 1115 1577z"/>
<path style="fill:#747a90; stroke:none;" d="M1138 1574L1138 1575L1141 1575L1138 1574z"/>
<path style="fill:#b7bcd0; stroke:none;" d="M1144.67 1575.33L1145.33 1575.67L1144.67 1575.33z"/>
<path style="fill:#9ca0b9; stroke:none;" d="M1116.67 1578.33L1117.33 1578.67L1116.67 1578.33z"/>
<path style="fill:#60667c; stroke:none;" d="M1102 1579L1102 1580L1112 1580L1102 1579z"/>
<path style="fill:#9198ab; stroke:none;" d="M1096.67 1580.33L1097.33 1580.67L1096.67 1580.33z"/>
<path style="fill:#28315a; stroke:none;" d="M1098 1580.44C1038.82 1589.76 1027.12 1679.72 1087 1697.56C1096.42 1700.37 1106.4 1700.32 1116 1698.71C1124.17 1697.35 1132.21 1694.33 1139 1689.56C1188.19 1655.03 1160.05 1570.67 1098 1580.44z"/>
<path style="fill:#ffaea2; stroke:none;" d="M904 1584L904 1585L907 1585C907.007 1646.39 924.831 1707.61 925 1769L848 1769L848 1770C881.606 1770 916.344 1773.28 949 1764.51C971.238 1758.54 993.414 1751.14 1014.96 1742.99C1024.9 1739.23 1035.58 1732.46 1046 1730.51C1051.33 1729.52 1059.5 1732 1065 1732.72C1080.54 1734.74 1101.75 1739.51 1117 1735C1112.27 1728.28 1105.03 1715.71 1098.47 1710.98C1088.43 1703.76 1076.63 1701.7 1067.09 1692.71C1045.66 1672.53 1036.58 1642.35 1047.58 1615C1051.72 1604.73 1059.52 1598.48 1066 1590L904 1584z"/>
<path style="fill:#f28080; stroke:none;" d="M804 1668C806.146 1694.96 818.392 1723.13 832.204 1746C836.028 1752.33 841.934 1765.53 849.093 1768.4C855.298 1770.88 865.366 1769 872 1769L925 1769C924.959 1707.61 907.041 1646.38 907 1585C896.734 1585.22 886.704 1590.1 877 1593.12C856.954 1599.34 836.986 1605.84 817 1612.26C806.215 1615.72 789.157 1617.66 780.213 1624.7C769.093 1633.45 773.05 1655.88 783.015 1663.58C789.12 1668.3 796.716 1668 804 1668z"/>
<path style="fill:#878da3; stroke:none;" d="M1133 1586L1134 1587L1133 1586z"/>
<path style="fill:#92a0ad; stroke:none;" d="M1140 1588L1141 1589L1140 1588z"/>
<path style="fill:#ffaeab; stroke:none;" d="M1045 1651L1046 1651C1046 1628.02 1055.16 1601.33 1077 1590C1070.12 1587.13 1063.76 1594.52 1059.44 1599.17C1045.45 1614.24 1044.17 1631.76 1045 1651z"/>
<path style="fill:#8e99ad; stroke:none;" d="M1144 1591L1145 1592L1144 1591z"/>
<path style="fill:#f28080; stroke:none;" d="M1156 1594C1163.84 1605.13 1172.96 1613.4 1176.96 1627C1187.05 1661.36 1165.76 1694.97 1134 1708C1137.62 1720.56 1150.63 1739.71 1165 1739L1146 1716C1180.21 1706.86 1201.17 1670.39 1192.62 1636C1189.05 1621.63 1173.75 1592.81 1156 1594z"/>
<path style="fill:#f2d5cd; stroke:none;" d="M1610 1594L1610 1603L1611 1603L1610 1594z"/>
<path style="fill:#878ba6; stroke:none;" d="M1109 1596L1109 1597L1115 1597L1109 1596z"/>
<path style="fill:#ffffff; stroke:none;" d="M1103 1597.46C1056.24 1605.89 1051.24 1676.83 1097 1690.96C1104.84 1693.38 1113.92 1693.84 1122 1692.38C1172.07 1683.37 1173.55 1610.88 1125 1598.16C1118.28 1596.4 1109.84 1596.23 1103 1597.46z"/>
<path style="fill:#f34673; stroke:none;" d="M1107 1609C1107.32 1616.4 1109.62 1624.65 1108.81 1632C1108.01 1639.29 1097.17 1647.66 1108.05 1653.68C1120.82 1660.74 1119.45 1644.76 1124.32 1639.75C1126.53 1637.46 1136.06 1632.52 1133.82 1628.36C1130.68 1622.52 1120.58 1639.01 1115.6 1634.42C1108.74 1628.09 1119.27 1609.96 1107 1609z"/>
<path style="fill:#8b8e9f; stroke:none;" d="M1159 1609L1160 1610L1159 1609z"/>
<path style="fill:#f0a6b7; stroke:none;" d="M1107 1614L1107 1620L1108 1620L1107 1614z"/>
<path style="fill:#9697b5; stroke:none;" d="M692 1619L692 1624L693 1624L692 1619z"/>
<path style="fill:#8f94b2; stroke:none;" d="M1070 1621L1071 1622L1070 1621z"/>
<path style="fill:#f48dab; stroke:none;" d="M1113 1621L1113 1626L1114 1626L1113 1621z"/>
<path style="fill:#959ebd; stroke:none;" d="M1163.33 1624.67L1163.67 1625.33L1163.33 1624.67z"/>
<path style="fill:#9099b6; stroke:none;" d="M1165.33 1624.67L1165.67 1625.33L1165.33 1624.67z"/>
<path style="fill:#f7b0c2; stroke:none;" d="M1114 1629L1114 1635L1115 1635L1114 1629z"/>
<path style="fill:#5d687a; stroke:none;" d="M1164 1629L1164 1634L1165 1634L1164 1629z"/>
<path style="fill:#8c93a6; stroke:none;" d="M1166.33 1629.67L1166.67 1630.33L1166.33 1629.67z"/>
<path style="fill:#95788c; stroke:none;" d="M1047.33 1632.67L1047.67 1633.33L1047.33 1632.67z"/>
<path style="fill:#966d7d; stroke:none;" d="M1046 1638L1046 1651L1047 1651L1046 1638z"/>
<path style="fill:#acb2ca; stroke:none;" d="M1064 1640L1064 1650L1065 1650L1064 1640z"/>
<path style="fill:#676d8d; stroke:none;" d="M1161 1640L1161 1648L1162 1648L1161 1640z"/>
<path style="fill:#a36d7b; stroke:none;" d="M1179 1640L1179 1650L1180 1650L1179 1640z"/>
<path style="fill:#d2768d; stroke:none;" d="M1122 1643L1122 1647L1123 1647L1122 1643z"/>
<path style="fill:#636f7b; stroke:none;" d="M1164 1645L1164 1648L1165 1648L1164 1645z"/>
<path style="fill:#b5bbd3; stroke:none;" d="M1166 1645L1166 1648L1167 1648L1166 1645z"/>
<path style="fill:#b5bec3; stroke:none;" d="M1164.33 1648.67L1164.67 1649.33L1164.33 1648.67z"/>
<path style="fill:#6b7187; stroke:none;" d="M1166.33 1648.67L1166.67 1649.33L1166.33 1648.67z"/>
<path style="fill:#bfc0dc; stroke:none;" d="M696 1650L696 1653L697 1653L696 1650z"/>
<path style="fill:#a5a8b9; stroke:none;" d="M1160.33 1652.67L1160.67 1653.33L1160.33 1652.67z"/>
<path style="fill:#a8aec8; stroke:none;" d="M1065.33 1654.67L1065.67 1655.33L1065.33 1654.67z"/>
<path style="fill:#bdc1dc; stroke:none;" d="M698.333 1664.67L698.667 1665.33L698.333 1664.67z"/>
<path style="fill:#8e95a5; stroke:none;" d="M1069 1666L1070 1667L1069 1666z"/>
<path style="fill:#f3b5b8; stroke:none;" d="M798 1668L798 1669L804 1669L798 1668z"/>
<path style="fill:#8f96a9; stroke:none;" d="M1159 1669L1160 1670L1159 1669z"/>
<path style="fill:#9893a9; stroke:none;" d="M1053 1671L1054 1672L1053 1671z"/>
<path style="fill:#9da1ad; stroke:none;" d="M1153 1671L1154 1672L1153 1671z"/>
<path style="fill:#908498; stroke:none;" d="M1055 1674L1056 1675L1055 1674z"/>
<path style="fill:#9297ad; stroke:none;" d="M1074 1674L1075 1675L1074 1674z"/>
<path style="fill:#8a91ad; stroke:none;" d="M1156 1674L1157 1675L1156 1674z"/>
<path style="fill:#9197b1; stroke:none;" d="M1152 1676L1153 1677L1152 1676z"/>
<path style="fill:#c0bfdf; stroke:none;" d="M700 1677L700 1680L701 1680L700 1677z"/>
<path style="fill:#828da3; stroke:none;" d="M1153 1678L1154 1679L1153 1678z"/>
<path style="fill:#87889c; stroke:none;" d="M1059 1679L1060 1680L1059 1679z"/>
<path style="fill:#80626a; stroke:none;" d="M1057 1680L1060 1685L1057 1680z"/>
<path style="fill:#979cb2; stroke:none;" d="M1083 1683L1084 1684L1083 1683z"/>
<path style="fill:#979bb8; stroke:none;" d="M1141 1687L1142 1688L1141 1687z"/>
<path style="fill:#848ca3; stroke:none;" d="M1072 1690L1073 1691L1072 1690z"/>
<path style="fill:#989eb6; stroke:none;" d="M1075 1692L1076 1693L1075 1692z"/>
<path style="fill:#a8aec4; stroke:none;" d="M1102.67 1692.33L1103.33 1692.67L1102.67 1692.33z"/>
<path style="fill:#969eb1; stroke:none;" d="M1121.67 1692.33L1122.33 1692.67L1121.67 1692.33z"/>
<path style="fill:#989db0; stroke:none;" d="M1073 1693L1074 1694L1073 1693z"/>
<path style="fill:#959bb5; stroke:none;" d="M1107 1693L1107 1694L1118 1694L1107 1693z"/>
<path style="fill:#818ca8; stroke:none;" d="M1127 1695L1128 1696L1127 1695z"/>
<path style="fill:#afb1e1; stroke:none;" d="M703 1696L703 1699L704 1699L703 1696z"/>
<path style="fill:#9f9db3; stroke:none;" d="M1079 1696L1080 1697L1079 1696z"/>
<path style="fill:#afb7ce; stroke:none;" d="M1117.67 1698.33L1118.33 1698.67L1117.67 1698.33z"/>
<path style="fill:#8b96ac; stroke:none;" d="M1096 1699L1096 1700L1099 1700L1096 1699z"/>
<path style="fill:#777f92; stroke:none;" d="M1110 1699L1110 1700L1113 1700L1110 1699z"/>
<path style="fill:#6c738f; stroke:none;" d="M1121.67 1699.33L1122.33 1699.67L1121.67 1699.33z"/>
<path style="fill:#9197b7; stroke:none;" d="M1090.67 1700.33L1091.33 1700.67L1090.67 1700.33z"/>
<path style="fill:#6e7689; stroke:none;" d="M1117.67 1700.33L1118.33 1700.67L1117.67 1700.33z"/>
<path style="fill:#7b7f88; stroke:none;" d="M1095 1701L1095 1702L1098 1702L1095 1701z"/>
<path style="fill:#9fa7bc; stroke:none;" d="M1110 1701L1110 1702L1113 1702L1110 1701z"/>
<path style="fill:#a19cba; stroke:none;" d="M705.333 1708.67L705.667 1709.33L705.333 1708.67z"/>
<path style="fill:#41283e; stroke:none;" d="M1092 1708L1092 1709L1100 1710C1101.81 1720.05 1110.88 1730.28 1119 1736L1105.44 1718L1099.7 1709.03L1092 1708z"/>
<path style="fill:#8e636c; stroke:none;" d="M1099.33 1710.67L1099.67 1711.33L1099.33 1710.67z"/>
<path style="fill:#9f9fb7; stroke:none;" d="M708.333 1724.67L708.667 1725.33L708.333 1724.67z"/>
<path style="fill:#f3f3ff; stroke:none;" d="M1160 1739L1160 1740L1162 1742C1154.33 1743.49 1146.92 1745.99 1139 1744.67C1131.56 1743.43 1125.34 1738.45 1118 1737.3C1103.49 1735.04 1088.57 1735.62 1074 1733.72C1065.72 1732.64 1054.1 1729.08 1046 1730.28C1036.15 1731.74 1025.12 1738.41 1015.91 1742.25C997.945 1749.75 978.691 1755.82 960 1761.22C925.605 1771.15 892.532 1770 857 1770L867.731 1793L872 1803L872 1804C886.536 1805.15 903.635 1811.42 918 1808C921.174 1811.63 930.331 1810.81 935 1811.04C950.079 1811.77 964.86 1812.82 980 1813C1019.66 1813.48 1059.55 1812.57 1099 1807.84C1113.73 1806.08 1128.38 1803.69 1143 1801.25C1150.86 1799.93 1159 1797.15 1167 1798C1172.18 1793.46 1194.97 1794.89 1196 1788L1227 1783C1238.16 1773.82 1262.34 1777.97 1271 1766C1278.91 1767.17 1286.87 1762.01 1294 1759.21C1313.18 1751.66 1331.81 1741.37 1351.29 1734.75C1364.05 1730.41 1378.93 1732.91 1392 1729L1375 1729.95L1331 1734.96L1160 1739z"/>
<path style="fill:#a7a6c6; stroke:none;" d="M710.333 1734.67L710.667 1735.33L710.333 1734.67z"/>
<path style="fill:#f1cfc6; stroke:none;" d="M1107 1736L1107 1737L1121 1738L1107 1736z"/>
<path style="fill:#f9d0cc; stroke:none;" d="M1280 1737L1280 1738L1296 1738L1280 1737z"/>
<path style="fill:#bbbadc; stroke:none;" d="M711.333 1738.67L711.667 1739.33L711.333 1738.67z"/>
<path style="fill:#fdd4d0; stroke:none;" d="M1184 1739L1184 1740L1232 1740C1219.59 1734.79 1197.53 1739 1184 1739z"/>
<path style="fill:#778495; stroke:none;" d="M1161.33 1740.67L1161.67 1741.33L1161.33 1740.67z"/>
<path style="fill:#b4aec8; stroke:none;" d="M1158.67 1742.33L1159.33 1742.67L1158.67 1742.33z"/>
<path style="fill:#6d7288; stroke:none;" d="M1137 1744L1137 1745L1141 1745L1137 1744z"/>
<path style="fill:#9fa4ba; stroke:none;" d="M1149 1744L1149 1745L1152 1745L1149 1744z"/>
<path style="fill:#a1a5c0; stroke:none;" d="M713.333 1748.67L713.667 1749.33L713.333 1748.67z"/>
<path style="fill:#b7b8d7; stroke:none;" d="M714.333 1752.67L714.667 1753.33L714.333 1752.67z"/>
<path style="fill:#bdbdbf; stroke:none;" d="M763 1778L763 1779L766 1779L763 1778z"/>
<path style="fill:#c8c8ca; stroke:none;" d="M767.667 1779.33L768.333 1779.67L767.667 1779.33z"/>
<path style="fill:#bbbbbd; stroke:none;" d="M770.667 1780.33L771.333 1780.67L770.667 1780.33z"/>
<path style="fill:#bcbcbe; stroke:none;" d="M773 1781L773 1782L776 1782L773 1781z"/>
<path style="fill:#c2c2c4; stroke:none;" d="M777.667 1782.33L778.333 1782.67L777.667 1782.33z"/>
<path style="fill:#b6b6b8; stroke:none;" d="M784 1784L784 1785L787 1785L784 1784M788.667 1785.33L789.333 1785.67L788.667 1785.33z"/>
<path style="fill:#c5c5c7; stroke:none;" d="M792.667 1786.33L793.333 1786.67L792.667 1786.33z"/>
<path style="fill:#bdbdbf; stroke:none;" d="M796.667 1787.33L797.333 1787.67L796.667 1787.33z"/>
<path style="fill:#b7b6bb; stroke:none;" d="M799 1788L799 1789L802 1789L799 1788z"/>
<path style="fill:#b6b5ba; stroke:none;" d="M803 1789L803 1790L806 1790L803 1789z"/>
<path style="fill:#b9b8bd; stroke:none;" d="M807 1790L807 1791L810 1791L807 1790z"/>
<path style="fill:#bdbdbf; stroke:none;" d="M812.667 1791.33L813.333 1791.67L812.667 1791.33z"/>
<path style="fill:#bebec0; stroke:none;" d="M816 1792L816 1793L819 1793L816 1792z"/>
<path style="fill:#b0afb4; stroke:none;" d="M820 1793L820 1794L823 1794L820 1793M825 1794L825 1795L828 1795L825 1794z"/>
<path style="fill:#b8b7bc; stroke:none;" d="M829 1795L829 1796L832 1796L829 1795z"/>
<path style="fill:#b1b1b3; stroke:none;" d="M834 1796L834 1797L837 1797L834 1796z"/>
<path style="fill:#b0b0b2; stroke:none;" d="M839 1797L839 1798L842 1798L839 1797z"/>
<path style="fill:#b5b5b7; stroke:none;" d="M844 1798L844 1799L847 1799L844 1798z"/>
<path style="fill:#bcbbc0; stroke:none;" d="M849 1799L849 1800L853 1800L849 1799z"/>
<path style="fill:#c8c7cc; stroke:none;" d="M854 1800L854 1801L858 1801L854 1800z"/>
<path style="fill:#bbbabf; stroke:none;" d="M860 1801L860 1802L864 1802L860 1801z"/>
<path style="fill:#bdbfbe; stroke:none;" d="M866 1802L866 1803L870 1803L866 1802z"/>
<path style="fill:#cdced3; stroke:none;" d="M1124 1803L1124 1804L1128 1804L1124 1803z"/>
<path style="fill:#d4d3db; stroke:none;" d="M1061 1810L1061 1811L1070 1811L1061 1810z"/>
<path style="fill:#d2d1d9; stroke:none;" d="M1048 1811L1048 1812L1058 1812L1048 1811z"/>
<path style="fill:#d1d0d8; stroke:none;" d="M1024 1812L1024 1813L1040 1813L1024 1812z"/>
</svg>
