<svg width="512" height="512" viewBox="0 0 512 512" fill="none" xmlns="http://www.w3.org/2000/svg">
<rect width="512" height="512" rx="256" fill="#56BECA"/>
<g clip-path="url(#clip0)">
<path d="M465.987 255.862C465.987 371.782 372.051 465.731 256.125 465.731C140.205 465.731 46.2626 371.782 46.2626 255.862C46.2691 139.949 140.205 46 256.125 46C372.051 46 465.987 139.949 465.987 255.862Z" fill="#FBBF67"/>
<path d="M225.091 362.444C227.164 357.752 218.948 350.211 211.25 344.207C185.184 372.268 152.509 394.305 116.717 411.735C126.613 420.604 137.317 428.527 148.69 435.399C162.353 426.678 175.452 417.3 186.726 406.006C198.545 394.128 218.22 377.931 225.091 362.444" fill="white"/>
<path d="M310.994 342.691C305.429 348.564 299.417 353.794 292.54 357.857C295.29 388.687 335.334 413.461 362.326 437.978C376.461 429.841 377.629 428.049 391.483 416.466C383.91 412.443 345.946 394.219 310.994 342.691" fill="white"/>
<path d="M458.223 223.187C431.173 286.476 342.277 355.159 276.462 356.879C259.38 357.318 259.36 383.864 276.462 383.424C350.697 381.521 434.224 344.515 464.884 272.892C471.526 257.345 464.956 207.497 458.223 223.187Z" fill="white"/>
<path d="M55.0957 221.127C82.1594 284.416 171.482 355.205 237.271 356.892C254.353 357.332 254.379 383.877 237.271 383.437C163.029 381.534 79.5082 344.528 48.8482 272.905C42.22 257.352 48.3691 205.429 55.0957 221.127" fill="white"/>
<path d="M148.027 318.173C148.027 253.48 192.094 254.681 252.181 254.681C312.319 254.681 365.712 253.473 365.712 318.173C365.712 382.952 316.979 435.419 256.873 435.419C196.787 435.419 148.027 382.952 148.027 318.173" fill="white"/>
<path d="M206.374 181.01C167.334 178.313 131.929 194.319 107.412 224.717C96.7807 237.907 115.444 256.807 126.174 243.479C146.754 217.97 173.536 205.272 206.374 207.549C223.489 208.73 223.358 182.178 206.374 181.037" fill="#2B4737"/>
<path d="M307.365 178.792C346.425 176.082 381.836 192.101 406.327 222.498C416.985 235.689 398.321 254.602 387.565 241.267C367.011 215.772 340.23 203.073 307.365 205.337C290.282 206.519 290.381 179.973 307.365 178.792Z" fill="#2B4737"/>
</g>
<defs>
<clipPath id="clip0">
<rect width="420" height="420" fill="white" transform="translate(46 46)"/>
</clipPath>
</defs>
</svg>
