<svg width="512" height="512" viewBox="0 0 512 512" fill="none" xmlns="http://www.w3.org/2000/svg">
<path d="M256.5 38.4688C136.641 38.4688 39.4688 135.641 39.4688 255.5C39.4688 375.359 136.641 472.531 256.5 472.531C376.359 472.531 473.531 375.359 473.531 255.5C473.531 135.641 376.359 38.4688 256.5 38.4688ZM59.3922 282.173L121.369 297.597C121.101 300.52 120.841 303.449 120.841 306.654C120.819 330.5 126.81 353.966 138.261 374.882L107.052 386.616C81.2181 357.26 64.6368 320.924 59.3922 282.173V282.173ZM256.5 454.445C206.93 454.445 161.578 436.186 126.701 406.076L152.571 396.201C177.472 426.767 214.801 446.249 256.5 446.249C298.199 446.249 335.528 426.767 360.436 396.201L386.306 406.076C351.437 436.179 306.084 454.445 256.5 454.445ZM138.934 306.647C138.934 264.753 165.962 256.339 209.563 256.339C217.557 256.339 225.66 256.614 233.596 256.882C248.861 257.417 264.139 257.417 279.404 256.882C287.362 256.614 295.457 256.339 303.437 256.339C347.053 256.339 374.073 264.753 374.073 306.647C374.073 373.652 321.327 428.163 256.5 428.163C191.673 428.163 138.934 373.652 138.934 306.647ZM405.948 386.609L374.739 374.874C386.19 353.959 392.181 330.492 392.159 306.647C392.159 303.442 391.906 300.512 391.638 297.59L453.608 282.166C448.376 320.921 431.793 357.26 405.948 386.609V386.609ZM385.25 273.094C368.38 238.369 324.619 238.26 303.437 238.26C295.255 238.26 286.949 238.535 278.796 238.818C263.942 239.338 249.073 239.338 234.218 238.818C226.004 238.49 217.784 238.305 209.563 238.26C188.381 238.26 144.628 238.376 127.757 273.094L57.5692 255.746L57.5547 255.5C57.5547 212.752 71.1553 173.137 94.1896 140.669C96.8446 144.3 101.243 147.505 103.102 145.878C114.667 136.115 128.242 129.022 142.861 125.104C157.48 121.187 172.782 120.541 187.679 123.212C191.875 124.03 195.579 108.592 190.494 107.615C162.156 102.585 132.957 108.026 108.333 122.923C144.794 82.2222 197.692 56.5547 256.5 56.5547C316.364 56.5547 370.101 83.17 406.599 125.144C381.596 109.383 351.612 103.519 322.514 108.7C317.428 109.677 321.117 125.122 325.313 124.297C355.466 118.886 386.494 127.191 409.89 146.963C411.851 148.663 416.626 145.067 419.208 141.233C442.821 174.654 455.482 214.579 455.445 255.5V255.739L385.25 273.094" fill="black"/>
<path d="M293.272 169.071C287.745 170.981 283.578 171.212 284.287 174.395C298.828 237.855 358.114 253.728 402.453 206.06C404.66 203.651 401.166 201.372 397.339 196.931C361.586 212.231 314.411 197.285 293.272 169.071Z" fill="black"/>
<path d="M219.742 169.056C196.44 200.164 148.107 210.813 115.69 196.945C111.863 201.365 108.355 203.651 110.561 206.06C154.901 253.749 214.172 237.855 228.742 174.395C229.436 171.212 225.284 170.974 219.742 169.056" fill="black"/>
</svg>
