<svg width="512" height="512" viewBox="0 0 512 512" fill="none" xmlns="http://www.w3.org/2000/svg">
<g clip-path="url(#clip0)">
<path d="M487.986 255.348C487.986 383.136 384.433 486.703 256.638 486.703C128.85 486.703 25.2894 383.136 25.2894 255.348C25.2967 127.567 128.85 24 256.638 24C384.433 24 487.986 127.567 487.986 255.348Z" fill="#FBBF67"/>
<path d="M222.426 372.842C224.712 367.669 215.655 359.357 207.169 352.737C178.434 383.671 142.414 407.964 102.958 427.179C113.866 436.956 125.666 445.69 138.203 453.266C153.265 443.652 167.705 433.314 180.134 420.863C193.163 407.769 214.852 389.915 222.426 372.842" fill="white"/>
<path d="M317.124 351.066C310.989 357.541 304.363 363.307 296.781 367.785C299.812 401.772 343.956 429.082 373.711 456.109C389.294 447.139 390.582 445.164 405.854 432.395C397.505 427.96 355.654 407.87 317.124 351.066" fill="white"/>
<path d="M479.427 219.328C449.607 289.096 351.61 364.811 279.057 366.707C260.226 367.192 260.204 396.455 279.057 395.97C360.892 393.872 452.971 353.077 486.77 274.121C494.091 256.983 486.85 202.031 479.427 219.328Z" fill="white"/>
<path d="M35.0269 217.057C64.8614 286.825 163.329 364.862 235.853 366.721C254.684 367.206 254.713 396.469 235.853 395.984C154.011 393.886 61.9387 353.092 28.1397 274.136C20.833 256.99 27.6116 199.752 35.0269 217.057" fill="white"/>
<path d="M137.473 324.038C137.473 252.722 186.052 254.046 252.29 254.046C318.585 254.046 377.444 252.715 377.444 324.038C377.444 395.449 323.722 453.288 257.462 453.288C191.224 453.288 137.473 395.449 137.473 324.038" fill="white"/>
<path d="M201.794 172.833C158.756 169.859 119.727 187.504 92.6994 221.014C80.9797 235.555 101.554 256.39 113.382 241.697C136.069 213.577 165.593 199.578 201.794 202.089C220.661 203.391 220.516 174.121 201.794 172.862" fill="#2B4737"/>
<path d="M313.123 170.388C356.182 167.4 395.219 185.059 422.218 218.569C433.966 233.11 413.392 253.959 401.535 239.259C378.877 211.153 349.353 197.155 313.123 199.651C294.292 200.953 294.401 171.69 313.123 170.388Z" fill="#2B4737"/>
</g>
<defs>
<clipPath id="clip0">
<rect width="463" height="463" fill="white" transform="translate(25 24)"/>
</clipPath>
</defs>
</svg>
