<?xml version="1.0" standalone="no"?>
<!DOCTYPE svg PUBLIC "-//W3C//DTD SVG 20010904//EN"
 "http://www.w3.org/TR/2001/REC-SVG-20010904/DTD/svg10.dtd">
<svg version="1.0" xmlns="http://www.w3.org/2000/svg"
 width="540.000000pt" height="540.000000pt" viewBox="0 0 540.000000 540.000000"
 preserveAspectRatio="xMidYMid meet">

<g transform="translate(0.000000,540.000000) scale(0.100000,-0.100000)"
fill="#000000" stroke="none">
<path d="M2664 4979 c-39 -4 -95 -12 -125 -18 -104 -22 -264 -121 -325 -201
-42 -55 -61 -61 -104 -30 -47 34 -110 51 -205 57 -77 5 -107 2 -200 -22 -110
-27 -260 -85 -345 -133 -156 -88 -208 -118 -235 -138 -33 -24 -199 -115 -310
-169 -143 -70 -374 -146 -491 -161 -80 -10 -82 -14 -37 -80 54 -79 101 -175
157 -317 64 -164 86 -258 86 -361 0 -81 -3 -91 -41 -169 -63 -126 -95 -223
-123 -364 -57 -292 -68 -426 -45 -535 7 -29 11 -53 10 -53 -2 0 7 -24 19 -54
15 -39 42 -75 100 -133 43 -44 83 -77 88 -74 13 8 29 -82 42 -233 12 -146 100
-603 100 -523 0 6 -4 44 -10 84 -67 502 -80 617 -86 793 -7 180 8 421 36 590
47 273 207 781 240 760 6 -4 10 5 10 20 0 35 29 90 111 210 71 106 261 333
286 342 7 3 33 25 56 50 23 24 83 77 132 117 371 302 808 478 1305 527 152 14
494 6 660 -16 114 -15 307 -52 323 -62 5 -3 -22 -25 -60 -50 -37 -24 -77 -54
-88 -65 -11 -11 7 -3 40 18 93 59 230 112 346 134 91 17 255 13 342 -9 169
-43 339 -151 444 -284 74 -94 75 -95 53 -49 -38 77 -89 139 -172 207 -120 98
-193 131 -353 160 -132 24 -249 18 -386 -21 -56 -16 -59 -16 -190 15 -74 17
-161 38 -194 46 -65 17 -285 45 -351 45 -30 0 -51 8 -78 29 -65 52 -130 89
-176 101 -67 18 -176 26 -256 19z"/>
<path d="M3937 4619 c-128 -13 -241 -44 -339 -93 -47 -25 -88 -42 -91 -40 -5
5 -97 -96 -97 -107 0 -3 20 14 45 38 54 51 198 123 310 154 57 16 110 22 185
23 l105 1 105 -49 c115 -54 226 -128 307 -203 218 -204 336 -387 448 -698 78
-214 135 -530 135 -745 0 -107 19 -105 22 3 7 264 -21 453 -103 702 -95 283
-255 556 -402 684 -34 29 -71 63 -82 76 -21 23 -184 143 -223 164 -32 17 -62
43 -62 54 0 17 119 -9 195 -43 22 -10 76 -33 120 -51 44 -18 91 -40 105 -49
45 -30 54 -34 46 -21 -9 15 -145 89 -216 118 -165 68 -352 98 -513 82z"/>
<path d="M3536 4524 c-15 -14 -26 -27 -24 -29 2 -3 17 9 33 25 35 36 30 39 -9
4z"/>
<path d="M4680 4406 c0 -3 9 -10 20 -16 11 -6 20 -8 20 -6 0 3 -9 10 -20 16
-11 6 -20 8 -20 6z"/>
<path d="M4875 4236 c10 -14 19 -26 22 -26 7 0 -17 39 -28 46 -6 3 -3 -5 6
-20z"/>
<path d="M3059 3913 c-83 -250 -191 -477 -322 -673 -43 -65 -47 -67 -119 -60
-84 8 -299 -20 -413 -55 -130 -40 -135 -40 -135 -19 0 14 53 233 75 310 3 10
-2 4 -11 -15 -8 -19 -32 -100 -52 -180 l-37 -146 -91 -45 c-92 -46 -148 -80
-141 -86 2 -2 46 12 98 31 52 19 100 35 107 35 15 0 15 -16 2 -96 -5 -33 -16
-118 -24 -188 l-14 -127 -78 -82 c-93 -97 -134 -172 -141 -258 l-6 -59 104
-103 103 -102 7 -185 c4 -102 12 -239 19 -305 27 -291 101 -787 151 -1018 l22
-97 1023 0 c563 0 1024 4 1024 8 0 4 -29 37 -65 72 -66 66 -97 107 -109 146
-6 19 2 25 71 54 107 44 204 94 290 147 40 25 77 42 83 38 5 -3 10 -23 11 -43
0 -20 4 -55 9 -77 6 -28 7 -12 3 51 l-6 90 69 54 c38 30 90 74 116 98 39 36
49 41 54 28 3 -9 4 -89 2 -178 -6 -187 -24 -266 -111 -468 -1 -3 3 -7 8 -10 6
-3 20 22 33 55 32 84 52 125 59 125 3 0 3 -41 1 -90 -3 -50 -4 -89 -1 -86 33
33 54 392 34 586 l-10 105 29 40 c117 156 169 268 191 405 29 187 -60 485
-203 681 l-50 69 45 88 c80 155 129 329 147 517 5 61 10 121 10 135 0 54 20
-1 44 -120 18 -95 28 -197 40 -420 51 -936 42 -1381 -33 -1695 -11 -44 -18
-81 -16 -83 5 -6 65 192 80 267 51 244 50 898 -1 1416 -12 117 -13 171 -6 198
8 28 5 73 -13 194 -18 126 -90 480 -99 490 -1 2 -10 -86 -20 -195 -22 -237
-48 -398 -82 -510 -35 -115 -114 -279 -158 -327 l-36 -40 6 45 c4 25 13 54 20
65 8 11 25 36 39 55 50 72 67 205 44 353 -16 105 -41 142 -134 199 -40 25 -40
27 -73 158 -19 72 -31 134 -29 136 6 6 236 -45 260 -58 10 -5 21 -7 24 -5 2 3
-24 19 -59 35 -59 28 -100 42 -208 75 -41 13 -46 18 -69 73 -69 169 -110 257
-155 334 -65 113 -76 123 -28 25 44 -89 133 -299 152 -357 12 -41 6 -62 -16
-54 -61 24 -318 24 -429 1 -44 -9 -86 -17 -94 -18 -29 -4 -213 240 -280 372
-21 40 -22 48 -11 108 13 80 8 91 -14 26 -133 -407 -77 -988 131 -1360 26 -46
48 -81 50 -79 2 1 -10 32 -26 67 -48 108 -119 328 -140 439 -32 169 -45 355
-37 555 9 257 15 275 62 183 33 -64 110 -180 177 -267 l50 -64 -26 -19 c-14
-10 -36 -28 -49 -39 l-23 -20 25 12 c14 7 43 16 65 20 l39 7 118 -110 c65 -61
118 -114 118 -118 0 -5 -42 -24 -92 -44 -87 -34 -140 -63 -199 -111 -32 -26
-111 -126 -105 -133 3 -2 28 16 55 41 75 66 249 131 412 152 52 7 54 5 184
-109 123 -107 133 -115 89 -65 -23 25 -45 52 -50 60 -5 8 -30 33 -56 54 -54
45 -60 60 -20 52 134 -27 211 -51 224 -71 4 -6 11 -38 14 -71 7 -60 7 -60 17
-25 l10 35 8 -30 c12 -39 31 -301 25 -323 -3 -9 -8 -62 -11 -116 -3 -54 -8
-104 -12 -110 -3 -6 21 15 53 47 33 31 62 57 65 57 12 0 87 -117 127 -195 53
-106 78 -191 97 -328 23 -165 4 -280 -71 -427 -36 -72 -161 -225 -239 -294
-143 -125 -426 -293 -558 -331 -32 -9 -97 -32 -145 -52 -163 -65 -227 -84
-369 -108 -204 -36 -226 -34 -390 26 -403 148 -827 275 -1017 306 -60 10 -56
-3 -90 257 -45 337 -79 846 -57 846 7 0 31 -13 54 -28 67 -45 67 -44 0 24
l-63 66 0 171 0 172 123 117 c67 65 140 126 162 137 60 29 258 54 389 49 l110
-5 -32 27 c-45 37 -132 63 -234 68 -49 2 -88 7 -88 9 0 3 34 42 76 86 42 45
106 119 142 165 l67 83 85 -6 c77 -5 83 -5 64 9 -11 8 -39 22 -62 32 -23 9
-42 19 -42 23 0 4 17 32 38 62 22 30 56 84 76 121 21 37 41 70 44 72 4 2 7
-64 7 -147 1 -173 13 -231 74 -363 67 -142 134 -236 280 -388 84 -87 220 -183
309 -217 33 -12 90 -24 135 -27 59 -3 77 -8 77 -20 0 -29 65 -145 108 -193 45
-50 92 -80 146 -93 39 -10 132 11 184 40 56 33 118 112 137 176 21 72 18 83
-6 22 -59 -155 -239 -240 -368 -175 -137 70 -222 332 -158 484 l16 37 33 -20
c41 -25 74 -25 114 -1 62 38 94 129 70 199 -8 20 -5 22 28 22 105 0 208 -92
263 -235 21 -54 23 -56 18 -20 -14 97 -109 225 -195 264 -61 28 -140 27 -199
-1 l-46 -22 35 -7 c44 -9 60 -32 60 -85 0 -34 -5 -47 -26 -63 -15 -12 -39 -21
-54 -21 -38 0 -80 35 -80 68 l-1 27 -24 -30 c-44 -53 -67 -130 -68 -233 -2
-69 -5 -91 -14 -87 -7 2 -13 0 -13 -5 0 -29 -163 12 -245 62 -134 82 -286 237
-402 411 -115 171 -153 300 -153 509 0 170 11 231 75 419 52 157 92 315 82
325 -3 3 -24 -52 -48 -123z m1381 -689 c10 -10 70 -214 70 -239 0 -18 -4 -18
-50 -5 -68 20 -154 27 -233 19 -63 -6 -84 -5 -101 6 -46 33 -206 187 -206 200
0 9 19 16 58 20 31 4 62 8 67 10 22 9 385 -1 395 -11z m-1813 -121 c5 -13 -66
-100 -199 -244 -82 -89 -93 -97 -148 -112 -33 -10 -65 -17 -71 -17 -6 0 33 46
86 103 54 56 122 136 151 178 30 42 60 81 66 87 28 22 108 26 115 5z m-141 -8
c-11 -29 -165 -221 -238 -296 -71 -74 -199 -169 -227 -169 -15 0 -11 86 10
240 23 165 17 153 79 173 30 10 68 20 85 21 16 2 38 6 48 11 19 8 174 32 221
34 21 1 27 -3 22 -14z m2153 -324 c29 -18 42 -248 19 -326 -11 -38 -12 -35
-25 90 -7 72 -17 152 -23 178 -5 26 -10 52 -10 57 0 12 20 13 39 1z m-2506
-215 c-9 -17 -122 -136 -129 -136 -2 0 -4 15 -4 33 0 37 12 50 80 90 51 30 65
33 53 13z m-163 -209 c0 -63 -3 -149 -6 -191 -7 -73 -8 -76 -25 -60 -11 9 -46
57 -80 106 -42 62 -58 94 -54 108 6 20 141 150 156 150 5 0 9 -51 9 -113z"/>
<path d="M1680 3970 c-6 -11 -8 -20 -6 -20 3 0 10 9 16 20 6 11 8 20 6 20 -3
0 -10 -9 -16 -20z"/>
<path d="M1608 3838 c-63 -121 -104 -234 -148 -403 -72 -282 -93 -494 -94
-975 l-1 -365 -48 -44 c-92 -85 -167 -264 -167 -398 0 -107 65 -271 143 -360
l30 -34 -1 -362 c0 -199 3 -384 7 -412 l8 -50 1 45 c1 25 3 194 4 377 2 182 6
335 11 339 4 4 18 -3 32 -16 l25 -24 0 -354 c-1 -195 1 -356 3 -358 8 -8 27
212 38 426 14 285 6 611 -27 1090 -62 895 -9 1408 191 1862 24 54 41 98 39 98
-2 0 -23 -37 -46 -82z m-224 -1865 c23 -277 34 -743 18 -743 -12 0 -76 70
-111 122 -123 183 -141 361 -54 536 38 76 105 162 128 162 9 0 15 -23 19 -77z"/>
<path d="M4196 3805 c9 -14 18 -25 20 -25 2 0 -2 11 -8 25 -6 14 -15 25 -20
25 -5 0 -1 -11 8 -25z"/>
<path d="M2250 3680 c-6 -11 -8 -20 -6 -20 3 0 10 9 16 20 6 11 8 20 6 20 -3
0 -10 -9 -16 -20z"/>
<path d="M863 3400 c0 -30 2 -43 4 -27 2 15 2 39 0 55 -2 15 -4 2 -4 -28z"/>
<path d="M872 3280 c0 -14 2 -19 5 -12 2 6 2 18 0 25 -3 6 -5 1 -5 -13z"/>
<path d="M861 2964 c0 -11 3 -14 6 -6 3 7 2 16 -1 19 -3 4 -6 -2 -5 -13z"/>
<path d="M990 2885 c0 -5 5 -17 10 -25 5 -8 10 -10 10 -5 0 6 -5 17 -10 25 -5
8 -10 11 -10 5z"/>
<path d="M5047 2751 c-4 -18 -7 -48 -6 -65 1 -29 1 -29 10 9 6 22 8 51 7 65
-3 22 -4 21 -11 -9z"/>
<path d="M1140 2611 c5 -11 15 -23 21 -27 6 -3 3 5 -6 20 -20 30 -30 35 -15 7z"/>
<path d="M2393 2589 c-57 -22 -64 -32 -34 -49 11 -5 27 -30 36 -55 32 -82 1
-155 -65 -155 -31 0 -68 36 -89 89 -8 17 -17 31 -21 31 -9 0 -44 -79 -59 -135
-25 -91 -8 -215 44 -321 49 -100 153 -182 251 -198 52 -9 155 9 208 36 61 31
141 118 160 174 24 72 19 74 -15 6 -52 -105 -162 -174 -286 -180 -63 -4 -79
-1 -129 24 -92 47 -158 138 -190 267 -19 74 -14 165 12 219 l17 38 35 -40 c25
-30 41 -40 63 -40 70 0 105 51 95 142 -3 32 -11 67 -18 78 -11 18 -10 23 6 35
26 19 116 29 160 17 117 -33 199 -121 258 -277 18 -48 19 -49 13 -11 -18 114
-104 235 -206 290 -71 39 -171 45 -246 15z"/>
<path d="M4381 2444 c0 -11 3 -14 6 -6 3 7 2 16 -1 19 -3 4 -6 -2 -5 -13z"/>
<path d="M4382 2310 c0 -19 2 -27 5 -17 2 9 2 25 0 35 -3 9 -5 1 -5 -18z"/>
<path d="M801 1984 c0 -11 3 -14 6 -6 3 7 2 16 -1 19 -3 4 -6 -2 -5 -13z"/>
<path d="M4496 1964 c-17 -25 -166 -343 -166 -354 0 -3 34 58 76 135 85 154
146 306 90 219z"/>
<path d="M3650 1952 c6 -13 14 -21 18 -18 3 4 -2 14 -12 24 -18 16 -18 16 -6
-6z"/>
<path d="M776 1873 c-29 -163 -71 -640 -50 -569 4 13 8 15 13 7 4 -7 6 23 3
66 -3 53 6 157 28 326 32 251 35 332 6 170z"/>
<path d="M4325 1869 c-58 -88 -101 -169 -90 -169 14 0 131 197 122 206 -2 3
-17 -14 -32 -37z"/>
<path d="M4760 1739 c-12 -23 -20 -43 -18 -45 3 -2 14 17 26 41 27 56 20 60
-8 4z"/>
<path d="M4666 1753 c-6 -14 -5 -15 5 -6 7 7 10 15 7 18 -3 3 -9 -2 -12 -12z"/>
<path d="M4639 1708 c-7 -13 -19 -34 -27 -48 -14 -24 -13 -24 3 -5 20 24 48
75 41 75 -3 0 -11 -10 -17 -22z"/>
<path d="M2542 1663 c-36 -56 -106 -203 -99 -209 5 -6 109 169 127 214 20 51
6 48 -28 -5z"/>
<path d="M2158 1617 c-20 -34 -43 -78 -53 -97 l-16 -35 20 25 c25 31 94 160
89 165 -2 3 -20 -24 -40 -58z"/>
<path d="M2428 1638 c-14 -19 -49 -81 -77 -138 l-52 -105 36 40 c37 41 133
221 123 230 -3 3 -17 -9 -30 -27z"/>
<path d="M4481 1633 c-10 -26 -10 -27 4 -9 8 11 15 23 15 28 0 15 -7 8 -19
-19z"/>
<path d="M2269 1607 c-26 -33 -114 -187 -106 -187 6 0 92 132 116 178 12 23
20 42 19 42 -2 0 -15 -15 -29 -33z"/>
<path d="M2656 1623 c-6 -14 -5 -15 5 -6 7 7 10 15 7 18 -3 3 -9 -2 -12 -12z"/>
<path d="M4000 1578 c-92 -21 -197 -23 -270 -3 -70 19 -128 19 -210 -1 -112
-26 -331 -54 -432 -54 -53 0 -99 -4 -103 -9 -15 -25 152 -35 305 -17 141 16
147 15 355 -55 220 -74 415 -187 415 -241 0 -36 -61 -145 -120 -215 -69 -82
-167 -142 -285 -174 -108 -30 -321 -32 -410 -5 -167 50 -251 139 -295 312 -24
93 -27 263 -6 342 8 28 11 52 7 52 -11 0 -28 -63 -47 -174 -14 -84 -15 -114
-5 -192 15 -124 44 -194 110 -266 109 -118 260 -161 499 -139 169 15 250 43
379 129 75 50 154 160 190 265 25 75 28 93 27 222 -1 85 -7 160 -15 191 l-14
50 -75 -18z"/>
<path d="M2612 1535 c-17 -37 -14 -45 4 -12 9 16 14 31 11 33 -2 2 -9 -7 -15
-21z"/>
<path d="M901 1358 c-1 -84 27 -233 69 -358 27 -83 32 -116 40 -255 5 -88 13
-171 19 -185 9 -21 10 -17 6 25 -2 28 -7 95 -10 150 -7 99 -7 100 13 80 11
-11 41 -60 66 -110 26 -49 57 -99 68 -110 15 -14 12 -4 -11 35 -63 107 -121
238 -166 371 -38 115 -53 182 -88 399 -2 14 -5 -5 -6 -42z"/>
<path d="M1592 1343 c-4 -64 -62 -501 -82 -613 -21 -121 -23 -136 -15 -129 2
3 18 67 35 144 17 77 33 141 35 143 1 2 17 -43 35 -100 41 -133 109 -308 120
-308 4 0 20 -20 34 -45 15 -25 31 -45 36 -45 6 0 10 2 10 3 0 2 -34 74 -75
160 -41 85 -93 210 -115 277 l-41 122 16 157 c9 86 15 181 12 211 -2 30 -4 41
-5 23z"/>
<path d="M747 1250 c3 -11 7 -20 9 -20 2 0 4 9 4 20 0 11 -4 20 -9 20 -5 0 -7
-9 -4 -20z"/>
<path d="M761 1213 c-2 -24 39 -180 73 -284 31 -92 94 -237 96 -217 0 6 -40
116 -87 236 -13 35 -37 111 -53 170 -16 59 -29 102 -29 95z"/>
<path d="M1151 994 c0 -11 3 -14 6 -6 3 7 2 16 -1 19 -3 4 -6 -2 -5 -13z"/>
<path d="M1167 884 c7 -48 27 -144 44 -213 16 -69 27 -131 25 -137 -3 -7 4
-24 15 -37 10 -14 19 -31 19 -39 1 -7 7 -24 15 -38 21 -36 19 -5 -4 71 -28 94
-55 198 -86 339 -34 149 -48 176 -28 54z"/>
<path d="M1805 902 c8 -23 19 -97 25 -164 9 -109 45 -316 56 -327 6 -6 5 0
-16 164 -11 83 -20 161 -20 175 l0 25 20 -25 c25 -32 25 -20 1 28 -10 20 -24
55 -31 78 -7 22 -21 51 -31 65 l-19 24 15 -43z"/>
<path d="M930 696 c0 -12 52 -127 57 -123 2 2 -10 33 -26 68 -17 35 -30 60
-31 55z"/>
<path d="M1931 643 c29 -57 31 -69 27 -127 -3 -35 -13 -75 -22 -87 -9 -13 -16
-27 -16 -31 0 -5 43 -8 95 -8 52 0 95 3 95 6 0 3 -17 27 -39 53 -21 25 -62 85
-92 132 -76 123 -84 132 -48 62z"/>
<path d="M4916 643 c-30 -62 -47 -103 -41 -103 8 0 66 121 63 132 -2 5 -12 -8
-22 -29z"/>
<path d="M4496 638 c-3 -17 -4 -33 -1 -36 3 -3 5 0 5 7 0 7 5 9 10 6 6 -3 10
5 10 19 0 37 -17 40 -24 4z"/>
<path d="M4855 519 c-4 -6 -5 -12 -2 -15 2 -3 7 2 10 11 7 17 1 20 -8 4z"/>
<path d="M1432 420 c-7 -11 -8 -20 -3 -20 9 0 24 30 18 36 -1 2 -8 -6 -15 -16z"/>
</g>
</svg>
